<?xml version="1.0" encoding="utf-8" standalone="no"?>
<!DOCTYPE svg PUBLIC "-//W3C//DTD SVG 1.1//EN"
  "http://www.w3.org/Graphics/SVG/1.1/DTD/svg11.dtd">
<svg height="265.995469pt" version="1.1" viewBox="0 0 422.4125 265.995469" width="422.4125pt" xmlns="http://www.w3.org/2000/svg" xmlns:xlink="http://www.w3.org/1999/xlink">
 <metadata>
  <rdf:RDF xmlns:cc="http://creativecommons.org/ns#" xmlns:dc="http://purl.org/dc/elements/1.1/" xmlns:rdf="http://www.w3.org/1999/02/22-rdf-syntax-ns#">
   <cc:Work>
    <dc:type rdf:resource="http://purl.org/dc/dcmitype/StillImage"/>
    <dc:date>2021-05-29T11:13:43.547588</dc:date>
    <dc:format>image/svg+xml</dc:format>
    <dc:creator>
     <cc:Agent>
      <dc:title>Matplotlib v3.4.2, https://matplotlib.org/</dc:title>
     </cc:Agent>
    </dc:creator>
   </cc:Work>
  </rdf:RDF>
 </metadata>
 <defs>
  <style type="text/css">*{stroke-linecap:butt;stroke-linejoin:round;}</style>
 </defs>
 <g id="figure_1">
  <g id="patch_1">
   <path d="M 0 265.995469 
L 422.4125 265.995469 
L 422.4125 0 
L 0 0 
z
" style="fill:none;"/>
  </g>
  <g id="axes_1">
   <g id="patch_2">
    <path d="M 40.625 228.439219 
L 375.425 228.439219 
L 375.425 10.999219 
L 40.625 10.999219 
z
" style="fill:#ffffff;"/>
   </g>
   <g id="matplotlib.axis_1">
    <g id="xtick_1">
     <g id="line2d_1">
      <defs>
       <path d="M 0 0 
L 0 3.5 
" id="m57c4eb05c6" style="stroke:#000000;stroke-width:0.8;"/>
      </defs>
      <g>
       <use style="stroke:#000000;stroke-width:0.8;" x="55.843182" xlink:href="#m57c4eb05c6" y="228.439219"/>
      </g>
     </g>
     <g id="text_1">
      <!-- 0 -->
      <g transform="translate(52.661932 243.037656)scale(0.1 -0.1)">
       <defs>
        <path d="M 2034 4250 
Q 1547 4250 1301 3770 
Q 1056 3291 1056 2328 
Q 1056 1369 1301 889 
Q 1547 409 2034 409 
Q 2525 409 2770 889 
Q 3016 1369 3016 2328 
Q 3016 3291 2770 3770 
Q 2525 4250 2034 4250 
z
M 2034 4750 
Q 2819 4750 3233 4129 
Q 3647 3509 3647 2328 
Q 3647 1150 3233 529 
Q 2819 -91 2034 -91 
Q 1250 -91 836 529 
Q 422 1150 422 2328 
Q 422 3509 836 4129 
Q 1250 4750 2034 4750 
z
" id="DejaVuSans-30" transform="scale(0.015625)"/>
       </defs>
       <use xlink:href="#DejaVuSans-30"/>
      </g>
     </g>
    </g>
    <g id="xtick_2">
     <g id="line2d_2">
      <g>
       <use style="stroke:#000000;stroke-width:0.8;" x="102.668357" xlink:href="#m57c4eb05c6" y="228.439219"/>
      </g>
     </g>
     <g id="text_2">
      <!-- 2 -->
      <g transform="translate(99.487107 243.037656)scale(0.1 -0.1)">
       <defs>
        <path d="M 1228 531 
L 3431 531 
L 3431 0 
L 469 0 
L 469 531 
Q 828 903 1448 1529 
Q 2069 2156 2228 2338 
Q 2531 2678 2651 2914 
Q 2772 3150 2772 3378 
Q 2772 3750 2511 3984 
Q 2250 4219 1831 4219 
Q 1534 4219 1204 4116 
Q 875 4013 500 3803 
L 500 4441 
Q 881 4594 1212 4672 
Q 1544 4750 1819 4750 
Q 2544 4750 2975 4387 
Q 3406 4025 3406 3419 
Q 3406 3131 3298 2873 
Q 3191 2616 2906 2266 
Q 2828 2175 2409 1742 
Q 1991 1309 1228 531 
z
" id="DejaVuSans-32" transform="scale(0.015625)"/>
       </defs>
       <use xlink:href="#DejaVuSans-32"/>
      </g>
     </g>
    </g>
    <g id="xtick_3">
     <g id="line2d_3">
      <g>
       <use style="stroke:#000000;stroke-width:0.8;" x="149.493531" xlink:href="#m57c4eb05c6" y="228.439219"/>
      </g>
     </g>
     <g id="text_3">
      <!-- 4 -->
      <g transform="translate(146.312281 243.037656)scale(0.1 -0.1)">
       <defs>
        <path d="M 2419 4116 
L 825 1625 
L 2419 1625 
L 2419 4116 
z
M 2253 4666 
L 3047 4666 
L 3047 1625 
L 3713 1625 
L 3713 1100 
L 3047 1100 
L 3047 0 
L 2419 0 
L 2419 1100 
L 313 1100 
L 313 1709 
L 2253 4666 
z
" id="DejaVuSans-34" transform="scale(0.015625)"/>
       </defs>
       <use xlink:href="#DejaVuSans-34"/>
      </g>
     </g>
    </g>
    <g id="xtick_4">
     <g id="line2d_4">
      <g>
       <use style="stroke:#000000;stroke-width:0.8;" x="196.318706" xlink:href="#m57c4eb05c6" y="228.439219"/>
      </g>
     </g>
     <g id="text_4">
      <!-- 6 -->
      <g transform="translate(193.137456 243.037656)scale(0.1 -0.1)">
       <defs>
        <path d="M 2113 2584 
Q 1688 2584 1439 2293 
Q 1191 2003 1191 1497 
Q 1191 994 1439 701 
Q 1688 409 2113 409 
Q 2538 409 2786 701 
Q 3034 994 3034 1497 
Q 3034 2003 2786 2293 
Q 2538 2584 2113 2584 
z
M 3366 4563 
L 3366 3988 
Q 3128 4100 2886 4159 
Q 2644 4219 2406 4219 
Q 1781 4219 1451 3797 
Q 1122 3375 1075 2522 
Q 1259 2794 1537 2939 
Q 1816 3084 2150 3084 
Q 2853 3084 3261 2657 
Q 3669 2231 3669 1497 
Q 3669 778 3244 343 
Q 2819 -91 2113 -91 
Q 1303 -91 875 529 
Q 447 1150 447 2328 
Q 447 3434 972 4092 
Q 1497 4750 2381 4750 
Q 2619 4750 2861 4703 
Q 3103 4656 3366 4563 
z
" id="DejaVuSans-36" transform="scale(0.015625)"/>
       </defs>
       <use xlink:href="#DejaVuSans-36"/>
      </g>
     </g>
    </g>
    <g id="xtick_5">
     <g id="line2d_5">
      <g>
       <use style="stroke:#000000;stroke-width:0.8;" x="243.143881" xlink:href="#m57c4eb05c6" y="228.439219"/>
      </g>
     </g>
     <g id="text_5">
      <!-- 8 -->
      <g transform="translate(239.962631 243.037656)scale(0.1 -0.1)">
       <defs>
        <path d="M 2034 2216 
Q 1584 2216 1326 1975 
Q 1069 1734 1069 1313 
Q 1069 891 1326 650 
Q 1584 409 2034 409 
Q 2484 409 2743 651 
Q 3003 894 3003 1313 
Q 3003 1734 2745 1975 
Q 2488 2216 2034 2216 
z
M 1403 2484 
Q 997 2584 770 2862 
Q 544 3141 544 3541 
Q 544 4100 942 4425 
Q 1341 4750 2034 4750 
Q 2731 4750 3128 4425 
Q 3525 4100 3525 3541 
Q 3525 3141 3298 2862 
Q 3072 2584 2669 2484 
Q 3125 2378 3379 2068 
Q 3634 1759 3634 1313 
Q 3634 634 3220 271 
Q 2806 -91 2034 -91 
Q 1263 -91 848 271 
Q 434 634 434 1313 
Q 434 1759 690 2068 
Q 947 2378 1403 2484 
z
M 1172 3481 
Q 1172 3119 1398 2916 
Q 1625 2713 2034 2713 
Q 2441 2713 2670 2916 
Q 2900 3119 2900 3481 
Q 2900 3844 2670 4047 
Q 2441 4250 2034 4250 
Q 1625 4250 1398 4047 
Q 1172 3844 1172 3481 
z
" id="DejaVuSans-38" transform="scale(0.015625)"/>
       </defs>
       <use xlink:href="#DejaVuSans-38"/>
      </g>
     </g>
    </g>
    <g id="xtick_6">
     <g id="line2d_6">
      <g>
       <use style="stroke:#000000;stroke-width:0.8;" x="289.969056" xlink:href="#m57c4eb05c6" y="228.439219"/>
      </g>
     </g>
     <g id="text_6">
      <!-- 10 -->
      <g transform="translate(283.606556 243.037656)scale(0.1 -0.1)">
       <defs>
        <path d="M 794 531 
L 1825 531 
L 1825 4091 
L 703 3866 
L 703 4441 
L 1819 4666 
L 2450 4666 
L 2450 531 
L 3481 531 
L 3481 0 
L 794 0 
L 794 531 
z
" id="DejaVuSans-31" transform="scale(0.015625)"/>
       </defs>
       <use xlink:href="#DejaVuSans-31"/>
       <use x="63.623047" xlink:href="#DejaVuSans-30"/>
      </g>
     </g>
    </g>
    <g id="xtick_7">
     <g id="line2d_7">
      <g>
       <use style="stroke:#000000;stroke-width:0.8;" x="336.794231" xlink:href="#m57c4eb05c6" y="228.439219"/>
      </g>
     </g>
     <g id="text_7">
      <!-- 12 -->
      <g transform="translate(330.431731 243.037656)scale(0.1 -0.1)">
       <use xlink:href="#DejaVuSans-31"/>
       <use x="63.623047" xlink:href="#DejaVuSans-32"/>
      </g>
     </g>
    </g>
    <g id="text_8">
     <!-- Sample distance [mm] -->
     <g transform="translate(151.269531 256.715781)scale(0.1 -0.1)">
      <defs>
       <path d="M 3425 4513 
L 3425 3897 
Q 3066 4069 2747 4153 
Q 2428 4238 2131 4238 
Q 1616 4238 1336 4038 
Q 1056 3838 1056 3469 
Q 1056 3159 1242 3001 
Q 1428 2844 1947 2747 
L 2328 2669 
Q 3034 2534 3370 2195 
Q 3706 1856 3706 1288 
Q 3706 609 3251 259 
Q 2797 -91 1919 -91 
Q 1588 -91 1214 -16 
Q 841 59 441 206 
L 441 856 
Q 825 641 1194 531 
Q 1563 422 1919 422 
Q 2459 422 2753 634 
Q 3047 847 3047 1241 
Q 3047 1584 2836 1778 
Q 2625 1972 2144 2069 
L 1759 2144 
Q 1053 2284 737 2584 
Q 422 2884 422 3419 
Q 422 4038 858 4394 
Q 1294 4750 2059 4750 
Q 2388 4750 2728 4690 
Q 3069 4631 3425 4513 
z
" id="DejaVuSans-53" transform="scale(0.015625)"/>
       <path d="M 2194 1759 
Q 1497 1759 1228 1600 
Q 959 1441 959 1056 
Q 959 750 1161 570 
Q 1363 391 1709 391 
Q 2188 391 2477 730 
Q 2766 1069 2766 1631 
L 2766 1759 
L 2194 1759 
z
M 3341 1997 
L 3341 0 
L 2766 0 
L 2766 531 
Q 2569 213 2275 61 
Q 1981 -91 1556 -91 
Q 1019 -91 701 211 
Q 384 513 384 1019 
Q 384 1609 779 1909 
Q 1175 2209 1959 2209 
L 2766 2209 
L 2766 2266 
Q 2766 2663 2505 2880 
Q 2244 3097 1772 3097 
Q 1472 3097 1187 3025 
Q 903 2953 641 2809 
L 641 3341 
Q 956 3463 1253 3523 
Q 1550 3584 1831 3584 
Q 2591 3584 2966 3190 
Q 3341 2797 3341 1997 
z
" id="DejaVuSans-61" transform="scale(0.015625)"/>
       <path d="M 3328 2828 
Q 3544 3216 3844 3400 
Q 4144 3584 4550 3584 
Q 5097 3584 5394 3201 
Q 5691 2819 5691 2113 
L 5691 0 
L 5113 0 
L 5113 2094 
Q 5113 2597 4934 2840 
Q 4756 3084 4391 3084 
Q 3944 3084 3684 2787 
Q 3425 2491 3425 1978 
L 3425 0 
L 2847 0 
L 2847 2094 
Q 2847 2600 2669 2842 
Q 2491 3084 2119 3084 
Q 1678 3084 1418 2786 
Q 1159 2488 1159 1978 
L 1159 0 
L 581 0 
L 581 3500 
L 1159 3500 
L 1159 2956 
Q 1356 3278 1631 3431 
Q 1906 3584 2284 3584 
Q 2666 3584 2933 3390 
Q 3200 3197 3328 2828 
z
" id="DejaVuSans-6d" transform="scale(0.015625)"/>
       <path d="M 1159 525 
L 1159 -1331 
L 581 -1331 
L 581 3500 
L 1159 3500 
L 1159 2969 
Q 1341 3281 1617 3432 
Q 1894 3584 2278 3584 
Q 2916 3584 3314 3078 
Q 3713 2572 3713 1747 
Q 3713 922 3314 415 
Q 2916 -91 2278 -91 
Q 1894 -91 1617 61 
Q 1341 213 1159 525 
z
M 3116 1747 
Q 3116 2381 2855 2742 
Q 2594 3103 2138 3103 
Q 1681 3103 1420 2742 
Q 1159 2381 1159 1747 
Q 1159 1113 1420 752 
Q 1681 391 2138 391 
Q 2594 391 2855 752 
Q 3116 1113 3116 1747 
z
" id="DejaVuSans-70" transform="scale(0.015625)"/>
       <path d="M 603 4863 
L 1178 4863 
L 1178 0 
L 603 0 
L 603 4863 
z
" id="DejaVuSans-6c" transform="scale(0.015625)"/>
       <path d="M 3597 1894 
L 3597 1613 
L 953 1613 
Q 991 1019 1311 708 
Q 1631 397 2203 397 
Q 2534 397 2845 478 
Q 3156 559 3463 722 
L 3463 178 
Q 3153 47 2828 -22 
Q 2503 -91 2169 -91 
Q 1331 -91 842 396 
Q 353 884 353 1716 
Q 353 2575 817 3079 
Q 1281 3584 2069 3584 
Q 2775 3584 3186 3129 
Q 3597 2675 3597 1894 
z
M 3022 2063 
Q 3016 2534 2758 2815 
Q 2500 3097 2075 3097 
Q 1594 3097 1305 2825 
Q 1016 2553 972 2059 
L 3022 2063 
z
" id="DejaVuSans-65" transform="scale(0.015625)"/>
       <path id="DejaVuSans-20" transform="scale(0.015625)"/>
       <path d="M 2906 2969 
L 2906 4863 
L 3481 4863 
L 3481 0 
L 2906 0 
L 2906 525 
Q 2725 213 2448 61 
Q 2172 -91 1784 -91 
Q 1150 -91 751 415 
Q 353 922 353 1747 
Q 353 2572 751 3078 
Q 1150 3584 1784 3584 
Q 2172 3584 2448 3432 
Q 2725 3281 2906 2969 
z
M 947 1747 
Q 947 1113 1208 752 
Q 1469 391 1925 391 
Q 2381 391 2643 752 
Q 2906 1113 2906 1747 
Q 2906 2381 2643 2742 
Q 2381 3103 1925 3103 
Q 1469 3103 1208 2742 
Q 947 2381 947 1747 
z
" id="DejaVuSans-64" transform="scale(0.015625)"/>
       <path d="M 603 3500 
L 1178 3500 
L 1178 0 
L 603 0 
L 603 3500 
z
M 603 4863 
L 1178 4863 
L 1178 4134 
L 603 4134 
L 603 4863 
z
" id="DejaVuSans-69" transform="scale(0.015625)"/>
       <path d="M 2834 3397 
L 2834 2853 
Q 2591 2978 2328 3040 
Q 2066 3103 1784 3103 
Q 1356 3103 1142 2972 
Q 928 2841 928 2578 
Q 928 2378 1081 2264 
Q 1234 2150 1697 2047 
L 1894 2003 
Q 2506 1872 2764 1633 
Q 3022 1394 3022 966 
Q 3022 478 2636 193 
Q 2250 -91 1575 -91 
Q 1294 -91 989 -36 
Q 684 19 347 128 
L 347 722 
Q 666 556 975 473 
Q 1284 391 1588 391 
Q 1994 391 2212 530 
Q 2431 669 2431 922 
Q 2431 1156 2273 1281 
Q 2116 1406 1581 1522 
L 1381 1569 
Q 847 1681 609 1914 
Q 372 2147 372 2553 
Q 372 3047 722 3315 
Q 1072 3584 1716 3584 
Q 2034 3584 2315 3537 
Q 2597 3491 2834 3397 
z
" id="DejaVuSans-73" transform="scale(0.015625)"/>
       <path d="M 1172 4494 
L 1172 3500 
L 2356 3500 
L 2356 3053 
L 1172 3053 
L 1172 1153 
Q 1172 725 1289 603 
Q 1406 481 1766 481 
L 2356 481 
L 2356 0 
L 1766 0 
Q 1100 0 847 248 
Q 594 497 594 1153 
L 594 3053 
L 172 3053 
L 172 3500 
L 594 3500 
L 594 4494 
L 1172 4494 
z
" id="DejaVuSans-74" transform="scale(0.015625)"/>
       <path d="M 3513 2113 
L 3513 0 
L 2938 0 
L 2938 2094 
Q 2938 2591 2744 2837 
Q 2550 3084 2163 3084 
Q 1697 3084 1428 2787 
Q 1159 2491 1159 1978 
L 1159 0 
L 581 0 
L 581 3500 
L 1159 3500 
L 1159 2956 
Q 1366 3272 1645 3428 
Q 1925 3584 2291 3584 
Q 2894 3584 3203 3211 
Q 3513 2838 3513 2113 
z
" id="DejaVuSans-6e" transform="scale(0.015625)"/>
       <path d="M 3122 3366 
L 3122 2828 
Q 2878 2963 2633 3030 
Q 2388 3097 2138 3097 
Q 1578 3097 1268 2742 
Q 959 2388 959 1747 
Q 959 1106 1268 751 
Q 1578 397 2138 397 
Q 2388 397 2633 464 
Q 2878 531 3122 666 
L 3122 134 
Q 2881 22 2623 -34 
Q 2366 -91 2075 -91 
Q 1284 -91 818 406 
Q 353 903 353 1747 
Q 353 2603 823 3093 
Q 1294 3584 2113 3584 
Q 2378 3584 2631 3529 
Q 2884 3475 3122 3366 
z
" id="DejaVuSans-63" transform="scale(0.015625)"/>
       <path d="M 550 4863 
L 1875 4863 
L 1875 4416 
L 1125 4416 
L 1125 -397 
L 1875 -397 
L 1875 -844 
L 550 -844 
L 550 4863 
z
" id="DejaVuSans-5b" transform="scale(0.015625)"/>
       <path d="M 1947 4863 
L 1947 -844 
L 622 -844 
L 622 -397 
L 1369 -397 
L 1369 4416 
L 622 4416 
L 622 4863 
L 1947 4863 
z
" id="DejaVuSans-5d" transform="scale(0.015625)"/>
      </defs>
      <use xlink:href="#DejaVuSans-53"/>
      <use x="63.476562" xlink:href="#DejaVuSans-61"/>
      <use x="124.755859" xlink:href="#DejaVuSans-6d"/>
      <use x="222.167969" xlink:href="#DejaVuSans-70"/>
      <use x="285.644531" xlink:href="#DejaVuSans-6c"/>
      <use x="313.427734" xlink:href="#DejaVuSans-65"/>
      <use x="374.951172" xlink:href="#DejaVuSans-20"/>
      <use x="406.738281" xlink:href="#DejaVuSans-64"/>
      <use x="470.214844" xlink:href="#DejaVuSans-69"/>
      <use x="497.998047" xlink:href="#DejaVuSans-73"/>
      <use x="550.097656" xlink:href="#DejaVuSans-74"/>
      <use x="589.306641" xlink:href="#DejaVuSans-61"/>
      <use x="650.585938" xlink:href="#DejaVuSans-6e"/>
      <use x="713.964844" xlink:href="#DejaVuSans-63"/>
      <use x="768.945312" xlink:href="#DejaVuSans-65"/>
      <use x="830.46875" xlink:href="#DejaVuSans-20"/>
      <use x="862.255859" xlink:href="#DejaVuSans-5b"/>
      <use x="901.269531" xlink:href="#DejaVuSans-6d"/>
      <use x="998.681641" xlink:href="#DejaVuSans-6d"/>
      <use x="1096.09375" xlink:href="#DejaVuSans-5d"/>
     </g>
    </g>
   </g>
   <g id="matplotlib.axis_2">
    <g id="ytick_1">
     <g id="line2d_8">
      <defs>
       <path d="M 0 0 
L -3.5 0 
" id="mc05f94e497" style="stroke:#000000;stroke-width:0.8;"/>
      </defs>
      <g>
       <use style="stroke:#000000;stroke-width:0.8;" x="40.625" xlink:href="#mc05f94e497" y="199.569048"/>
      </g>
     </g>
     <g id="text_9">
      <!-- 38 -->
      <g transform="translate(20.9 203.368267)scale(0.1 -0.1)">
       <defs>
        <path d="M 2597 2516 
Q 3050 2419 3304 2112 
Q 3559 1806 3559 1356 
Q 3559 666 3084 287 
Q 2609 -91 1734 -91 
Q 1441 -91 1130 -33 
Q 819 25 488 141 
L 488 750 
Q 750 597 1062 519 
Q 1375 441 1716 441 
Q 2309 441 2620 675 
Q 2931 909 2931 1356 
Q 2931 1769 2642 2001 
Q 2353 2234 1838 2234 
L 1294 2234 
L 1294 2753 
L 1863 2753 
Q 2328 2753 2575 2939 
Q 2822 3125 2822 3475 
Q 2822 3834 2567 4026 
Q 2313 4219 1838 4219 
Q 1578 4219 1281 4162 
Q 984 4106 628 3988 
L 628 4550 
Q 988 4650 1302 4700 
Q 1616 4750 1894 4750 
Q 2613 4750 3031 4423 
Q 3450 4097 3450 3541 
Q 3450 3153 3228 2886 
Q 3006 2619 2597 2516 
z
" id="DejaVuSans-33" transform="scale(0.015625)"/>
       </defs>
       <use xlink:href="#DejaVuSans-33"/>
       <use x="63.623047" xlink:href="#DejaVuSans-38"/>
      </g>
     </g>
    </g>
    <g id="ytick_2">
     <g id="line2d_9">
      <g>
       <use style="stroke:#000000;stroke-width:0.8;" x="40.625" xlink:href="#mc05f94e497" y="161.49697"/>
      </g>
     </g>
     <g id="text_10">
      <!-- 40 -->
      <g transform="translate(20.9 165.296189)scale(0.1 -0.1)">
       <use xlink:href="#DejaVuSans-34"/>
       <use x="63.623047" xlink:href="#DejaVuSans-30"/>
      </g>
     </g>
    </g>
    <g id="ytick_3">
     <g id="line2d_10">
      <g>
       <use style="stroke:#000000;stroke-width:0.8;" x="40.625" xlink:href="#mc05f94e497" y="123.424892"/>
      </g>
     </g>
     <g id="text_11">
      <!-- 42 -->
      <g transform="translate(20.9 127.224111)scale(0.1 -0.1)">
       <use xlink:href="#DejaVuSans-34"/>
       <use x="63.623047" xlink:href="#DejaVuSans-32"/>
      </g>
     </g>
    </g>
    <g id="ytick_4">
     <g id="line2d_11">
      <g>
       <use style="stroke:#000000;stroke-width:0.8;" x="40.625" xlink:href="#mc05f94e497" y="85.352814"/>
      </g>
     </g>
     <g id="text_12">
      <!-- 44 -->
      <g transform="translate(20.9 89.152033)scale(0.1 -0.1)">
       <use xlink:href="#DejaVuSans-34"/>
       <use x="63.623047" xlink:href="#DejaVuSans-34"/>
      </g>
     </g>
    </g>
    <g id="ytick_5">
     <g id="line2d_12">
      <g>
       <use style="stroke:#000000;stroke-width:0.8;" x="40.625" xlink:href="#mc05f94e497" y="47.280736"/>
      </g>
     </g>
     <g id="text_13">
      <!-- 46 -->
      <g transform="translate(20.9 51.079955)scale(0.1 -0.1)">
       <use xlink:href="#DejaVuSans-34"/>
       <use x="63.623047" xlink:href="#DejaVuSans-36"/>
      </g>
     </g>
    </g>
    <g id="text_14">
     <!-- $\sigma_A$ [Bq] -->
     <g transform="translate(14.8 137.519219)rotate(-90)scale(0.1 -0.1)">
      <defs>
       <path d="M 2219 3044 
Q 1744 3044 1422 2700 
Q 1081 2341 969 1747 
Q 844 1119 1044 756 
Q 1241 397 1706 397 
Q 2166 397 2503 759 
Q 2844 1122 2966 1747 
Q 3075 2319 2881 2700 
Q 2700 3044 2219 3044 
z
M 2309 3503 
L 4219 3500 
L 4106 2925 
L 3463 2925 
Q 3706 2438 3575 1747 
Q 3406 888 2884 400 
Q 2359 -91 1609 -91 
Q 856 -91 525 400 
Q 194 888 363 1747 
Q 528 2609 1050 3097 
Q 1484 3503 2309 3503 
z
" id="DejaVuSans-Oblique-3c3" transform="scale(0.015625)"/>
       <path d="M 2356 4666 
L 3072 4666 
L 3938 0 
L 3278 0 
L 3084 1197 
L 984 1197 
L 325 0 
L -341 0 
L 2356 4666 
z
M 2584 4044 
L 1275 1722 
L 2988 1722 
L 2584 4044 
z
" id="DejaVuSans-Oblique-41" transform="scale(0.015625)"/>
       <path d="M 1259 2228 
L 1259 519 
L 2272 519 
Q 2781 519 3026 730 
Q 3272 941 3272 1375 
Q 3272 1813 3026 2020 
Q 2781 2228 2272 2228 
L 1259 2228 
z
M 1259 4147 
L 1259 2741 
L 2194 2741 
Q 2656 2741 2882 2914 
Q 3109 3088 3109 3444 
Q 3109 3797 2882 3972 
Q 2656 4147 2194 4147 
L 1259 4147 
z
M 628 4666 
L 2241 4666 
Q 2963 4666 3353 4366 
Q 3744 4066 3744 3513 
Q 3744 3084 3544 2831 
Q 3344 2578 2956 2516 
Q 3422 2416 3680 2098 
Q 3938 1781 3938 1306 
Q 3938 681 3513 340 
Q 3088 0 2303 0 
L 628 0 
L 628 4666 
z
" id="DejaVuSans-42" transform="scale(0.015625)"/>
       <path d="M 947 1747 
Q 947 1113 1208 752 
Q 1469 391 1925 391 
Q 2381 391 2643 752 
Q 2906 1113 2906 1747 
Q 2906 2381 2643 2742 
Q 2381 3103 1925 3103 
Q 1469 3103 1208 2742 
Q 947 2381 947 1747 
z
M 2906 525 
Q 2725 213 2448 61 
Q 2172 -91 1784 -91 
Q 1150 -91 751 415 
Q 353 922 353 1747 
Q 353 2572 751 3078 
Q 1150 3584 1784 3584 
Q 2172 3584 2448 3432 
Q 2725 3281 2906 2969 
L 2906 3500 
L 3481 3500 
L 3481 -1331 
L 2906 -1331 
L 2906 525 
z
" id="DejaVuSans-71" transform="scale(0.015625)"/>
      </defs>
      <use transform="translate(0 0.015625)" xlink:href="#DejaVuSans-Oblique-3c3"/>
      <use transform="translate(63.378906 -16.390625)scale(0.7)" xlink:href="#DejaVuSans-Oblique-41"/>
      <use transform="translate(113.999023 0.015625)" xlink:href="#DejaVuSans-20"/>
      <use transform="translate(145.786133 0.015625)" xlink:href="#DejaVuSans-5b"/>
      <use transform="translate(184.799805 0.015625)" xlink:href="#DejaVuSans-42"/>
      <use transform="translate(253.40332 0.015625)" xlink:href="#DejaVuSans-71"/>
      <use transform="translate(316.879883 0.015625)" xlink:href="#DejaVuSans-5d"/>
     </g>
    </g>
   </g>
   <g id="line2d_13">
    <path clip-path="url(#p1731809ebb)" d="M 55.843182 84.796306 
L 58.917562 86.393203 
L 61.991942 87.996791 
L 65.066322 89.609415 
L 68.140702 91.233319 
L 71.215083 92.870641 
L 74.289463 94.523418 
L 77.363843 96.193586 
L 80.438223 97.882979 
L 83.512603 99.593329 
L 86.586983 101.326269 
L 89.661364 103.083326 
L 92.735744 104.865927 
L 95.810124 106.675394 
L 98.884504 108.512944 
L 101.958884 110.379684 
L 105.033264 112.276613 
L 108.107645 114.204618 
L 111.182025 116.164469 
L 114.256405 118.15682 
L 117.330785 120.182201 
L 120.405165 122.241017 
L 123.479545 124.333544 
L 126.553926 126.459923 
L 129.628306 128.620155 
L 132.702686 130.814098 
L 135.777066 133.041459 
L 138.851446 135.301787 
L 141.925826 137.594472 
L 145.000207 139.918729 
L 148.074587 142.273601 
L 151.148967 144.657944 
L 154.223347 147.070421 
L 157.297727 149.509494 
L 160.372107 151.973416 
L 163.446488 154.460216 
L 166.520868 156.967698 
L 169.595248 159.493423 
L 172.669628 162.034703 
L 175.744008 164.588585 
L 178.818388 167.151845 
L 181.892769 169.720974 
L 184.967149 172.292162 
L 188.041529 174.861291 
L 191.115909 177.42392 
L 194.190289 179.97527 
L 197.264669 182.510214 
L 200.33905 185.023262 
L 203.41343 187.508546 
L 206.48781 189.959812 
L 209.56219 192.370402 
L 212.63657 194.733243 
L 215.71095 197.040837 
L 218.785331 199.285248 
L 221.859711 201.458092 
L 224.934091 203.550527 
L 228.008471 205.553246 
L 231.082851 207.456471 
L 234.157231 209.249947 
L 237.231612 210.922942 
L 240.305992 212.464245 
L 243.380372 213.862168 
L 246.454752 215.104553 
L 249.529132 216.178784 
L 252.603512 217.071791 
L 255.677893 217.770077 
L 258.752273 218.25973 
L 261.826653 218.526451 
L 264.901033 218.555582 
L 267.975413 218.332144 
L 271.049793 217.840868 
L 274.124174 217.066242 
L 277.198554 215.992559 
L 280.272934 214.603965 
L 283.347314 212.884515 
L 286.421694 210.818232 
L 289.496074 208.389168 
L 292.570455 205.581465 
L 295.644835 202.379424 
L 298.719215 198.767564 
L 301.793595 194.730692 
L 304.867975 190.253963 
L 307.942355 185.322942 
L 311.016736 179.923664 
L 314.091116 174.042688 
L 317.165496 167.66714 
L 320.239876 160.784768 
L 323.314256 153.383969 
L 326.388636 145.453824 
L 329.463017 136.984124 
L 332.537397 127.965383 
L 335.611777 118.388846 
L 338.686157 108.246495 
L 341.760537 97.531042 
L 344.834917 86.235917 
L 347.909298 74.35525 
L 350.983678 61.883848 
L 354.058058 48.817168 
L 357.132438 35.151286 
L 360.206818 20.882855 
" style="fill:none;stroke:#1f77b4;stroke-linecap:square;stroke-width:1.5;"/>
   </g>
   <g id="patch_3">
    <path d="M 40.625 228.439219 
L 40.625 10.999219 
" style="fill:none;stroke:#000000;stroke-linecap:square;stroke-linejoin:miter;stroke-width:0.8;"/>
   </g>
   <g id="patch_4">
    <path d="M 375.425 228.439219 
L 375.425 10.999219 
" style="fill:none;stroke:#000000;stroke-linecap:square;stroke-linejoin:miter;stroke-width:0.8;"/>
   </g>
   <g id="patch_5">
    <path d="M 40.625 228.439219 
L 375.425 228.439219 
" style="fill:none;stroke:#000000;stroke-linecap:square;stroke-linejoin:miter;stroke-width:0.8;"/>
   </g>
   <g id="patch_6">
    <path d="M 40.625 10.999219 
L 375.425 10.999219 
" style="fill:none;stroke:#000000;stroke-linecap:square;stroke-linejoin:miter;stroke-width:0.8;"/>
   </g>
  </g>
  <g id="axes_2">
   <g id="PolyCollection_1">
    <defs>
     <path d="M 55.843182 -147.979521 
L 55.843182 -71.389787 
L 58.917562 -72.112832 
L 61.991942 -72.836291 
L 65.066322 -73.560344 
L 68.140702 -74.285166 
L 71.215083 -75.010923 
L 74.289463 -75.737777 
L 77.363843 -76.465881 
L 80.438223 -77.195383 
L 83.512603 -77.926424 
L 86.586983 -78.659139 
L 89.661364 -79.393656 
L 92.735744 -80.130096 
L 95.810124 -80.868576 
L 98.884504 -81.609204 
L 101.958884 -82.352082 
L 105.033264 -83.097307 
L 108.107645 -83.844968 
L 111.182025 -84.595147 
L 114.256405 -85.34792 
L 117.330785 -86.103356 
L 120.405165 -86.861516 
L 123.479545 -87.622456 
L 126.553926 -88.386222 
L 129.628306 -89.152854 
L 132.702686 -89.922383 
L 135.777066 -90.694833 
L 138.851446 -91.47022 
L 141.925826 -92.24855 
L 145.000207 -93.029822 
L 148.074587 -93.814024 
L 151.148967 -94.601136 
L 154.223347 -95.391128 
L 157.297727 -96.183959 
L 160.372107 -96.97958 
L 163.446488 -97.777926 
L 166.520868 -98.578927 
L 169.595248 -99.382496 
L 172.669628 -100.188537 
L 175.744008 -100.99694 
L 178.818388 -101.807581 
L 181.892769 -102.620324 
L 184.967149 -103.435017 
L 188.041529 -104.251495 
L 191.115909 -105.069575 
L 194.190289 -105.88906 
L 197.264669 -106.709737 
L 200.33905 -107.531373 
L 203.41343 -108.35372 
L 206.48781 -109.176511 
L 209.56219 -109.999459 
L 212.63657 -110.822258 
L 215.71095 -111.644583 
L 218.785331 -112.466088 
L 221.859711 -113.286404 
L 224.934091 -114.105145 
L 228.008471 -114.921899 
L 231.082851 -115.736234 
L 234.157231 -116.547696 
L 237.231612 -117.355809 
L 240.305992 -118.160072 
L 243.380372 -118.959967 
L 246.454752 -119.754949 
L 249.529132 -120.544454 
L 252.603512 -121.327897 
L 255.677893 -122.104673 
L 258.752273 -122.874158 
L 261.826653 -123.635708 
L 264.901033 -124.388666 
L 267.975413 -125.132357 
L 271.049793 -125.866092 
L 274.124174 -126.589175 
L 277.198554 -127.300895 
L 280.272934 -128.000538 
L 283.347314 -128.687385 
L 286.421694 -129.360714 
L 289.496074 -130.019805 
L 292.570455 -130.663942 
L 295.644835 -131.292415 
L 298.719215 -131.904526 
L 301.793595 -132.499586 
L 304.867975 -133.076926 
L 307.942355 -133.635893 
L 311.016736 -134.175857 
L 314.091116 -134.696209 
L 317.165496 -135.196368 
L 320.239876 -135.675781 
L 323.314256 -136.133925 
L 326.388636 -136.570306 
L 329.463017 -136.984463 
L 332.537397 -137.37597 
L 335.611777 -137.744431 
L 338.686157 -138.089487 
L 341.760537 -138.410809 
L 344.834917 -138.708103 
L 347.909298 -138.981105 
L 350.983678 -139.229583 
L 354.058058 -139.453334 
L 357.132438 -139.652184 
L 360.206818 -139.825985 
L 360.206818 -222.256153 
L 360.206818 -222.256153 
L 357.132438 -220.778498 
L 354.058058 -219.330855 
L 350.983678 -217.913065 
L 347.909298 -216.524946 
L 344.834917 -215.166285 
L 341.760537 -213.836838 
L 338.686157 -212.536334 
L 335.611777 -211.264467 
L 332.537397 -210.020898 
L 329.463017 -208.805256 
L 326.388636 -207.617134 
L 323.314256 -206.456094 
L 320.239876 -205.321663 
L 317.165496 -204.213336 
L 314.091116 -203.130577 
L 311.016736 -202.072819 
L 307.942355 -201.039467 
L 304.867975 -200.029902 
L 301.793595 -199.043477 
L 298.719215 -198.079525 
L 295.644835 -197.137362 
L 292.570455 -196.216285 
L 289.496074 -195.31558 
L 286.421694 -194.43452 
L 283.347314 -193.572373 
L 280.272934 -192.728402 
L 277.198554 -191.901869 
L 274.124174 -191.092035 
L 271.049793 -190.298167 
L 267.975413 -189.519538 
L 264.901033 -188.75543 
L 261.826653 -188.005134 
L 258.752273 -187.267956 
L 255.677893 -186.543216 
L 252.603512 -185.83025 
L 249.529132 -185.12841 
L 246.454752 -184.437069 
L 243.380372 -183.755616 
L 240.305992 -183.083465 
L 237.231612 -182.420046 
L 234.157231 -181.764812 
L 231.082851 -181.117238 
L 228.008471 -180.47682 
L 224.934091 -179.843076 
L 221.859711 -179.215543 
L 218.785331 -178.593781 
L 215.71095 -177.977372 
L 212.63657 -177.365916 
L 209.56219 -176.759034 
L 206.48781 -176.156367 
L 203.41343 -175.557573 
L 200.33905 -174.962332 
L 197.264669 -174.370339 
L 194.190289 -173.781307 
L 191.115909 -173.194965 
L 188.041529 -172.611058 
L 184.967149 -172.029349 
L 181.892769 -171.449612 
L 178.818388 -170.871637 
L 175.744008 -170.295227 
L 172.669628 -169.720199 
L 169.595248 -169.146381 
L 166.520868 -168.573613 
L 163.446488 -168.001747 
L 160.372107 -167.430645 
L 157.297727 -166.860179 
L 154.223347 -166.290231 
L 151.148967 -165.720692 
L 148.074587 -165.151462 
L 145.000207 -164.582449 
L 141.925826 -164.013569 
L 138.851446 -163.444745 
L 135.777066 -162.875908 
L 132.702686 -162.306995 
L 129.628306 -161.737949 
L 126.553926 -161.16872 
L 123.479545 -160.599263 
L 120.405165 -160.029539 
L 117.330785 -159.459514 
L 114.256405 -158.889158 
L 111.182025 -158.318447 
L 108.107645 -157.747359 
L 105.033264 -157.175881 
L 101.958884 -156.603998 
L 98.884504 -156.031703 
L 95.810124 -155.458991 
L 92.735744 -154.885861 
L 89.661364 -154.312315 
L 86.586983 -153.738359 
L 83.512603 -153.164001 
L 80.438223 -152.589252 
L 77.363843 -152.014128 
L 74.289463 -151.438644 
L 71.215083 -150.862822 
L 68.140702 -150.286683 
L 65.066322 -149.710254 
L 61.991942 -149.133563 
L 58.917562 -148.556641 
L 55.843182 -147.979521 
z
" id="m83b165e5af" style="stroke:#8c564b;stroke-opacity:0.2;"/>
    </defs>
    <g clip-path="url(#p1731809ebb)">
     <use style="fill:#8c564b;fill-opacity:0.2;stroke:#8c564b;stroke-opacity:0.2;" x="0" xlink:href="#m83b165e5af" y="265.995469"/>
    </g>
   </g>
   <g id="matplotlib.axis_3">
    <g id="ytick_6">
     <g id="line2d_14">
      <defs>
       <path d="M 0 0 
L 3.5 0 
" id="m65ecdf5ca9" style="stroke:#000000;stroke-width:0.8;"/>
      </defs>
      <g>
       <use style="stroke:#000000;stroke-width:0.8;" x="375.425" xlink:href="#m65ecdf5ca9" y="228.439219"/>
      </g>
     </g>
     <g id="text_15">
      <!-- 0 -->
      <g transform="translate(382.425 232.238437)scale(0.1 -0.1)">
       <use xlink:href="#DejaVuSans-30"/>
      </g>
     </g>
    </g>
    <g id="ytick_7">
     <g id="line2d_15">
      <g>
       <use style="stroke:#000000;stroke-width:0.8;" x="375.425" xlink:href="#m65ecdf5ca9" y="184.951219"/>
      </g>
     </g>
     <g id="text_16">
      <!-- 50 -->
      <g transform="translate(382.425 188.750437)scale(0.1 -0.1)">
       <defs>
        <path d="M 691 4666 
L 3169 4666 
L 3169 4134 
L 1269 4134 
L 1269 2991 
Q 1406 3038 1543 3061 
Q 1681 3084 1819 3084 
Q 2600 3084 3056 2656 
Q 3513 2228 3513 1497 
Q 3513 744 3044 326 
Q 2575 -91 1722 -91 
Q 1428 -91 1123 -41 
Q 819 9 494 109 
L 494 744 
Q 775 591 1075 516 
Q 1375 441 1709 441 
Q 2250 441 2565 725 
Q 2881 1009 2881 1497 
Q 2881 1984 2565 2268 
Q 2250 2553 1709 2553 
Q 1456 2553 1204 2497 
Q 953 2441 691 2322 
L 691 4666 
z
" id="DejaVuSans-35" transform="scale(0.015625)"/>
       </defs>
       <use xlink:href="#DejaVuSans-35"/>
       <use x="63.623047" xlink:href="#DejaVuSans-30"/>
      </g>
     </g>
    </g>
    <g id="ytick_8">
     <g id="line2d_16">
      <g>
       <use style="stroke:#000000;stroke-width:0.8;" x="375.425" xlink:href="#m65ecdf5ca9" y="141.463219"/>
      </g>
     </g>
     <g id="text_17">
      <!-- 100 -->
      <g transform="translate(382.425 145.262437)scale(0.1 -0.1)">
       <use xlink:href="#DejaVuSans-31"/>
       <use x="63.623047" xlink:href="#DejaVuSans-30"/>
       <use x="127.246094" xlink:href="#DejaVuSans-30"/>
      </g>
     </g>
    </g>
    <g id="ytick_9">
     <g id="line2d_17">
      <g>
       <use style="stroke:#000000;stroke-width:0.8;" x="375.425" xlink:href="#m65ecdf5ca9" y="97.975219"/>
      </g>
     </g>
     <g id="text_18">
      <!-- 150 -->
      <g transform="translate(382.425 101.774437)scale(0.1 -0.1)">
       <use xlink:href="#DejaVuSans-31"/>
       <use x="63.623047" xlink:href="#DejaVuSans-35"/>
       <use x="127.246094" xlink:href="#DejaVuSans-30"/>
      </g>
     </g>
    </g>
    <g id="ytick_10">
     <g id="line2d_18">
      <g>
       <use style="stroke:#000000;stroke-width:0.8;" x="375.425" xlink:href="#m65ecdf5ca9" y="54.487219"/>
      </g>
     </g>
     <g id="text_19">
      <!-- 200 -->
      <g transform="translate(382.425 58.286437)scale(0.1 -0.1)">
       <use xlink:href="#DejaVuSans-32"/>
       <use x="63.623047" xlink:href="#DejaVuSans-30"/>
       <use x="127.246094" xlink:href="#DejaVuSans-30"/>
      </g>
     </g>
    </g>
    <g id="ytick_11">
     <g id="line2d_19">
      <g>
       <use style="stroke:#000000;stroke-width:0.8;" x="375.425" xlink:href="#m65ecdf5ca9" y="10.999219"/>
      </g>
     </g>
     <g id="text_20">
      <!-- 250 -->
      <g transform="translate(382.425 14.798437)scale(0.1 -0.1)">
       <use xlink:href="#DejaVuSans-32"/>
       <use x="63.623047" xlink:href="#DejaVuSans-35"/>
       <use x="127.246094" xlink:href="#DejaVuSans-30"/>
      </g>
     </g>
    </g>
    <g id="text_21">
     <!-- $A$ [Bq] -->
     <g transform="translate(413.1125 135.269219)rotate(-90)scale(0.1 -0.1)">
      <use transform="translate(0 0.015625)" xlink:href="#DejaVuSans-Oblique-41"/>
      <use transform="translate(68.408203 0.015625)" xlink:href="#DejaVuSans-20"/>
      <use transform="translate(100.195312 0.015625)" xlink:href="#DejaVuSans-5b"/>
      <use transform="translate(139.208984 0.015625)" xlink:href="#DejaVuSans-42"/>
      <use transform="translate(207.8125 0.015625)" xlink:href="#DejaVuSans-71"/>
      <use transform="translate(271.289062 0.015625)" xlink:href="#DejaVuSans-5d"/>
     </g>
    </g>
   </g>
   <g id="line2d_20">
    <path clip-path="url(#p1731809ebb)" d="M 55.843182 156.310814 
L 58.917562 155.660732 
L 61.991942 155.010542 
L 65.066322 154.36017 
L 68.140702 153.709544 
L 71.215083 153.058596 
L 74.289463 152.407258 
L 77.363843 151.755464 
L 80.438223 151.103151 
L 83.512603 150.450256 
L 86.586983 149.79672 
L 89.661364 149.142483 
L 92.735744 148.48749 
L 95.810124 147.831685 
L 98.884504 147.175016 
L 101.958884 146.517429 
L 105.033264 145.858875 
L 108.107645 145.199305 
L 111.182025 144.538672 
L 114.256405 143.87693 
L 117.330785 143.214034 
L 120.405165 142.549941 
L 123.479545 141.884609 
L 126.553926 141.217998 
L 129.628306 140.550067 
L 132.702686 139.88078 
L 135.777066 139.210098 
L 138.851446 138.537986 
L 141.925826 137.864409 
L 145.000207 137.189333 
L 148.074587 136.512726 
L 151.148967 135.834555 
L 154.223347 135.154789 
L 157.297727 134.473399 
L 160.372107 133.790356 
L 163.446488 133.105632 
L 166.520868 132.419199 
L 169.595248 131.73103 
L 172.669628 131.041101 
L 175.744008 130.349385 
L 178.818388 129.65586 
L 181.892769 128.960501 
L 184.967149 128.263286 
L 188.041529 127.564192 
L 191.115909 126.863199 
L 194.190289 126.160285 
L 197.264669 125.455431 
L 200.33905 124.748616 
L 203.41343 124.039822 
L 206.48781 123.32903 
L 209.56219 122.616222 
L 212.63657 121.901382 
L 215.71095 121.184491 
L 218.785331 120.465534 
L 221.859711 119.744495 
L 224.934091 119.021359 
L 228.008471 118.296109 
L 231.082851 117.568733 
L 234.157231 116.839215 
L 237.231612 116.107542 
L 240.305992 115.3737 
L 243.380372 114.637677 
L 246.454752 113.89946 
L 249.529132 113.159037 
L 252.603512 112.416395 
L 255.677893 111.671524 
L 258.752273 110.924412 
L 261.826653 110.175048 
L 264.901033 109.423421 
L 267.975413 108.669521 
L 271.049793 107.913339 
L 274.124174 107.154864 
L 277.198554 106.394087 
L 280.272934 105.630998 
L 283.347314 104.86559 
L 286.421694 104.097852 
L 289.496074 103.327776 
L 292.570455 102.555355 
L 295.644835 101.78058 
L 298.719215 101.003443 
L 301.793595 100.223937 
L 304.867975 99.442055 
L 307.942355 98.657788 
L 311.016736 97.871131 
L 314.091116 97.082076 
L 317.165496 96.290617 
L 320.239876 95.496747 
L 323.314256 94.700459 
L 326.388636 93.901749 
L 329.463017 93.100609 
L 332.537397 92.297035 
L 335.611777 91.491019 
L 338.686157 90.682558 
L 341.760537 89.871645 
L 344.834917 89.058275 
L 347.909298 88.242443 
L 350.983678 87.424145 
L 354.058058 86.603374 
L 357.132438 85.780128 
L 360.206818 84.9544 
" style="fill:none;stroke:#8c564b;stroke-linecap:square;stroke-width:1.5;"/>
   </g>
   <g id="patch_7">
    <path d="M 40.625 228.439219 
L 40.625 10.999219 
" style="fill:none;stroke:#000000;stroke-linecap:square;stroke-linejoin:miter;stroke-width:0.8;"/>
   </g>
   <g id="patch_8">
    <path d="M 375.425 228.439219 
L 375.425 10.999219 
" style="fill:none;stroke:#000000;stroke-linecap:square;stroke-linejoin:miter;stroke-width:0.8;"/>
   </g>
   <g id="patch_9">
    <path d="M 40.625 228.439219 
L 375.425 228.439219 
" style="fill:none;stroke:#000000;stroke-linecap:square;stroke-linejoin:miter;stroke-width:0.8;"/>
   </g>
   <g id="patch_10">
    <path d="M 40.625 10.999219 
L 375.425 10.999219 
" style="fill:none;stroke:#000000;stroke-linecap:square;stroke-linejoin:miter;stroke-width:0.8;"/>
   </g>
   <g id="legend_1">
    <g id="patch_11">
     <path d="M 47.625 48.355469 
L 110.225 48.355469 
Q 112.225 48.355469 112.225 46.355469 
L 112.225 17.999219 
Q 112.225 15.999219 110.225 15.999219 
L 47.625 15.999219 
Q 45.625 15.999219 45.625 17.999219 
L 45.625 46.355469 
Q 45.625 48.355469 47.625 48.355469 
z
" style="fill:#ffffff;opacity:0.8;stroke:#cccccc;stroke-linejoin:miter;"/>
    </g>
    <g id="line2d_21">
     <path d="M 49.625 24.097656 
L 69.625 24.097656 
" style="fill:none;stroke:#1f77b4;stroke-linecap:square;stroke-width:1.5;"/>
    </g>
    <g id="line2d_22"/>
    <g id="text_22">
     <!-- $\sigma_A$ -->
     <g transform="translate(77.625 27.597656)scale(0.1 -0.1)">
      <use transform="translate(0 0.265625)" xlink:href="#DejaVuSans-Oblique-3c3"/>
      <use transform="translate(63.378906 -16.140625)scale(0.7)" xlink:href="#DejaVuSans-Oblique-41"/>
     </g>
    </g>
    <g id="line2d_23">
     <path d="M 49.625 38.775781 
L 69.625 38.775781 
" style="fill:none;stroke:#8c564b;stroke-linecap:square;stroke-width:1.5;"/>
    </g>
    <g id="line2d_24"/>
    <g id="text_23">
     <!-- $A \pm \sigma_A$ -->
     <g transform="translate(77.625 42.275781)scale(0.1 -0.1)">
      <defs>
       <path d="M 2944 4013 
L 2944 2803 
L 4684 2803 
L 4684 2272 
L 2944 2272 
L 2944 1063 
L 2419 1063 
L 2419 2272 
L 678 2272 
L 678 2803 
L 2419 2803 
L 2419 4013 
L 2944 4013 
z
M 678 531 
L 4684 531 
L 4684 0 
L 678 0 
L 678 531 
z
" id="DejaVuSans-b1" transform="scale(0.015625)"/>
      </defs>
      <use transform="translate(0 0.09375)" xlink:href="#DejaVuSans-Oblique-41"/>
      <use transform="translate(87.890625 0.09375)" xlink:href="#DejaVuSans-b1"/>
      <use transform="translate(191.162109 0.09375)" xlink:href="#DejaVuSans-Oblique-3c3"/>
      <use transform="translate(254.541016 -16.3125)scale(0.7)" xlink:href="#DejaVuSans-Oblique-41"/>
     </g>
    </g>
   </g>
  </g>
 </g>
 <defs>
  <clipPath id="p1731809ebb">
   <rect height="217.44" width="334.8" x="40.625" y="10.999219"/>
  </clipPath>
 </defs>
</svg>
