<?xml version="1.0" encoding="utf-8" standalone="no"?>
<!DOCTYPE svg PUBLIC "-//W3C//DTD SVG 1.1//EN"
  "http://www.w3.org/Graphics/SVG/1.1/DTD/svg11.dtd">
<!-- Created with matplotlib (https://matplotlib.org/) -->
<svg height="288pt" version="1.1" viewBox="0 0 432 288" width="432pt" xmlns="http://www.w3.org/2000/svg" xmlns:xlink="http://www.w3.org/1999/xlink">
 <defs>
  <style type="text/css">
*{stroke-linecap:butt;stroke-linejoin:round;}
  </style>
 </defs>
 <g id="figure_1">
  <g id="patch_1">
   <path d="M 0 288 
L 432 288 
L 432 0 
L 0 0 
z
" style="fill:#ffffff;"/>
  </g>
  <g id="axes_1">
   <g id="patch_2">
    <path d="M 54 252 
L 388.8 252 
L 388.8 34.56 
L 54 34.56 
z
" style="fill:#ffffff;"/>
   </g>
   <g id="patch_3">
    <path clip-path="url(#p9062770094)" d="M 69.218182 252 
L 70.74 252 
L 70.74 -826.71984 
L 69.218182 -826.71984 
z
" style="fill:#1f77b4;"/>
   </g>
   <g id="patch_4">
    <path clip-path="url(#p9062770094)" d="M 70.74 252 
L 72.261818 252 
L 72.261818 233.5176 
L 70.74 233.5176 
z
" style="fill:#1f77b4;"/>
   </g>
   <g id="patch_5">
    <path clip-path="url(#p9062770094)" d="M 72.261818 252 
L 73.783636 252 
L 73.783636 232.64784 
L 72.261818 232.64784 
z
" style="fill:#1f77b4;"/>
   </g>
   <g id="patch_6">
    <path clip-path="url(#p9062770094)" d="M 73.783636 252 
L 75.305455 252 
L 75.305455 234.16992 
L 73.783636 234.16992 
z
" style="fill:#1f77b4;"/>
   </g>
   <g id="patch_7">
    <path clip-path="url(#p9062770094)" d="M 75.305455 252 
L 76.827273 252 
L 76.827273 233.73504 
L 75.305455 233.73504 
z
" style="fill:#1f77b4;"/>
   </g>
   <g id="patch_8">
    <path clip-path="url(#p9062770094)" d="M 76.827273 252 
L 78.349091 252 
L 78.349091 236.7792 
L 76.827273 236.7792 
z
" style="fill:#1f77b4;"/>
   </g>
   <g id="patch_9">
    <path clip-path="url(#p9062770094)" d="M 78.349091 252 
L 79.870909 252 
L 79.870909 232.86528 
L 78.349091 232.86528 
z
" style="fill:#1f77b4;"/>
   </g>
   <g id="patch_10">
    <path clip-path="url(#p9062770094)" d="M 79.870909 252 
L 81.392727 252 
L 81.392727 233.08272 
L 79.870909 233.08272 
z
" style="fill:#1f77b4;"/>
   </g>
   <g id="patch_11">
    <path clip-path="url(#p9062770094)" d="M 81.392727 252 
L 82.914545 252 
L 82.914545 233.95248 
L 81.392727 233.95248 
z
" style="fill:#1f77b4;"/>
   </g>
   <g id="patch_12">
    <path clip-path="url(#p9062770094)" d="M 82.914545 252 
L 84.436364 252 
L 84.436364 237.8664 
L 82.914545 237.8664 
z
" style="fill:#1f77b4;"/>
   </g>
   <g id="patch_13">
    <path clip-path="url(#p9062770094)" d="M 84.436364 252 
L 85.958182 252 
L 85.958182 228.95136 
L 84.436364 228.95136 
z
" style="fill:#1f77b4;"/>
   </g>
   <g id="patch_14">
    <path clip-path="url(#p9062770094)" d="M 85.958182 252 
L 87.48 252 
L 87.48 233.5176 
L 85.958182 233.5176 
z
" style="fill:#1f77b4;"/>
   </g>
   <g id="patch_15">
    <path clip-path="url(#p9062770094)" d="M 87.48 252 
L 89.001818 252 
L 89.001818 232.64784 
L 87.48 232.64784 
z
" style="fill:#1f77b4;"/>
   </g>
   <g id="patch_16">
    <path clip-path="url(#p9062770094)" d="M 89.001818 252 
L 90.523636 252 
L 90.523636 229.38624 
L 89.001818 229.38624 
z
" style="fill:#1f77b4;"/>
   </g>
   <g id="patch_17">
    <path clip-path="url(#p9062770094)" d="M 90.523636 252 
L 92.045455 252 
L 92.045455 235.90944 
L 90.523636 235.90944 
z
" style="fill:#1f77b4;"/>
   </g>
   <g id="patch_18">
    <path clip-path="url(#p9062770094)" d="M 92.045455 252 
L 93.567273 252 
L 93.567273 236.34432 
L 92.045455 236.34432 
z
" style="fill:#1f77b4;"/>
   </g>
   <g id="patch_19">
    <path clip-path="url(#p9062770094)" d="M 93.567273 252 
L 95.089091 252 
L 95.089091 233.95248 
L 93.567273 233.95248 
z
" style="fill:#1f77b4;"/>
   </g>
   <g id="patch_20">
    <path clip-path="url(#p9062770094)" d="M 95.089091 252 
L 96.610909 252 
L 96.610909 228.95136 
L 95.089091 228.95136 
z
" style="fill:#1f77b4;"/>
   </g>
   <g id="patch_21">
    <path clip-path="url(#p9062770094)" d="M 96.610909 252 
L 98.132727 252 
L 98.132727 232.64784 
L 96.610909 232.64784 
z
" style="fill:#1f77b4;"/>
   </g>
   <g id="patch_22">
    <path clip-path="url(#p9062770094)" d="M 98.132727 252 
L 99.654545 252 
L 99.654545 233.95248 
L 98.132727 233.95248 
z
" style="fill:#1f77b4;"/>
   </g>
   <g id="patch_23">
    <path clip-path="url(#p9062770094)" d="M 99.654545 252 
L 101.176364 252 
L 101.176364 235.03968 
L 99.654545 235.03968 
z
" style="fill:#1f77b4;"/>
   </g>
   <g id="patch_24">
    <path clip-path="url(#p9062770094)" d="M 101.176364 252 
L 102.698182 252 
L 102.698182 233.08272 
L 101.176364 233.08272 
z
" style="fill:#1f77b4;"/>
   </g>
   <g id="patch_25">
    <path clip-path="url(#p9062770094)" d="M 102.698182 252 
L 104.22 252 
L 104.22 232.4304 
L 102.698182 232.4304 
z
" style="fill:#1f77b4;"/>
   </g>
   <g id="patch_26">
    <path clip-path="url(#p9062770094)" d="M 104.22 252 
L 105.741818 252 
L 105.741818 231.99552 
L 104.22 231.99552 
z
" style="fill:#1f77b4;"/>
   </g>
   <g id="patch_27">
    <path clip-path="url(#p9062770094)" d="M 105.741818 252 
L 107.263636 252 
L 107.263636 235.03968 
L 105.741818 235.03968 
z
" style="fill:#1f77b4;"/>
   </g>
   <g id="patch_28">
    <path clip-path="url(#p9062770094)" d="M 107.263636 252 
L 108.785455 252 
L 108.785455 232.86528 
L 107.263636 232.86528 
z
" style="fill:#1f77b4;"/>
   </g>
   <g id="patch_29">
    <path clip-path="url(#p9062770094)" d="M 108.785455 252 
L 110.307273 252 
L 110.307273 236.12688 
L 108.785455 236.12688 
z
" style="fill:#1f77b4;"/>
   </g>
   <g id="patch_30">
    <path clip-path="url(#p9062770094)" d="M 110.307273 252 
L 111.829091 252 
L 111.829091 234.6048 
L 110.307273 234.6048 
z
" style="fill:#1f77b4;"/>
   </g>
   <g id="patch_31">
    <path clip-path="url(#p9062770094)" d="M 111.829091 252 
L 113.350909 252 
L 113.350909 230.90832 
L 111.829091 230.90832 
z
" style="fill:#1f77b4;"/>
   </g>
   <g id="patch_32">
    <path clip-path="url(#p9062770094)" d="M 113.350909 252 
L 114.872727 252 
L 114.872727 231.99552 
L 113.350909 231.99552 
z
" style="fill:#1f77b4;"/>
   </g>
   <g id="patch_33">
    <path clip-path="url(#p9062770094)" d="M 114.872727 252 
L 116.394545 252 
L 116.394545 234.82224 
L 114.872727 234.82224 
z
" style="fill:#1f77b4;"/>
   </g>
   <g id="patch_34">
    <path clip-path="url(#p9062770094)" d="M 116.394545 252 
L 117.916364 252 
L 117.916364 233.95248 
L 116.394545 233.95248 
z
" style="fill:#1f77b4;"/>
   </g>
   <g id="patch_35">
    <path clip-path="url(#p9062770094)" d="M 117.916364 252 
L 119.438182 252 
L 119.438182 232.86528 
L 117.916364 232.86528 
z
" style="fill:#1f77b4;"/>
   </g>
   <g id="patch_36">
    <path clip-path="url(#p9062770094)" d="M 119.438182 252 
L 120.96 252 
L 120.96 230.47344 
L 119.438182 230.47344 
z
" style="fill:#1f77b4;"/>
   </g>
   <g id="patch_37">
    <path clip-path="url(#p9062770094)" d="M 120.96 252 
L 122.481818 252 
L 122.481818 232.4304 
L 120.96 232.4304 
z
" style="fill:#1f77b4;"/>
   </g>
   <g id="patch_38">
    <path clip-path="url(#p9062770094)" d="M 122.481818 252 
L 124.003636 252 
L 124.003636 228.29904 
L 122.481818 228.29904 
z
" style="fill:#1f77b4;"/>
   </g>
   <g id="patch_39">
    <path clip-path="url(#p9062770094)" d="M 124.003636 252 
L 125.525455 252 
L 125.525455 235.25712 
L 124.003636 235.25712 
z
" style="fill:#1f77b4;"/>
   </g>
   <g id="patch_40">
    <path clip-path="url(#p9062770094)" d="M 125.525455 252 
L 127.047273 252 
L 127.047273 233.95248 
L 125.525455 233.95248 
z
" style="fill:#1f77b4;"/>
   </g>
   <g id="patch_41">
    <path clip-path="url(#p9062770094)" d="M 127.047273 252 
L 128.569091 252 
L 128.569091 231.56064 
L 127.047273 231.56064 
z
" style="fill:#1f77b4;"/>
   </g>
   <g id="patch_42">
    <path clip-path="url(#p9062770094)" d="M 128.569091 252 
L 130.090909 252 
L 130.090909 230.69088 
L 128.569091 230.69088 
z
" style="fill:#1f77b4;"/>
   </g>
   <g id="patch_43">
    <path clip-path="url(#p9062770094)" d="M 130.090909 252 
L 131.612727 252 
L 131.612727 236.12688 
L 130.090909 236.12688 
z
" style="fill:#1f77b4;"/>
   </g>
   <g id="patch_44">
    <path clip-path="url(#p9062770094)" d="M 131.612727 252 
L 133.134545 252 
L 133.134545 229.60368 
L 131.612727 229.60368 
z
" style="fill:#1f77b4;"/>
   </g>
   <g id="patch_45">
    <path clip-path="url(#p9062770094)" d="M 133.134545 252 
L 134.656364 252 
L 134.656364 229.60368 
L 133.134545 229.60368 
z
" style="fill:#1f77b4;"/>
   </g>
   <g id="patch_46">
    <path clip-path="url(#p9062770094)" d="M 134.656364 252 
L 136.178182 252 
L 136.178182 235.47456 
L 134.656364 235.47456 
z
" style="fill:#1f77b4;"/>
   </g>
   <g id="patch_47">
    <path clip-path="url(#p9062770094)" d="M 136.178182 252 
L 137.7 252 
L 137.7 235.90944 
L 136.178182 235.90944 
z
" style="fill:#1f77b4;"/>
   </g>
   <g id="patch_48">
    <path clip-path="url(#p9062770094)" d="M 137.7 252 
L 139.221818 252 
L 139.221818 234.6048 
L 137.7 234.6048 
z
" style="fill:#1f77b4;"/>
   </g>
   <g id="patch_49">
    <path clip-path="url(#p9062770094)" d="M 139.221818 252 
L 140.743636 252 
L 140.743636 231.77808 
L 139.221818 231.77808 
z
" style="fill:#1f77b4;"/>
   </g>
   <g id="patch_50">
    <path clip-path="url(#p9062770094)" d="M 140.743636 252 
L 142.265455 252 
L 142.265455 231.3432 
L 140.743636 231.3432 
z
" style="fill:#1f77b4;"/>
   </g>
   <g id="patch_51">
    <path clip-path="url(#p9062770094)" d="M 142.265455 252 
L 143.787273 252 
L 143.787273 233.73504 
L 142.265455 233.73504 
z
" style="fill:#1f77b4;"/>
   </g>
   <g id="patch_52">
    <path clip-path="url(#p9062770094)" d="M 143.787273 252 
L 145.309091 252 
L 145.309091 231.77808 
L 143.787273 231.77808 
z
" style="fill:#1f77b4;"/>
   </g>
   <g id="patch_53">
    <path clip-path="url(#p9062770094)" d="M 145.309091 252 
L 146.830909 252 
L 146.830909 229.1688 
L 145.309091 229.1688 
z
" style="fill:#1f77b4;"/>
   </g>
   <g id="patch_54">
    <path clip-path="url(#p9062770094)" d="M 146.830909 252 
L 148.352727 252 
L 148.352727 234.6048 
L 146.830909 234.6048 
z
" style="fill:#1f77b4;"/>
   </g>
   <g id="patch_55">
    <path clip-path="url(#p9062770094)" d="M 148.352727 252 
L 149.874545 252 
L 149.874545 235.25712 
L 148.352727 235.25712 
z
" style="fill:#1f77b4;"/>
   </g>
   <g id="patch_56">
    <path clip-path="url(#p9062770094)" d="M 149.874545 252 
L 151.396364 252 
L 151.396364 234.16992 
L 149.874545 234.16992 
z
" style="fill:#1f77b4;"/>
   </g>
   <g id="patch_57">
    <path clip-path="url(#p9062770094)" d="M 151.396364 252 
L 152.918182 252 
L 152.918182 231.77808 
L 151.396364 231.77808 
z
" style="fill:#1f77b4;"/>
   </g>
   <g id="patch_58">
    <path clip-path="url(#p9062770094)" d="M 152.918182 252 
L 154.44 252 
L 154.44 231.56064 
L 152.918182 231.56064 
z
" style="fill:#1f77b4;"/>
   </g>
   <g id="patch_59">
    <path clip-path="url(#p9062770094)" d="M 154.44 252 
L 155.961818 252 
L 155.961818 229.60368 
L 154.44 229.60368 
z
" style="fill:#1f77b4;"/>
   </g>
   <g id="patch_60">
    <path clip-path="url(#p9062770094)" d="M 155.961818 252 
L 157.483636 252 
L 157.483636 230.90832 
L 155.961818 230.90832 
z
" style="fill:#1f77b4;"/>
   </g>
   <g id="patch_61">
    <path clip-path="url(#p9062770094)" d="M 157.483636 252 
L 159.005455 252 
L 159.005455 234.38736 
L 157.483636 234.38736 
z
" style="fill:#1f77b4;"/>
   </g>
   <g id="patch_62">
    <path clip-path="url(#p9062770094)" d="M 159.005455 252 
L 160.527273 252 
L 160.527273 227.21184 
L 159.005455 227.21184 
z
" style="fill:#1f77b4;"/>
   </g>
   <g id="patch_63">
    <path clip-path="url(#p9062770094)" d="M 160.527273 252 
L 162.049091 252 
L 162.049091 231.12576 
L 160.527273 231.12576 
z
" style="fill:#1f77b4;"/>
   </g>
   <g id="patch_64">
    <path clip-path="url(#p9062770094)" d="M 162.049091 252 
L 163.570909 252 
L 163.570909 232.64784 
L 162.049091 232.64784 
z
" style="fill:#1f77b4;"/>
   </g>
   <g id="patch_65">
    <path clip-path="url(#p9062770094)" d="M 163.570909 252 
L 165.092727 252 
L 165.092727 232.86528 
L 163.570909 232.86528 
z
" style="fill:#1f77b4;"/>
   </g>
   <g id="patch_66">
    <path clip-path="url(#p9062770094)" d="M 165.092727 252 
L 166.614545 252 
L 166.614545 228.95136 
L 165.092727 228.95136 
z
" style="fill:#1f77b4;"/>
   </g>
   <g id="patch_67">
    <path clip-path="url(#p9062770094)" d="M 166.614545 252 
L 168.136364 252 
L 168.136364 230.47344 
L 166.614545 230.47344 
z
" style="fill:#1f77b4;"/>
   </g>
   <g id="patch_68">
    <path clip-path="url(#p9062770094)" d="M 168.136364 252 
L 169.658182 252 
L 169.658182 232.21296 
L 168.136364 232.21296 
z
" style="fill:#1f77b4;"/>
   </g>
   <g id="patch_69">
    <path clip-path="url(#p9062770094)" d="M 169.658182 252 
L 171.18 252 
L 171.18 230.69088 
L 169.658182 230.69088 
z
" style="fill:#1f77b4;"/>
   </g>
   <g id="patch_70">
    <path clip-path="url(#p9062770094)" d="M 171.18 252 
L 172.701818 252 
L 172.701818 230.69088 
L 171.18 230.69088 
z
" style="fill:#1f77b4;"/>
   </g>
   <g id="patch_71">
    <path clip-path="url(#p9062770094)" d="M 172.701818 252 
L 174.223636 252 
L 174.223636 231.3432 
L 172.701818 231.3432 
z
" style="fill:#1f77b4;"/>
   </g>
   <g id="patch_72">
    <path clip-path="url(#p9062770094)" d="M 174.223636 252 
L 175.745455 252 
L 175.745455 230.47344 
L 174.223636 230.47344 
z
" style="fill:#1f77b4;"/>
   </g>
   <g id="patch_73">
    <path clip-path="url(#p9062770094)" d="M 175.745455 252 
L 177.267273 252 
L 177.267273 228.29904 
L 175.745455 228.29904 
z
" style="fill:#1f77b4;"/>
   </g>
   <g id="patch_74">
    <path clip-path="url(#p9062770094)" d="M 177.267273 252 
L 178.789091 252 
L 178.789091 226.34208 
L 177.267273 226.34208 
z
" style="fill:#1f77b4;"/>
   </g>
   <g id="patch_75">
    <path clip-path="url(#p9062770094)" d="M 178.789091 252 
L 180.310909 252 
L 180.310909 227.64672 
L 178.789091 227.64672 
z
" style="fill:#1f77b4;"/>
   </g>
   <g id="patch_76">
    <path clip-path="url(#p9062770094)" d="M 180.310909 252 
L 181.832727 252 
L 181.832727 230.90832 
L 180.310909 230.90832 
z
" style="fill:#1f77b4;"/>
   </g>
   <g id="patch_77">
    <path clip-path="url(#p9062770094)" d="M 181.832727 252 
L 183.354545 252 
L 183.354545 226.34208 
L 181.832727 226.34208 
z
" style="fill:#1f77b4;"/>
   </g>
   <g id="patch_78">
    <path clip-path="url(#p9062770094)" d="M 183.354545 252 
L 184.876364 252 
L 184.876364 230.03856 
L 183.354545 230.03856 
z
" style="fill:#1f77b4;"/>
   </g>
   <g id="patch_79">
    <path clip-path="url(#p9062770094)" d="M 184.876364 252 
L 186.398182 252 
L 186.398182 230.256 
L 184.876364 230.256 
z
" style="fill:#1f77b4;"/>
   </g>
   <g id="patch_80">
    <path clip-path="url(#p9062770094)" d="M 186.398182 252 
L 187.92 252 
L 187.92 224.60256 
L 186.398182 224.60256 
z
" style="fill:#1f77b4;"/>
   </g>
   <g id="patch_81">
    <path clip-path="url(#p9062770094)" d="M 187.92 252 
L 189.441818 252 
L 189.441818 230.69088 
L 187.92 230.69088 
z
" style="fill:#1f77b4;"/>
   </g>
   <g id="patch_82">
    <path clip-path="url(#p9062770094)" d="M 189.441818 252 
L 190.963636 252 
L 190.963636 226.9944 
L 189.441818 226.9944 
z
" style="fill:#1f77b4;"/>
   </g>
   <g id="patch_83">
    <path clip-path="url(#p9062770094)" d="M 190.963636 252 
L 192.485455 252 
L 192.485455 226.77696 
L 190.963636 226.77696 
z
" style="fill:#1f77b4;"/>
   </g>
   <g id="patch_84">
    <path clip-path="url(#p9062770094)" d="M 192.485455 252 
L 194.007273 252 
L 194.007273 225.03744 
L 192.485455 225.03744 
z
" style="fill:#1f77b4;"/>
   </g>
   <g id="patch_85">
    <path clip-path="url(#p9062770094)" d="M 194.007273 252 
L 195.529091 252 
L 195.529091 227.42928 
L 194.007273 227.42928 
z
" style="fill:#1f77b4;"/>
   </g>
   <g id="patch_86">
    <path clip-path="url(#p9062770094)" d="M 195.529091 252 
L 197.050909 252 
L 197.050909 226.12464 
L 195.529091 226.12464 
z
" style="fill:#1f77b4;"/>
   </g>
   <g id="patch_87">
    <path clip-path="url(#p9062770094)" d="M 197.050909 252 
L 198.572727 252 
L 198.572727 223.29792 
L 197.050909 223.29792 
z
" style="fill:#1f77b4;"/>
   </g>
   <g id="patch_88">
    <path clip-path="url(#p9062770094)" d="M 198.572727 252 
L 200.094545 252 
L 200.094545 223.51536 
L 198.572727 223.51536 
z
" style="fill:#1f77b4;"/>
   </g>
   <g id="patch_89">
    <path clip-path="url(#p9062770094)" d="M 200.094545 252 
L 201.616364 252 
L 201.616364 222.21072 
L 200.094545 222.21072 
z
" style="fill:#1f77b4;"/>
   </g>
   <g id="patch_90">
    <path clip-path="url(#p9062770094)" d="M 201.616364 252 
L 203.138182 252 
L 203.138182 223.51536 
L 201.616364 223.51536 
z
" style="fill:#1f77b4;"/>
   </g>
   <g id="patch_91">
    <path clip-path="url(#p9062770094)" d="M 203.138182 252 
L 204.66 252 
L 204.66 224.16768 
L 203.138182 224.16768 
z
" style="fill:#1f77b4;"/>
   </g>
   <g id="patch_92">
    <path clip-path="url(#p9062770094)" d="M 204.66 252 
L 206.181818 252 
L 206.181818 225.68976 
L 204.66 225.68976 
z
" style="fill:#1f77b4;"/>
   </g>
   <g id="patch_93">
    <path clip-path="url(#p9062770094)" d="M 206.181818 252 
L 207.703636 252 
L 207.703636 221.12352 
L 206.181818 221.12352 
z
" style="fill:#1f77b4;"/>
   </g>
   <g id="patch_94">
    <path clip-path="url(#p9062770094)" d="M 207.703636 252 
L 209.225455 252 
L 209.225455 219.60144 
L 207.703636 219.60144 
z
" style="fill:#1f77b4;"/>
   </g>
   <g id="patch_95">
    <path clip-path="url(#p9062770094)" d="M 209.225455 252 
L 210.747273 252 
L 210.747273 223.95024 
L 209.225455 223.95024 
z
" style="fill:#1f77b4;"/>
   </g>
   <g id="patch_96">
    <path clip-path="url(#p9062770094)" d="M 210.747273 252 
L 212.269091 252 
L 212.269091 224.38512 
L 210.747273 224.38512 
z
" style="fill:#1f77b4;"/>
   </g>
   <g id="patch_97">
    <path clip-path="url(#p9062770094)" d="M 212.269091 252 
L 213.790909 252 
L 213.790909 220.90608 
L 212.269091 220.90608 
z
" style="fill:#1f77b4;"/>
   </g>
   <g id="patch_98">
    <path clip-path="url(#p9062770094)" d="M 213.790909 252 
L 215.312727 252 
L 215.312727 221.77584 
L 213.790909 221.77584 
z
" style="fill:#1f77b4;"/>
   </g>
   <g id="patch_99">
    <path clip-path="url(#p9062770094)" d="M 215.312727 252 
L 216.834545 252 
L 216.834545 221.5584 
L 215.312727 221.5584 
z
" style="fill:#1f77b4;"/>
   </g>
   <g id="patch_100">
    <path clip-path="url(#p9062770094)" d="M 216.834545 252 
L 218.356364 252 
L 218.356364 220.90608 
L 216.834545 220.90608 
z
" style="fill:#1f77b4;"/>
   </g>
   <g id="patch_101">
    <path clip-path="url(#p9062770094)" d="M 218.356364 252 
L 219.878182 252 
L 219.878182 218.94912 
L 218.356364 218.94912 
z
" style="fill:#1f77b4;"/>
   </g>
   <g id="patch_102">
    <path clip-path="url(#p9062770094)" d="M 219.878182 252 
L 221.4 252 
L 221.4 214.16544 
L 219.878182 214.16544 
z
" style="fill:#1f77b4;"/>
   </g>
   <g id="patch_103">
    <path clip-path="url(#p9062770094)" d="M 221.4 252 
L 222.921818 252 
L 222.921818 216.99216 
L 221.4 216.99216 
z
" style="fill:#1f77b4;"/>
   </g>
   <g id="patch_104">
    <path clip-path="url(#p9062770094)" d="M 222.921818 252 
L 224.443636 252 
L 224.443636 217.86192 
L 222.921818 217.86192 
z
" style="fill:#1f77b4;"/>
   </g>
   <g id="patch_105">
    <path clip-path="url(#p9062770094)" d="M 224.443636 252 
L 225.965455 252 
L 225.965455 218.94912 
L 224.443636 218.94912 
z
" style="fill:#1f77b4;"/>
   </g>
   <g id="patch_106">
    <path clip-path="url(#p9062770094)" d="M 225.965455 252 
L 227.487273 252 
L 227.487273 218.51424 
L 225.965455 218.51424 
z
" style="fill:#1f77b4;"/>
   </g>
   <g id="patch_107">
    <path clip-path="url(#p9062770094)" d="M 227.487273 252 
L 229.009091 252 
L 229.009091 216.33984 
L 227.487273 216.33984 
z
" style="fill:#1f77b4;"/>
   </g>
   <g id="patch_108">
    <path clip-path="url(#p9062770094)" d="M 229.009091 252 
L 230.530909 252 
L 230.530909 215.90496 
L 229.009091 215.90496 
z
" style="fill:#1f77b4;"/>
   </g>
   <g id="patch_109">
    <path clip-path="url(#p9062770094)" d="M 230.530909 252 
L 232.052727 252 
L 232.052727 213.948 
L 230.530909 213.948 
z
" style="fill:#1f77b4;"/>
   </g>
   <g id="patch_110">
    <path clip-path="url(#p9062770094)" d="M 232.052727 252 
L 233.574545 252 
L 233.574545 212.20848 
L 232.052727 212.20848 
z
" style="fill:#1f77b4;"/>
   </g>
   <g id="patch_111">
    <path clip-path="url(#p9062770094)" d="M 233.574545 252 
L 235.096364 252 
L 235.096364 214.81776 
L 233.574545 214.81776 
z
" style="fill:#1f77b4;"/>
   </g>
   <g id="patch_112">
    <path clip-path="url(#p9062770094)" d="M 235.096364 252 
L 236.618182 252 
L 236.618182 213.948 
L 235.096364 213.948 
z
" style="fill:#1f77b4;"/>
   </g>
   <g id="patch_113">
    <path clip-path="url(#p9062770094)" d="M 236.618182 252 
L 238.14 252 
L 238.14 212.8608 
L 236.618182 212.8608 
z
" style="fill:#1f77b4;"/>
   </g>
   <g id="patch_114">
    <path clip-path="url(#p9062770094)" d="M 238.14 252 
L 239.661818 252 
L 239.661818 214.81776 
L 238.14 214.81776 
z
" style="fill:#1f77b4;"/>
   </g>
   <g id="patch_115">
    <path clip-path="url(#p9062770094)" d="M 239.661818 252 
L 241.183636 252 
L 241.183636 214.60032 
L 239.661818 214.60032 
z
" style="fill:#1f77b4;"/>
   </g>
   <g id="patch_116">
    <path clip-path="url(#p9062770094)" d="M 241.183636 252 
L 242.705455 252 
L 242.705455 215.68752 
L 241.183636 215.68752 
z
" style="fill:#1f77b4;"/>
   </g>
   <g id="patch_117">
    <path clip-path="url(#p9062770094)" d="M 242.705455 252 
L 244.227273 252 
L 244.227273 210.25152 
L 242.705455 210.25152 
z
" style="fill:#1f77b4;"/>
   </g>
   <g id="patch_118">
    <path clip-path="url(#p9062770094)" d="M 244.227273 252 
L 245.749091 252 
L 245.749091 211.55616 
L 244.227273 211.55616 
z
" style="fill:#1f77b4;"/>
   </g>
   <g id="patch_119">
    <path clip-path="url(#p9062770094)" d="M 245.749091 252 
L 247.270909 252 
L 247.270909 208.512 
L 245.749091 208.512 
z
" style="fill:#1f77b4;"/>
   </g>
   <g id="patch_120">
    <path clip-path="url(#p9062770094)" d="M 247.270909 252 
L 248.792727 252 
L 248.792727 211.33872 
L 247.270909 211.33872 
z
" style="fill:#1f77b4;"/>
   </g>
   <g id="patch_121">
    <path clip-path="url(#p9062770094)" d="M 248.792727 252 
L 250.314545 252 
L 250.314545 205.2504 
L 248.792727 205.2504 
z
" style="fill:#1f77b4;"/>
   </g>
   <g id="patch_122">
    <path clip-path="url(#p9062770094)" d="M 250.314545 252 
L 251.836364 252 
L 251.836364 208.94688 
L 250.314545 208.94688 
z
" style="fill:#1f77b4;"/>
   </g>
   <g id="patch_123">
    <path clip-path="url(#p9062770094)" d="M 251.836364 252 
L 253.358182 252 
L 253.358182 206.98992 
L 251.836364 206.98992 
z
" style="fill:#1f77b4;"/>
   </g>
   <g id="patch_124">
    <path clip-path="url(#p9062770094)" d="M 253.358182 252 
L 254.88 252 
L 254.88 208.72944 
L 253.358182 208.72944 
z
" style="fill:#1f77b4;"/>
   </g>
   <g id="patch_125">
    <path clip-path="url(#p9062770094)" d="M 254.88 252 
L 256.401818 252 
L 256.401818 206.55504 
L 254.88 206.55504 
z
" style="fill:#1f77b4;"/>
   </g>
   <g id="patch_126">
    <path clip-path="url(#p9062770094)" d="M 256.401818 252 
L 257.923636 252 
L 257.923636 208.07712 
L 256.401818 208.07712 
z
" style="fill:#1f77b4;"/>
   </g>
   <g id="patch_127">
    <path clip-path="url(#p9062770094)" d="M 257.923636 252 
L 259.445455 252 
L 259.445455 203.72832 
L 257.923636 203.72832 
z
" style="fill:#1f77b4;"/>
   </g>
   <g id="patch_128">
    <path clip-path="url(#p9062770094)" d="M 259.445455 252 
L 260.967273 252 
L 260.967273 207.64224 
L 259.445455 207.64224 
z
" style="fill:#1f77b4;"/>
   </g>
   <g id="patch_129">
    <path clip-path="url(#p9062770094)" d="M 260.967273 252 
L 262.489091 252 
L 262.489091 200.24928 
L 260.967273 200.24928 
z
" style="fill:#1f77b4;"/>
   </g>
   <g id="patch_130">
    <path clip-path="url(#p9062770094)" d="M 262.489091 252 
L 264.010909 252 
L 264.010909 201.77136 
L 262.489091 201.77136 
z
" style="fill:#1f77b4;"/>
   </g>
   <g id="patch_131">
    <path clip-path="url(#p9062770094)" d="M 264.010909 252 
L 265.532727 252 
L 265.532727 210.46896 
L 264.010909 210.46896 
z
" style="fill:#1f77b4;"/>
   </g>
   <g id="patch_132">
    <path clip-path="url(#p9062770094)" d="M 265.532727 252 
L 267.054545 252 
L 267.054545 204.1632 
L 265.532727 204.1632 
z
" style="fill:#1f77b4;"/>
   </g>
   <g id="patch_133">
    <path clip-path="url(#p9062770094)" d="M 267.054545 252 
L 268.576364 252 
L 268.576364 200.9016 
L 267.054545 200.9016 
z
" style="fill:#1f77b4;"/>
   </g>
   <g id="patch_134">
    <path clip-path="url(#p9062770094)" d="M 268.576364 252 
L 270.098182 252 
L 270.098182 193.50864 
L 268.576364 193.50864 
z
" style="fill:#1f77b4;"/>
   </g>
   <g id="patch_135">
    <path clip-path="url(#p9062770094)" d="M 270.098182 252 
L 271.62 252 
L 271.62 198.94464 
L 270.098182 198.94464 
z
" style="fill:#1f77b4;"/>
   </g>
   <g id="patch_136">
    <path clip-path="url(#p9062770094)" d="M 271.62 252 
L 273.141818 252 
L 273.141818 193.94352 
L 271.62 193.94352 
z
" style="fill:#1f77b4;"/>
   </g>
   <g id="patch_137">
    <path clip-path="url(#p9062770094)" d="M 273.141818 252 
L 274.663636 252 
L 274.663636 196.98768 
L 273.141818 196.98768 
z
" style="fill:#1f77b4;"/>
   </g>
   <g id="patch_138">
    <path clip-path="url(#p9062770094)" d="M 274.663636 252 
L 276.185455 252 
L 276.185455 186.768 
L 274.663636 186.768 
z
" style="fill:#1f77b4;"/>
   </g>
   <g id="patch_139">
    <path clip-path="url(#p9062770094)" d="M 276.185455 252 
L 277.707273 252 
L 277.707273 183.28896 
L 276.185455 183.28896 
z
" style="fill:#1f77b4;"/>
   </g>
   <g id="patch_140">
    <path clip-path="url(#p9062770094)" d="M 277.707273 252 
L 279.229091 252 
L 279.229091 186.11568 
L 277.707273 186.11568 
z
" style="fill:#1f77b4;"/>
   </g>
   <g id="patch_141">
    <path clip-path="url(#p9062770094)" d="M 279.229091 252 
L 280.750909 252 
L 280.750909 181.54944 
L 279.229091 181.54944 
z
" style="fill:#1f77b4;"/>
   </g>
   <g id="patch_142">
    <path clip-path="url(#p9062770094)" d="M 280.750909 252 
L 282.272727 252 
L 282.272727 176.76576 
L 280.750909 176.76576 
z
" style="fill:#1f77b4;"/>
   </g>
   <g id="patch_143">
    <path clip-path="url(#p9062770094)" d="M 282.272727 252 
L 283.794545 252 
L 283.794545 173.28672 
L 282.272727 173.28672 
z
" style="fill:#1f77b4;"/>
   </g>
   <g id="patch_144">
    <path clip-path="url(#p9062770094)" d="M 283.794545 252 
L 285.316364 252 
L 285.316364 171.32976 
L 283.794545 171.32976 
z
" style="fill:#1f77b4;"/>
   </g>
   <g id="patch_145">
    <path clip-path="url(#p9062770094)" d="M 285.316364 252 
L 286.838182 252 
L 286.838182 172.41696 
L 285.316364 172.41696 
z
" style="fill:#1f77b4;"/>
   </g>
   <g id="patch_146">
    <path clip-path="url(#p9062770094)" d="M 286.838182 252 
L 288.36 252 
L 288.36 168.2856 
L 286.838182 168.2856 
z
" style="fill:#1f77b4;"/>
   </g>
   <g id="patch_147">
    <path clip-path="url(#p9062770094)" d="M 288.36 252 
L 289.881818 252 
L 289.881818 160.24032 
L 288.36 160.24032 
z
" style="fill:#1f77b4;"/>
   </g>
   <g id="patch_148">
    <path clip-path="url(#p9062770094)" d="M 289.881818 252 
L 291.403636 252 
L 291.403636 159.588 
L 289.881818 159.588 
z
" style="fill:#1f77b4;"/>
   </g>
   <g id="patch_149">
    <path clip-path="url(#p9062770094)" d="M 291.403636 252 
L 292.925455 252 
L 292.925455 159.37056 
L 291.403636 159.37056 
z
" style="fill:#1f77b4;"/>
   </g>
   <g id="patch_150">
    <path clip-path="url(#p9062770094)" d="M 292.925455 252 
L 294.447273 252 
L 294.447273 147.19392 
L 292.925455 147.19392 
z
" style="fill:#1f77b4;"/>
   </g>
   <g id="patch_151">
    <path clip-path="url(#p9062770094)" d="M 294.447273 252 
L 295.969091 252 
L 295.969091 139.14864 
L 294.447273 139.14864 
z
" style="fill:#1f77b4;"/>
   </g>
   <g id="patch_152">
    <path clip-path="url(#p9062770094)" d="M 295.969091 252 
L 297.490909 252 
L 297.490909 133.4952 
L 295.969091 133.4952 
z
" style="fill:#1f77b4;"/>
   </g>
   <g id="patch_153">
    <path clip-path="url(#p9062770094)" d="M 297.490909 252 
L 299.012727 252 
L 299.012727 139.36608 
L 297.490909 139.36608 
z
" style="fill:#1f77b4;"/>
   </g>
   <g id="patch_154">
    <path clip-path="url(#p9062770094)" d="M 299.012727 252 
L 300.534545 252 
L 300.534545 114.14304 
L 299.012727 114.14304 
z
" style="fill:#1f77b4;"/>
   </g>
   <g id="patch_155">
    <path clip-path="url(#p9062770094)" d="M 300.534545 252 
L 302.056364 252 
L 302.056364 126.53712 
L 300.534545 126.53712 
z
" style="fill:#1f77b4;"/>
   </g>
   <g id="patch_156">
    <path clip-path="url(#p9062770094)" d="M 302.056364 252 
L 303.578182 252 
L 303.578182 115.0128 
L 302.056364 115.0128 
z
" style="fill:#1f77b4;"/>
   </g>
   <g id="patch_157">
    <path clip-path="url(#p9062770094)" d="M 303.578182 252 
L 305.1 252 
L 305.1 113.05584 
L 303.578182 113.05584 
z
" style="fill:#1f77b4;"/>
   </g>
   <g id="patch_158">
    <path clip-path="url(#p9062770094)" d="M 305.1 252 
L 306.621818 252 
L 306.621818 109.5768 
L 305.1 109.5768 
z
" style="fill:#1f77b4;"/>
   </g>
   <g id="patch_159">
    <path clip-path="url(#p9062770094)" d="M 306.621818 252 
L 308.143636 252 
L 308.143636 98.92224 
L 306.621818 98.92224 
z
" style="fill:#1f77b4;"/>
   </g>
   <g id="patch_160">
    <path clip-path="url(#p9062770094)" d="M 308.143636 252 
L 309.665455 252 
L 309.665455 95.66064 
L 308.143636 95.66064 
z
" style="fill:#1f77b4;"/>
   </g>
   <g id="patch_161">
    <path clip-path="url(#p9062770094)" d="M 309.665455 252 
L 311.187273 252 
L 311.187273 116.1 
L 309.665455 116.1 
z
" style="fill:#1f77b4;"/>
   </g>
   <g id="patch_162">
    <path clip-path="url(#p9062770094)" d="M 311.187273 252 
L 312.709091 252 
L 312.709091 137.40912 
L 311.187273 137.40912 
z
" style="fill:#1f77b4;"/>
   </g>
   <g id="patch_163">
    <path clip-path="url(#p9062770094)" d="M 312.709091 252 
L 314.230909 252 
L 314.230909 155.67408 
L 312.709091 155.67408 
z
" style="fill:#1f77b4;"/>
   </g>
   <g id="patch_164">
    <path clip-path="url(#p9062770094)" d="M 314.230909 252 
L 315.752727 252 
L 315.752727 162.19728 
L 314.230909 162.19728 
z
" style="fill:#1f77b4;"/>
   </g>
   <g id="patch_165">
    <path clip-path="url(#p9062770094)" d="M 315.752727 252 
L 317.274545 252 
L 317.274545 175.67856 
L 315.752727 175.67856 
z
" style="fill:#1f77b4;"/>
   </g>
   <g id="patch_166">
    <path clip-path="url(#p9062770094)" d="M 317.274545 252 
L 318.796364 252 
L 318.796364 183.28896 
L 317.274545 183.28896 
z
" style="fill:#1f77b4;"/>
   </g>
   <g id="patch_167">
    <path clip-path="url(#p9062770094)" d="M 318.796364 252 
L 320.318182 252 
L 320.318182 180.46224 
L 318.796364 180.46224 
z
" style="fill:#1f77b4;"/>
   </g>
   <g id="patch_168">
    <path clip-path="url(#p9062770094)" d="M 320.318182 252 
L 321.84 252 
L 321.84 188.9424 
L 320.318182 188.9424 
z
" style="fill:#1f77b4;"/>
   </g>
   <g id="patch_169">
    <path clip-path="url(#p9062770094)" d="M 321.84 252 
L 323.361818 252 
L 323.361818 198.7272 
L 321.84 198.7272 
z
" style="fill:#1f77b4;"/>
   </g>
   <g id="patch_170">
    <path clip-path="url(#p9062770094)" d="M 323.361818 252 
L 324.883636 252 
L 324.883636 196.11792 
L 323.361818 196.11792 
z
" style="fill:#1f77b4;"/>
   </g>
   <g id="patch_171">
    <path clip-path="url(#p9062770094)" d="M 324.883636 252 
L 326.405455 252 
L 326.405455 205.68528 
L 324.883636 205.68528 
z
" style="fill:#1f77b4;"/>
   </g>
   <g id="patch_172">
    <path clip-path="url(#p9062770094)" d="M 326.405455 252 
L 327.927273 252 
L 327.927273 208.29456 
L 326.405455 208.29456 
z
" style="fill:#1f77b4;"/>
   </g>
   <g id="patch_173">
    <path clip-path="url(#p9062770094)" d="M 327.927273 252 
L 329.449091 252 
L 329.449091 213.948 
L 327.927273 213.948 
z
" style="fill:#1f77b4;"/>
   </g>
   <g id="patch_174">
    <path clip-path="url(#p9062770094)" d="M 329.449091 252 
L 330.970909 252 
L 330.970909 220.03632 
L 329.449091 220.03632 
z
" style="fill:#1f77b4;"/>
   </g>
   <g id="patch_175">
    <path clip-path="url(#p9062770094)" d="M 330.970909 252 
L 332.492727 252 
L 332.492727 224.38512 
L 330.970909 224.38512 
z
" style="fill:#1f77b4;"/>
   </g>
   <g id="patch_176">
    <path clip-path="url(#p9062770094)" d="M 332.492727 252 
L 334.014545 252 
L 334.014545 229.82112 
L 332.492727 229.82112 
z
" style="fill:#1f77b4;"/>
   </g>
   <g id="patch_177">
    <path clip-path="url(#p9062770094)" d="M 334.014545 252 
L 335.536364 252 
L 335.536364 231.77808 
L 334.014545 231.77808 
z
" style="fill:#1f77b4;"/>
   </g>
   <g id="patch_178">
    <path clip-path="url(#p9062770094)" d="M 335.536364 252 
L 337.058182 252 
L 337.058182 235.90944 
L 335.536364 235.90944 
z
" style="fill:#1f77b4;"/>
   </g>
   <g id="patch_179">
    <path clip-path="url(#p9062770094)" d="M 337.058182 252 
L 338.58 252 
L 338.58 240.91056 
L 337.058182 240.91056 
z
" style="fill:#1f77b4;"/>
   </g>
   <g id="patch_180">
    <path clip-path="url(#p9062770094)" d="M 338.58 252 
L 340.101818 252 
L 340.101818 242.43264 
L 338.58 242.43264 
z
" style="fill:#1f77b4;"/>
   </g>
   <g id="patch_181">
    <path clip-path="url(#p9062770094)" d="M 340.101818 252 
L 341.623636 252 
L 341.623636 241.34544 
L 340.101818 241.34544 
z
" style="fill:#1f77b4;"/>
   </g>
   <g id="patch_182">
    <path clip-path="url(#p9062770094)" d="M 341.623636 252 
L 343.145455 252 
L 343.145455 244.17216 
L 341.623636 244.17216 
z
" style="fill:#1f77b4;"/>
   </g>
   <g id="patch_183">
    <path clip-path="url(#p9062770094)" d="M 343.145455 252 
L 344.667273 252 
L 344.667273 246.34656 
L 343.145455 246.34656 
z
" style="fill:#1f77b4;"/>
   </g>
   <g id="patch_184">
    <path clip-path="url(#p9062770094)" d="M 344.667273 252 
L 346.189091 252 
L 346.189091 248.7384 
L 344.667273 248.7384 
z
" style="fill:#1f77b4;"/>
   </g>
   <g id="patch_185">
    <path clip-path="url(#p9062770094)" d="M 346.189091 252 
L 347.710909 252 
L 347.710909 249.39072 
L 346.189091 249.39072 
z
" style="fill:#1f77b4;"/>
   </g>
   <g id="patch_186">
    <path clip-path="url(#p9062770094)" d="M 347.710909 252 
L 349.232727 252 
L 349.232727 250.04304 
L 347.710909 250.04304 
z
" style="fill:#1f77b4;"/>
   </g>
   <g id="patch_187">
    <path clip-path="url(#p9062770094)" d="M 349.232727 252 
L 350.754545 252 
L 350.754545 250.9128 
L 349.232727 250.9128 
z
" style="fill:#1f77b4;"/>
   </g>
   <g id="patch_188">
    <path clip-path="url(#p9062770094)" d="M 350.754545 252 
L 352.276364 252 
L 352.276364 251.34768 
L 350.754545 251.34768 
z
" style="fill:#1f77b4;"/>
   </g>
   <g id="patch_189">
    <path clip-path="url(#p9062770094)" d="M 352.276364 252 
L 353.798182 252 
L 353.798182 251.56512 
L 352.276364 251.56512 
z
" style="fill:#1f77b4;"/>
   </g>
   <g id="patch_190">
    <path clip-path="url(#p9062770094)" d="M 353.798182 252 
L 355.32 252 
L 355.32 251.78256 
L 353.798182 251.78256 
z
" style="fill:#1f77b4;"/>
   </g>
   <g id="patch_191">
    <path clip-path="url(#p9062770094)" d="M 355.32 252 
L 356.841818 252 
L 356.841818 252 
L 355.32 252 
z
" style="fill:#1f77b4;"/>
   </g>
   <g id="patch_192">
    <path clip-path="url(#p9062770094)" d="M 356.841818 252 
L 358.363636 252 
L 358.363636 251.78256 
L 356.841818 251.78256 
z
" style="fill:#1f77b4;"/>
   </g>
   <g id="patch_193">
    <path clip-path="url(#p9062770094)" d="M 358.363636 252 
L 359.885455 252 
L 359.885455 252 
L 358.363636 252 
z
" style="fill:#1f77b4;"/>
   </g>
   <g id="patch_194">
    <path clip-path="url(#p9062770094)" d="M 359.885455 252 
L 361.407273 252 
L 361.407273 251.78256 
L 359.885455 251.78256 
z
" style="fill:#1f77b4;"/>
   </g>
   <g id="patch_195">
    <path clip-path="url(#p9062770094)" d="M 361.407273 252 
L 362.929091 252 
L 362.929091 252 
L 361.407273 252 
z
" style="fill:#1f77b4;"/>
   </g>
   <g id="patch_196">
    <path clip-path="url(#p9062770094)" d="M 362.929091 252 
L 364.450909 252 
L 364.450909 252 
L 362.929091 252 
z
" style="fill:#1f77b4;"/>
   </g>
   <g id="patch_197">
    <path clip-path="url(#p9062770094)" d="M 364.450909 252 
L 365.972727 252 
L 365.972727 252 
L 364.450909 252 
z
" style="fill:#1f77b4;"/>
   </g>
   <g id="patch_198">
    <path clip-path="url(#p9062770094)" d="M 365.972727 252 
L 367.494545 252 
L 367.494545 252 
L 365.972727 252 
z
" style="fill:#1f77b4;"/>
   </g>
   <g id="patch_199">
    <path clip-path="url(#p9062770094)" d="M 367.494545 252 
L 369.016364 252 
L 369.016364 252 
L 367.494545 252 
z
" style="fill:#1f77b4;"/>
   </g>
   <g id="patch_200">
    <path clip-path="url(#p9062770094)" d="M 369.016364 252 
L 370.538182 252 
L 370.538182 252 
L 369.016364 252 
z
" style="fill:#1f77b4;"/>
   </g>
   <g id="patch_201">
    <path clip-path="url(#p9062770094)" d="M 370.538182 252 
L 372.06 252 
L 372.06 252 
L 370.538182 252 
z
" style="fill:#1f77b4;"/>
   </g>
   <g id="patch_202">
    <path clip-path="url(#p9062770094)" d="M 372.06 252 
L 373.581818 252 
L 373.581818 -13239.93456 
L 372.06 -13239.93456 
z
" style="fill:#1f77b4;"/>
   </g>
   <g id="matplotlib.axis_1">
    <g id="xtick_1">
     <g id="line2d_1">
      <defs>
       <path d="M 0 0 
L 0 3.5 
" id="m74c8ab5e68" style="stroke:#000000;stroke-width:0.8;"/>
      </defs>
      <g>
       <use style="stroke:#000000;stroke-width:0.8;" x="69.218182" xlink:href="#m74c8ab5e68" y="252"/>
      </g>
     </g>
     <g id="text_1">
      <!-- 0.0 -->
      <defs>
       <path d="M 31.78125 66.40625 
Q 24.171875 66.40625 20.328125 58.90625 
Q 16.5 51.421875 16.5 36.375 
Q 16.5 21.390625 20.328125 13.890625 
Q 24.171875 6.390625 31.78125 6.390625 
Q 39.453125 6.390625 43.28125 13.890625 
Q 47.125 21.390625 47.125 36.375 
Q 47.125 51.421875 43.28125 58.90625 
Q 39.453125 66.40625 31.78125 66.40625 
z
M 31.78125 74.21875 
Q 44.046875 74.21875 50.515625 64.515625 
Q 56.984375 54.828125 56.984375 36.375 
Q 56.984375 17.96875 50.515625 8.265625 
Q 44.046875 -1.421875 31.78125 -1.421875 
Q 19.53125 -1.421875 13.0625 8.265625 
Q 6.59375 17.96875 6.59375 36.375 
Q 6.59375 54.828125 13.0625 64.515625 
Q 19.53125 74.21875 31.78125 74.21875 
z
" id="DejaVuSans-48"/>
       <path d="M 10.6875 12.40625 
L 21 12.40625 
L 21 0 
L 10.6875 0 
z
" id="DejaVuSans-46"/>
      </defs>
      <g transform="translate(61.266619 266.598437)scale(0.1 -0.1)">
       <use xlink:href="#DejaVuSans-48"/>
       <use x="63.623047" xlink:href="#DejaVuSans-46"/>
       <use x="95.410156" xlink:href="#DejaVuSans-48"/>
      </g>
     </g>
    </g>
    <g id="xtick_2">
     <g id="line2d_2">
      <g>
       <use style="stroke:#000000;stroke-width:0.8;" x="130.090909" xlink:href="#m74c8ab5e68" y="252"/>
      </g>
     </g>
     <g id="text_2">
      <!-- 0.2 -->
      <defs>
       <path d="M 19.1875 8.296875 
L 53.609375 8.296875 
L 53.609375 0 
L 7.328125 0 
L 7.328125 8.296875 
Q 12.9375 14.109375 22.625 23.890625 
Q 32.328125 33.6875 34.8125 36.53125 
Q 39.546875 41.84375 41.421875 45.53125 
Q 43.3125 49.21875 43.3125 52.78125 
Q 43.3125 58.59375 39.234375 62.25 
Q 35.15625 65.921875 28.609375 65.921875 
Q 23.96875 65.921875 18.8125 64.3125 
Q 13.671875 62.703125 7.8125 59.421875 
L 7.8125 69.390625 
Q 13.765625 71.78125 18.9375 73 
Q 24.125 74.21875 28.421875 74.21875 
Q 39.75 74.21875 46.484375 68.546875 
Q 53.21875 62.890625 53.21875 53.421875 
Q 53.21875 48.921875 51.53125 44.890625 
Q 49.859375 40.875 45.40625 35.40625 
Q 44.1875 33.984375 37.640625 27.21875 
Q 31.109375 20.453125 19.1875 8.296875 
z
" id="DejaVuSans-50"/>
      </defs>
      <g transform="translate(122.139347 266.598437)scale(0.1 -0.1)">
       <use xlink:href="#DejaVuSans-48"/>
       <use x="63.623047" xlink:href="#DejaVuSans-46"/>
       <use x="95.410156" xlink:href="#DejaVuSans-50"/>
      </g>
     </g>
    </g>
    <g id="xtick_3">
     <g id="line2d_3">
      <g>
       <use style="stroke:#000000;stroke-width:0.8;" x="190.963636" xlink:href="#m74c8ab5e68" y="252"/>
      </g>
     </g>
     <g id="text_3">
      <!-- 0.4 -->
      <defs>
       <path d="M 37.796875 64.3125 
L 12.890625 25.390625 
L 37.796875 25.390625 
z
M 35.203125 72.90625 
L 47.609375 72.90625 
L 47.609375 25.390625 
L 58.015625 25.390625 
L 58.015625 17.1875 
L 47.609375 17.1875 
L 47.609375 0 
L 37.796875 0 
L 37.796875 17.1875 
L 4.890625 17.1875 
L 4.890625 26.703125 
z
" id="DejaVuSans-52"/>
      </defs>
      <g transform="translate(183.012074 266.598437)scale(0.1 -0.1)">
       <use xlink:href="#DejaVuSans-48"/>
       <use x="63.623047" xlink:href="#DejaVuSans-46"/>
       <use x="95.410156" xlink:href="#DejaVuSans-52"/>
      </g>
     </g>
    </g>
    <g id="xtick_4">
     <g id="line2d_4">
      <g>
       <use style="stroke:#000000;stroke-width:0.8;" x="251.836364" xlink:href="#m74c8ab5e68" y="252"/>
      </g>
     </g>
     <g id="text_4">
      <!-- 0.6 -->
      <defs>
       <path d="M 33.015625 40.375 
Q 26.375 40.375 22.484375 35.828125 
Q 18.609375 31.296875 18.609375 23.390625 
Q 18.609375 15.53125 22.484375 10.953125 
Q 26.375 6.390625 33.015625 6.390625 
Q 39.65625 6.390625 43.53125 10.953125 
Q 47.40625 15.53125 47.40625 23.390625 
Q 47.40625 31.296875 43.53125 35.828125 
Q 39.65625 40.375 33.015625 40.375 
z
M 52.59375 71.296875 
L 52.59375 62.3125 
Q 48.875 64.0625 45.09375 64.984375 
Q 41.3125 65.921875 37.59375 65.921875 
Q 27.828125 65.921875 22.671875 59.328125 
Q 17.53125 52.734375 16.796875 39.40625 
Q 19.671875 43.65625 24.015625 45.921875 
Q 28.375 48.1875 33.59375 48.1875 
Q 44.578125 48.1875 50.953125 41.515625 
Q 57.328125 34.859375 57.328125 23.390625 
Q 57.328125 12.15625 50.6875 5.359375 
Q 44.046875 -1.421875 33.015625 -1.421875 
Q 20.359375 -1.421875 13.671875 8.265625 
Q 6.984375 17.96875 6.984375 36.375 
Q 6.984375 53.65625 15.1875 63.9375 
Q 23.390625 74.21875 37.203125 74.21875 
Q 40.921875 74.21875 44.703125 73.484375 
Q 48.484375 72.75 52.59375 71.296875 
z
" id="DejaVuSans-54"/>
      </defs>
      <g transform="translate(243.884801 266.598437)scale(0.1 -0.1)">
       <use xlink:href="#DejaVuSans-48"/>
       <use x="63.623047" xlink:href="#DejaVuSans-46"/>
       <use x="95.410156" xlink:href="#DejaVuSans-54"/>
      </g>
     </g>
    </g>
    <g id="xtick_5">
     <g id="line2d_5">
      <g>
       <use style="stroke:#000000;stroke-width:0.8;" x="312.709091" xlink:href="#m74c8ab5e68" y="252"/>
      </g>
     </g>
     <g id="text_5">
      <!-- 0.8 -->
      <defs>
       <path d="M 31.78125 34.625 
Q 24.75 34.625 20.71875 30.859375 
Q 16.703125 27.09375 16.703125 20.515625 
Q 16.703125 13.921875 20.71875 10.15625 
Q 24.75 6.390625 31.78125 6.390625 
Q 38.8125 6.390625 42.859375 10.171875 
Q 46.921875 13.96875 46.921875 20.515625 
Q 46.921875 27.09375 42.890625 30.859375 
Q 38.875 34.625 31.78125 34.625 
z
M 21.921875 38.8125 
Q 15.578125 40.375 12.03125 44.71875 
Q 8.5 49.078125 8.5 55.328125 
Q 8.5 64.0625 14.71875 69.140625 
Q 20.953125 74.21875 31.78125 74.21875 
Q 42.671875 74.21875 48.875 69.140625 
Q 55.078125 64.0625 55.078125 55.328125 
Q 55.078125 49.078125 51.53125 44.71875 
Q 48 40.375 41.703125 38.8125 
Q 48.828125 37.15625 52.796875 32.3125 
Q 56.78125 27.484375 56.78125 20.515625 
Q 56.78125 9.90625 50.3125 4.234375 
Q 43.84375 -1.421875 31.78125 -1.421875 
Q 19.734375 -1.421875 13.25 4.234375 
Q 6.78125 9.90625 6.78125 20.515625 
Q 6.78125 27.484375 10.78125 32.3125 
Q 14.796875 37.15625 21.921875 38.8125 
z
M 18.3125 54.390625 
Q 18.3125 48.734375 21.84375 45.5625 
Q 25.390625 42.390625 31.78125 42.390625 
Q 38.140625 42.390625 41.71875 45.5625 
Q 45.3125 48.734375 45.3125 54.390625 
Q 45.3125 60.0625 41.71875 63.234375 
Q 38.140625 66.40625 31.78125 66.40625 
Q 25.390625 66.40625 21.84375 63.234375 
Q 18.3125 60.0625 18.3125 54.390625 
z
" id="DejaVuSans-56"/>
      </defs>
      <g transform="translate(304.757528 266.598437)scale(0.1 -0.1)">
       <use xlink:href="#DejaVuSans-48"/>
       <use x="63.623047" xlink:href="#DejaVuSans-46"/>
       <use x="95.410156" xlink:href="#DejaVuSans-56"/>
      </g>
     </g>
    </g>
    <g id="xtick_6">
     <g id="line2d_6">
      <g>
       <use style="stroke:#000000;stroke-width:0.8;" x="373.581818" xlink:href="#m74c8ab5e68" y="252"/>
      </g>
     </g>
     <g id="text_6">
      <!-- 1.0 -->
      <defs>
       <path d="M 12.40625 8.296875 
L 28.515625 8.296875 
L 28.515625 63.921875 
L 10.984375 60.40625 
L 10.984375 69.390625 
L 28.421875 72.90625 
L 38.28125 72.90625 
L 38.28125 8.296875 
L 54.390625 8.296875 
L 54.390625 0 
L 12.40625 0 
z
" id="DejaVuSans-49"/>
      </defs>
      <g transform="translate(365.630256 266.598437)scale(0.1 -0.1)">
       <use xlink:href="#DejaVuSans-49"/>
       <use x="63.623047" xlink:href="#DejaVuSans-46"/>
       <use x="95.410156" xlink:href="#DejaVuSans-48"/>
      </g>
     </g>
    </g>
    <g id="text_7">
     <!-- E absorbed [MeV] -->
     <defs>
      <path d="M 9.8125 72.90625 
L 55.90625 72.90625 
L 55.90625 64.59375 
L 19.671875 64.59375 
L 19.671875 43.015625 
L 54.390625 43.015625 
L 54.390625 34.71875 
L 19.671875 34.71875 
L 19.671875 8.296875 
L 56.78125 8.296875 
L 56.78125 0 
L 9.8125 0 
z
" id="DejaVuSans-69"/>
      <path id="DejaVuSans-32"/>
      <path d="M 34.28125 27.484375 
Q 23.390625 27.484375 19.1875 25 
Q 14.984375 22.515625 14.984375 16.5 
Q 14.984375 11.71875 18.140625 8.90625 
Q 21.296875 6.109375 26.703125 6.109375 
Q 34.1875 6.109375 38.703125 11.40625 
Q 43.21875 16.703125 43.21875 25.484375 
L 43.21875 27.484375 
z
M 52.203125 31.203125 
L 52.203125 0 
L 43.21875 0 
L 43.21875 8.296875 
Q 40.140625 3.328125 35.546875 0.953125 
Q 30.953125 -1.421875 24.3125 -1.421875 
Q 15.921875 -1.421875 10.953125 3.296875 
Q 6 8.015625 6 15.921875 
Q 6 25.140625 12.171875 29.828125 
Q 18.359375 34.515625 30.609375 34.515625 
L 43.21875 34.515625 
L 43.21875 35.40625 
Q 43.21875 41.609375 39.140625 45 
Q 35.0625 48.390625 27.6875 48.390625 
Q 23 48.390625 18.546875 47.265625 
Q 14.109375 46.140625 10.015625 43.890625 
L 10.015625 52.203125 
Q 14.9375 54.109375 19.578125 55.046875 
Q 24.21875 56 28.609375 56 
Q 40.484375 56 46.34375 49.84375 
Q 52.203125 43.703125 52.203125 31.203125 
z
" id="DejaVuSans-97"/>
      <path d="M 48.6875 27.296875 
Q 48.6875 37.203125 44.609375 42.84375 
Q 40.53125 48.484375 33.40625 48.484375 
Q 26.265625 48.484375 22.1875 42.84375 
Q 18.109375 37.203125 18.109375 27.296875 
Q 18.109375 17.390625 22.1875 11.75 
Q 26.265625 6.109375 33.40625 6.109375 
Q 40.53125 6.109375 44.609375 11.75 
Q 48.6875 17.390625 48.6875 27.296875 
z
M 18.109375 46.390625 
Q 20.953125 51.265625 25.265625 53.625 
Q 29.59375 56 35.59375 56 
Q 45.5625 56 51.78125 48.09375 
Q 58.015625 40.1875 58.015625 27.296875 
Q 58.015625 14.40625 51.78125 6.484375 
Q 45.5625 -1.421875 35.59375 -1.421875 
Q 29.59375 -1.421875 25.265625 0.953125 
Q 20.953125 3.328125 18.109375 8.203125 
L 18.109375 0 
L 9.078125 0 
L 9.078125 75.984375 
L 18.109375 75.984375 
z
" id="DejaVuSans-98"/>
      <path d="M 44.28125 53.078125 
L 44.28125 44.578125 
Q 40.484375 46.53125 36.375 47.5 
Q 32.28125 48.484375 27.875 48.484375 
Q 21.1875 48.484375 17.84375 46.4375 
Q 14.5 44.390625 14.5 40.28125 
Q 14.5 37.15625 16.890625 35.375 
Q 19.28125 33.59375 26.515625 31.984375 
L 29.59375 31.296875 
Q 39.15625 29.25 43.1875 25.515625 
Q 47.21875 21.78125 47.21875 15.09375 
Q 47.21875 7.46875 41.1875 3.015625 
Q 35.15625 -1.421875 24.609375 -1.421875 
Q 20.21875 -1.421875 15.453125 -0.5625 
Q 10.6875 0.296875 5.421875 2 
L 5.421875 11.28125 
Q 10.40625 8.6875 15.234375 7.390625 
Q 20.0625 6.109375 24.8125 6.109375 
Q 31.15625 6.109375 34.5625 8.28125 
Q 37.984375 10.453125 37.984375 14.40625 
Q 37.984375 18.0625 35.515625 20.015625 
Q 33.0625 21.96875 24.703125 23.78125 
L 21.578125 24.515625 
Q 13.234375 26.265625 9.515625 29.90625 
Q 5.8125 33.546875 5.8125 39.890625 
Q 5.8125 47.609375 11.28125 51.796875 
Q 16.75 56 26.8125 56 
Q 31.78125 56 36.171875 55.265625 
Q 40.578125 54.546875 44.28125 53.078125 
z
" id="DejaVuSans-115"/>
      <path d="M 30.609375 48.390625 
Q 23.390625 48.390625 19.1875 42.75 
Q 14.984375 37.109375 14.984375 27.296875 
Q 14.984375 17.484375 19.15625 11.84375 
Q 23.34375 6.203125 30.609375 6.203125 
Q 37.796875 6.203125 41.984375 11.859375 
Q 46.1875 17.53125 46.1875 27.296875 
Q 46.1875 37.015625 41.984375 42.703125 
Q 37.796875 48.390625 30.609375 48.390625 
z
M 30.609375 56 
Q 42.328125 56 49.015625 48.375 
Q 55.71875 40.765625 55.71875 27.296875 
Q 55.71875 13.875 49.015625 6.21875 
Q 42.328125 -1.421875 30.609375 -1.421875 
Q 18.84375 -1.421875 12.171875 6.21875 
Q 5.515625 13.875 5.515625 27.296875 
Q 5.515625 40.765625 12.171875 48.375 
Q 18.84375 56 30.609375 56 
z
" id="DejaVuSans-111"/>
      <path d="M 41.109375 46.296875 
Q 39.59375 47.171875 37.8125 47.578125 
Q 36.03125 48 33.890625 48 
Q 26.265625 48 22.1875 43.046875 
Q 18.109375 38.09375 18.109375 28.8125 
L 18.109375 0 
L 9.078125 0 
L 9.078125 54.6875 
L 18.109375 54.6875 
L 18.109375 46.1875 
Q 20.953125 51.171875 25.484375 53.578125 
Q 30.03125 56 36.53125 56 
Q 37.453125 56 38.578125 55.875 
Q 39.703125 55.765625 41.0625 55.515625 
z
" id="DejaVuSans-114"/>
      <path d="M 56.203125 29.59375 
L 56.203125 25.203125 
L 14.890625 25.203125 
Q 15.484375 15.921875 20.484375 11.0625 
Q 25.484375 6.203125 34.421875 6.203125 
Q 39.59375 6.203125 44.453125 7.46875 
Q 49.3125 8.734375 54.109375 11.28125 
L 54.109375 2.78125 
Q 49.265625 0.734375 44.1875 -0.34375 
Q 39.109375 -1.421875 33.890625 -1.421875 
Q 20.796875 -1.421875 13.15625 6.1875 
Q 5.515625 13.8125 5.515625 26.8125 
Q 5.515625 40.234375 12.765625 48.109375 
Q 20.015625 56 32.328125 56 
Q 43.359375 56 49.78125 48.890625 
Q 56.203125 41.796875 56.203125 29.59375 
z
M 47.21875 32.234375 
Q 47.125 39.59375 43.09375 43.984375 
Q 39.0625 48.390625 32.421875 48.390625 
Q 24.90625 48.390625 20.390625 44.140625 
Q 15.875 39.890625 15.1875 32.171875 
z
" id="DejaVuSans-101"/>
      <path d="M 45.40625 46.390625 
L 45.40625 75.984375 
L 54.390625 75.984375 
L 54.390625 0 
L 45.40625 0 
L 45.40625 8.203125 
Q 42.578125 3.328125 38.25 0.953125 
Q 33.9375 -1.421875 27.875 -1.421875 
Q 17.96875 -1.421875 11.734375 6.484375 
Q 5.515625 14.40625 5.515625 27.296875 
Q 5.515625 40.1875 11.734375 48.09375 
Q 17.96875 56 27.875 56 
Q 33.9375 56 38.25 53.625 
Q 42.578125 51.265625 45.40625 46.390625 
z
M 14.796875 27.296875 
Q 14.796875 17.390625 18.875 11.75 
Q 22.953125 6.109375 30.078125 6.109375 
Q 37.203125 6.109375 41.296875 11.75 
Q 45.40625 17.390625 45.40625 27.296875 
Q 45.40625 37.203125 41.296875 42.84375 
Q 37.203125 48.484375 30.078125 48.484375 
Q 22.953125 48.484375 18.875 42.84375 
Q 14.796875 37.203125 14.796875 27.296875 
z
" id="DejaVuSans-100"/>
      <path d="M 8.59375 75.984375 
L 29.296875 75.984375 
L 29.296875 69 
L 17.578125 69 
L 17.578125 -6.203125 
L 29.296875 -6.203125 
L 29.296875 -13.1875 
L 8.59375 -13.1875 
z
" id="DejaVuSans-91"/>
      <path d="M 9.8125 72.90625 
L 24.515625 72.90625 
L 43.109375 23.296875 
L 61.8125 72.90625 
L 76.515625 72.90625 
L 76.515625 0 
L 66.890625 0 
L 66.890625 64.015625 
L 48.09375 14.015625 
L 38.1875 14.015625 
L 19.390625 64.015625 
L 19.390625 0 
L 9.8125 0 
z
" id="DejaVuSans-77"/>
      <path d="M 28.609375 0 
L 0.78125 72.90625 
L 11.078125 72.90625 
L 34.1875 11.53125 
L 57.328125 72.90625 
L 67.578125 72.90625 
L 39.796875 0 
z
" id="DejaVuSans-86"/>
      <path d="M 30.421875 75.984375 
L 30.421875 -13.1875 
L 9.71875 -13.1875 
L 9.71875 -6.203125 
L 21.390625 -6.203125 
L 21.390625 69 
L 9.71875 69 
L 9.71875 75.984375 
z
" id="DejaVuSans-93"/>
     </defs>
     <g transform="translate(176.967187 280.276563)scale(0.1 -0.1)">
      <use xlink:href="#DejaVuSans-69"/>
      <use x="63.183594" xlink:href="#DejaVuSans-32"/>
      <use x="94.970703" xlink:href="#DejaVuSans-97"/>
      <use x="156.25" xlink:href="#DejaVuSans-98"/>
      <use x="219.726562" xlink:href="#DejaVuSans-115"/>
      <use x="271.826172" xlink:href="#DejaVuSans-111"/>
      <use x="333.007812" xlink:href="#DejaVuSans-114"/>
      <use x="374.121094" xlink:href="#DejaVuSans-98"/>
      <use x="437.597656" xlink:href="#DejaVuSans-101"/>
      <use x="499.121094" xlink:href="#DejaVuSans-100"/>
      <use x="562.597656" xlink:href="#DejaVuSans-32"/>
      <use x="594.384766" xlink:href="#DejaVuSans-91"/>
      <use x="633.398438" xlink:href="#DejaVuSans-77"/>
      <use x="719.677734" xlink:href="#DejaVuSans-101"/>
      <use x="781.201172" xlink:href="#DejaVuSans-86"/>
      <use x="849.609375" xlink:href="#DejaVuSans-93"/>
     </g>
    </g>
   </g>
   <g id="matplotlib.axis_2">
    <g id="ytick_1">
     <g id="line2d_7">
      <defs>
       <path d="M 0 0 
L -3.5 0 
" id="m3774644883" style="stroke:#000000;stroke-width:0.8;"/>
      </defs>
      <g>
       <use style="stroke:#000000;stroke-width:0.8;" x="54" xlink:href="#m3774644883" y="252"/>
      </g>
     </g>
     <g id="text_8">
      <!-- 0 -->
      <g transform="translate(40.6375 255.799219)scale(0.1 -0.1)">
       <use xlink:href="#DejaVuSans-48"/>
      </g>
     </g>
    </g>
    <g id="ytick_2">
     <g id="line2d_8">
      <g>
       <use style="stroke:#000000;stroke-width:0.8;" x="54" xlink:href="#m3774644883" y="208.512"/>
      </g>
     </g>
     <g id="text_9">
      <!-- 200 -->
      <g transform="translate(27.9125 212.311219)scale(0.1 -0.1)">
       <use xlink:href="#DejaVuSans-50"/>
       <use x="63.623047" xlink:href="#DejaVuSans-48"/>
       <use x="127.246094" xlink:href="#DejaVuSans-48"/>
      </g>
     </g>
    </g>
    <g id="ytick_3">
     <g id="line2d_9">
      <g>
       <use style="stroke:#000000;stroke-width:0.8;" x="54" xlink:href="#m3774644883" y="165.024"/>
      </g>
     </g>
     <g id="text_10">
      <!-- 400 -->
      <g transform="translate(27.9125 168.823219)scale(0.1 -0.1)">
       <use xlink:href="#DejaVuSans-52"/>
       <use x="63.623047" xlink:href="#DejaVuSans-48"/>
       <use x="127.246094" xlink:href="#DejaVuSans-48"/>
      </g>
     </g>
    </g>
    <g id="ytick_4">
     <g id="line2d_10">
      <g>
       <use style="stroke:#000000;stroke-width:0.8;" x="54" xlink:href="#m3774644883" y="121.536"/>
      </g>
     </g>
     <g id="text_11">
      <!-- 600 -->
      <g transform="translate(27.9125 125.335219)scale(0.1 -0.1)">
       <use xlink:href="#DejaVuSans-54"/>
       <use x="63.623047" xlink:href="#DejaVuSans-48"/>
       <use x="127.246094" xlink:href="#DejaVuSans-48"/>
      </g>
     </g>
    </g>
    <g id="ytick_5">
     <g id="line2d_11">
      <g>
       <use style="stroke:#000000;stroke-width:0.8;" x="54" xlink:href="#m3774644883" y="78.048"/>
      </g>
     </g>
     <g id="text_12">
      <!-- 800 -->
      <g transform="translate(27.9125 81.847219)scale(0.1 -0.1)">
       <use xlink:href="#DejaVuSans-56"/>
       <use x="63.623047" xlink:href="#DejaVuSans-48"/>
       <use x="127.246094" xlink:href="#DejaVuSans-48"/>
      </g>
     </g>
    </g>
    <g id="ytick_6">
     <g id="line2d_12">
      <g>
       <use style="stroke:#000000;stroke-width:0.8;" x="54" xlink:href="#m3774644883" y="34.56"/>
      </g>
     </g>
     <g id="text_13">
      <!-- 1000 -->
      <g transform="translate(21.55 38.359219)scale(0.1 -0.1)">
       <use xlink:href="#DejaVuSans-49"/>
       <use x="63.623047" xlink:href="#DejaVuSans-48"/>
       <use x="127.246094" xlink:href="#DejaVuSans-48"/>
       <use x="190.869141" xlink:href="#DejaVuSans-48"/>
      </g>
     </g>
    </g>
    <g id="text_14">
     <!-- # of events -->
     <defs>
      <path d="M 51.125 44 
L 36.921875 44 
L 32.8125 27.6875 
L 47.125 27.6875 
z
M 43.796875 71.78125 
L 38.71875 51.515625 
L 52.984375 51.515625 
L 58.109375 71.78125 
L 65.921875 71.78125 
L 60.890625 51.515625 
L 76.125 51.515625 
L 76.125 44 
L 58.984375 44 
L 54.984375 27.6875 
L 70.515625 27.6875 
L 70.515625 20.21875 
L 53.078125 20.21875 
L 48 0 
L 40.1875 0 
L 45.21875 20.21875 
L 30.90625 20.21875 
L 25.875 0 
L 18.015625 0 
L 23.09375 20.21875 
L 7.71875 20.21875 
L 7.71875 27.6875 
L 24.90625 27.6875 
L 29 44 
L 13.28125 44 
L 13.28125 51.515625 
L 30.90625 51.515625 
L 35.890625 71.78125 
z
" id="DejaVuSans-35"/>
      <path d="M 37.109375 75.984375 
L 37.109375 68.5 
L 28.515625 68.5 
Q 23.6875 68.5 21.796875 66.546875 
Q 19.921875 64.59375 19.921875 59.515625 
L 19.921875 54.6875 
L 34.71875 54.6875 
L 34.71875 47.703125 
L 19.921875 47.703125 
L 19.921875 0 
L 10.890625 0 
L 10.890625 47.703125 
L 2.296875 47.703125 
L 2.296875 54.6875 
L 10.890625 54.6875 
L 10.890625 58.5 
Q 10.890625 67.625 15.140625 71.796875 
Q 19.390625 75.984375 28.609375 75.984375 
z
" id="DejaVuSans-102"/>
      <path d="M 2.984375 54.6875 
L 12.5 54.6875 
L 29.59375 8.796875 
L 46.6875 54.6875 
L 56.203125 54.6875 
L 35.6875 0 
L 23.484375 0 
z
" id="DejaVuSans-118"/>
      <path d="M 54.890625 33.015625 
L 54.890625 0 
L 45.90625 0 
L 45.90625 32.71875 
Q 45.90625 40.484375 42.875 44.328125 
Q 39.84375 48.1875 33.796875 48.1875 
Q 26.515625 48.1875 22.3125 43.546875 
Q 18.109375 38.921875 18.109375 30.90625 
L 18.109375 0 
L 9.078125 0 
L 9.078125 54.6875 
L 18.109375 54.6875 
L 18.109375 46.1875 
Q 21.34375 51.125 25.703125 53.5625 
Q 30.078125 56 35.796875 56 
Q 45.21875 56 50.046875 50.171875 
Q 54.890625 44.34375 54.890625 33.015625 
z
" id="DejaVuSans-110"/>
      <path d="M 18.3125 70.21875 
L 18.3125 54.6875 
L 36.8125 54.6875 
L 36.8125 47.703125 
L 18.3125 47.703125 
L 18.3125 18.015625 
Q 18.3125 11.328125 20.140625 9.421875 
Q 21.96875 7.515625 27.59375 7.515625 
L 36.8125 7.515625 
L 36.8125 0 
L 27.59375 0 
Q 17.1875 0 13.234375 3.875 
Q 9.28125 7.765625 9.28125 18.015625 
L 9.28125 47.703125 
L 2.6875 47.703125 
L 2.6875 54.6875 
L 9.28125 54.6875 
L 9.28125 70.21875 
z
" id="DejaVuSans-116"/>
     </defs>
     <g transform="translate(15.470312 172.313594)rotate(-90)scale(0.1 -0.1)">
      <use xlink:href="#DejaVuSans-35"/>
      <use x="83.789062" xlink:href="#DejaVuSans-32"/>
      <use x="115.576172" xlink:href="#DejaVuSans-111"/>
      <use x="176.757812" xlink:href="#DejaVuSans-102"/>
      <use x="211.962891" xlink:href="#DejaVuSans-32"/>
      <use x="243.75" xlink:href="#DejaVuSans-101"/>
      <use x="305.273438" xlink:href="#DejaVuSans-118"/>
      <use x="364.453125" xlink:href="#DejaVuSans-101"/>
      <use x="425.976562" xlink:href="#DejaVuSans-110"/>
      <use x="489.355469" xlink:href="#DejaVuSans-116"/>
      <use x="528.564453" xlink:href="#DejaVuSans-115"/>
     </g>
    </g>
   </g>
   <g id="patch_203">
    <path d="M 54 252 
L 54 34.56 
" style="fill:none;stroke:#000000;stroke-linecap:square;stroke-linejoin:miter;stroke-width:0.8;"/>
   </g>
   <g id="patch_204">
    <path d="M 388.8 252 
L 388.8 34.56 
" style="fill:none;stroke:#000000;stroke-linecap:square;stroke-linejoin:miter;stroke-width:0.8;"/>
   </g>
   <g id="patch_205">
    <path d="M 54 252 
L 388.8 252 
" style="fill:none;stroke:#000000;stroke-linecap:square;stroke-linejoin:miter;stroke-width:0.8;"/>
   </g>
   <g id="patch_206">
    <path d="M 54 34.56 
L 388.8 34.56 
" style="fill:none;stroke:#000000;stroke-linecap:square;stroke-linejoin:miter;stroke-width:0.8;"/>
   </g>
   <g id="text_15">
    <!-- 6.20$\times 10^{4}$ -&gt; -->
    <defs>
     <path d="M 70.125 53.71875 
L 47.796875 31.296875 
L 70.125 8.984375 
L 64.3125 3.078125 
L 41.890625 25.484375 
L 19.484375 3.078125 
L 13.71875 8.984375 
L 35.984375 31.296875 
L 13.71875 53.71875 
L 19.484375 59.625 
L 41.890625 37.203125 
L 64.3125 59.625 
z
" id="DejaVuSans-215"/>
     <path d="M 4.890625 31.390625 
L 31.203125 31.390625 
L 31.203125 23.390625 
L 4.890625 23.390625 
z
" id="DejaVuSans-45"/>
     <path d="M 10.59375 49.21875 
L 10.59375 58.109375 
L 73.1875 35.40625 
L 73.1875 27.296875 
L 10.59375 4.59375 
L 10.59375 13.484375 
L 60.890625 31.296875 
z
" id="DejaVuSans-62"/>
    </defs>
    <g transform="translate(321.34 56.304)scale(0.08 -0.08)">
     <use transform="translate(0 0.684375)" xlink:href="#DejaVuSans-54"/>
     <use transform="translate(63.623047 0.684375)" xlink:href="#DejaVuSans-46"/>
     <use transform="translate(95.332031 0.684375)" xlink:href="#DejaVuSans-50"/>
     <use transform="translate(158.955078 0.684375)" xlink:href="#DejaVuSans-48"/>
     <use transform="translate(222.578125 0.684375)" xlink:href="#DejaVuSans-215"/>
     <use transform="translate(306.367188 0.684375)" xlink:href="#DejaVuSans-49"/>
     <use transform="translate(369.990234 0.684375)" xlink:href="#DejaVuSans-48"/>
     <use transform="translate(434.570312 38.965625)scale(0.7)" xlink:href="#DejaVuSans-52"/>
     <use transform="translate(481.84082 0.684375)" xlink:href="#DejaVuSans-32"/>
     <use transform="translate(513.62793 0.684375)" xlink:href="#DejaVuSans-45"/>
     <use transform="translate(549.711914 0.684375)" xlink:href="#DejaVuSans-62"/>
    </g>
   </g>
  </g>
 </g>
 <defs>
  <clipPath id="p9062770094">
   <rect height="217.44" width="334.8" x="54" y="34.56"/>
  </clipPath>
 </defs>
</svg>
