<?xml version="1.0" encoding="utf-8" standalone="no"?>
<!DOCTYPE svg PUBLIC "-//W3C//DTD SVG 1.1//EN"
  "http://www.w3.org/Graphics/SVG/1.1/DTD/svg11.dtd">
<!-- Created with matplotlib (https://matplotlib.org/) -->
<svg height="286.2pt" version="1.1" viewBox="0 0 331.925 286.2" width="331.925pt" xmlns="http://www.w3.org/2000/svg" xmlns:xlink="http://www.w3.org/1999/xlink">
 <defs>
  <style type="text/css">
*{stroke-linecap:butt;stroke-linejoin:round;}
  </style>
 </defs>
 <g id="figure_1">
  <g id="patch_1">
   <path d="M 0 286.2 
L 331.925 286.2 
L 331.925 0 
L 0 0 
z
" style="fill:#ffffff;"/>
  </g>
  <g id="axes_1">
   <g id="patch_2">
    <path d="M 305.04375 211.05 
C 305.04375 175.020902 290.715981 140.430608 265.239562 114.954188 
C 239.763142 89.477769 205.172848 75.15 169.14375 75.15 
C 133.114652 75.15 98.524358 89.477769 73.047938 114.954188 
C 47.571519 140.430608 33.24375 175.020902 33.24375 211.05 
L 169.14375 211.05 
C 169.14375 211.05 169.14375 211.05 169.14375 211.05 
C 169.14375 211.05 169.14375 211.05 169.14375 211.05 
C 169.14375 211.05 169.14375 211.05 169.14375 211.05 
C 169.14375 211.05 169.14375 211.05 169.14375 211.05 
L 305.04375 211.05 
z
" style="fill:#ffffff;"/>
   </g>
   <g id="matplotlib.axis_1">
    <g id="xtick_1">
     <g id="line2d_1">
      <path clip-path="url(#p56c9e90f2a)" d="M 169.14375 211.05 
L 305.04375 211.05 
" style="fill:none;stroke:#b0b0b0;stroke-linecap:square;stroke-width:0.8;"/>
     </g>
     <g id="text_1">
      <!-- 0° -->
      <defs>
       <path d="M 31.78125 66.40625 
Q 24.171875 66.40625 20.328125 58.90625 
Q 16.5 51.421875 16.5 36.375 
Q 16.5 21.390625 20.328125 13.890625 
Q 24.171875 6.390625 31.78125 6.390625 
Q 39.453125 6.390625 43.28125 13.890625 
Q 47.125 21.390625 47.125 36.375 
Q 47.125 51.421875 43.28125 58.90625 
Q 39.453125 66.40625 31.78125 66.40625 
z
M 31.78125 74.21875 
Q 44.046875 74.21875 50.515625 64.515625 
Q 56.984375 54.828125 56.984375 36.375 
Q 56.984375 17.96875 50.515625 8.265625 
Q 44.046875 -1.421875 31.78125 -1.421875 
Q 19.53125 -1.421875 13.0625 8.265625 
Q 6.59375 17.96875 6.59375 36.375 
Q 6.59375 54.828125 13.0625 64.515625 
Q 19.53125 74.21875 31.78125 74.21875 
z
" id="DejaVuSans-48"/>
       <path d="M 25 67.921875 
Q 21.09375 67.921875 18.40625 65.203125 
Q 15.71875 62.5 15.71875 58.59375 
Q 15.71875 54.734375 18.40625 52.078125 
Q 21.09375 49.421875 25 49.421875 
Q 28.90625 49.421875 31.59375 52.078125 
Q 34.28125 54.734375 34.28125 58.59375 
Q 34.28125 62.453125 31.5625 65.1875 
Q 28.859375 67.921875 25 67.921875 
z
M 25 74.21875 
Q 28.125 74.21875 31 73.015625 
Q 33.890625 71.828125 35.984375 69.578125 
Q 38.234375 67.390625 39.359375 64.59375 
Q 40.484375 61.8125 40.484375 58.59375 
Q 40.484375 52.15625 35.96875 47.6875 
Q 31.453125 43.21875 24.90625 43.21875 
Q 18.3125 43.21875 13.90625 47.609375 
Q 9.515625 52 9.515625 58.59375 
Q 9.515625 65.140625 14 69.671875 
Q 18.5 74.21875 25 74.21875 
z
" id="DejaVuSans-176"/>
      </defs>
      <g transform="translate(313.3625 213.809375)scale(0.1 -0.1)">
       <use xlink:href="#DejaVuSans-48"/>
       <use x="63.623047" xlink:href="#DejaVuSans-176"/>
      </g>
     </g>
    </g>
    <g id="xtick_2">
     <g id="line2d_2">
      <path clip-path="url(#p56c9e90f2a)" d="M 169.14375 211.05 
L 296.847977 164.569463 
" style="fill:none;stroke:#b0b0b0;stroke-linecap:square;stroke-width:0.8;"/>
     </g>
     <g id="text_2">
      <!-- 20° -->
      <defs>
       <path d="M 19.1875 8.296875 
L 53.609375 8.296875 
L 53.609375 0 
L 7.328125 0 
L 7.328125 8.296875 
Q 12.9375 14.109375 22.625 23.890625 
Q 32.328125 33.6875 34.8125 36.53125 
Q 39.546875 41.84375 41.421875 45.53125 
Q 43.3125 49.21875 43.3125 52.78125 
Q 43.3125 58.59375 39.234375 62.25 
Q 35.15625 65.921875 28.609375 65.921875 
Q 23.96875 65.921875 18.8125 64.3125 
Q 13.671875 62.703125 7.8125 59.421875 
L 7.8125 69.390625 
Q 13.765625 71.78125 18.9375 73 
Q 24.125 74.21875 28.421875 74.21875 
Q 39.75 74.21875 46.484375 68.546875 
Q 53.21875 62.890625 53.21875 53.421875 
Q 53.21875 48.921875 51.53125 44.890625 
Q 49.859375 40.875 45.40625 35.40625 
Q 44.1875 33.984375 37.640625 27.21875 
Q 31.109375 20.453125 19.1875 8.296875 
z
" id="DejaVuSans-50"/>
      </defs>
      <g transform="translate(301.141174 162.540556)scale(0.1 -0.1)">
       <use xlink:href="#DejaVuSans-50"/>
       <use x="63.623047" xlink:href="#DejaVuSans-48"/>
       <use x="127.246094" xlink:href="#DejaVuSans-176"/>
      </g>
     </g>
    </g>
    <g id="xtick_3">
     <g id="line2d_3">
      <path clip-path="url(#p56c9e90f2a)" d="M 169.14375 211.05 
L 273.24919 123.695164 
" style="fill:none;stroke:#b0b0b0;stroke-linecap:square;stroke-width:0.8;"/>
     </g>
     <g id="text_3">
      <!-- 40° -->
      <defs>
       <path d="M 37.796875 64.3125 
L 12.890625 25.390625 
L 37.796875 25.390625 
z
M 35.203125 72.90625 
L 47.609375 72.90625 
L 47.609375 25.390625 
L 58.015625 25.390625 
L 58.015625 17.1875 
L 47.609375 17.1875 
L 47.609375 0 
L 37.796875 0 
L 37.796875 17.1875 
L 4.890625 17.1875 
L 4.890625 26.703125 
z
" id="DejaVuSans-52"/>
      </defs>
      <g transform="translate(275.111312 117.455512)scale(0.1 -0.1)">
       <use xlink:href="#DejaVuSans-52"/>
       <use x="63.623047" xlink:href="#DejaVuSans-48"/>
       <use x="127.246094" xlink:href="#DejaVuSans-176"/>
      </g>
     </g>
    </g>
    <g id="xtick_4">
     <g id="line2d_4">
      <path clip-path="url(#p56c9e90f2a)" d="M 169.14375 211.05 
L 237.09375 93.357148 
" style="fill:none;stroke:#b0b0b0;stroke-linecap:square;stroke-width:0.8;"/>
     </g>
     <g id="text_4">
      <!-- 60° -->
      <defs>
       <path d="M 33.015625 40.375 
Q 26.375 40.375 22.484375 35.828125 
Q 18.609375 31.296875 18.609375 23.390625 
Q 18.609375 15.53125 22.484375 10.953125 
Q 26.375 6.390625 33.015625 6.390625 
Q 39.65625 6.390625 43.53125 10.953125 
Q 47.40625 15.53125 47.40625 23.390625 
Q 47.40625 31.296875 43.53125 35.828125 
Q 39.65625 40.375 33.015625 40.375 
z
M 52.59375 71.296875 
L 52.59375 62.3125 
Q 48.875 64.0625 45.09375 64.984375 
Q 41.3125 65.921875 37.59375 65.921875 
Q 27.828125 65.921875 22.671875 59.328125 
Q 17.53125 52.734375 16.796875 39.40625 
Q 19.671875 43.65625 24.015625 45.921875 
Q 28.375 48.1875 33.59375 48.1875 
Q 44.578125 48.1875 50.953125 41.515625 
Q 57.328125 34.859375 57.328125 23.390625 
Q 57.328125 12.15625 50.6875 5.359375 
Q 44.046875 -1.421875 33.015625 -1.421875 
Q 20.359375 -1.421875 13.671875 8.265625 
Q 6.984375 17.96875 6.984375 36.375 
Q 6.984375 53.65625 15.1875 63.9375 
Q 23.390625 74.21875 37.203125 74.21875 
Q 40.921875 74.21875 44.703125 73.484375 
Q 48.484375 72.75 52.59375 71.296875 
z
" id="DejaVuSans-54"/>
      </defs>
      <g transform="translate(235.23125 83.992167)scale(0.1 -0.1)">
       <use xlink:href="#DejaVuSans-54"/>
       <use x="63.623047" xlink:href="#DejaVuSans-48"/>
       <use x="127.246094" xlink:href="#DejaVuSans-176"/>
      </g>
     </g>
    </g>
    <g id="xtick_5">
     <g id="line2d_5">
      <path clip-path="url(#p56c9e90f2a)" d="M 169.14375 211.05 
L 192.742537 77.214626 
" style="fill:none;stroke:#b0b0b0;stroke-linecap:square;stroke-width:0.8;"/>
     </g>
     <g id="text_5">
      <!-- 80° -->
      <defs>
       <path d="M 31.78125 34.625 
Q 24.75 34.625 20.71875 30.859375 
Q 16.703125 27.09375 16.703125 20.515625 
Q 16.703125 13.921875 20.71875 10.15625 
Q 24.75 6.390625 31.78125 6.390625 
Q 38.8125 6.390625 42.859375 10.171875 
Q 46.921875 13.96875 46.921875 20.515625 
Q 46.921875 27.09375 42.890625 30.859375 
Q 38.875 34.625 31.78125 34.625 
z
M 21.921875 38.8125 
Q 15.578125 40.375 12.03125 44.71875 
Q 8.5 49.078125 8.5 55.328125 
Q 8.5 64.0625 14.71875 69.140625 
Q 20.953125 74.21875 31.78125 74.21875 
Q 42.671875 74.21875 48.875 69.140625 
Q 55.078125 64.0625 55.078125 55.328125 
Q 55.078125 49.078125 51.53125 44.71875 
Q 48 40.375 41.703125 38.8125 
Q 48.828125 37.15625 52.796875 32.3125 
Q 56.78125 27.484375 56.78125 20.515625 
Q 56.78125 9.90625 50.3125 4.234375 
Q 43.84375 -1.421875 31.78125 -1.421875 
Q 19.734375 -1.421875 13.25 4.234375 
Q 6.78125 9.90625 6.78125 20.515625 
Q 6.78125 27.484375 10.78125 32.3125 
Q 14.796875 37.15625 21.921875 38.8125 
z
M 18.3125 54.390625 
Q 18.3125 48.734375 21.84375 45.5625 
Q 25.390625 42.390625 31.78125 42.390625 
Q 38.140625 42.390625 41.71875 45.5625 
Q 45.3125 48.734375 45.3125 54.390625 
Q 45.3125 60.0625 41.71875 63.234375 
Q 38.140625 66.40625 31.78125 66.40625 
Q 25.390625 66.40625 21.84375 63.234375 
Q 18.3125 60.0625 18.3125 54.390625 
z
" id="DejaVuSans-56"/>
      </defs>
      <g transform="translate(186.311112 66.186693)scale(0.1 -0.1)">
       <use xlink:href="#DejaVuSans-56"/>
       <use x="63.623047" xlink:href="#DejaVuSans-48"/>
       <use x="127.246094" xlink:href="#DejaVuSans-176"/>
      </g>
     </g>
    </g>
    <g id="xtick_6">
     <g id="line2d_6">
      <path clip-path="url(#p56c9e90f2a)" d="M 169.14375 211.05 
L 145.544963 77.214626 
" style="fill:none;stroke:#b0b0b0;stroke-linecap:square;stroke-width:0.8;"/>
     </g>
     <g id="text_6">
      <!-- 100° -->
      <defs>
       <path d="M 12.40625 8.296875 
L 28.515625 8.296875 
L 28.515625 63.921875 
L 10.984375 60.40625 
L 10.984375 69.390625 
L 28.421875 72.90625 
L 38.28125 72.90625 
L 38.28125 8.296875 
L 54.390625 8.296875 
L 54.390625 0 
L 12.40625 0 
z
" id="DejaVuSans-49"/>
      </defs>
      <g transform="translate(131.070138 66.186693)scale(0.1 -0.1)">
       <use xlink:href="#DejaVuSans-49"/>
       <use x="63.623047" xlink:href="#DejaVuSans-48"/>
       <use x="127.246094" xlink:href="#DejaVuSans-48"/>
       <use x="190.869141" xlink:href="#DejaVuSans-176"/>
      </g>
     </g>
    </g>
    <g id="xtick_7">
     <g id="line2d_7">
      <path clip-path="url(#p56c9e90f2a)" d="M 169.14375 211.05 
L 101.19375 93.357148 
" style="fill:none;stroke:#b0b0b0;stroke-linecap:square;stroke-width:0.8;"/>
     </g>
     <g id="text_7">
      <!-- 120° -->
      <g transform="translate(82.15 83.992167)scale(0.1 -0.1)">
       <use xlink:href="#DejaVuSans-49"/>
       <use x="63.623047" xlink:href="#DejaVuSans-50"/>
       <use x="127.246094" xlink:href="#DejaVuSans-48"/>
       <use x="190.869141" xlink:href="#DejaVuSans-176"/>
      </g>
     </g>
    </g>
    <g id="xtick_8">
     <g id="line2d_8">
      <path clip-path="url(#p56c9e90f2a)" d="M 169.14375 211.05 
L 65.03831 123.695164 
" style="fill:none;stroke:#b0b0b0;stroke-linecap:square;stroke-width:0.8;"/>
     </g>
     <g id="text_8">
      <!-- 140° -->
      <g transform="translate(42.269938 117.455512)scale(0.1 -0.1)">
       <use xlink:href="#DejaVuSans-49"/>
       <use x="63.623047" xlink:href="#DejaVuSans-52"/>
       <use x="127.246094" xlink:href="#DejaVuSans-48"/>
       <use x="190.869141" xlink:href="#DejaVuSans-176"/>
      </g>
     </g>
    </g>
    <g id="xtick_9">
     <g id="line2d_9">
      <path clip-path="url(#p56c9e90f2a)" d="M 169.14375 211.05 
L 41.439523 164.569463 
" style="fill:none;stroke:#b0b0b0;stroke-linecap:square;stroke-width:0.8;"/>
     </g>
     <g id="text_9">
      <!-- 160° -->
      <g transform="translate(16.240076 162.540556)scale(0.1 -0.1)">
       <use xlink:href="#DejaVuSans-49"/>
       <use x="63.623047" xlink:href="#DejaVuSans-54"/>
       <use x="127.246094" xlink:href="#DejaVuSans-48"/>
       <use x="190.869141" xlink:href="#DejaVuSans-176"/>
      </g>
     </g>
    </g>
    <g id="xtick_10">
     <g id="line2d_10">
      <path clip-path="url(#p56c9e90f2a)" d="M 169.14375 211.05 
L 33.24375 211.05 
" style="fill:none;stroke:#b0b0b0;stroke-linecap:square;stroke-width:0.8;"/>
     </g>
     <g id="text_10">
      <!-- 180° -->
      <g transform="translate(7.2 213.809375)scale(0.1 -0.1)">
       <use xlink:href="#DejaVuSans-49"/>
       <use x="63.623047" xlink:href="#DejaVuSans-56"/>
       <use x="127.246094" xlink:href="#DejaVuSans-48"/>
       <use x="190.869141" xlink:href="#DejaVuSans-176"/>
      </g>
     </g>
    </g>
   </g>
   <g id="matplotlib.axis_2">
    <g id="ytick_1">
     <g id="line2d_11">
      <path clip-path="url(#p56c9e90f2a)" d="M 169.14375 211.05 
L 169.14375 211.05 
" style="fill:none;stroke:#b0b0b0;stroke-linecap:square;stroke-width:0.8;"/>
     </g>
     <g id="text_11">
      <!-- 0 -->
      <g transform="translate(165.9625 225.648438)scale(0.1 -0.1)">
       <use xlink:href="#DejaVuSans-48"/>
      </g>
     </g>
    </g>
    <g id="ytick_2">
     <g id="line2d_12">
      <path clip-path="url(#p56c9e90f2a)" d="M 207.436227 211.05 
L 207.342948 208.378852 
L 207.063567 205.720717 
L 206.599444 203.088546 
L 205.952841 200.495163 
L 205.126908 197.953202 
L 204.125668 195.475047 
L 202.954 193.072771 
L 201.617612 190.758079 
L 200.123014 188.542247 
L 198.477489 186.43607 
L 196.689053 184.44981 
L 194.766418 182.593144 
L 192.718953 180.875117 
L 190.556631 179.304098 
L 188.289988 177.887742 
L 185.930067 176.63295 
L 183.488364 175.545834 
L 180.976776 174.63169 
L 178.407539 173.894973 
L 175.793169 173.339272 
L 173.146404 172.967293 
L 170.480138 172.78085 
L 167.807362 172.78085 
L 165.141096 172.967293 
L 162.494331 173.339272 
L 159.879961 173.894973 
L 157.310724 174.63169 
L 154.799136 175.545834 
L 152.357433 176.63295 
L 149.997512 177.887742 
L 147.730869 179.304098 
L 145.568547 180.875117 
L 143.521082 182.593144 
L 141.598447 184.44981 
L 139.810011 186.43607 
L 138.164486 188.542247 
L 136.669888 190.758079 
L 135.3335 193.072771 
L 134.161832 195.475047 
L 133.160592 197.953202 
L 132.334659 200.495163 
L 131.688056 203.088546 
L 131.223933 205.720717 
L 130.944552 208.378852 
L 130.851273 211.05 
L 130.851273 211.05 
" style="fill:none;stroke:#b0b0b0;stroke-linecap:square;stroke-width:0.8;"/>
     </g>
     <g id="text_12">
      <!-- 1000 -->
      <g transform="translate(194.711227 225.648438)scale(0.1 -0.1)">
       <use xlink:href="#DejaVuSans-49"/>
       <use x="63.623047" xlink:href="#DejaVuSans-48"/>
       <use x="127.246094" xlink:href="#DejaVuSans-48"/>
       <use x="190.869141" xlink:href="#DejaVuSans-48"/>
      </g>
     </g>
    </g>
    <g id="ytick_3">
     <g id="line2d_13">
      <path clip-path="url(#p56c9e90f2a)" d="M 245.728704 211.05 
L 245.623746 207.041853 
L 245.309163 203.044693 
L 244.785816 199.069474 
L 244.055139 195.127093 
L 243.119134 191.228355 
L 241.980369 187.383948 
L 240.641964 183.604407 
L 239.107586 179.900093 
L 237.381443 176.281159 
L 235.468265 172.757523 
L 233.373296 169.338845 
L 231.102279 166.034494 
L 228.661437 162.853527 
L 226.057462 159.804664 
L 223.29749 156.89626 
L 220.389086 154.136288 
L 217.340223 151.532313 
L 214.159256 149.091471 
L 210.854905 146.820454 
L 207.436227 144.725485 
L 203.912591 142.812307 
L 200.293657 141.086164 
L 196.589343 139.551786 
L 192.809802 138.213381 
L 188.965395 137.074616 
L 185.066657 136.138611 
L 181.124276 135.407934 
L 177.149057 134.884587 
L 173.151897 134.570004 
L 169.14375 134.465046 
L 165.135603 134.570004 
L 161.138443 134.884587 
L 157.163224 135.407934 
L 153.220843 136.138611 
L 149.322105 137.074616 
L 145.477698 138.213381 
L 141.698157 139.551786 
L 137.993843 141.086164 
L 134.374909 142.812307 
L 130.851273 144.725485 
L 127.432595 146.820454 
L 124.128244 149.091471 
L 120.947277 151.532313 
L 117.898414 154.136288 
L 114.99001 156.89626 
L 112.230038 159.804664 
L 109.626063 162.853527 
L 107.185221 166.034494 
L 104.914204 169.338845 
L 102.819235 172.757523 
L 100.906057 176.281159 
L 99.179914 179.900093 
L 97.645536 183.604407 
L 96.307131 187.383948 
L 95.168366 191.228355 
L 94.232361 195.127093 
L 93.501684 199.069474 
L 92.978337 203.044693 
L 92.663754 207.041853 
L 92.558796 211.05 
L 92.558796 211.05 
" style="fill:none;stroke:#b0b0b0;stroke-linecap:square;stroke-width:0.8;"/>
     </g>
     <g id="text_13">
      <!-- 2000 -->
      <g transform="translate(233.003704 225.648438)scale(0.1 -0.1)">
       <use xlink:href="#DejaVuSans-50"/>
       <use x="63.623047" xlink:href="#DejaVuSans-48"/>
       <use x="127.246094" xlink:href="#DejaVuSans-48"/>
       <use x="190.869141" xlink:href="#DejaVuSans-48"/>
      </g>
     </g>
    </g>
    <g id="ytick_4">
     <g id="line2d_14">
      <path clip-path="url(#p56c9e90f2a)" d="M 284.02118 211.05 
L 283.863745 205.03778 
L 283.39187 199.042039 
L 282.606848 193.079211 
L 281.510833 187.165639 
L 280.106827 181.317533 
L 278.398679 175.550922 
L 276.39107 169.881611 
L 274.089505 164.32514 
L 271.50029 158.896738 
L 268.630523 153.611285 
L 265.48807 148.483267 
L 262.081543 143.526741 
L 258.420281 138.755291 
L 254.514318 134.181995 
L 250.37436 129.81939 
L 246.011755 125.679432 
L 241.438459 121.773469 
L 236.667009 118.112207 
L 231.710483 114.70568 
L 226.582465 111.563227 
L 221.297012 108.69346 
L 215.86861 106.104245 
L 210.312139 103.80268 
L 204.642828 101.795071 
L 198.876217 100.086923 
L 193.028111 98.682917 
L 187.114539 97.586902 
L 181.151711 96.80188 
L 175.15597 96.330005 
L 169.14375 96.17257 
L 163.13153 96.330005 
L 157.135789 96.80188 
L 151.172961 97.586902 
L 145.259389 98.682917 
L 139.411283 100.086923 
L 133.644672 101.795071 
L 127.975361 103.80268 
L 122.41889 106.104245 
L 116.990488 108.69346 
L 111.705035 111.563227 
L 106.577017 114.70568 
L 101.620491 118.112207 
L 96.849041 121.773469 
L 92.275745 125.679432 
L 87.91314 129.81939 
L 83.773182 134.181995 
L 79.867219 138.755291 
L 76.205957 143.526741 
L 72.79943 148.483267 
L 69.656977 153.611285 
L 66.78721 158.896738 
L 64.197995 164.32514 
L 61.89643 169.881611 
L 59.888821 175.550922 
L 58.180673 181.317533 
L 56.776667 187.165639 
L 55.680652 193.079211 
L 54.89563 199.042039 
L 54.423755 205.03778 
L 54.26632 211.05 
L 54.26632 211.05 
" style="fill:none;stroke:#b0b0b0;stroke-linecap:square;stroke-width:0.8;"/>
     </g>
     <g id="text_14">
      <!-- 3000 -->
      <defs>
       <path d="M 40.578125 39.3125 
Q 47.65625 37.796875 51.625 33 
Q 55.609375 28.21875 55.609375 21.1875 
Q 55.609375 10.40625 48.1875 4.484375 
Q 40.765625 -1.421875 27.09375 -1.421875 
Q 22.515625 -1.421875 17.65625 -0.515625 
Q 12.796875 0.390625 7.625 2.203125 
L 7.625 11.71875 
Q 11.71875 9.328125 16.59375 8.109375 
Q 21.484375 6.890625 26.8125 6.890625 
Q 36.078125 6.890625 40.9375 10.546875 
Q 45.796875 14.203125 45.796875 21.1875 
Q 45.796875 27.640625 41.28125 31.265625 
Q 36.765625 34.90625 28.71875 34.90625 
L 20.21875 34.90625 
L 20.21875 43.015625 
L 29.109375 43.015625 
Q 36.375 43.015625 40.234375 45.921875 
Q 44.09375 48.828125 44.09375 54.296875 
Q 44.09375 59.90625 40.109375 62.90625 
Q 36.140625 65.921875 28.71875 65.921875 
Q 24.65625 65.921875 20.015625 65.03125 
Q 15.375 64.15625 9.8125 62.3125 
L 9.8125 71.09375 
Q 15.4375 72.65625 20.34375 73.4375 
Q 25.25 74.21875 29.59375 74.21875 
Q 40.828125 74.21875 47.359375 69.109375 
Q 53.90625 64.015625 53.90625 55.328125 
Q 53.90625 49.265625 50.4375 45.09375 
Q 46.96875 40.921875 40.578125 39.3125 
z
" id="DejaVuSans-51"/>
      </defs>
      <g transform="translate(271.29618 225.648438)scale(0.1 -0.1)">
       <use xlink:href="#DejaVuSans-51"/>
       <use x="63.623047" xlink:href="#DejaVuSans-48"/>
       <use x="127.246094" xlink:href="#DejaVuSans-48"/>
       <use x="190.869141" xlink:href="#DejaVuSans-48"/>
      </g>
     </g>
    </g>
   </g>
   <g id="line2d_15">
    <path clip-path="url(#p56c9e90f2a)" d="M 294.744193 197.884276 
L 295.758986 184.210906 
L 291.032497 171.558661 
L 276.311518 163.479014 
L 265.092928 155.831966 
L 257.852038 146.826174 
L 251.186385 137.467985 
L 241.244617 131.332271 
L 230.553561 126.971253 
L 220.70333 122.318597 
L 209.446994 121.269688 
L 198.923254 120.431145 
L 188.747066 120.440241 
L 178.691772 123.496387 
L 169.475501 131.746975 
L 161.102784 131.115806 
L 153.350452 134.976664 
L 145.936833 138.387314 
L 140.02706 144.708995 
L 136.834256 154.360418 
L 131.747811 158.939825 
L 133.109964 170.533245 
L 131.37404 176.60076 
L 130.978784 182.929324 
L 136.611208 191.96367 
L 141.179562 198.355785 
L 148.000752 204.003775 
L 155.682492 208.07867 
L 163.740779 210.437906 
" style="fill:none;stroke:#1f77b4;stroke-linecap:square;stroke-width:4;"/>
   </g>
   <g id="line2d_16">
    <path clip-path="url(#p56c9e90f2a)" d="M 217.547457 205.968216 
L 242.223395 195.534081 
L 252.733173 183.92216 
L 253.257566 173.646658 
L 247.465926 165.890943 
L 244.678202 156.250924 
L 238.429647 148.766031 
L 230.111291 143.464344 
L 220.715123 140.222999 
L 212.53913 136.087032 
L 202.350539 136.72056 
L 193.409811 136.717365 
L 184.241022 140.543511 
L 175.996012 146.85355 
L 169.251129 149.054573 
L 162.616151 147.820539 
L 157.01214 153.419217 
L 151.307916 155.766234 
L 146.81089 160.591938 
L 142.579794 164.793505 
L 138.994381 169.340638 
L 138.02349 176.310381 
L 139.363997 184.092637 
L 139.216316 189.179474 
L 143.982545 196.426164 
L 145.178339 200.293584 
L 151.753517 205.339568 
L 158.438839 208.738402 
L 165.679463 210.674156 
" style="fill:none;stroke:#ff7f0e;stroke-linecap:square;stroke-width:4;"/>
   </g>
   <g id="line2d_17">
    <path clip-path="url(#p56c9e90f2a)" d="M 193.517416 208.495291 
L 204.431309 203.570547 
L 213.076491 196.817158 
L 212.368453 191.864498 
L 215.97438 184.101772 
L 213.778569 178.738088 
L 213.474046 171.295651 
L 210.09023 165.783582 
L 206.16487 160.370357 
L 199.14086 159.435843 
L 193.487205 156.834577 
L 186.531073 158.157293 
L 180.96314 156.445822 
L 174.566679 161.373438 
L 169.338757 165.712127 
L 164.267016 162.509747 
L 157.965649 157.171038 
L 153.993736 163.590952 
L 148.452087 163.885889 
L 144.273816 167.397774 
L 140.41688 171.005979 
L 135.915659 173.674988 
L 137.886335 182.530186 
L 137.888583 188.0115 
L 139.620156 193.721176 
L 143.169452 199.252686 
L 150.654016 204.883657 
L 156.393567 208.232685 
L 164.654074 210.540335 
" style="fill:none;stroke:#2ca02c;stroke-linecap:square;stroke-width:4;"/>
   </g>
   <g id="line2d_18">
    <path clip-path="url(#p56c9e90f2a)" d="M 175.617994 210.371302 
L 175.92401 209.612649 
L 175.919341 208.854561 
L 176.003509 208.004738 
L 178.137739 205.873543 
L 177.890204 204.717017 
L 178.151449 202.970297 
L 178.441451 200.768737 
L 177.047866 200.226489 
L 176.010992 199.229627 
L 175.086125 197.809496 
L 173.362562 198.207978 
L 171.741688 199.035794 
L 170.350528 199.972428 
L 169.194924 198.451879 
L 167.201919 191.771556 
L 164.462599 188.517339 
L 160.693609 184.605222 
L 156.273733 181.738509 
L 152.851655 182.474963 
L 149.514611 183.707157 
L 146.643582 185.759643 
L 145.204729 189.223697 
L 147.1603 194.858755 
L 146.351754 197.684487 
L 148.395272 201.636584 
L 153.666822 205.895832 
L 158.598571 208.724846 
L 165.947542 210.688666 
" style="fill:none;stroke:#d62728;stroke-linecap:square;stroke-width:4;"/>
   </g>
   <g id="line2d_19">
    <path clip-path="url(#p56c9e90f2a)" d="M 169.14375 211.05 
L 169.14375 211.05 
L 169.14375 211.05 
L 169.14375 211.05 
L 169.14375 211.05 
L 169.14375 211.05 
L 169.14375 211.05 
L 169.14375 211.05 
L 169.14375 211.05 
L 169.14375 211.05 
L 169.14375 211.05 
L 169.14375 211.05 
L 169.14375 211.05 
L 169.14375 211.05 
L 169.156387 209.786411 
L 168.827283 207.695155 
L 168.088648 205.793907 
L 167.081226 204.433059 
L 166.14789 204.085074 
L 164.636477 202.997084 
L 163.250568 202.695214 
L 162.868314 203.871433 
L 162.409197 204.796564 
L 161.64303 205.414871 
L 162.379007 206.992569 
L 162.618889 208.008358 
L 163.750036 209.189494 
L 165.824 210.27933 
L 167.813813 210.884165 
" style="fill:none;stroke:#9467bd;stroke-linecap:square;stroke-width:4;"/>
   </g>
   <g id="patch_3">
    <path d="M 305.04375 211.05 
C 305.04375 175.020902 290.715981 140.430608 265.239562 114.954188 
C 239.763142 89.477769 205.172848 75.15 169.14375 75.15 
C 133.114652 75.15 98.524358 89.477769 73.047938 114.954188 
C 47.571519 140.430608 33.24375 175.020902 33.24375 211.05 
" style="fill:none;stroke:#000000;stroke-linecap:square;stroke-linejoin:miter;stroke-width:0.8;"/>
   </g>
   <g id="patch_4">
    <path d="M 169.14375 211.05 
L 305.04375 211.05 
" style="fill:none;stroke:#000000;stroke-linecap:square;stroke-linejoin:miter;stroke-width:0.8;"/>
   </g>
   <g id="patch_5">
    <path d="M 169.14375 211.05 
L 33.24375 211.05 
" style="fill:none;stroke:#000000;stroke-linecap:square;stroke-linejoin:miter;stroke-width:0.8;"/>
   </g>
   <g id="legend_1">
    <g id="patch_6">
     <path d="M 35.24375 143.1 
L 108.289063 143.1 
Q 110.289063 143.1 110.289063 141.1 
L 110.289063 68.709375 
Q 110.289063 66.709375 108.289063 66.709375 
L 35.24375 66.709375 
Q 33.24375 66.709375 33.24375 68.709375 
L 33.24375 141.1 
Q 33.24375 143.1 35.24375 143.1 
z
" style="fill:#ffffff;stroke:#cccccc;stroke-linejoin:miter;"/>
    </g>
    <g id="line2d_20">
     <path d="M 37.24375 74.807813 
L 57.24375 74.807813 
" style="fill:none;stroke:#1f77b4;stroke-linecap:square;stroke-width:4;"/>
    </g>
    <g id="line2d_21"/>
    <g id="text_15">
     <!-- 10 Mev -->
     <defs>
      <path id="DejaVuSans-32"/>
      <path d="M 9.8125 72.90625 
L 24.515625 72.90625 
L 43.109375 23.296875 
L 61.8125 72.90625 
L 76.515625 72.90625 
L 76.515625 0 
L 66.890625 0 
L 66.890625 64.015625 
L 48.09375 14.015625 
L 38.1875 14.015625 
L 19.390625 64.015625 
L 19.390625 0 
L 9.8125 0 
z
" id="DejaVuSans-77"/>
      <path d="M 56.203125 29.59375 
L 56.203125 25.203125 
L 14.890625 25.203125 
Q 15.484375 15.921875 20.484375 11.0625 
Q 25.484375 6.203125 34.421875 6.203125 
Q 39.59375 6.203125 44.453125 7.46875 
Q 49.3125 8.734375 54.109375 11.28125 
L 54.109375 2.78125 
Q 49.265625 0.734375 44.1875 -0.34375 
Q 39.109375 -1.421875 33.890625 -1.421875 
Q 20.796875 -1.421875 13.15625 6.1875 
Q 5.515625 13.8125 5.515625 26.8125 
Q 5.515625 40.234375 12.765625 48.109375 
Q 20.015625 56 32.328125 56 
Q 43.359375 56 49.78125 48.890625 
Q 56.203125 41.796875 56.203125 29.59375 
z
M 47.21875 32.234375 
Q 47.125 39.59375 43.09375 43.984375 
Q 39.0625 48.390625 32.421875 48.390625 
Q 24.90625 48.390625 20.390625 44.140625 
Q 15.875 39.890625 15.1875 32.171875 
z
" id="DejaVuSans-101"/>
      <path d="M 2.984375 54.6875 
L 12.5 54.6875 
L 29.59375 8.796875 
L 46.6875 54.6875 
L 56.203125 54.6875 
L 35.6875 0 
L 23.484375 0 
z
" id="DejaVuSans-118"/>
     </defs>
     <g transform="translate(65.24375 78.307813)scale(0.1 -0.1)">
      <use xlink:href="#DejaVuSans-49"/>
      <use x="63.623047" xlink:href="#DejaVuSans-48"/>
      <use x="127.246094" xlink:href="#DejaVuSans-32"/>
      <use x="159.033203" xlink:href="#DejaVuSans-77"/>
      <use x="245.3125" xlink:href="#DejaVuSans-101"/>
      <use x="306.835938" xlink:href="#DejaVuSans-118"/>
     </g>
    </g>
    <g id="line2d_22">
     <path d="M 37.24375 89.485938 
L 57.24375 89.485938 
" style="fill:none;stroke:#ff7f0e;stroke-linecap:square;stroke-width:4;"/>
    </g>
    <g id="line2d_23"/>
    <g id="text_16">
     <!-- 1 Mev -->
     <g transform="translate(65.24375 92.985938)scale(0.1 -0.1)">
      <use xlink:href="#DejaVuSans-49"/>
      <use x="63.623047" xlink:href="#DejaVuSans-32"/>
      <use x="95.410156" xlink:href="#DejaVuSans-77"/>
      <use x="181.689453" xlink:href="#DejaVuSans-101"/>
      <use x="243.212891" xlink:href="#DejaVuSans-118"/>
     </g>
    </g>
    <g id="line2d_24">
     <path d="M 37.24375 104.164062 
L 57.24375 104.164062 
" style="fill:none;stroke:#2ca02c;stroke-linecap:square;stroke-width:4;"/>
    </g>
    <g id="line2d_25"/>
    <g id="text_17">
     <!-- 511 keV -->
     <defs>
      <path d="M 10.796875 72.90625 
L 49.515625 72.90625 
L 49.515625 64.59375 
L 19.828125 64.59375 
L 19.828125 46.734375 
Q 21.96875 47.46875 24.109375 47.828125 
Q 26.265625 48.1875 28.421875 48.1875 
Q 40.625 48.1875 47.75 41.5 
Q 54.890625 34.8125 54.890625 23.390625 
Q 54.890625 11.625 47.5625 5.09375 
Q 40.234375 -1.421875 26.90625 -1.421875 
Q 22.3125 -1.421875 17.546875 -0.640625 
Q 12.796875 0.140625 7.71875 1.703125 
L 7.71875 11.625 
Q 12.109375 9.234375 16.796875 8.0625 
Q 21.484375 6.890625 26.703125 6.890625 
Q 35.15625 6.890625 40.078125 11.328125 
Q 45.015625 15.765625 45.015625 23.390625 
Q 45.015625 31 40.078125 35.4375 
Q 35.15625 39.890625 26.703125 39.890625 
Q 22.75 39.890625 18.8125 39.015625 
Q 14.890625 38.140625 10.796875 36.28125 
z
" id="DejaVuSans-53"/>
      <path d="M 9.078125 75.984375 
L 18.109375 75.984375 
L 18.109375 31.109375 
L 44.921875 54.6875 
L 56.390625 54.6875 
L 27.390625 29.109375 
L 57.625 0 
L 45.90625 0 
L 18.109375 26.703125 
L 18.109375 0 
L 9.078125 0 
z
" id="DejaVuSans-107"/>
      <path d="M 28.609375 0 
L 0.78125 72.90625 
L 11.078125 72.90625 
L 34.1875 11.53125 
L 57.328125 72.90625 
L 67.578125 72.90625 
L 39.796875 0 
z
" id="DejaVuSans-86"/>
     </defs>
     <g transform="translate(65.24375 107.664062)scale(0.1 -0.1)">
      <use xlink:href="#DejaVuSans-53"/>
      <use x="63.623047" xlink:href="#DejaVuSans-49"/>
      <use x="127.246094" xlink:href="#DejaVuSans-49"/>
      <use x="190.869141" xlink:href="#DejaVuSans-32"/>
      <use x="222.65625" xlink:href="#DejaVuSans-107"/>
      <use x="280.519531" xlink:href="#DejaVuSans-101"/>
      <use x="342.042969" xlink:href="#DejaVuSans-86"/>
     </g>
    </g>
    <g id="line2d_26">
     <path d="M 37.24375 118.842188 
L 57.24375 118.842188 
" style="fill:none;stroke:#d62728;stroke-linecap:square;stroke-width:4;"/>
    </g>
    <g id="line2d_27"/>
    <g id="text_18">
     <!-- 250 keV -->
     <g transform="translate(65.24375 122.342188)scale(0.1 -0.1)">
      <use xlink:href="#DejaVuSans-50"/>
      <use x="63.623047" xlink:href="#DejaVuSans-53"/>
      <use x="127.246094" xlink:href="#DejaVuSans-48"/>
      <use x="190.869141" xlink:href="#DejaVuSans-32"/>
      <use x="222.65625" xlink:href="#DejaVuSans-107"/>
      <use x="280.519531" xlink:href="#DejaVuSans-101"/>
      <use x="342.042969" xlink:href="#DejaVuSans-86"/>
     </g>
    </g>
    <g id="line2d_28">
     <path d="M 37.24375 133.520313 
L 57.24375 133.520313 
" style="fill:none;stroke:#9467bd;stroke-linecap:square;stroke-width:4;"/>
    </g>
    <g id="line2d_29"/>
    <g id="text_19">
     <!-- 100 keV -->
     <g transform="translate(65.24375 137.020313)scale(0.1 -0.1)">
      <use xlink:href="#DejaVuSans-49"/>
      <use x="63.623047" xlink:href="#DejaVuSans-48"/>
      <use x="127.246094" xlink:href="#DejaVuSans-48"/>
      <use x="190.869141" xlink:href="#DejaVuSans-32"/>
      <use x="222.65625" xlink:href="#DejaVuSans-107"/>
      <use x="280.519531" xlink:href="#DejaVuSans-101"/>
      <use x="342.042969" xlink:href="#DejaVuSans-86"/>
     </g>
    </g>
   </g>
  </g>
 </g>
 <defs>
  <clipPath id="p56c9e90f2a">
   <path d="M 305.04375 211.05 
C 305.04375 175.020902 290.715981 140.430608 265.239562 114.954188 
C 239.763142 89.477769 205.172848 75.15 169.14375 75.15 
C 133.114652 75.15 98.524358 89.477769 73.047938 114.954188 
C 47.571519 140.430608 33.24375 175.020902 33.24375 211.05 
L 169.14375 211.05 
C 169.14375 211.05 169.14375 211.05 169.14375 211.05 
C 169.14375 211.05 169.14375 211.05 169.14375 211.05 
C 169.14375 211.05 169.14375 211.05 169.14375 211.05 
C 169.14375 211.05 169.14375 211.05 169.14375 211.05 
L 305.04375 211.05 
z
"/>
  </clipPath>
 </defs>
</svg>
