<?xml version="1.0" encoding="utf-8" standalone="no"?>
<!DOCTYPE svg PUBLIC "-//W3C//DTD SVG 1.1//EN"
  "http://www.w3.org/Graphics/SVG/1.1/DTD/svg11.dtd">
<svg height="262.19625pt" version="1.1" viewBox="0 0 393.378125 262.19625" width="393.378125pt" xmlns="http://www.w3.org/2000/svg" xmlns:xlink="http://www.w3.org/1999/xlink">
 <metadata>
  <rdf:RDF xmlns:cc="http://creativecommons.org/ns#" xmlns:dc="http://purl.org/dc/elements/1.1/" xmlns:rdf="http://www.w3.org/1999/02/22-rdf-syntax-ns#">
   <cc:Work>
    <dc:type rdf:resource="http://purl.org/dc/dcmitype/StillImage"/>
    <dc:date>2021-05-22T11:35:49.413579</dc:date>
    <dc:format>image/svg+xml</dc:format>
    <dc:creator>
     <cc:Agent>
      <dc:title>Matplotlib v3.4.2, https://matplotlib.org/</dc:title>
     </cc:Agent>
    </dc:creator>
   </cc:Work>
  </rdf:RDF>
 </metadata>
 <defs>
  <style type="text/css">*{stroke-linecap:butt;stroke-linejoin:round;}</style>
 </defs>
 <g id="figure_1">
  <g id="patch_1">
   <path d="M 0 262.19625 
L 393.378125 262.19625 
L 393.378125 0 
L 0 0 
z
" style="fill:none;"/>
  </g>
  <g id="axes_1">
   <g id="patch_2">
    <path d="M 51.378125 224.64 
L 386.178125 224.64 
L 386.178125 7.2 
L 51.378125 7.2 
z
" style="fill:#ffffff;"/>
   </g>
   <g id="matplotlib.axis_1">
    <g id="xtick_1">
     <g id="line2d_1">
      <defs>
       <path d="M 0 0 
L 0 3.5 
" id="md2352742c7" style="stroke:#000000;stroke-width:0.8;"/>
      </defs>
      <g>
       <use style="stroke:#000000;stroke-width:0.8;" x="132.555699" xlink:href="#md2352742c7" y="224.64"/>
      </g>
     </g>
     <g id="text_1">
      <!-- $\mathdefault{10^{2}}$ -->
      <g transform="translate(123.755699 239.238437)scale(0.1 -0.1)">
       <defs>
        <path d="M 794 531 
L 1825 531 
L 1825 4091 
L 703 3866 
L 703 4441 
L 1819 4666 
L 2450 4666 
L 2450 531 
L 3481 531 
L 3481 0 
L 794 0 
L 794 531 
z
" id="DejaVuSans-31" transform="scale(0.015625)"/>
        <path d="M 2034 4250 
Q 1547 4250 1301 3770 
Q 1056 3291 1056 2328 
Q 1056 1369 1301 889 
Q 1547 409 2034 409 
Q 2525 409 2770 889 
Q 3016 1369 3016 2328 
Q 3016 3291 2770 3770 
Q 2525 4250 2034 4250 
z
M 2034 4750 
Q 2819 4750 3233 4129 
Q 3647 3509 3647 2328 
Q 3647 1150 3233 529 
Q 2819 -91 2034 -91 
Q 1250 -91 836 529 
Q 422 1150 422 2328 
Q 422 3509 836 4129 
Q 1250 4750 2034 4750 
z
" id="DejaVuSans-30" transform="scale(0.015625)"/>
        <path d="M 1228 531 
L 3431 531 
L 3431 0 
L 469 0 
L 469 531 
Q 828 903 1448 1529 
Q 2069 2156 2228 2338 
Q 2531 2678 2651 2914 
Q 2772 3150 2772 3378 
Q 2772 3750 2511 3984 
Q 2250 4219 1831 4219 
Q 1534 4219 1204 4116 
Q 875 4013 500 3803 
L 500 4441 
Q 881 4594 1212 4672 
Q 1544 4750 1819 4750 
Q 2544 4750 2975 4387 
Q 3406 4025 3406 3419 
Q 3406 3131 3298 2873 
Q 3191 2616 2906 2266 
Q 2828 2175 2409 1742 
Q 1991 1309 1228 531 
z
" id="DejaVuSans-32" transform="scale(0.015625)"/>
       </defs>
       <use transform="translate(0 0.765625)" xlink:href="#DejaVuSans-31"/>
       <use transform="translate(63.623047 0.765625)" xlink:href="#DejaVuSans-30"/>
       <use transform="translate(128.203125 39.046875)scale(0.7)" xlink:href="#DejaVuSans-32"/>
      </g>
     </g>
    </g>
    <g id="xtick_2">
     <g id="line2d_2">
      <g>
       <use style="stroke:#000000;stroke-width:0.8;" x="242.111878" xlink:href="#md2352742c7" y="224.64"/>
      </g>
     </g>
     <g id="text_2">
      <!-- $\mathdefault{10^{3}}$ -->
      <g transform="translate(233.311878 239.238437)scale(0.1 -0.1)">
       <defs>
        <path d="M 2597 2516 
Q 3050 2419 3304 2112 
Q 3559 1806 3559 1356 
Q 3559 666 3084 287 
Q 2609 -91 1734 -91 
Q 1441 -91 1130 -33 
Q 819 25 488 141 
L 488 750 
Q 750 597 1062 519 
Q 1375 441 1716 441 
Q 2309 441 2620 675 
Q 2931 909 2931 1356 
Q 2931 1769 2642 2001 
Q 2353 2234 1838 2234 
L 1294 2234 
L 1294 2753 
L 1863 2753 
Q 2328 2753 2575 2939 
Q 2822 3125 2822 3475 
Q 2822 3834 2567 4026 
Q 2313 4219 1838 4219 
Q 1578 4219 1281 4162 
Q 984 4106 628 3988 
L 628 4550 
Q 988 4650 1302 4700 
Q 1616 4750 1894 4750 
Q 2613 4750 3031 4423 
Q 3450 4097 3450 3541 
Q 3450 3153 3228 2886 
Q 3006 2619 2597 2516 
z
" id="DejaVuSans-33" transform="scale(0.015625)"/>
       </defs>
       <use transform="translate(0 0.765625)" xlink:href="#DejaVuSans-31"/>
       <use transform="translate(63.623047 0.765625)" xlink:href="#DejaVuSans-30"/>
       <use transform="translate(128.203125 39.046875)scale(0.7)" xlink:href="#DejaVuSans-33"/>
      </g>
     </g>
    </g>
    <g id="xtick_3">
     <g id="line2d_3">
      <g>
       <use style="stroke:#000000;stroke-width:0.8;" x="351.668058" xlink:href="#md2352742c7" y="224.64"/>
      </g>
     </g>
     <g id="text_3">
      <!-- $\mathdefault{10^{4}}$ -->
      <g transform="translate(342.868058 239.238437)scale(0.1 -0.1)">
       <defs>
        <path d="M 2419 4116 
L 825 1625 
L 2419 1625 
L 2419 4116 
z
M 2253 4666 
L 3047 4666 
L 3047 1625 
L 3713 1625 
L 3713 1100 
L 3047 1100 
L 3047 0 
L 2419 0 
L 2419 1100 
L 313 1100 
L 313 1709 
L 2253 4666 
z
" id="DejaVuSans-34" transform="scale(0.015625)"/>
       </defs>
       <use transform="translate(0 0.684375)" xlink:href="#DejaVuSans-31"/>
       <use transform="translate(63.623047 0.684375)" xlink:href="#DejaVuSans-30"/>
       <use transform="translate(128.203125 38.965625)scale(0.7)" xlink:href="#DejaVuSans-34"/>
      </g>
     </g>
    </g>
    <g id="xtick_4">
     <g id="line2d_4">
      <defs>
       <path d="M 0 0 
L 0 2 
" id="m368718b017" style="stroke:#000000;stroke-width:0.6;"/>
      </defs>
      <g>
       <use style="stroke:#000000;stroke-width:0.6;" x="55.979216" xlink:href="#m368718b017" y="224.64"/>
      </g>
     </g>
    </g>
    <g id="xtick_5">
     <g id="line2d_5">
      <g>
       <use style="stroke:#000000;stroke-width:0.6;" x="75.271102" xlink:href="#m368718b017" y="224.64"/>
      </g>
     </g>
    </g>
    <g id="xtick_6">
     <g id="line2d_6">
      <g>
       <use style="stroke:#000000;stroke-width:0.6;" x="88.958912" xlink:href="#m368718b017" y="224.64"/>
      </g>
     </g>
    </g>
    <g id="xtick_7">
     <g id="line2d_7">
      <g>
       <use style="stroke:#000000;stroke-width:0.6;" x="99.576003" xlink:href="#m368718b017" y="224.64"/>
      </g>
     </g>
    </g>
    <g id="xtick_8">
     <g id="line2d_8">
      <g>
       <use style="stroke:#000000;stroke-width:0.6;" x="108.250798" xlink:href="#m368718b017" y="224.64"/>
      </g>
     </g>
    </g>
    <g id="xtick_9">
     <g id="line2d_9">
      <g>
       <use style="stroke:#000000;stroke-width:0.6;" x="115.585232" xlink:href="#m368718b017" y="224.64"/>
      </g>
     </g>
    </g>
    <g id="xtick_10">
     <g id="line2d_10">
      <g>
       <use style="stroke:#000000;stroke-width:0.6;" x="121.938608" xlink:href="#m368718b017" y="224.64"/>
      </g>
     </g>
    </g>
    <g id="xtick_11">
     <g id="line2d_11">
      <g>
       <use style="stroke:#000000;stroke-width:0.6;" x="127.542683" xlink:href="#m368718b017" y="224.64"/>
      </g>
     </g>
    </g>
    <g id="xtick_12">
     <g id="line2d_12">
      <g>
       <use style="stroke:#000000;stroke-width:0.6;" x="165.535395" xlink:href="#m368718b017" y="224.64"/>
      </g>
     </g>
    </g>
    <g id="xtick_13">
     <g id="line2d_13">
      <g>
       <use style="stroke:#000000;stroke-width:0.6;" x="184.827281" xlink:href="#m368718b017" y="224.64"/>
      </g>
     </g>
    </g>
    <g id="xtick_14">
     <g id="line2d_14">
      <g>
       <use style="stroke:#000000;stroke-width:0.6;" x="198.515091" xlink:href="#m368718b017" y="224.64"/>
      </g>
     </g>
    </g>
    <g id="xtick_15">
     <g id="line2d_15">
      <g>
       <use style="stroke:#000000;stroke-width:0.6;" x="209.132182" xlink:href="#m368718b017" y="224.64"/>
      </g>
     </g>
    </g>
    <g id="xtick_16">
     <g id="line2d_16">
      <g>
       <use style="stroke:#000000;stroke-width:0.6;" x="217.806977" xlink:href="#m368718b017" y="224.64"/>
      </g>
     </g>
    </g>
    <g id="xtick_17">
     <g id="line2d_17">
      <g>
       <use style="stroke:#000000;stroke-width:0.6;" x="225.141411" xlink:href="#m368718b017" y="224.64"/>
      </g>
     </g>
    </g>
    <g id="xtick_18">
     <g id="line2d_18">
      <g>
       <use style="stroke:#000000;stroke-width:0.6;" x="231.494788" xlink:href="#m368718b017" y="224.64"/>
      </g>
     </g>
    </g>
    <g id="xtick_19">
     <g id="line2d_19">
      <g>
       <use style="stroke:#000000;stroke-width:0.6;" x="237.098863" xlink:href="#m368718b017" y="224.64"/>
      </g>
     </g>
    </g>
    <g id="xtick_20">
     <g id="line2d_20">
      <g>
       <use style="stroke:#000000;stroke-width:0.6;" x="275.091575" xlink:href="#m368718b017" y="224.64"/>
      </g>
     </g>
    </g>
    <g id="xtick_21">
     <g id="line2d_21">
      <g>
       <use style="stroke:#000000;stroke-width:0.6;" x="294.38346" xlink:href="#m368718b017" y="224.64"/>
      </g>
     </g>
    </g>
    <g id="xtick_22">
     <g id="line2d_22">
      <g>
       <use style="stroke:#000000;stroke-width:0.6;" x="308.071271" xlink:href="#m368718b017" y="224.64"/>
      </g>
     </g>
    </g>
    <g id="xtick_23">
     <g id="line2d_23">
      <g>
       <use style="stroke:#000000;stroke-width:0.6;" x="318.688361" xlink:href="#m368718b017" y="224.64"/>
      </g>
     </g>
    </g>
    <g id="xtick_24">
     <g id="line2d_24">
      <g>
       <use style="stroke:#000000;stroke-width:0.6;" x="327.363156" xlink:href="#m368718b017" y="224.64"/>
      </g>
     </g>
    </g>
    <g id="xtick_25">
     <g id="line2d_25">
      <g>
       <use style="stroke:#000000;stroke-width:0.6;" x="334.697591" xlink:href="#m368718b017" y="224.64"/>
      </g>
     </g>
    </g>
    <g id="xtick_26">
     <g id="line2d_26">
      <g>
       <use style="stroke:#000000;stroke-width:0.6;" x="341.050967" xlink:href="#m368718b017" y="224.64"/>
      </g>
     </g>
    </g>
    <g id="xtick_27">
     <g id="line2d_27">
      <g>
       <use style="stroke:#000000;stroke-width:0.6;" x="346.655042" xlink:href="#m368718b017" y="224.64"/>
      </g>
     </g>
    </g>
    <g id="xtick_28">
     <g id="line2d_28">
      <g>
       <use style="stroke:#000000;stroke-width:0.6;" x="384.647754" xlink:href="#m368718b017" y="224.64"/>
      </g>
     </g>
    </g>
    <g id="text_4">
     <!-- Energy [keV] -->
     <g transform="translate(186.570312 252.916562)scale(0.1 -0.1)">
      <defs>
       <path d="M 628 4666 
L 3578 4666 
L 3578 4134 
L 1259 4134 
L 1259 2753 
L 3481 2753 
L 3481 2222 
L 1259 2222 
L 1259 531 
L 3634 531 
L 3634 0 
L 628 0 
L 628 4666 
z
" id="DejaVuSans-45" transform="scale(0.015625)"/>
       <path d="M 3513 2113 
L 3513 0 
L 2938 0 
L 2938 2094 
Q 2938 2591 2744 2837 
Q 2550 3084 2163 3084 
Q 1697 3084 1428 2787 
Q 1159 2491 1159 1978 
L 1159 0 
L 581 0 
L 581 3500 
L 1159 3500 
L 1159 2956 
Q 1366 3272 1645 3428 
Q 1925 3584 2291 3584 
Q 2894 3584 3203 3211 
Q 3513 2838 3513 2113 
z
" id="DejaVuSans-6e" transform="scale(0.015625)"/>
       <path d="M 3597 1894 
L 3597 1613 
L 953 1613 
Q 991 1019 1311 708 
Q 1631 397 2203 397 
Q 2534 397 2845 478 
Q 3156 559 3463 722 
L 3463 178 
Q 3153 47 2828 -22 
Q 2503 -91 2169 -91 
Q 1331 -91 842 396 
Q 353 884 353 1716 
Q 353 2575 817 3079 
Q 1281 3584 2069 3584 
Q 2775 3584 3186 3129 
Q 3597 2675 3597 1894 
z
M 3022 2063 
Q 3016 2534 2758 2815 
Q 2500 3097 2075 3097 
Q 1594 3097 1305 2825 
Q 1016 2553 972 2059 
L 3022 2063 
z
" id="DejaVuSans-65" transform="scale(0.015625)"/>
       <path d="M 2631 2963 
Q 2534 3019 2420 3045 
Q 2306 3072 2169 3072 
Q 1681 3072 1420 2755 
Q 1159 2438 1159 1844 
L 1159 0 
L 581 0 
L 581 3500 
L 1159 3500 
L 1159 2956 
Q 1341 3275 1631 3429 
Q 1922 3584 2338 3584 
Q 2397 3584 2469 3576 
Q 2541 3569 2628 3553 
L 2631 2963 
z
" id="DejaVuSans-72" transform="scale(0.015625)"/>
       <path d="M 2906 1791 
Q 2906 2416 2648 2759 
Q 2391 3103 1925 3103 
Q 1463 3103 1205 2759 
Q 947 2416 947 1791 
Q 947 1169 1205 825 
Q 1463 481 1925 481 
Q 2391 481 2648 825 
Q 2906 1169 2906 1791 
z
M 3481 434 
Q 3481 -459 3084 -895 
Q 2688 -1331 1869 -1331 
Q 1566 -1331 1297 -1286 
Q 1028 -1241 775 -1147 
L 775 -588 
Q 1028 -725 1275 -790 
Q 1522 -856 1778 -856 
Q 2344 -856 2625 -561 
Q 2906 -266 2906 331 
L 2906 616 
Q 2728 306 2450 153 
Q 2172 0 1784 0 
Q 1141 0 747 490 
Q 353 981 353 1791 
Q 353 2603 747 3093 
Q 1141 3584 1784 3584 
Q 2172 3584 2450 3431 
Q 2728 3278 2906 2969 
L 2906 3500 
L 3481 3500 
L 3481 434 
z
" id="DejaVuSans-67" transform="scale(0.015625)"/>
       <path d="M 2059 -325 
Q 1816 -950 1584 -1140 
Q 1353 -1331 966 -1331 
L 506 -1331 
L 506 -850 
L 844 -850 
Q 1081 -850 1212 -737 
Q 1344 -625 1503 -206 
L 1606 56 
L 191 3500 
L 800 3500 
L 1894 763 
L 2988 3500 
L 3597 3500 
L 2059 -325 
z
" id="DejaVuSans-79" transform="scale(0.015625)"/>
       <path id="DejaVuSans-20" transform="scale(0.015625)"/>
       <path d="M 550 4863 
L 1875 4863 
L 1875 4416 
L 1125 4416 
L 1125 -397 
L 1875 -397 
L 1875 -844 
L 550 -844 
L 550 4863 
z
" id="DejaVuSans-5b" transform="scale(0.015625)"/>
       <path d="M 581 4863 
L 1159 4863 
L 1159 1991 
L 2875 3500 
L 3609 3500 
L 1753 1863 
L 3688 0 
L 2938 0 
L 1159 1709 
L 1159 0 
L 581 0 
L 581 4863 
z
" id="DejaVuSans-6b" transform="scale(0.015625)"/>
       <path d="M 1831 0 
L 50 4666 
L 709 4666 
L 2188 738 
L 3669 4666 
L 4325 4666 
L 2547 0 
L 1831 0 
z
" id="DejaVuSans-56" transform="scale(0.015625)"/>
       <path d="M 1947 4863 
L 1947 -844 
L 622 -844 
L 622 -397 
L 1369 -397 
L 1369 4416 
L 622 4416 
L 622 4863 
L 1947 4863 
z
" id="DejaVuSans-5d" transform="scale(0.015625)"/>
      </defs>
      <use xlink:href="#DejaVuSans-45"/>
      <use x="63.183594" xlink:href="#DejaVuSans-6e"/>
      <use x="126.5625" xlink:href="#DejaVuSans-65"/>
      <use x="188.085938" xlink:href="#DejaVuSans-72"/>
      <use x="227.449219" xlink:href="#DejaVuSans-67"/>
      <use x="290.925781" xlink:href="#DejaVuSans-79"/>
      <use x="350.105469" xlink:href="#DejaVuSans-20"/>
      <use x="381.892578" xlink:href="#DejaVuSans-5b"/>
      <use x="420.90625" xlink:href="#DejaVuSans-6b"/>
      <use x="475.191406" xlink:href="#DejaVuSans-65"/>
      <use x="536.714844" xlink:href="#DejaVuSans-56"/>
      <use x="605.123047" xlink:href="#DejaVuSans-5d"/>
     </g>
    </g>
   </g>
   <g id="matplotlib.axis_2">
    <g id="ytick_1">
     <g id="line2d_29">
      <defs>
       <path d="M 0 0 
L -3.5 0 
" id="m6e5a884d45" style="stroke:#000000;stroke-width:0.8;"/>
      </defs>
      <g>
       <use style="stroke:#000000;stroke-width:0.8;" x="51.378125" xlink:href="#m6e5a884d45" y="204.924135"/>
      </g>
     </g>
     <g id="text_5">
      <!-- $\mathdefault{10^{-4}}$ -->
      <g transform="translate(20.878125 208.723354)scale(0.1 -0.1)">
       <defs>
        <path d="M 678 2272 
L 4684 2272 
L 4684 1741 
L 678 1741 
L 678 2272 
z
" id="DejaVuSans-2212" transform="scale(0.015625)"/>
       </defs>
       <use transform="translate(0 0.684375)" xlink:href="#DejaVuSans-31"/>
       <use transform="translate(63.623047 0.684375)" xlink:href="#DejaVuSans-30"/>
       <use transform="translate(128.203125 38.965625)scale(0.7)" xlink:href="#DejaVuSans-2212"/>
       <use transform="translate(186.855469 38.965625)scale(0.7)" xlink:href="#DejaVuSans-34"/>
      </g>
     </g>
    </g>
    <g id="ytick_2">
     <g id="line2d_30">
      <g>
       <use style="stroke:#000000;stroke-width:0.8;" x="51.378125" xlink:href="#m6e5a884d45" y="133.505223"/>
      </g>
     </g>
     <g id="text_6">
      <!-- $\mathdefault{10^{-3}}$ -->
      <g transform="translate(20.878125 137.304442)scale(0.1 -0.1)">
       <use transform="translate(0 0.765625)" xlink:href="#DejaVuSans-31"/>
       <use transform="translate(63.623047 0.765625)" xlink:href="#DejaVuSans-30"/>
       <use transform="translate(128.203125 39.046875)scale(0.7)" xlink:href="#DejaVuSans-2212"/>
       <use transform="translate(186.855469 39.046875)scale(0.7)" xlink:href="#DejaVuSans-33"/>
      </g>
     </g>
    </g>
    <g id="ytick_3">
     <g id="line2d_31">
      <g>
       <use style="stroke:#000000;stroke-width:0.8;" x="51.378125" xlink:href="#m6e5a884d45" y="62.08631"/>
      </g>
     </g>
     <g id="text_7">
      <!-- $\mathdefault{10^{-2}}$ -->
      <g transform="translate(20.878125 65.885529)scale(0.1 -0.1)">
       <use transform="translate(0 0.765625)" xlink:href="#DejaVuSans-31"/>
       <use transform="translate(63.623047 0.765625)" xlink:href="#DejaVuSans-30"/>
       <use transform="translate(128.203125 39.046875)scale(0.7)" xlink:href="#DejaVuSans-2212"/>
       <use transform="translate(186.855469 39.046875)scale(0.7)" xlink:href="#DejaVuSans-32"/>
      </g>
     </g>
    </g>
    <g id="ytick_4">
     <g id="line2d_32">
      <defs>
       <path d="M 0 0 
L -2 0 
" id="md155edb7a7" style="stroke:#000000;stroke-width:0.6;"/>
      </defs>
      <g>
       <use style="stroke:#000000;stroke-width:0.6;" x="51.378125" xlink:href="#md155edb7a7" y="220.768332"/>
      </g>
     </g>
    </g>
    <g id="ytick_5">
     <g id="line2d_33">
      <g>
       <use style="stroke:#000000;stroke-width:0.6;" x="51.378125" xlink:href="#md155edb7a7" y="215.987065"/>
      </g>
     </g>
    </g>
    <g id="ytick_6">
     <g id="line2d_34">
      <g>
       <use style="stroke:#000000;stroke-width:0.6;" x="51.378125" xlink:href="#md155edb7a7" y="211.845343"/>
      </g>
     </g>
    </g>
    <g id="ytick_7">
     <g id="line2d_35">
      <g>
       <use style="stroke:#000000;stroke-width:0.6;" x="51.378125" xlink:href="#md155edb7a7" y="208.192085"/>
      </g>
     </g>
    </g>
    <g id="ytick_8">
     <g id="line2d_36">
      <g>
       <use style="stroke:#000000;stroke-width:0.6;" x="51.378125" xlink:href="#md155edb7a7" y="183.4249"/>
      </g>
     </g>
    </g>
    <g id="ytick_9">
     <g id="line2d_37">
      <g>
       <use style="stroke:#000000;stroke-width:0.6;" x="51.378125" xlink:href="#md155edb7a7" y="170.848654"/>
      </g>
     </g>
    </g>
    <g id="ytick_10">
     <g id="line2d_38">
      <g>
       <use style="stroke:#000000;stroke-width:0.6;" x="51.378125" xlink:href="#md155edb7a7" y="161.925665"/>
      </g>
     </g>
    </g>
    <g id="ytick_11">
     <g id="line2d_39">
      <g>
       <use style="stroke:#000000;stroke-width:0.6;" x="51.378125" xlink:href="#md155edb7a7" y="155.004458"/>
      </g>
     </g>
    </g>
    <g id="ytick_12">
     <g id="line2d_40">
      <g>
       <use style="stroke:#000000;stroke-width:0.6;" x="51.378125" xlink:href="#md155edb7a7" y="149.349419"/>
      </g>
     </g>
    </g>
    <g id="ytick_13">
     <g id="line2d_41">
      <g>
       <use style="stroke:#000000;stroke-width:0.6;" x="51.378125" xlink:href="#md155edb7a7" y="144.568152"/>
      </g>
     </g>
    </g>
    <g id="ytick_14">
     <g id="line2d_42">
      <g>
       <use style="stroke:#000000;stroke-width:0.6;" x="51.378125" xlink:href="#md155edb7a7" y="140.426431"/>
      </g>
     </g>
    </g>
    <g id="ytick_15">
     <g id="line2d_43">
      <g>
       <use style="stroke:#000000;stroke-width:0.6;" x="51.378125" xlink:href="#md155edb7a7" y="136.773173"/>
      </g>
     </g>
    </g>
    <g id="ytick_16">
     <g id="line2d_44">
      <g>
       <use style="stroke:#000000;stroke-width:0.6;" x="51.378125" xlink:href="#md155edb7a7" y="112.005988"/>
      </g>
     </g>
    </g>
    <g id="ytick_17">
     <g id="line2d_45">
      <g>
       <use style="stroke:#000000;stroke-width:0.6;" x="51.378125" xlink:href="#md155edb7a7" y="99.429742"/>
      </g>
     </g>
    </g>
    <g id="ytick_18">
     <g id="line2d_46">
      <g>
       <use style="stroke:#000000;stroke-width:0.6;" x="51.378125" xlink:href="#md155edb7a7" y="90.506753"/>
      </g>
     </g>
    </g>
    <g id="ytick_19">
     <g id="line2d_47">
      <g>
       <use style="stroke:#000000;stroke-width:0.6;" x="51.378125" xlink:href="#md155edb7a7" y="83.585545"/>
      </g>
     </g>
    </g>
    <g id="ytick_20">
     <g id="line2d_48">
      <g>
       <use style="stroke:#000000;stroke-width:0.6;" x="51.378125" xlink:href="#md155edb7a7" y="77.930507"/>
      </g>
     </g>
    </g>
    <g id="ytick_21">
     <g id="line2d_49">
      <g>
       <use style="stroke:#000000;stroke-width:0.6;" x="51.378125" xlink:href="#md155edb7a7" y="73.14924"/>
      </g>
     </g>
    </g>
    <g id="ytick_22">
     <g id="line2d_50">
      <g>
       <use style="stroke:#000000;stroke-width:0.6;" x="51.378125" xlink:href="#md155edb7a7" y="69.007518"/>
      </g>
     </g>
    </g>
    <g id="ytick_23">
     <g id="line2d_51">
      <g>
       <use style="stroke:#000000;stroke-width:0.6;" x="51.378125" xlink:href="#md155edb7a7" y="65.35426"/>
      </g>
     </g>
    </g>
    <g id="ytick_24">
     <g id="line2d_52">
      <g>
       <use style="stroke:#000000;stroke-width:0.6;" x="51.378125" xlink:href="#md155edb7a7" y="40.587075"/>
      </g>
     </g>
    </g>
    <g id="ytick_25">
     <g id="line2d_53">
      <g>
       <use style="stroke:#000000;stroke-width:0.6;" x="51.378125" xlink:href="#md155edb7a7" y="28.010829"/>
      </g>
     </g>
    </g>
    <g id="ytick_26">
     <g id="line2d_54">
      <g>
       <use style="stroke:#000000;stroke-width:0.6;" x="51.378125" xlink:href="#md155edb7a7" y="19.08784"/>
      </g>
     </g>
    </g>
    <g id="ytick_27">
     <g id="line2d_55">
      <g>
       <use style="stroke:#000000;stroke-width:0.6;" x="51.378125" xlink:href="#md155edb7a7" y="12.166633"/>
      </g>
     </g>
    </g>
    <g id="text_8">
     <!-- Efficiency -->
     <g transform="translate(14.798438 140.080937)rotate(-90)scale(0.1 -0.1)">
      <defs>
       <path d="M 2375 4863 
L 2375 4384 
L 1825 4384 
Q 1516 4384 1395 4259 
Q 1275 4134 1275 3809 
L 1275 3500 
L 2222 3500 
L 2222 3053 
L 1275 3053 
L 1275 0 
L 697 0 
L 697 3053 
L 147 3053 
L 147 3500 
L 697 3500 
L 697 3744 
Q 697 4328 969 4595 
Q 1241 4863 1831 4863 
L 2375 4863 
z
" id="DejaVuSans-66" transform="scale(0.015625)"/>
       <path d="M 603 3500 
L 1178 3500 
L 1178 0 
L 603 0 
L 603 3500 
z
M 603 4863 
L 1178 4863 
L 1178 4134 
L 603 4134 
L 603 4863 
z
" id="DejaVuSans-69" transform="scale(0.015625)"/>
       <path d="M 3122 3366 
L 3122 2828 
Q 2878 2963 2633 3030 
Q 2388 3097 2138 3097 
Q 1578 3097 1268 2742 
Q 959 2388 959 1747 
Q 959 1106 1268 751 
Q 1578 397 2138 397 
Q 2388 397 2633 464 
Q 2878 531 3122 666 
L 3122 134 
Q 2881 22 2623 -34 
Q 2366 -91 2075 -91 
Q 1284 -91 818 406 
Q 353 903 353 1747 
Q 353 2603 823 3093 
Q 1294 3584 2113 3584 
Q 2378 3584 2631 3529 
Q 2884 3475 3122 3366 
z
" id="DejaVuSans-63" transform="scale(0.015625)"/>
      </defs>
      <use xlink:href="#DejaVuSans-45"/>
      <use x="63.183594" xlink:href="#DejaVuSans-66"/>
      <use x="98.388672" xlink:href="#DejaVuSans-66"/>
      <use x="133.59375" xlink:href="#DejaVuSans-69"/>
      <use x="161.376953" xlink:href="#DejaVuSans-63"/>
      <use x="216.357422" xlink:href="#DejaVuSans-69"/>
      <use x="244.140625" xlink:href="#DejaVuSans-65"/>
      <use x="305.664062" xlink:href="#DejaVuSans-6e"/>
      <use x="369.042969" xlink:href="#DejaVuSans-63"/>
      <use x="424.023438" xlink:href="#DejaVuSans-79"/>
     </g>
    </g>
   </g>
   <g id="LineCollection_1">
    <path clip-path="url(#pca61c2662d)" d="M 66.596307 36.550893 
L 66.596307 36.2348 
" style="fill:none;stroke:#0000ff;stroke-width:1.5;"/>
    <path clip-path="url(#pca61c2662d)" d="M 108.250798 18.301913 
L 108.250798 17.990489 
" style="fill:none;stroke:#0000ff;stroke-width:1.5;"/>
    <path clip-path="url(#pca61c2662d)" d="M 132.555699 20.899966 
L 132.555699 20.573681 
" style="fill:none;stroke:#0000ff;stroke-width:1.5;"/>
    <path clip-path="url(#pca61c2662d)" d="M 151.847585 26.93981 
L 151.847585 26.663378 
" style="fill:none;stroke:#0000ff;stroke-width:1.5;"/>
    <path clip-path="url(#pca61c2662d)" d="M 176.152486 40.829955 
L 176.152486 40.605691 
" style="fill:none;stroke:#0000ff;stroke-width:1.5;"/>
    <path clip-path="url(#pca61c2662d)" d="M 217.806977 69.770933 
L 217.806977 69.357782 
" style="fill:none;stroke:#0000ff;stroke-width:1.5;"/>
    <path clip-path="url(#pca61c2662d)" d="M 242.111878 84.639203 
L 242.111878 84.031239 
" style="fill:none;stroke:#0000ff;stroke-width:1.5;"/>
    <path clip-path="url(#pca61c2662d)" d="M 261.403764 96.048786 
L 261.403764 95.732097 
" style="fill:none;stroke:#0000ff;stroke-width:1.5;"/>
    <path clip-path="url(#pca61c2662d)" d="M 285.708665 112.029259 
L 285.708665 110.796942 
" style="fill:none;stroke:#0000ff;stroke-width:1.5;"/>
    <path clip-path="url(#pca61c2662d)" d="M 327.363156 147.918266 
L 327.363156 145.7882 
" style="fill:none;stroke:#0000ff;stroke-width:1.5;"/>
    <path clip-path="url(#pca61c2662d)" d="M 351.668058 176.565788 
L 351.668058 173.754943 
" style="fill:none;stroke:#0000ff;stroke-width:1.5;"/>
    <path clip-path="url(#pca61c2662d)" d="M 370.959943 214.756364 
L 370.959943 207.342256 
" style="fill:none;stroke:#0000ff;stroke-width:1.5;"/>
   </g>
   <g id="LineCollection_2">
    <path clip-path="url(#pca61c2662d)" d="M 66.596307 36.550893 
L 66.596307 36.2348 
" style="fill:none;stroke:#0000ff;stroke-opacity:0.15;stroke-width:1.5;"/>
    <path clip-path="url(#pca61c2662d)" d="M 108.250798 18.301913 
L 108.250798 17.990489 
" style="fill:none;stroke:#0000ff;stroke-opacity:0.15;stroke-width:1.5;"/>
    <path clip-path="url(#pca61c2662d)" d="M 132.555699 20.899966 
L 132.555699 20.573681 
" style="fill:none;stroke:#0000ff;stroke-opacity:0.15;stroke-width:1.5;"/>
    <path clip-path="url(#pca61c2662d)" d="M 151.847585 26.93981 
L 151.847585 26.663378 
" style="fill:none;stroke:#0000ff;stroke-opacity:0.15;stroke-width:1.5;"/>
    <path clip-path="url(#pca61c2662d)" d="M 176.152486 40.829955 
L 176.152486 40.605691 
" style="fill:none;stroke:#0000ff;stroke-opacity:0.15;stroke-width:1.5;"/>
    <path clip-path="url(#pca61c2662d)" d="M 217.806977 69.770933 
L 217.806977 69.357782 
" style="fill:none;stroke:#0000ff;stroke-opacity:0.15;stroke-width:1.5;"/>
    <path clip-path="url(#pca61c2662d)" d="M 242.111878 84.639203 
L 242.111878 84.031239 
" style="fill:none;stroke:#0000ff;stroke-opacity:0.15;stroke-width:1.5;"/>
    <path clip-path="url(#pca61c2662d)" d="M 261.403764 96.048786 
L 261.403764 95.732097 
" style="fill:none;stroke:#0000ff;stroke-opacity:0.15;stroke-width:1.5;"/>
    <path clip-path="url(#pca61c2662d)" d="M 285.708665 112.029259 
L 285.708665 110.796942 
" style="fill:none;stroke:#0000ff;stroke-opacity:0.15;stroke-width:1.5;"/>
    <path clip-path="url(#pca61c2662d)" d="M 327.363156 147.918266 
L 327.363156 145.7882 
" style="fill:none;stroke:#0000ff;stroke-opacity:0.15;stroke-width:1.5;"/>
    <path clip-path="url(#pca61c2662d)" d="M 351.668058 176.565788 
L 351.668058 173.754943 
" style="fill:none;stroke:#0000ff;stroke-opacity:0.15;stroke-width:1.5;"/>
    <path clip-path="url(#pca61c2662d)" d="M 370.959943 214.756364 
L 370.959943 207.342256 
" style="fill:none;stroke:#0000ff;stroke-opacity:0.15;stroke-width:1.5;"/>
   </g>
   <g id="LineCollection_3">
    <path clip-path="url(#pca61c2662d)" d="M 66.596307 36.421809 
L 66.596307 36.112839 
" style="fill:none;stroke:#ffa500;stroke-width:1.5;"/>
    <path clip-path="url(#pca61c2662d)" d="M 108.250798 17.420316 
L 108.250798 17.083636 
" style="fill:none;stroke:#ffa500;stroke-width:1.5;"/>
    <path clip-path="url(#pca61c2662d)" d="M 132.555699 18.428426 
L 132.555699 18.16136 
" style="fill:none;stroke:#ffa500;stroke-width:1.5;"/>
    <path clip-path="url(#pca61c2662d)" d="M 151.847585 21.380054 
L 151.847585 21.155171 
" style="fill:none;stroke:#ffa500;stroke-width:1.5;"/>
    <path clip-path="url(#pca61c2662d)" d="M 176.152486 25.808091 
L 176.152486 25.749403 
" style="fill:none;stroke:#ffa500;stroke-width:1.5;"/>
    <path clip-path="url(#pca61c2662d)" d="M 217.806977 32.756275 
L 217.806977 32.495527 
" style="fill:none;stroke:#ffa500;stroke-width:1.5;"/>
    <path clip-path="url(#pca61c2662d)" d="M 242.111878 36.705138 
L 242.111878 36.333797 
" style="fill:none;stroke:#ffa500;stroke-width:1.5;"/>
    <path clip-path="url(#pca61c2662d)" d="M 261.403764 40.187986 
L 261.403764 40.139542 
" style="fill:none;stroke:#ffa500;stroke-width:1.5;"/>
    <path clip-path="url(#pca61c2662d)" d="M 285.708665 44.454993 
L 285.708665 44.124141 
" style="fill:none;stroke:#ffa500;stroke-width:1.5;"/>
    <path clip-path="url(#pca61c2662d)" d="M 327.363156 48.902269 
L 327.363156 48.484024 
" style="fill:none;stroke:#ffa500;stroke-width:1.5;"/>
    <path clip-path="url(#pca61c2662d)" d="M 351.668058 48.904973 
L 351.668058 48.299195 
" style="fill:none;stroke:#ffa500;stroke-width:1.5;"/>
    <path clip-path="url(#pca61c2662d)" d="M 370.959943 47.632599 
L 370.959943 47.239988 
" style="fill:none;stroke:#ffa500;stroke-width:1.5;"/>
   </g>
   <g id="LineCollection_4">
    <path clip-path="url(#pca61c2662d)" d="M 66.596307 36.421809 
L 66.596307 36.112839 
" style="fill:none;stroke:#ffa500;stroke-opacity:0.15;stroke-width:1.5;"/>
    <path clip-path="url(#pca61c2662d)" d="M 108.250798 17.420316 
L 108.250798 17.083636 
" style="fill:none;stroke:#ffa500;stroke-opacity:0.15;stroke-width:1.5;"/>
    <path clip-path="url(#pca61c2662d)" d="M 132.555699 18.428426 
L 132.555699 18.16136 
" style="fill:none;stroke:#ffa500;stroke-opacity:0.15;stroke-width:1.5;"/>
    <path clip-path="url(#pca61c2662d)" d="M 151.847585 21.380054 
L 151.847585 21.155171 
" style="fill:none;stroke:#ffa500;stroke-opacity:0.15;stroke-width:1.5;"/>
    <path clip-path="url(#pca61c2662d)" d="M 176.152486 25.808091 
L 176.152486 25.749403 
" style="fill:none;stroke:#ffa500;stroke-opacity:0.15;stroke-width:1.5;"/>
    <path clip-path="url(#pca61c2662d)" d="M 217.806977 32.756275 
L 217.806977 32.495527 
" style="fill:none;stroke:#ffa500;stroke-opacity:0.15;stroke-width:1.5;"/>
    <path clip-path="url(#pca61c2662d)" d="M 242.111878 36.705138 
L 242.111878 36.333797 
" style="fill:none;stroke:#ffa500;stroke-opacity:0.15;stroke-width:1.5;"/>
    <path clip-path="url(#pca61c2662d)" d="M 261.403764 40.187986 
L 261.403764 40.139542 
" style="fill:none;stroke:#ffa500;stroke-opacity:0.15;stroke-width:1.5;"/>
    <path clip-path="url(#pca61c2662d)" d="M 285.708665 44.454993 
L 285.708665 44.124141 
" style="fill:none;stroke:#ffa500;stroke-opacity:0.15;stroke-width:1.5;"/>
    <path clip-path="url(#pca61c2662d)" d="M 327.363156 48.902269 
L 327.363156 48.484024 
" style="fill:none;stroke:#ffa500;stroke-opacity:0.15;stroke-width:1.5;"/>
    <path clip-path="url(#pca61c2662d)" d="M 351.668058 48.904973 
L 351.668058 48.299195 
" style="fill:none;stroke:#ffa500;stroke-opacity:0.15;stroke-width:1.5;"/>
    <path clip-path="url(#pca61c2662d)" d="M 370.959943 47.632599 
L 370.959943 47.239988 
" style="fill:none;stroke:#ffa500;stroke-opacity:0.15;stroke-width:1.5;"/>
   </g>
   <g id="line2d_56">
    <defs>
     <path d="M 0 1.5 
C 0.397805 1.5 0.77937 1.341951 1.06066 1.06066 
C 1.341951 0.77937 1.5 0.397805 1.5 0 
C 1.5 -0.397805 1.341951 -0.77937 1.06066 -1.06066 
C 0.77937 -1.341951 0.397805 -1.5 0 -1.5 
C -0.397805 -1.5 -0.77937 -1.341951 -1.06066 -1.06066 
C -1.341951 -0.77937 -1.5 -0.397805 -1.5 0 
C -1.5 0.397805 -1.341951 0.77937 -1.06066 1.06066 
C -0.77937 1.341951 -0.397805 1.5 0 1.5 
z
" id="mf6cd520b6a" style="stroke:#0000ff;"/>
    </defs>
    <g clip-path="url(#pca61c2662d)">
     <use style="fill:#0000ff;stroke:#0000ff;" x="66.596307" xlink:href="#mf6cd520b6a" y="36.392444"/>
     <use style="fill:#0000ff;stroke:#0000ff;" x="108.250798" xlink:href="#mf6cd520b6a" y="18.14581"/>
     <use style="fill:#0000ff;stroke:#0000ff;" x="132.555699" xlink:href="#mf6cd520b6a" y="20.736394"/>
     <use style="fill:#0000ff;stroke:#0000ff;" x="151.847585" xlink:href="#mf6cd520b6a" y="26.801286"/>
     <use style="fill:#0000ff;stroke:#0000ff;" x="176.152486" xlink:href="#mf6cd520b6a" y="40.71762"/>
     <use style="fill:#0000ff;stroke:#0000ff;" x="217.806977" xlink:href="#mf6cd520b6a" y="69.563669"/>
     <use style="fill:#0000ff;stroke:#0000ff;" x="242.111878" xlink:href="#mf6cd520b6a" y="84.333732"/>
     <use style="fill:#0000ff;stroke:#0000ff;" x="261.403764" xlink:href="#mf6cd520b6a" y="95.890037"/>
     <use style="fill:#0000ff;stroke:#0000ff;" x="285.708665" xlink:href="#mf6cd520b6a" y="111.406981"/>
     <use style="fill:#0000ff;stroke:#0000ff;" x="327.363156" xlink:href="#mf6cd520b6a" y="146.834952"/>
     <use style="fill:#0000ff;stroke:#0000ff;" x="351.668058" xlink:href="#mf6cd520b6a" y="175.128536"/>
     <use style="fill:#0000ff;stroke:#0000ff;" x="370.959943" xlink:href="#mf6cd520b6a" y="210.828306"/>
    </g>
   </g>
   <g id="line2d_57">
    <path clip-path="url(#pca61c2662d)" d="M 66.596307 36.392444 
L 108.250798 18.14581 
L 132.555699 20.736394 
L 151.847585 26.801286 
L 176.152486 40.71762 
L 217.806977 69.563669 
L 242.111878 84.333732 
L 261.403764 95.890037 
L 285.708665 111.406981 
L 327.363156 146.834952 
L 351.668058 175.128536 
L 370.959943 210.828306 
" style="fill:none;stroke:#0000ff;stroke-linecap:square;stroke-opacity:0.15;stroke-width:1.5;"/>
   </g>
   <g id="line2d_58">
    <defs>
     <path d="M 0 1.5 
C 0.397805 1.5 0.77937 1.341951 1.06066 1.06066 
C 1.341951 0.77937 1.5 0.397805 1.5 0 
C 1.5 -0.397805 1.341951 -0.77937 1.06066 -1.06066 
C 0.77937 -1.341951 0.397805 -1.5 0 -1.5 
C -0.397805 -1.5 -0.77937 -1.341951 -1.06066 -1.06066 
C -1.341951 -0.77937 -1.5 -0.397805 -1.5 0 
C -1.5 0.397805 -1.341951 0.77937 -1.06066 1.06066 
C -0.77937 1.341951 -0.397805 1.5 0 1.5 
z
" id="m4d0d65c2c3" style="stroke:#ffa500;"/>
    </defs>
    <g clip-path="url(#pca61c2662d)">
     <use style="fill:#ffa500;stroke:#ffa500;" x="66.596307" xlink:href="#m4d0d65c2c3" y="36.266939"/>
     <use style="fill:#ffa500;stroke:#ffa500;" x="108.250798" xlink:href="#m4d0d65c2c3" y="17.251519"/>
     <use style="fill:#ffa500;stroke:#ffa500;" x="132.555699" xlink:href="#m4d0d65c2c3" y="18.294605"/>
     <use style="fill:#ffa500;stroke:#ffa500;" x="151.847585" xlink:href="#m4d0d65c2c3" y="21.267408"/>
     <use style="fill:#ffa500;stroke:#ffa500;" x="176.152486" xlink:href="#m4d0d65c2c3" y="25.778733"/>
     <use style="fill:#ffa500;stroke:#ffa500;" x="217.806977" xlink:href="#m4d0d65c2c3" y="32.625627"/>
     <use style="fill:#ffa500;stroke:#ffa500;" x="242.111878" xlink:href="#m4d0d65c2c3" y="36.518912"/>
     <use style="fill:#ffa500;stroke:#ffa500;" x="261.403764" xlink:href="#m4d0d65c2c3" y="40.163754"/>
     <use style="fill:#ffa500;stroke:#ffa500;" x="285.708665" xlink:href="#m4d0d65c2c3" y="44.289126"/>
     <use style="fill:#ffa500;stroke:#ffa500;" x="327.363156" xlink:href="#m4d0d65c2c3" y="48.692442"/>
     <use style="fill:#ffa500;stroke:#ffa500;" x="351.668058" xlink:href="#m4d0d65c2c3" y="48.600605"/>
     <use style="fill:#ffa500;stroke:#ffa500;" x="370.959943" xlink:href="#m4d0d65c2c3" y="47.435672"/>
    </g>
   </g>
   <g id="line2d_59">
    <path clip-path="url(#pca61c2662d)" d="M 66.596307 36.266939 
L 108.250798 17.251519 
L 132.555699 18.294605 
L 151.847585 21.267408 
L 176.152486 25.778733 
L 217.806977 32.625627 
L 242.111878 36.518912 
L 261.403764 40.163754 
L 285.708665 44.289126 
L 327.363156 48.692442 
L 351.668058 48.600605 
L 370.959943 47.435672 
" style="fill:none;stroke:#ffa500;stroke-linecap:square;stroke-opacity:0.15;stroke-width:1.5;"/>
   </g>
   <g id="patch_3">
    <path d="M 51.378125 224.64 
L 51.378125 7.2 
" style="fill:none;stroke:#000000;stroke-linecap:square;stroke-linejoin:miter;stroke-width:0.8;"/>
   </g>
   <g id="patch_4">
    <path d="M 386.178125 224.64 
L 386.178125 7.2 
" style="fill:none;stroke:#000000;stroke-linecap:square;stroke-linejoin:miter;stroke-width:0.8;"/>
   </g>
   <g id="patch_5">
    <path d="M 51.378125 224.64 
L 386.178125 224.64 
" style="fill:none;stroke:#000000;stroke-linecap:square;stroke-linejoin:miter;stroke-width:0.8;"/>
   </g>
   <g id="patch_6">
    <path d="M 51.378125 7.2 
L 386.178125 7.2 
" style="fill:none;stroke:#000000;stroke-linecap:square;stroke-linejoin:miter;stroke-width:0.8;"/>
   </g>
   <g id="legend_1">
    <g id="patch_7">
     <path d="M 294.232813 44.55625 
L 379.178125 44.55625 
Q 381.178125 44.55625 381.178125 42.55625 
L 381.178125 14.2 
Q 381.178125 12.2 379.178125 12.2 
L 294.232813 12.2 
Q 292.232813 12.2 292.232813 14.2 
L 292.232813 42.55625 
Q 292.232813 44.55625 294.232813 44.55625 
z
" style="fill:#ffffff;opacity:0.8;stroke:#cccccc;stroke-linejoin:miter;"/>
    </g>
    <g id="LineCollection_5">
     <path d="M 306.232813 25.298437 
L 306.232813 15.298437 
" style="fill:none;stroke:#0000ff;stroke-width:1.5;"/>
    </g>
    <g id="line2d_60"/>
    <g id="line2d_61">
     <g>
      <use style="fill:#0000ff;stroke:#0000ff;" x="306.232813" xlink:href="#mf6cd520b6a" y="20.298437"/>
     </g>
    </g>
    <g id="text_9">
     <!-- Photopeak -->
     <g transform="translate(324.232813 23.798437)scale(0.1 -0.1)">
      <defs>
       <path d="M 1259 4147 
L 1259 2394 
L 2053 2394 
Q 2494 2394 2734 2622 
Q 2975 2850 2975 3272 
Q 2975 3691 2734 3919 
Q 2494 4147 2053 4147 
L 1259 4147 
z
M 628 4666 
L 2053 4666 
Q 2838 4666 3239 4311 
Q 3641 3956 3641 3272 
Q 3641 2581 3239 2228 
Q 2838 1875 2053 1875 
L 1259 1875 
L 1259 0 
L 628 0 
L 628 4666 
z
" id="DejaVuSans-50" transform="scale(0.015625)"/>
       <path d="M 3513 2113 
L 3513 0 
L 2938 0 
L 2938 2094 
Q 2938 2591 2744 2837 
Q 2550 3084 2163 3084 
Q 1697 3084 1428 2787 
Q 1159 2491 1159 1978 
L 1159 0 
L 581 0 
L 581 4863 
L 1159 4863 
L 1159 2956 
Q 1366 3272 1645 3428 
Q 1925 3584 2291 3584 
Q 2894 3584 3203 3211 
Q 3513 2838 3513 2113 
z
" id="DejaVuSans-68" transform="scale(0.015625)"/>
       <path d="M 1959 3097 
Q 1497 3097 1228 2736 
Q 959 2375 959 1747 
Q 959 1119 1226 758 
Q 1494 397 1959 397 
Q 2419 397 2687 759 
Q 2956 1122 2956 1747 
Q 2956 2369 2687 2733 
Q 2419 3097 1959 3097 
z
M 1959 3584 
Q 2709 3584 3137 3096 
Q 3566 2609 3566 1747 
Q 3566 888 3137 398 
Q 2709 -91 1959 -91 
Q 1206 -91 779 398 
Q 353 888 353 1747 
Q 353 2609 779 3096 
Q 1206 3584 1959 3584 
z
" id="DejaVuSans-6f" transform="scale(0.015625)"/>
       <path d="M 1172 4494 
L 1172 3500 
L 2356 3500 
L 2356 3053 
L 1172 3053 
L 1172 1153 
Q 1172 725 1289 603 
Q 1406 481 1766 481 
L 2356 481 
L 2356 0 
L 1766 0 
Q 1100 0 847 248 
Q 594 497 594 1153 
L 594 3053 
L 172 3053 
L 172 3500 
L 594 3500 
L 594 4494 
L 1172 4494 
z
" id="DejaVuSans-74" transform="scale(0.015625)"/>
       <path d="M 1159 525 
L 1159 -1331 
L 581 -1331 
L 581 3500 
L 1159 3500 
L 1159 2969 
Q 1341 3281 1617 3432 
Q 1894 3584 2278 3584 
Q 2916 3584 3314 3078 
Q 3713 2572 3713 1747 
Q 3713 922 3314 415 
Q 2916 -91 2278 -91 
Q 1894 -91 1617 61 
Q 1341 213 1159 525 
z
M 3116 1747 
Q 3116 2381 2855 2742 
Q 2594 3103 2138 3103 
Q 1681 3103 1420 2742 
Q 1159 2381 1159 1747 
Q 1159 1113 1420 752 
Q 1681 391 2138 391 
Q 2594 391 2855 752 
Q 3116 1113 3116 1747 
z
" id="DejaVuSans-70" transform="scale(0.015625)"/>
       <path d="M 2194 1759 
Q 1497 1759 1228 1600 
Q 959 1441 959 1056 
Q 959 750 1161 570 
Q 1363 391 1709 391 
Q 2188 391 2477 730 
Q 2766 1069 2766 1631 
L 2766 1759 
L 2194 1759 
z
M 3341 1997 
L 3341 0 
L 2766 0 
L 2766 531 
Q 2569 213 2275 61 
Q 1981 -91 1556 -91 
Q 1019 -91 701 211 
Q 384 513 384 1019 
Q 384 1609 779 1909 
Q 1175 2209 1959 2209 
L 2766 2209 
L 2766 2266 
Q 2766 2663 2505 2880 
Q 2244 3097 1772 3097 
Q 1472 3097 1187 3025 
Q 903 2953 641 2809 
L 641 3341 
Q 956 3463 1253 3523 
Q 1550 3584 1831 3584 
Q 2591 3584 2966 3190 
Q 3341 2797 3341 1997 
z
" id="DejaVuSans-61" transform="scale(0.015625)"/>
      </defs>
      <use xlink:href="#DejaVuSans-50"/>
      <use x="60.302734" xlink:href="#DejaVuSans-68"/>
      <use x="123.681641" xlink:href="#DejaVuSans-6f"/>
      <use x="184.863281" xlink:href="#DejaVuSans-74"/>
      <use x="224.072266" xlink:href="#DejaVuSans-6f"/>
      <use x="285.253906" xlink:href="#DejaVuSans-70"/>
      <use x="348.730469" xlink:href="#DejaVuSans-65"/>
      <use x="410.253906" xlink:href="#DejaVuSans-61"/>
      <use x="471.533203" xlink:href="#DejaVuSans-6b"/>
     </g>
    </g>
    <g id="LineCollection_6">
     <path d="M 306.232813 39.976562 
L 306.232813 29.976562 
" style="fill:none;stroke:#ffa500;stroke-width:1.5;"/>
    </g>
    <g id="line2d_62"/>
    <g id="line2d_63">
     <g>
      <use style="fill:#ffa500;stroke:#ffa500;" x="306.232813" xlink:href="#m4d0d65c2c3" y="34.976562"/>
     </g>
    </g>
    <g id="text_10">
     <!-- Total -->
     <g transform="translate(324.232813 38.476562)scale(0.1 -0.1)">
      <defs>
       <path d="M -19 4666 
L 3928 4666 
L 3928 4134 
L 2272 4134 
L 2272 0 
L 1638 0 
L 1638 4134 
L -19 4134 
L -19 4666 
z
" id="DejaVuSans-54" transform="scale(0.015625)"/>
       <path d="M 603 4863 
L 1178 4863 
L 1178 0 
L 603 0 
L 603 4863 
z
" id="DejaVuSans-6c" transform="scale(0.015625)"/>
      </defs>
      <use xlink:href="#DejaVuSans-54"/>
      <use x="44.083984" xlink:href="#DejaVuSans-6f"/>
      <use x="105.265625" xlink:href="#DejaVuSans-74"/>
      <use x="144.474609" xlink:href="#DejaVuSans-61"/>
      <use x="205.753906" xlink:href="#DejaVuSans-6c"/>
     </g>
    </g>
   </g>
  </g>
 </g>
 <defs>
  <clipPath id="pca61c2662d">
   <rect height="217.44" width="334.8" x="51.378125" y="7.2"/>
  </clipPath>
 </defs>
</svg>
