<?xml version="1.0" encoding="utf-8" standalone="no"?>
<!DOCTYPE svg PUBLIC "-//W3C//DTD SVG 1.1//EN"
  "http://www.w3.org/Graphics/SVG/1.1/DTD/svg11.dtd">
<svg height="262.218125pt" version="1.1" viewBox="0 0 394.182812 262.218125" width="394.182812pt" xmlns="http://www.w3.org/2000/svg" xmlns:xlink="http://www.w3.org/1999/xlink">
 <metadata>
  <rdf:RDF xmlns:cc="http://creativecommons.org/ns#" xmlns:dc="http://purl.org/dc/elements/1.1/" xmlns:rdf="http://www.w3.org/1999/02/22-rdf-syntax-ns#">
   <cc:Work>
    <dc:type rdf:resource="http://purl.org/dc/dcmitype/StillImage"/>
    <dc:date>2021-05-22T11:38:17.930183</dc:date>
    <dc:format>image/svg+xml</dc:format>
    <dc:creator>
     <cc:Agent>
      <dc:title>Matplotlib v3.4.2, https://matplotlib.org/</dc:title>
     </cc:Agent>
    </dc:creator>
   </cc:Work>
  </rdf:RDF>
 </metadata>
 <defs>
  <style type="text/css">*{stroke-linecap:butt;stroke-linejoin:round;}</style>
 </defs>
 <g id="figure_1">
  <g id="patch_1">
   <path d="M 0 262.218125 
L 394.182812 262.218125 
L 394.182812 0 
L 0 0 
z
" style="fill:none;"/>
  </g>
  <g id="axes_1">
   <g id="patch_2">
    <path d="M 52.182813 224.64 
L 386.982813 224.64 
L 386.982813 7.2 
L 52.182813 7.2 
z
" style="fill:#ffffff;"/>
   </g>
   <g id="matplotlib.axis_1">
    <g id="xtick_1">
     <g id="line2d_1">
      <defs>
       <path d="M 0 0 
L 0 3.5 
" id="m3455536614" style="stroke:#000000;stroke-width:0.8;"/>
      </defs>
      <g>
       <use style="stroke:#000000;stroke-width:0.8;" x="96.85554" xlink:href="#m3455536614" y="224.64"/>
      </g>
     </g>
     <g id="text_1">
      <!-- 1.5 -->
      <g transform="translate(88.903977 239.238437)scale(0.1 -0.1)">
       <defs>
        <path d="M 794 531 
L 1825 531 
L 1825 4091 
L 703 3866 
L 703 4441 
L 1819 4666 
L 2450 4666 
L 2450 531 
L 3481 531 
L 3481 0 
L 794 0 
L 794 531 
z
" id="DejaVuSans-31" transform="scale(0.015625)"/>
        <path d="M 684 794 
L 1344 794 
L 1344 0 
L 684 0 
L 684 794 
z
" id="DejaVuSans-2e" transform="scale(0.015625)"/>
        <path d="M 691 4666 
L 3169 4666 
L 3169 4134 
L 1269 4134 
L 1269 2991 
Q 1406 3038 1543 3061 
Q 1681 3084 1819 3084 
Q 2600 3084 3056 2656 
Q 3513 2228 3513 1497 
Q 3513 744 3044 326 
Q 2575 -91 1722 -91 
Q 1428 -91 1123 -41 
Q 819 9 494 109 
L 494 744 
Q 775 591 1075 516 
Q 1375 441 1709 441 
Q 2250 441 2565 725 
Q 2881 1009 2881 1497 
Q 2881 1984 2565 2268 
Q 2250 2553 1709 2553 
Q 1456 2553 1204 2497 
Q 953 2441 691 2322 
L 691 4666 
z
" id="DejaVuSans-35" transform="scale(0.015625)"/>
       </defs>
       <use xlink:href="#DejaVuSans-31"/>
       <use x="63.623047" xlink:href="#DejaVuSans-2e"/>
       <use x="95.410156" xlink:href="#DejaVuSans-35"/>
      </g>
     </g>
    </g>
    <g id="xtick_2">
     <g id="line2d_2">
      <g>
       <use style="stroke:#000000;stroke-width:0.8;" x="145.946449" xlink:href="#m3455536614" y="224.64"/>
      </g>
     </g>
     <g id="text_2">
      <!-- 2.0 -->
      <g transform="translate(137.994886 239.238437)scale(0.1 -0.1)">
       <defs>
        <path d="M 1228 531 
L 3431 531 
L 3431 0 
L 469 0 
L 469 531 
Q 828 903 1448 1529 
Q 2069 2156 2228 2338 
Q 2531 2678 2651 2914 
Q 2772 3150 2772 3378 
Q 2772 3750 2511 3984 
Q 2250 4219 1831 4219 
Q 1534 4219 1204 4116 
Q 875 4013 500 3803 
L 500 4441 
Q 881 4594 1212 4672 
Q 1544 4750 1819 4750 
Q 2544 4750 2975 4387 
Q 3406 4025 3406 3419 
Q 3406 3131 3298 2873 
Q 3191 2616 2906 2266 
Q 2828 2175 2409 1742 
Q 1991 1309 1228 531 
z
" id="DejaVuSans-32" transform="scale(0.015625)"/>
        <path d="M 2034 4250 
Q 1547 4250 1301 3770 
Q 1056 3291 1056 2328 
Q 1056 1369 1301 889 
Q 1547 409 2034 409 
Q 2525 409 2770 889 
Q 3016 1369 3016 2328 
Q 3016 3291 2770 3770 
Q 2525 4250 2034 4250 
z
M 2034 4750 
Q 2819 4750 3233 4129 
Q 3647 3509 3647 2328 
Q 3647 1150 3233 529 
Q 2819 -91 2034 -91 
Q 1250 -91 836 529 
Q 422 1150 422 2328 
Q 422 3509 836 4129 
Q 1250 4750 2034 4750 
z
" id="DejaVuSans-30" transform="scale(0.015625)"/>
       </defs>
       <use xlink:href="#DejaVuSans-32"/>
       <use x="63.623047" xlink:href="#DejaVuSans-2e"/>
       <use x="95.410156" xlink:href="#DejaVuSans-30"/>
      </g>
     </g>
    </g>
    <g id="xtick_3">
     <g id="line2d_3">
      <g>
       <use style="stroke:#000000;stroke-width:0.8;" x="195.037358" xlink:href="#m3455536614" y="224.64"/>
      </g>
     </g>
     <g id="text_3">
      <!-- 2.5 -->
      <g transform="translate(187.085795 239.238437)scale(0.1 -0.1)">
       <use xlink:href="#DejaVuSans-32"/>
       <use x="63.623047" xlink:href="#DejaVuSans-2e"/>
       <use x="95.410156" xlink:href="#DejaVuSans-35"/>
      </g>
     </g>
    </g>
    <g id="xtick_4">
     <g id="line2d_4">
      <g>
       <use style="stroke:#000000;stroke-width:0.8;" x="244.128267" xlink:href="#m3455536614" y="224.64"/>
      </g>
     </g>
     <g id="text_4">
      <!-- 3.0 -->
      <g transform="translate(236.176705 239.238437)scale(0.1 -0.1)">
       <defs>
        <path d="M 2597 2516 
Q 3050 2419 3304 2112 
Q 3559 1806 3559 1356 
Q 3559 666 3084 287 
Q 2609 -91 1734 -91 
Q 1441 -91 1130 -33 
Q 819 25 488 141 
L 488 750 
Q 750 597 1062 519 
Q 1375 441 1716 441 
Q 2309 441 2620 675 
Q 2931 909 2931 1356 
Q 2931 1769 2642 2001 
Q 2353 2234 1838 2234 
L 1294 2234 
L 1294 2753 
L 1863 2753 
Q 2328 2753 2575 2939 
Q 2822 3125 2822 3475 
Q 2822 3834 2567 4026 
Q 2313 4219 1838 4219 
Q 1578 4219 1281 4162 
Q 984 4106 628 3988 
L 628 4550 
Q 988 4650 1302 4700 
Q 1616 4750 1894 4750 
Q 2613 4750 3031 4423 
Q 3450 4097 3450 3541 
Q 3450 3153 3228 2886 
Q 3006 2619 2597 2516 
z
" id="DejaVuSans-33" transform="scale(0.015625)"/>
       </defs>
       <use xlink:href="#DejaVuSans-33"/>
       <use x="63.623047" xlink:href="#DejaVuSans-2e"/>
       <use x="95.410156" xlink:href="#DejaVuSans-30"/>
      </g>
     </g>
    </g>
    <g id="xtick_5">
     <g id="line2d_5">
      <g>
       <use style="stroke:#000000;stroke-width:0.8;" x="293.219176" xlink:href="#m3455536614" y="224.64"/>
      </g>
     </g>
     <g id="text_5">
      <!-- 3.5 -->
      <g transform="translate(285.267614 239.238437)scale(0.1 -0.1)">
       <use xlink:href="#DejaVuSans-33"/>
       <use x="63.623047" xlink:href="#DejaVuSans-2e"/>
       <use x="95.410156" xlink:href="#DejaVuSans-35"/>
      </g>
     </g>
    </g>
    <g id="xtick_6">
     <g id="line2d_6">
      <g>
       <use style="stroke:#000000;stroke-width:0.8;" x="342.310085" xlink:href="#m3455536614" y="224.64"/>
      </g>
     </g>
     <g id="text_6">
      <!-- 4.0 -->
      <g transform="translate(334.358523 239.238437)scale(0.1 -0.1)">
       <defs>
        <path d="M 2419 4116 
L 825 1625 
L 2419 1625 
L 2419 4116 
z
M 2253 4666 
L 3047 4666 
L 3047 1625 
L 3713 1625 
L 3713 1100 
L 3047 1100 
L 3047 0 
L 2419 0 
L 2419 1100 
L 313 1100 
L 313 1709 
L 2253 4666 
z
" id="DejaVuSans-34" transform="scale(0.015625)"/>
       </defs>
       <use xlink:href="#DejaVuSans-34"/>
       <use x="63.623047" xlink:href="#DejaVuSans-2e"/>
       <use x="95.410156" xlink:href="#DejaVuSans-30"/>
      </g>
     </g>
    </g>
    <g id="text_7">
     <!-- $\log_{10}$(Energy [keV]) -->
     <g transform="translate(170.932813 252.918125)scale(0.1 -0.1)">
      <defs>
       <path d="M 603 4863 
L 1178 4863 
L 1178 0 
L 603 0 
L 603 4863 
z
" id="DejaVuSans-6c" transform="scale(0.015625)"/>
       <path d="M 1959 3097 
Q 1497 3097 1228 2736 
Q 959 2375 959 1747 
Q 959 1119 1226 758 
Q 1494 397 1959 397 
Q 2419 397 2687 759 
Q 2956 1122 2956 1747 
Q 2956 2369 2687 2733 
Q 2419 3097 1959 3097 
z
M 1959 3584 
Q 2709 3584 3137 3096 
Q 3566 2609 3566 1747 
Q 3566 888 3137 398 
Q 2709 -91 1959 -91 
Q 1206 -91 779 398 
Q 353 888 353 1747 
Q 353 2609 779 3096 
Q 1206 3584 1959 3584 
z
" id="DejaVuSans-6f" transform="scale(0.015625)"/>
       <path d="M 2906 1791 
Q 2906 2416 2648 2759 
Q 2391 3103 1925 3103 
Q 1463 3103 1205 2759 
Q 947 2416 947 1791 
Q 947 1169 1205 825 
Q 1463 481 1925 481 
Q 2391 481 2648 825 
Q 2906 1169 2906 1791 
z
M 3481 434 
Q 3481 -459 3084 -895 
Q 2688 -1331 1869 -1331 
Q 1566 -1331 1297 -1286 
Q 1028 -1241 775 -1147 
L 775 -588 
Q 1028 -725 1275 -790 
Q 1522 -856 1778 -856 
Q 2344 -856 2625 -561 
Q 2906 -266 2906 331 
L 2906 616 
Q 2728 306 2450 153 
Q 2172 0 1784 0 
Q 1141 0 747 490 
Q 353 981 353 1791 
Q 353 2603 747 3093 
Q 1141 3584 1784 3584 
Q 2172 3584 2450 3431 
Q 2728 3278 2906 2969 
L 2906 3500 
L 3481 3500 
L 3481 434 
z
" id="DejaVuSans-67" transform="scale(0.015625)"/>
       <path d="M 1984 4856 
Q 1566 4138 1362 3434 
Q 1159 2731 1159 2009 
Q 1159 1288 1364 580 
Q 1569 -128 1984 -844 
L 1484 -844 
Q 1016 -109 783 600 
Q 550 1309 550 2009 
Q 550 2706 781 3412 
Q 1013 4119 1484 4856 
L 1984 4856 
z
" id="DejaVuSans-28" transform="scale(0.015625)"/>
       <path d="M 628 4666 
L 3578 4666 
L 3578 4134 
L 1259 4134 
L 1259 2753 
L 3481 2753 
L 3481 2222 
L 1259 2222 
L 1259 531 
L 3634 531 
L 3634 0 
L 628 0 
L 628 4666 
z
" id="DejaVuSans-45" transform="scale(0.015625)"/>
       <path d="M 3513 2113 
L 3513 0 
L 2938 0 
L 2938 2094 
Q 2938 2591 2744 2837 
Q 2550 3084 2163 3084 
Q 1697 3084 1428 2787 
Q 1159 2491 1159 1978 
L 1159 0 
L 581 0 
L 581 3500 
L 1159 3500 
L 1159 2956 
Q 1366 3272 1645 3428 
Q 1925 3584 2291 3584 
Q 2894 3584 3203 3211 
Q 3513 2838 3513 2113 
z
" id="DejaVuSans-6e" transform="scale(0.015625)"/>
       <path d="M 3597 1894 
L 3597 1613 
L 953 1613 
Q 991 1019 1311 708 
Q 1631 397 2203 397 
Q 2534 397 2845 478 
Q 3156 559 3463 722 
L 3463 178 
Q 3153 47 2828 -22 
Q 2503 -91 2169 -91 
Q 1331 -91 842 396 
Q 353 884 353 1716 
Q 353 2575 817 3079 
Q 1281 3584 2069 3584 
Q 2775 3584 3186 3129 
Q 3597 2675 3597 1894 
z
M 3022 2063 
Q 3016 2534 2758 2815 
Q 2500 3097 2075 3097 
Q 1594 3097 1305 2825 
Q 1016 2553 972 2059 
L 3022 2063 
z
" id="DejaVuSans-65" transform="scale(0.015625)"/>
       <path d="M 2631 2963 
Q 2534 3019 2420 3045 
Q 2306 3072 2169 3072 
Q 1681 3072 1420 2755 
Q 1159 2438 1159 1844 
L 1159 0 
L 581 0 
L 581 3500 
L 1159 3500 
L 1159 2956 
Q 1341 3275 1631 3429 
Q 1922 3584 2338 3584 
Q 2397 3584 2469 3576 
Q 2541 3569 2628 3553 
L 2631 2963 
z
" id="DejaVuSans-72" transform="scale(0.015625)"/>
       <path d="M 2059 -325 
Q 1816 -950 1584 -1140 
Q 1353 -1331 966 -1331 
L 506 -1331 
L 506 -850 
L 844 -850 
Q 1081 -850 1212 -737 
Q 1344 -625 1503 -206 
L 1606 56 
L 191 3500 
L 800 3500 
L 1894 763 
L 2988 3500 
L 3597 3500 
L 2059 -325 
z
" id="DejaVuSans-79" transform="scale(0.015625)"/>
       <path id="DejaVuSans-20" transform="scale(0.015625)"/>
       <path d="M 550 4863 
L 1875 4863 
L 1875 4416 
L 1125 4416 
L 1125 -397 
L 1875 -397 
L 1875 -844 
L 550 -844 
L 550 4863 
z
" id="DejaVuSans-5b" transform="scale(0.015625)"/>
       <path d="M 581 4863 
L 1159 4863 
L 1159 1991 
L 2875 3500 
L 3609 3500 
L 1753 1863 
L 3688 0 
L 2938 0 
L 1159 1709 
L 1159 0 
L 581 0 
L 581 4863 
z
" id="DejaVuSans-6b" transform="scale(0.015625)"/>
       <path d="M 1831 0 
L 50 4666 
L 709 4666 
L 2188 738 
L 3669 4666 
L 4325 4666 
L 2547 0 
L 1831 0 
z
" id="DejaVuSans-56" transform="scale(0.015625)"/>
       <path d="M 1947 4863 
L 1947 -844 
L 622 -844 
L 622 -397 
L 1369 -397 
L 1369 4416 
L 622 4416 
L 622 4863 
L 1947 4863 
z
" id="DejaVuSans-5d" transform="scale(0.015625)"/>
       <path d="M 513 4856 
L 1013 4856 
Q 1481 4119 1714 3412 
Q 1947 2706 1947 2009 
Q 1947 1309 1714 600 
Q 1481 -109 1013 -844 
L 513 -844 
Q 928 -128 1133 580 
Q 1338 1288 1338 2009 
Q 1338 2731 1133 3434 
Q 928 4138 513 4856 
z
" id="DejaVuSans-29" transform="scale(0.015625)"/>
      </defs>
      <use transform="translate(0 0.015625)" xlink:href="#DejaVuSans-6c"/>
      <use transform="translate(27.783203 0.015625)" xlink:href="#DejaVuSans-6f"/>
      <use transform="translate(88.964844 0.015625)" xlink:href="#DejaVuSans-67"/>
      <use transform="translate(153.398438 -16.390625)scale(0.7)" xlink:href="#DejaVuSans-31"/>
      <use transform="translate(197.93457 -16.390625)scale(0.7)" xlink:href="#DejaVuSans-30"/>
      <use transform="translate(245.205078 0.015625)" xlink:href="#DejaVuSans-28"/>
      <use transform="translate(284.21875 0.015625)" xlink:href="#DejaVuSans-45"/>
      <use transform="translate(347.402344 0.015625)" xlink:href="#DejaVuSans-6e"/>
      <use transform="translate(410.78125 0.015625)" xlink:href="#DejaVuSans-65"/>
      <use transform="translate(472.304688 0.015625)" xlink:href="#DejaVuSans-72"/>
      <use transform="translate(513.417969 0.015625)" xlink:href="#DejaVuSans-67"/>
      <use transform="translate(576.894531 0.015625)" xlink:href="#DejaVuSans-79"/>
      <use transform="translate(636.074219 0.015625)" xlink:href="#DejaVuSans-20"/>
      <use transform="translate(667.861328 0.015625)" xlink:href="#DejaVuSans-5b"/>
      <use transform="translate(706.875 0.015625)" xlink:href="#DejaVuSans-6b"/>
      <use transform="translate(764.785156 0.015625)" xlink:href="#DejaVuSans-65"/>
      <use transform="translate(826.308594 0.015625)" xlink:href="#DejaVuSans-56"/>
      <use transform="translate(894.716797 0.015625)" xlink:href="#DejaVuSans-5d"/>
      <use transform="translate(933.730469 0.015625)" xlink:href="#DejaVuSans-29"/>
     </g>
    </g>
   </g>
   <g id="matplotlib.axis_2">
    <g id="ytick_1">
     <g id="line2d_7">
      <defs>
       <path d="M 0 0 
L -3.5 0 
" id="m8d00571a33" style="stroke:#000000;stroke-width:0.8;"/>
      </defs>
      <g>
       <use style="stroke:#000000;stroke-width:0.8;" x="52.182813" xlink:href="#m8d00571a33" y="212.261096"/>
      </g>
     </g>
     <g id="text_8">
      <!-- −4.5 -->
      <g transform="translate(20.9 216.060315)scale(0.1 -0.1)">
       <defs>
        <path d="M 678 2272 
L 4684 2272 
L 4684 1741 
L 678 1741 
L 678 2272 
z
" id="DejaVuSans-2212" transform="scale(0.015625)"/>
       </defs>
       <use xlink:href="#DejaVuSans-2212"/>
       <use x="83.789062" xlink:href="#DejaVuSans-34"/>
       <use x="147.412109" xlink:href="#DejaVuSans-2e"/>
       <use x="179.199219" xlink:href="#DejaVuSans-35"/>
      </g>
     </g>
    </g>
    <g id="ytick_2">
     <g id="line2d_8">
      <g>
       <use style="stroke:#000000;stroke-width:0.8;" x="52.182813" xlink:href="#m8d00571a33" y="181.062676"/>
      </g>
     </g>
     <g id="text_9">
      <!-- −4.0 -->
      <g transform="translate(20.9 184.861895)scale(0.1 -0.1)">
       <use xlink:href="#DejaVuSans-2212"/>
       <use x="83.789062" xlink:href="#DejaVuSans-34"/>
       <use x="147.412109" xlink:href="#DejaVuSans-2e"/>
       <use x="179.199219" xlink:href="#DejaVuSans-30"/>
      </g>
     </g>
    </g>
    <g id="ytick_3">
     <g id="line2d_9">
      <g>
       <use style="stroke:#000000;stroke-width:0.8;" x="52.182813" xlink:href="#m8d00571a33" y="149.864256"/>
      </g>
     </g>
     <g id="text_10">
      <!-- −3.5 -->
      <g transform="translate(20.9 153.663475)scale(0.1 -0.1)">
       <use xlink:href="#DejaVuSans-2212"/>
       <use x="83.789062" xlink:href="#DejaVuSans-33"/>
       <use x="147.412109" xlink:href="#DejaVuSans-2e"/>
       <use x="179.199219" xlink:href="#DejaVuSans-35"/>
      </g>
     </g>
    </g>
    <g id="ytick_4">
     <g id="line2d_10">
      <g>
       <use style="stroke:#000000;stroke-width:0.8;" x="52.182813" xlink:href="#m8d00571a33" y="118.665836"/>
      </g>
     </g>
     <g id="text_11">
      <!-- −3.0 -->
      <g transform="translate(20.9 122.465055)scale(0.1 -0.1)">
       <use xlink:href="#DejaVuSans-2212"/>
       <use x="83.789062" xlink:href="#DejaVuSans-33"/>
       <use x="147.412109" xlink:href="#DejaVuSans-2e"/>
       <use x="179.199219" xlink:href="#DejaVuSans-30"/>
      </g>
     </g>
    </g>
    <g id="ytick_5">
     <g id="line2d_11">
      <g>
       <use style="stroke:#000000;stroke-width:0.8;" x="52.182813" xlink:href="#m8d00571a33" y="87.467416"/>
      </g>
     </g>
     <g id="text_12">
      <!-- −2.5 -->
      <g transform="translate(20.9 91.266634)scale(0.1 -0.1)">
       <use xlink:href="#DejaVuSans-2212"/>
       <use x="83.789062" xlink:href="#DejaVuSans-32"/>
       <use x="147.412109" xlink:href="#DejaVuSans-2e"/>
       <use x="179.199219" xlink:href="#DejaVuSans-35"/>
      </g>
     </g>
    </g>
    <g id="ytick_6">
     <g id="line2d_12">
      <g>
       <use style="stroke:#000000;stroke-width:0.8;" x="52.182813" xlink:href="#m8d00571a33" y="56.268995"/>
      </g>
     </g>
     <g id="text_13">
      <!-- −2.0 -->
      <g transform="translate(20.9 60.068214)scale(0.1 -0.1)">
       <use xlink:href="#DejaVuSans-2212"/>
       <use x="83.789062" xlink:href="#DejaVuSans-32"/>
       <use x="147.412109" xlink:href="#DejaVuSans-2e"/>
       <use x="179.199219" xlink:href="#DejaVuSans-30"/>
      </g>
     </g>
    </g>
    <g id="ytick_7">
     <g id="line2d_13">
      <g>
       <use style="stroke:#000000;stroke-width:0.8;" x="52.182813" xlink:href="#m8d00571a33" y="25.070575"/>
      </g>
     </g>
     <g id="text_14">
      <!-- −1.5 -->
      <g transform="translate(20.9 28.869794)scale(0.1 -0.1)">
       <use xlink:href="#DejaVuSans-2212"/>
       <use x="83.789062" xlink:href="#DejaVuSans-31"/>
       <use x="147.412109" xlink:href="#DejaVuSans-2e"/>
       <use x="179.199219" xlink:href="#DejaVuSans-35"/>
      </g>
     </g>
    </g>
    <g id="text_15">
     <!-- $\log_{10}$(Efficiency) -->
     <g transform="translate(14.8 156.27)rotate(-90)scale(0.1 -0.1)">
      <defs>
       <path d="M 2375 4863 
L 2375 4384 
L 1825 4384 
Q 1516 4384 1395 4259 
Q 1275 4134 1275 3809 
L 1275 3500 
L 2222 3500 
L 2222 3053 
L 1275 3053 
L 1275 0 
L 697 0 
L 697 3053 
L 147 3053 
L 147 3500 
L 697 3500 
L 697 3744 
Q 697 4328 969 4595 
Q 1241 4863 1831 4863 
L 2375 4863 
z
" id="DejaVuSans-66" transform="scale(0.015625)"/>
       <path d="M 603 3500 
L 1178 3500 
L 1178 0 
L 603 0 
L 603 3500 
z
M 603 4863 
L 1178 4863 
L 1178 4134 
L 603 4134 
L 603 4863 
z
" id="DejaVuSans-69" transform="scale(0.015625)"/>
       <path d="M 3122 3366 
L 3122 2828 
Q 2878 2963 2633 3030 
Q 2388 3097 2138 3097 
Q 1578 3097 1268 2742 
Q 959 2388 959 1747 
Q 959 1106 1268 751 
Q 1578 397 2138 397 
Q 2388 397 2633 464 
Q 2878 531 3122 666 
L 3122 134 
Q 2881 22 2623 -34 
Q 2366 -91 2075 -91 
Q 1284 -91 818 406 
Q 353 903 353 1747 
Q 353 2603 823 3093 
Q 1294 3584 2113 3584 
Q 2378 3584 2631 3529 
Q 2884 3475 3122 3366 
z
" id="DejaVuSans-63" transform="scale(0.015625)"/>
      </defs>
      <use transform="translate(0 0.015625)" xlink:href="#DejaVuSans-6c"/>
      <use transform="translate(27.783203 0.015625)" xlink:href="#DejaVuSans-6f"/>
      <use transform="translate(88.964844 0.015625)" xlink:href="#DejaVuSans-67"/>
      <use transform="translate(153.398438 -16.390625)scale(0.7)" xlink:href="#DejaVuSans-31"/>
      <use transform="translate(197.93457 -16.390625)scale(0.7)" xlink:href="#DejaVuSans-30"/>
      <use transform="translate(245.205078 0.015625)" xlink:href="#DejaVuSans-28"/>
      <use transform="translate(284.21875 0.015625)" xlink:href="#DejaVuSans-45"/>
      <use transform="translate(347.402344 0.015625)" xlink:href="#DejaVuSans-66"/>
      <use transform="translate(382.607422 0.015625)" xlink:href="#DejaVuSans-66"/>
      <use transform="translate(417.8125 0.015625)" xlink:href="#DejaVuSans-69"/>
      <use transform="translate(445.595703 0.015625)" xlink:href="#DejaVuSans-63"/>
      <use transform="translate(500.576172 0.015625)" xlink:href="#DejaVuSans-69"/>
      <use transform="translate(528.359375 0.015625)" xlink:href="#DejaVuSans-65"/>
      <use transform="translate(589.882812 0.015625)" xlink:href="#DejaVuSans-6e"/>
      <use transform="translate(653.261719 0.015625)" xlink:href="#DejaVuSans-63"/>
      <use transform="translate(708.242188 0.015625)" xlink:href="#DejaVuSans-79"/>
      <use transform="translate(767.421875 0.015625)" xlink:href="#DejaVuSans-29"/>
     </g>
    </g>
   </g>
   <g id="LineCollection_1">
    <path clip-path="url(#paabfacb4c8)" d="M 86.835104 33.828214 
L 86.835104 33.813655 
" style="fill:none;stroke:#ff7f0e;stroke-width:1.5;"/>
    <path clip-path="url(#paabfacb4c8)" d="M 124.164935 17.892243 
L 124.164935 17.866411 
" style="fill:none;stroke:#ff7f0e;stroke-width:1.5;"/>
    <path clip-path="url(#paabfacb4c8)" d="M 145.946449 20.155101 
L 145.946449 20.130205 
" style="fill:none;stroke:#ff7f0e;stroke-width:1.5;"/>
    <path clip-path="url(#paabfacb4c8)" d="M 163.235409 25.450064 
L 163.235409 25.432717 
" style="fill:none;stroke:#ff7f0e;stroke-width:1.5;"/>
    <path clip-path="url(#paabfacb4c8)" d="M 185.016922 37.604221 
L 185.016922 37.595236 
" style="fill:none;stroke:#ff7f0e;stroke-width:1.5;"/>
    <path clip-path="url(#paabfacb4c8)" d="M 222.346753 62.805035 
L 222.346753 62.798504 
" style="fill:none;stroke:#ff7f0e;stroke-width:1.5;"/>
    <path clip-path="url(#paabfacb4c8)" d="M 244.128267 75.708972 
L 244.128267 75.703002 
" style="fill:none;stroke:#ff7f0e;stroke-width:1.5;"/>
    <path clip-path="url(#paabfacb4c8)" d="M 261.417227 85.803501 
L 261.417227 85.801359 
" style="fill:none;stroke:#ff7f0e;stroke-width:1.5;"/>
    <path clip-path="url(#paabfacb4c8)" d="M 283.198741 99.361706 
L 283.198741 99.356652 
" style="fill:none;stroke:#ff7f0e;stroke-width:1.5;"/>
    <path clip-path="url(#paabfacb4c8)" d="M 320.528572 130.313066 
L 320.528572 130.310279 
" style="fill:none;stroke:#ff7f0e;stroke-width:1.5;"/>
    <path clip-path="url(#paabfacb4c8)" d="M 342.310085 155.031777 
L 342.310085 155.0303 
" style="fill:none;stroke:#ff7f0e;stroke-width:1.5;"/>
    <path clip-path="url(#paabfacb4c8)" d="M 359.599045 186.22161 
L 359.599045 186.220383 
" style="fill:none;stroke:#ff7f0e;stroke-width:1.5;"/>
   </g>
   <g id="LineCollection_2">
    <path clip-path="url(#paabfacb4c8)" d="M 86.835104 33.718429 
L 86.835104 33.70414 
" style="fill:none;stroke:#d62728;stroke-width:1.5;"/>
    <path clip-path="url(#paabfacb4c8)" d="M 124.164935 17.112381 
L 124.164935 17.083636 
" style="fill:none;stroke:#d62728;stroke-width:1.5;"/>
    <path clip-path="url(#paabfacb4c8)" d="M 145.946449 18.020349 
L 145.946449 17.998302 
" style="fill:none;stroke:#d62728;stroke-width:1.5;"/>
    <path clip-path="url(#paabfacb4c8)" d="M 163.235409 20.61502 
L 163.235409 20.598152 
" style="fill:none;stroke:#d62728;stroke-width:1.5;"/>
    <path clip-path="url(#paabfacb4c8)" d="M 185.016922 24.549916 
L 185.016922 24.546109 
" style="fill:none;stroke:#d62728;stroke-width:1.5;"/>
    <path clip-path="url(#paabfacb4c8)" d="M 222.346753 30.536746 
L 222.346753 30.523185 
" style="fill:none;stroke:#d62728;stroke-width:1.5;"/>
    <path clip-path="url(#paabfacb4c8)" d="M 244.128267 33.939944 
L 244.128267 33.922909 
" style="fill:none;stroke:#d62728;stroke-width:1.5;"/>
    <path clip-path="url(#paabfacb4c8)" d="M 261.417227 37.116818 
L 261.417227 37.114842 
" style="fill:none;stroke:#d62728;stroke-width:1.5;"/>
    <path clip-path="url(#paabfacb4c8)" d="M 283.198741 40.725967 
L 283.198741 40.714153 
" style="fill:none;stroke:#d62728;stroke-width:1.5;"/>
    <path clip-path="url(#paabfacb4c8)" d="M 320.528572 44.573601 
L 320.528572 44.560643 
" style="fill:none;stroke:#d62728;stroke-width:1.5;"/>
    <path clip-path="url(#paabfacb4c8)" d="M 342.310085 44.496298 
L 342.310085 44.477475 
" style="fill:none;stroke:#d62728;stroke-width:1.5;"/>
    <path clip-path="url(#paabfacb4c8)" d="M 359.599045 43.475449 
L 359.599045 43.462782 
" style="fill:none;stroke:#d62728;stroke-width:1.5;"/>
   </g>
   <g id="line2d_14">
    <path clip-path="url(#paabfacb4c8)" d="M 67.400994 55.939986 
L 70.475374 51.757043 
L 73.549755 47.843787 
L 76.624135 44.195597 
L 79.698515 40.807635 
L 82.772895 37.674863 
L 85.847275 34.792047 
L 88.921655 32.153776 
L 91.996036 29.754467 
L 95.070416 27.588378 
L 98.144796 25.649623 
L 101.219176 23.932175 
L 104.293556 22.429884 
L 107.367936 21.136488 
L 110.442317 20.045619 
L 113.516697 19.150818 
L 116.591077 18.445546 
L 119.665457 17.923193 
L 122.739837 17.577094 
L 125.814217 17.400533 
L 128.888598 17.38676 
L 131.962978 17.528998 
L 135.037358 17.820459 
L 138.111738 18.25435 
L 141.186118 18.823888 
L 144.260498 19.522307 
L 147.334879 20.342875 
L 150.409259 21.278899 
L 153.483639 22.323741 
L 156.558019 23.470825 
L 159.632399 24.713652 
L 162.706779 26.045809 
L 165.78116 27.460979 
L 168.85554 28.952956 
L 171.92992 30.515651 
L 175.0043 32.143109 
L 178.07868 33.829513 
L 181.15306 35.569203 
L 184.227441 37.35668 
L 187.301821 39.186624 
L 190.376201 41.053898 
L 193.450581 42.953564 
L 196.524961 44.880894 
L 199.599341 46.831378 
L 202.673722 48.800738 
L 205.748102 50.784938 
L 208.822482 52.780194 
L 211.896862 54.78299 
L 214.971242 56.790082 
L 218.045622 58.798513 
L 221.120003 60.805627 
L 224.194383 62.809073 
L 227.268763 64.806822 
L 230.343143 66.797177 
L 233.417523 68.778782 
L 236.491903 70.750635 
L 239.566284 72.712098 
L 242.640664 74.66291 
L 245.715044 76.603195 
L 248.789424 78.533477 
L 251.863804 80.454688 
L 254.938184 82.368181 
L 258.012565 84.27574 
L 261.086945 86.179592 
L 264.161325 88.082415 
L 267.235705 89.987357 
L 270.310085 91.898036 
L 273.384465 93.818563 
L 276.458846 95.753542 
L 279.533226 97.708089 
L 282.607606 99.687841 
L 285.681986 101.698965 
L 288.756366 103.748171 
L 291.830746 105.842723 
L 294.905127 107.990451 
L 297.979507 110.199761 
L 301.053887 112.479643 
L 304.128267 114.839691 
L 307.202647 117.290103 
L 310.277027 119.841702 
L 313.351408 122.50594 
L 316.425788 125.294913 
L 319.500168 128.221371 
L 322.574548 131.298729 
L 325.648928 134.541078 
L 328.723308 137.963197 
L 331.797689 141.580564 
L 334.872069 145.409365 
L 337.946449 149.466509 
L 341.020829 153.769636 
L 344.095209 158.337128 
L 347.169589 163.188122 
L 350.24397 168.342522 
L 353.31835 173.821007 
L 356.39273 179.645043 
L 359.46711 185.836896 
L 362.54149 192.41964 
L 365.61587 199.417174 
L 368.690251 206.854224 
L 371.764631 214.756364 
" style="fill:none;stroke:#1f77b4;stroke-linecap:square;stroke-opacity:0.5;stroke-width:1.5;"/>
   </g>
   <g id="line2d_15">
    <path clip-path="url(#paabfacb4c8)" d="M 67.400994 57.436436 
L 70.475374 52.666418 
L 73.549755 48.304132 
L 76.624135 44.326717 
L 79.698515 40.712151 
L 82.772895 37.439233 
L 85.847275 34.487568 
L 88.921655 31.837552 
L 91.996036 29.470356 
L 95.070416 27.367914 
L 98.144796 25.512903 
L 101.219176 23.888732 
L 104.293556 22.479522 
L 107.367936 21.270098 
L 110.442317 20.245966 
L 113.516697 19.393303 
L 116.591077 18.698941 
L 119.665457 18.150348 
L 122.739837 17.73562 
L 125.814217 17.443457 
L 128.888598 17.263156 
L 131.962978 17.184591 
L 135.037358 17.198197 
L 138.111738 17.294959 
L 141.186118 17.466394 
L 144.260498 17.704537 
L 147.334879 18.001923 
L 150.409259 18.351576 
L 153.483639 18.74699 
L 156.558019 19.182118 
L 159.632399 19.651351 
L 162.706779 20.149508 
L 165.78116 20.671819 
L 168.85554 21.213909 
L 171.92992 21.771784 
L 175.0043 22.341815 
L 178.07868 22.920723 
L 181.15306 23.505563 
L 184.227441 24.093712 
L 187.301821 24.682849 
L 190.376201 25.270943 
L 193.450581 25.856237 
L 196.524961 26.437234 
L 199.599341 27.012679 
L 202.673722 27.581546 
L 205.748102 28.143022 
L 208.822482 28.696493 
L 211.896862 29.241526 
L 214.971242 29.777856 
L 218.045622 30.305372 
L 221.120003 30.824099 
L 224.194383 31.334184 
L 227.268763 31.83588 
L 230.343143 32.329533 
L 233.417523 32.815565 
L 236.491903 33.294458 
L 239.566284 33.766741 
L 242.640664 34.232973 
L 245.715044 34.69373 
L 248.789424 35.149586 
L 251.863804 35.601103 
L 254.938184 36.04881 
L 258.012565 36.493192 
L 261.086945 36.934675 
L 264.161325 37.373605 
L 267.235705 37.810242 
L 270.310085 38.244737 
L 273.384465 38.677121 
L 276.458846 39.107287 
L 279.533226 39.534977 
L 282.607606 39.959766 
L 285.681986 40.381048 
L 288.756366 40.798017 
L 291.830746 41.209658 
L 294.905127 41.614725 
L 297.979507 42.01173 
L 301.053887 42.398927 
L 304.128267 42.774298 
L 307.202647 43.135534 
L 310.277027 43.480023 
L 313.351408 43.804835 
L 316.425788 44.106705 
L 319.500168 44.382019 
L 322.574548 44.626796 
L 325.648928 44.836679 
L 328.723308 45.006914 
L 331.797689 45.132336 
L 334.872069 45.207355 
L 337.946449 45.225943 
L 341.020829 45.181611 
L 344.095209 45.067404 
L 347.169589 44.875878 
L 350.24397 44.599087 
L 353.31835 44.22857 
L 356.39273 43.755334 
L 359.46711 43.169838 
L 362.54149 42.461979 
L 365.61587 41.621076 
L 368.690251 40.635856 
L 371.764631 39.494439 
" style="fill:none;stroke:#2ca02c;stroke-linecap:square;stroke-opacity:0.5;stroke-width:1.5;"/>
   </g>
   <g id="line2d_16">
    <defs>
     <path d="M 0 3 
C 0.795609 3 1.55874 2.683901 2.12132 2.12132 
C 2.683901 1.55874 3 0.795609 3 0 
C 3 -0.795609 2.683901 -1.55874 2.12132 -2.12132 
C 1.55874 -2.683901 0.795609 -3 0 -3 
C -0.795609 -3 -1.55874 -2.683901 -2.12132 -2.12132 
C -2.683901 -1.55874 -3 -0.795609 -3 0 
C -3 0.795609 -2.683901 1.55874 -2.12132 2.12132 
C -1.55874 2.683901 -0.795609 3 0 3 
z
" id="mee5067cd99" style="stroke:#ff7f0e;"/>
    </defs>
    <g clip-path="url(#paabfacb4c8)">
     <use style="fill:#ff7f0e;stroke:#ff7f0e;" x="86.835104" xlink:href="#mee5067cd99" y="33.820935"/>
     <use style="fill:#ff7f0e;stroke:#ff7f0e;" x="124.164935" xlink:href="#mee5067cd99" y="17.879327"/>
     <use style="fill:#ff7f0e;stroke:#ff7f0e;" x="145.946449" xlink:href="#mee5067cd99" y="20.142653"/>
     <use style="fill:#ff7f0e;stroke:#ff7f0e;" x="163.235409" xlink:href="#mee5067cd99" y="25.441391"/>
     <use style="fill:#ff7f0e;stroke:#ff7f0e;" x="185.016922" xlink:href="#mee5067cd99" y="37.599729"/>
     <use style="fill:#ff7f0e;stroke:#ff7f0e;" x="222.346753" xlink:href="#mee5067cd99" y="62.801769"/>
     <use style="fill:#ff7f0e;stroke:#ff7f0e;" x="244.128267" xlink:href="#mee5067cd99" y="75.705987"/>
     <use style="fill:#ff7f0e;stroke:#ff7f0e;" x="261.417227" xlink:href="#mee5067cd99" y="85.80243"/>
     <use style="fill:#ff7f0e;stroke:#ff7f0e;" x="283.198741" xlink:href="#mee5067cd99" y="99.359179"/>
     <use style="fill:#ff7f0e;stroke:#ff7f0e;" x="320.528572" xlink:href="#mee5067cd99" y="130.311672"/>
     <use style="fill:#ff7f0e;stroke:#ff7f0e;" x="342.310085" xlink:href="#mee5067cd99" y="155.031038"/>
     <use style="fill:#ff7f0e;stroke:#ff7f0e;" x="359.599045" xlink:href="#mee5067cd99" y="186.220996"/>
    </g>
   </g>
   <g id="line2d_17">
    <defs>
     <path d="M 0 3 
C 0.795609 3 1.55874 2.683901 2.12132 2.12132 
C 2.683901 1.55874 3 0.795609 3 0 
C 3 -0.795609 2.683901 -1.55874 2.12132 -2.12132 
C 1.55874 -2.683901 0.795609 -3 0 -3 
C -0.795609 -3 -1.55874 -2.683901 -2.12132 -2.12132 
C -2.683901 -1.55874 -3 -0.795609 -3 0 
C -3 0.795609 -2.683901 1.55874 -2.12132 2.12132 
C -1.55874 2.683901 -0.795609 3 0 3 
z
" id="m2c4b0e49e0" style="stroke:#d62728;"/>
    </defs>
    <g clip-path="url(#paabfacb4c8)">
     <use style="fill:#d62728;stroke:#d62728;" x="86.835104" xlink:href="#m2c4b0e49e0" y="33.711285"/>
     <use style="fill:#d62728;stroke:#d62728;" x="124.164935" xlink:href="#m2c4b0e49e0" y="17.098008"/>
     <use style="fill:#d62728;stroke:#d62728;" x="145.946449" xlink:href="#m2c4b0e49e0" y="18.009325"/>
     <use style="fill:#d62728;stroke:#d62728;" x="163.235409" xlink:href="#m2c4b0e49e0" y="20.606586"/>
     <use style="fill:#d62728;stroke:#d62728;" x="185.016922" xlink:href="#m2c4b0e49e0" y="24.548013"/>
     <use style="fill:#d62728;stroke:#d62728;" x="222.346753" xlink:href="#m2c4b0e49e0" y="30.529965"/>
     <use style="fill:#d62728;stroke:#d62728;" x="244.128267" xlink:href="#m2c4b0e49e0" y="33.931427"/>
     <use style="fill:#d62728;stroke:#d62728;" x="261.417227" xlink:href="#m2c4b0e49e0" y="37.11583"/>
     <use style="fill:#d62728;stroke:#d62728;" x="283.198741" xlink:href="#m2c4b0e49e0" y="40.72006"/>
     <use style="fill:#d62728;stroke:#d62728;" x="320.528572" xlink:href="#m2c4b0e49e0" y="44.567122"/>
     <use style="fill:#d62728;stroke:#d62728;" x="342.310085" xlink:href="#m2c4b0e49e0" y="44.486887"/>
     <use style="fill:#d62728;stroke:#d62728;" x="359.599045" xlink:href="#m2c4b0e49e0" y="43.469115"/>
    </g>
   </g>
   <g id="patch_3">
    <path d="M 52.182813 224.64 
L 52.182813 7.2 
" style="fill:none;stroke:#000000;stroke-linecap:square;stroke-linejoin:miter;stroke-width:0.8;"/>
   </g>
   <g id="patch_4">
    <path d="M 386.982813 224.64 
L 386.982813 7.2 
" style="fill:none;stroke:#000000;stroke-linecap:square;stroke-linejoin:miter;stroke-width:0.8;"/>
   </g>
   <g id="patch_5">
    <path d="M 52.182813 224.64 
L 386.982813 224.64 
" style="fill:none;stroke:#000000;stroke-linecap:square;stroke-linejoin:miter;stroke-width:0.8;"/>
   </g>
   <g id="patch_6">
    <path d="M 52.182813 7.2 
L 386.982813 7.2 
" style="fill:none;stroke:#000000;stroke-linecap:square;stroke-linejoin:miter;stroke-width:0.8;"/>
   </g>
   <g id="legend_1">
    <g id="patch_7">
     <path d="M 59.182813 219.64 
L 207.4875 219.64 
Q 209.4875 219.64 209.4875 217.64 
L 209.4875 159.9275 
Q 209.4875 157.9275 207.4875 157.9275 
L 59.182813 157.9275 
Q 57.182813 157.9275 57.182813 159.9275 
L 57.182813 217.64 
Q 57.182813 219.64 59.182813 219.64 
z
" style="fill:#ffffff;opacity:0.8;stroke:#cccccc;stroke-linejoin:miter;"/>
    </g>
    <g id="line2d_18">
     <path d="M 61.182813 166.025937 
L 81.182813 166.025937 
" style="fill:none;stroke:#1f77b4;stroke-linecap:square;stroke-opacity:0.5;stroke-width:1.5;"/>
    </g>
    <g id="line2d_19"/>
    <g id="text_16">
     <!-- 5th order photopeak fit -->
     <g transform="translate(89.182813 169.525937)scale(0.1 -0.1)">
      <defs>
       <path d="M 1172 4494 
L 1172 3500 
L 2356 3500 
L 2356 3053 
L 1172 3053 
L 1172 1153 
Q 1172 725 1289 603 
Q 1406 481 1766 481 
L 2356 481 
L 2356 0 
L 1766 0 
Q 1100 0 847 248 
Q 594 497 594 1153 
L 594 3053 
L 172 3053 
L 172 3500 
L 594 3500 
L 594 4494 
L 1172 4494 
z
" id="DejaVuSans-74" transform="scale(0.015625)"/>
       <path d="M 3513 2113 
L 3513 0 
L 2938 0 
L 2938 2094 
Q 2938 2591 2744 2837 
Q 2550 3084 2163 3084 
Q 1697 3084 1428 2787 
Q 1159 2491 1159 1978 
L 1159 0 
L 581 0 
L 581 4863 
L 1159 4863 
L 1159 2956 
Q 1366 3272 1645 3428 
Q 1925 3584 2291 3584 
Q 2894 3584 3203 3211 
Q 3513 2838 3513 2113 
z
" id="DejaVuSans-68" transform="scale(0.015625)"/>
       <path d="M 2906 2969 
L 2906 4863 
L 3481 4863 
L 3481 0 
L 2906 0 
L 2906 525 
Q 2725 213 2448 61 
Q 2172 -91 1784 -91 
Q 1150 -91 751 415 
Q 353 922 353 1747 
Q 353 2572 751 3078 
Q 1150 3584 1784 3584 
Q 2172 3584 2448 3432 
Q 2725 3281 2906 2969 
z
M 947 1747 
Q 947 1113 1208 752 
Q 1469 391 1925 391 
Q 2381 391 2643 752 
Q 2906 1113 2906 1747 
Q 2906 2381 2643 2742 
Q 2381 3103 1925 3103 
Q 1469 3103 1208 2742 
Q 947 2381 947 1747 
z
" id="DejaVuSans-64" transform="scale(0.015625)"/>
       <path d="M 1159 525 
L 1159 -1331 
L 581 -1331 
L 581 3500 
L 1159 3500 
L 1159 2969 
Q 1341 3281 1617 3432 
Q 1894 3584 2278 3584 
Q 2916 3584 3314 3078 
Q 3713 2572 3713 1747 
Q 3713 922 3314 415 
Q 2916 -91 2278 -91 
Q 1894 -91 1617 61 
Q 1341 213 1159 525 
z
M 3116 1747 
Q 3116 2381 2855 2742 
Q 2594 3103 2138 3103 
Q 1681 3103 1420 2742 
Q 1159 2381 1159 1747 
Q 1159 1113 1420 752 
Q 1681 391 2138 391 
Q 2594 391 2855 752 
Q 3116 1113 3116 1747 
z
" id="DejaVuSans-70" transform="scale(0.015625)"/>
       <path d="M 2194 1759 
Q 1497 1759 1228 1600 
Q 959 1441 959 1056 
Q 959 750 1161 570 
Q 1363 391 1709 391 
Q 2188 391 2477 730 
Q 2766 1069 2766 1631 
L 2766 1759 
L 2194 1759 
z
M 3341 1997 
L 3341 0 
L 2766 0 
L 2766 531 
Q 2569 213 2275 61 
Q 1981 -91 1556 -91 
Q 1019 -91 701 211 
Q 384 513 384 1019 
Q 384 1609 779 1909 
Q 1175 2209 1959 2209 
L 2766 2209 
L 2766 2266 
Q 2766 2663 2505 2880 
Q 2244 3097 1772 3097 
Q 1472 3097 1187 3025 
Q 903 2953 641 2809 
L 641 3341 
Q 956 3463 1253 3523 
Q 1550 3584 1831 3584 
Q 2591 3584 2966 3190 
Q 3341 2797 3341 1997 
z
" id="DejaVuSans-61" transform="scale(0.015625)"/>
      </defs>
      <use xlink:href="#DejaVuSans-35"/>
      <use x="63.623047" xlink:href="#DejaVuSans-74"/>
      <use x="102.832031" xlink:href="#DejaVuSans-68"/>
      <use x="166.210938" xlink:href="#DejaVuSans-20"/>
      <use x="197.998047" xlink:href="#DejaVuSans-6f"/>
      <use x="259.179688" xlink:href="#DejaVuSans-72"/>
      <use x="298.542969" xlink:href="#DejaVuSans-64"/>
      <use x="362.019531" xlink:href="#DejaVuSans-65"/>
      <use x="423.542969" xlink:href="#DejaVuSans-72"/>
      <use x="464.65625" xlink:href="#DejaVuSans-20"/>
      <use x="496.443359" xlink:href="#DejaVuSans-70"/>
      <use x="559.919922" xlink:href="#DejaVuSans-68"/>
      <use x="623.298828" xlink:href="#DejaVuSans-6f"/>
      <use x="684.480469" xlink:href="#DejaVuSans-74"/>
      <use x="723.689453" xlink:href="#DejaVuSans-6f"/>
      <use x="784.871094" xlink:href="#DejaVuSans-70"/>
      <use x="848.347656" xlink:href="#DejaVuSans-65"/>
      <use x="909.871094" xlink:href="#DejaVuSans-61"/>
      <use x="971.150391" xlink:href="#DejaVuSans-6b"/>
      <use x="1029.060547" xlink:href="#DejaVuSans-20"/>
      <use x="1060.847656" xlink:href="#DejaVuSans-66"/>
      <use x="1096.052734" xlink:href="#DejaVuSans-69"/>
      <use x="1123.835938" xlink:href="#DejaVuSans-74"/>
     </g>
    </g>
    <g id="line2d_20">
     <path d="M 61.182813 180.704062 
L 81.182813 180.704062 
" style="fill:none;stroke:#2ca02c;stroke-linecap:square;stroke-opacity:0.5;stroke-width:1.5;"/>
    </g>
    <g id="line2d_21"/>
    <g id="text_17">
     <!-- 5th order total fit -->
     <g transform="translate(89.182813 184.204062)scale(0.1 -0.1)">
      <use xlink:href="#DejaVuSans-35"/>
      <use x="63.623047" xlink:href="#DejaVuSans-74"/>
      <use x="102.832031" xlink:href="#DejaVuSans-68"/>
      <use x="166.210938" xlink:href="#DejaVuSans-20"/>
      <use x="197.998047" xlink:href="#DejaVuSans-6f"/>
      <use x="259.179688" xlink:href="#DejaVuSans-72"/>
      <use x="298.542969" xlink:href="#DejaVuSans-64"/>
      <use x="362.019531" xlink:href="#DejaVuSans-65"/>
      <use x="423.542969" xlink:href="#DejaVuSans-72"/>
      <use x="464.65625" xlink:href="#DejaVuSans-20"/>
      <use x="496.443359" xlink:href="#DejaVuSans-74"/>
      <use x="535.652344" xlink:href="#DejaVuSans-6f"/>
      <use x="596.833984" xlink:href="#DejaVuSans-74"/>
      <use x="636.042969" xlink:href="#DejaVuSans-61"/>
      <use x="697.322266" xlink:href="#DejaVuSans-6c"/>
      <use x="725.105469" xlink:href="#DejaVuSans-20"/>
      <use x="756.892578" xlink:href="#DejaVuSans-66"/>
      <use x="792.097656" xlink:href="#DejaVuSans-69"/>
      <use x="819.880859" xlink:href="#DejaVuSans-74"/>
     </g>
    </g>
    <g id="LineCollection_3">
     <path d="M 71.182813 200.382187 
L 71.182813 190.382187 
" style="fill:none;stroke:#ff7f0e;stroke-width:1.5;"/>
    </g>
    <g id="line2d_22"/>
    <g id="line2d_23">
     <g>
      <use style="fill:#ff7f0e;stroke:#ff7f0e;" x="71.182813" xlink:href="#mee5067cd99" y="195.382187"/>
     </g>
    </g>
    <g id="text_18">
     <!-- Simulated photopeak -->
     <g transform="translate(89.182813 198.882187)scale(0.1 -0.1)">
      <defs>
       <path d="M 3425 4513 
L 3425 3897 
Q 3066 4069 2747 4153 
Q 2428 4238 2131 4238 
Q 1616 4238 1336 4038 
Q 1056 3838 1056 3469 
Q 1056 3159 1242 3001 
Q 1428 2844 1947 2747 
L 2328 2669 
Q 3034 2534 3370 2195 
Q 3706 1856 3706 1288 
Q 3706 609 3251 259 
Q 2797 -91 1919 -91 
Q 1588 -91 1214 -16 
Q 841 59 441 206 
L 441 856 
Q 825 641 1194 531 
Q 1563 422 1919 422 
Q 2459 422 2753 634 
Q 3047 847 3047 1241 
Q 3047 1584 2836 1778 
Q 2625 1972 2144 2069 
L 1759 2144 
Q 1053 2284 737 2584 
Q 422 2884 422 3419 
Q 422 4038 858 4394 
Q 1294 4750 2059 4750 
Q 2388 4750 2728 4690 
Q 3069 4631 3425 4513 
z
" id="DejaVuSans-53" transform="scale(0.015625)"/>
       <path d="M 3328 2828 
Q 3544 3216 3844 3400 
Q 4144 3584 4550 3584 
Q 5097 3584 5394 3201 
Q 5691 2819 5691 2113 
L 5691 0 
L 5113 0 
L 5113 2094 
Q 5113 2597 4934 2840 
Q 4756 3084 4391 3084 
Q 3944 3084 3684 2787 
Q 3425 2491 3425 1978 
L 3425 0 
L 2847 0 
L 2847 2094 
Q 2847 2600 2669 2842 
Q 2491 3084 2119 3084 
Q 1678 3084 1418 2786 
Q 1159 2488 1159 1978 
L 1159 0 
L 581 0 
L 581 3500 
L 1159 3500 
L 1159 2956 
Q 1356 3278 1631 3431 
Q 1906 3584 2284 3584 
Q 2666 3584 2933 3390 
Q 3200 3197 3328 2828 
z
" id="DejaVuSans-6d" transform="scale(0.015625)"/>
       <path d="M 544 1381 
L 544 3500 
L 1119 3500 
L 1119 1403 
Q 1119 906 1312 657 
Q 1506 409 1894 409 
Q 2359 409 2629 706 
Q 2900 1003 2900 1516 
L 2900 3500 
L 3475 3500 
L 3475 0 
L 2900 0 
L 2900 538 
Q 2691 219 2414 64 
Q 2138 -91 1772 -91 
Q 1169 -91 856 284 
Q 544 659 544 1381 
z
M 1991 3584 
L 1991 3584 
z
" id="DejaVuSans-75" transform="scale(0.015625)"/>
      </defs>
      <use xlink:href="#DejaVuSans-53"/>
      <use x="63.476562" xlink:href="#DejaVuSans-69"/>
      <use x="91.259766" xlink:href="#DejaVuSans-6d"/>
      <use x="188.671875" xlink:href="#DejaVuSans-75"/>
      <use x="252.050781" xlink:href="#DejaVuSans-6c"/>
      <use x="279.833984" xlink:href="#DejaVuSans-61"/>
      <use x="341.113281" xlink:href="#DejaVuSans-74"/>
      <use x="380.322266" xlink:href="#DejaVuSans-65"/>
      <use x="441.845703" xlink:href="#DejaVuSans-64"/>
      <use x="505.322266" xlink:href="#DejaVuSans-20"/>
      <use x="537.109375" xlink:href="#DejaVuSans-70"/>
      <use x="600.585938" xlink:href="#DejaVuSans-68"/>
      <use x="663.964844" xlink:href="#DejaVuSans-6f"/>
      <use x="725.146484" xlink:href="#DejaVuSans-74"/>
      <use x="764.355469" xlink:href="#DejaVuSans-6f"/>
      <use x="825.537109" xlink:href="#DejaVuSans-70"/>
      <use x="889.013672" xlink:href="#DejaVuSans-65"/>
      <use x="950.537109" xlink:href="#DejaVuSans-61"/>
      <use x="1011.816406" xlink:href="#DejaVuSans-6b"/>
     </g>
    </g>
    <g id="LineCollection_4">
     <path d="M 71.182813 215.060312 
L 71.182813 205.060312 
" style="fill:none;stroke:#d62728;stroke-width:1.5;"/>
    </g>
    <g id="line2d_24"/>
    <g id="line2d_25">
     <g>
      <use style="fill:#d62728;stroke:#d62728;" x="71.182813" xlink:href="#m2c4b0e49e0" y="210.060312"/>
     </g>
    </g>
    <g id="text_19">
     <!-- Simulated total -->
     <g transform="translate(89.182813 213.560312)scale(0.1 -0.1)">
      <use xlink:href="#DejaVuSans-53"/>
      <use x="63.476562" xlink:href="#DejaVuSans-69"/>
      <use x="91.259766" xlink:href="#DejaVuSans-6d"/>
      <use x="188.671875" xlink:href="#DejaVuSans-75"/>
      <use x="252.050781" xlink:href="#DejaVuSans-6c"/>
      <use x="279.833984" xlink:href="#DejaVuSans-61"/>
      <use x="341.113281" xlink:href="#DejaVuSans-74"/>
      <use x="380.322266" xlink:href="#DejaVuSans-65"/>
      <use x="441.845703" xlink:href="#DejaVuSans-64"/>
      <use x="505.322266" xlink:href="#DejaVuSans-20"/>
      <use x="537.109375" xlink:href="#DejaVuSans-74"/>
      <use x="576.318359" xlink:href="#DejaVuSans-6f"/>
      <use x="637.5" xlink:href="#DejaVuSans-74"/>
      <use x="676.708984" xlink:href="#DejaVuSans-61"/>
      <use x="737.988281" xlink:href="#DejaVuSans-6c"/>
     </g>
    </g>
   </g>
  </g>
 </g>
 <defs>
  <clipPath id="paabfacb4c8">
   <rect height="217.44" width="334.8" x="52.182813" y="7.2"/>
  </clipPath>
 </defs>
</svg>
