<?xml version="1.0" encoding="utf-8" standalone="no"?>
<!DOCTYPE svg PUBLIC "-//W3C//DTD SVG 1.1//EN"
  "http://www.w3.org/Graphics/SVG/1.1/DTD/svg11.dtd">
<svg height="316.55625pt" version="1.1" viewBox="0 0 331.678125 316.55625" width="331.678125pt" xmlns="http://www.w3.org/2000/svg" xmlns:xlink="http://www.w3.org/1999/xlink">
 <metadata>
  <rdf:RDF xmlns:cc="http://creativecommons.org/ns#" xmlns:dc="http://purl.org/dc/elements/1.1/" xmlns:rdf="http://www.w3.org/1999/02/22-rdf-syntax-ns#">
   <cc:Work>
    <dc:type rdf:resource="http://purl.org/dc/dcmitype/StillImage"/>
    <dc:date>2021-05-22T11:04:07.612030</dc:date>
    <dc:format>image/svg+xml</dc:format>
    <dc:creator>
     <cc:Agent>
      <dc:title>Matplotlib v3.4.2, https://matplotlib.org/</dc:title>
     </cc:Agent>
    </dc:creator>
   </cc:Work>
  </rdf:RDF>
 </metadata>
 <defs>
  <style type="text/css">*{stroke-linecap:butt;stroke-linejoin:round;}</style>
 </defs>
 <g id="figure_1">
  <g id="patch_1">
   <path d="M 0 316.55625 
L 331.678125 316.55625 
L 331.678125 0 
L 0 0 
z
" style="fill:none;"/>
  </g>
  <g id="axes_1">
   <g id="patch_2">
    <path d="M 45.478125 279 
L 324.478125 279 
L 324.478125 7.2 
L 45.478125 7.2 
z
" style="fill:#ffffff;"/>
   </g>
   <g id="matplotlib.axis_1">
    <g id="xtick_1">
     <g id="line2d_1">
      <defs>
       <path d="M 0 0 
L 0 3.5 
" id="m493353c04d" style="stroke:#000000;stroke-width:0.8;"/>
      </defs>
      <g>
       <use style="stroke:#000000;stroke-width:0.8;" x="58.159943" xlink:href="#m493353c04d" y="279"/>
      </g>
     </g>
     <g id="text_1">
      <!-- $\mathdefault{10^{2}}$ -->
      <g transform="translate(49.359943 293.598437)scale(0.1 -0.1)">
       <defs>
        <path d="M 794 531 
L 1825 531 
L 1825 4091 
L 703 3866 
L 703 4441 
L 1819 4666 
L 2450 4666 
L 2450 531 
L 3481 531 
L 3481 0 
L 794 0 
L 794 531 
z
" id="DejaVuSans-31" transform="scale(0.015625)"/>
        <path d="M 2034 4250 
Q 1547 4250 1301 3770 
Q 1056 3291 1056 2328 
Q 1056 1369 1301 889 
Q 1547 409 2034 409 
Q 2525 409 2770 889 
Q 3016 1369 3016 2328 
Q 3016 3291 2770 3770 
Q 2525 4250 2034 4250 
z
M 2034 4750 
Q 2819 4750 3233 4129 
Q 3647 3509 3647 2328 
Q 3647 1150 3233 529 
Q 2819 -91 2034 -91 
Q 1250 -91 836 529 
Q 422 1150 422 2328 
Q 422 3509 836 4129 
Q 1250 4750 2034 4750 
z
" id="DejaVuSans-30" transform="scale(0.015625)"/>
        <path d="M 1228 531 
L 3431 531 
L 3431 0 
L 469 0 
L 469 531 
Q 828 903 1448 1529 
Q 2069 2156 2228 2338 
Q 2531 2678 2651 2914 
Q 2772 3150 2772 3378 
Q 2772 3750 2511 3984 
Q 2250 4219 1831 4219 
Q 1534 4219 1204 4116 
Q 875 4013 500 3803 
L 500 4441 
Q 881 4594 1212 4672 
Q 1544 4750 1819 4750 
Q 2544 4750 2975 4387 
Q 3406 4025 3406 3419 
Q 3406 3131 3298 2873 
Q 3191 2616 2906 2266 
Q 2828 2175 2409 1742 
Q 1991 1309 1228 531 
z
" id="DejaVuSans-32" transform="scale(0.015625)"/>
       </defs>
       <use transform="translate(0 0.765625)" xlink:href="#DejaVuSans-31"/>
       <use transform="translate(63.623047 0.765625)" xlink:href="#DejaVuSans-30"/>
       <use transform="translate(128.203125 39.046875)scale(0.7)" xlink:href="#DejaVuSans-32"/>
      </g>
     </g>
    </g>
    <g id="xtick_2">
     <g id="line2d_2">
      <g>
       <use style="stroke:#000000;stroke-width:0.8;" x="253.110378" xlink:href="#m493353c04d" y="279"/>
      </g>
     </g>
     <g id="text_2">
      <!-- $\mathdefault{10^{3}}$ -->
      <g transform="translate(244.310378 293.598437)scale(0.1 -0.1)">
       <defs>
        <path d="M 2597 2516 
Q 3050 2419 3304 2112 
Q 3559 1806 3559 1356 
Q 3559 666 3084 287 
Q 2609 -91 1734 -91 
Q 1441 -91 1130 -33 
Q 819 25 488 141 
L 488 750 
Q 750 597 1062 519 
Q 1375 441 1716 441 
Q 2309 441 2620 675 
Q 2931 909 2931 1356 
Q 2931 1769 2642 2001 
Q 2353 2234 1838 2234 
L 1294 2234 
L 1294 2753 
L 1863 2753 
Q 2328 2753 2575 2939 
Q 2822 3125 2822 3475 
Q 2822 3834 2567 4026 
Q 2313 4219 1838 4219 
Q 1578 4219 1281 4162 
Q 984 4106 628 3988 
L 628 4550 
Q 988 4650 1302 4700 
Q 1616 4750 1894 4750 
Q 2613 4750 3031 4423 
Q 3450 4097 3450 3541 
Q 3450 3153 3228 2886 
Q 3006 2619 2597 2516 
z
" id="DejaVuSans-33" transform="scale(0.015625)"/>
       </defs>
       <use transform="translate(0 0.765625)" xlink:href="#DejaVuSans-31"/>
       <use transform="translate(63.623047 0.765625)" xlink:href="#DejaVuSans-30"/>
       <use transform="translate(128.203125 39.046875)scale(0.7)" xlink:href="#DejaVuSans-33"/>
      </g>
     </g>
    </g>
    <g id="xtick_3">
     <g id="line2d_3">
      <defs>
       <path d="M 0 0 
L 0 2 
" id="m949987f863" style="stroke:#000000;stroke-width:0.6;"/>
      </defs>
      <g>
       <use style="stroke:#000000;stroke-width:0.6;" x="49.2395" xlink:href="#m949987f863" y="279"/>
      </g>
     </g>
    </g>
    <g id="xtick_4">
     <g id="line2d_4">
      <g>
       <use style="stroke:#000000;stroke-width:0.6;" x="116.845872" xlink:href="#m949987f863" y="279"/>
      </g>
     </g>
    </g>
    <g id="xtick_5">
     <g id="line2d_5">
      <g>
       <use style="stroke:#000000;stroke-width:0.6;" x="151.174939" xlink:href="#m949987f863" y="279"/>
      </g>
     </g>
    </g>
    <g id="xtick_6">
     <g id="line2d_6">
      <g>
       <use style="stroke:#000000;stroke-width:0.6;" x="175.5318" xlink:href="#m949987f863" y="279"/>
      </g>
     </g>
    </g>
    <g id="xtick_7">
     <g id="line2d_7">
      <g>
       <use style="stroke:#000000;stroke-width:0.6;" x="194.42445" xlink:href="#m949987f863" y="279"/>
      </g>
     </g>
    </g>
    <g id="xtick_8">
     <g id="line2d_8">
      <g>
       <use style="stroke:#000000;stroke-width:0.6;" x="209.860868" xlink:href="#m949987f863" y="279"/>
      </g>
     </g>
    </g>
    <g id="xtick_9">
     <g id="line2d_9">
      <g>
       <use style="stroke:#000000;stroke-width:0.6;" x="222.912174" xlink:href="#m949987f863" y="279"/>
      </g>
     </g>
    </g>
    <g id="xtick_10">
     <g id="line2d_10">
      <g>
       <use style="stroke:#000000;stroke-width:0.6;" x="234.217729" xlink:href="#m949987f863" y="279"/>
      </g>
     </g>
    </g>
    <g id="xtick_11">
     <g id="line2d_11">
      <g>
       <use style="stroke:#000000;stroke-width:0.6;" x="244.189936" xlink:href="#m949987f863" y="279"/>
      </g>
     </g>
    </g>
    <g id="xtick_12">
     <g id="line2d_12">
      <g>
       <use style="stroke:#000000;stroke-width:0.6;" x="311.796307" xlink:href="#m949987f863" y="279"/>
      </g>
     </g>
    </g>
    <g id="text_3">
     <!-- Energy [keV] -->
     <g transform="translate(152.770312 307.276562)scale(0.1 -0.1)">
      <defs>
       <path d="M 628 4666 
L 3578 4666 
L 3578 4134 
L 1259 4134 
L 1259 2753 
L 3481 2753 
L 3481 2222 
L 1259 2222 
L 1259 531 
L 3634 531 
L 3634 0 
L 628 0 
L 628 4666 
z
" id="DejaVuSans-45" transform="scale(0.015625)"/>
       <path d="M 3513 2113 
L 3513 0 
L 2938 0 
L 2938 2094 
Q 2938 2591 2744 2837 
Q 2550 3084 2163 3084 
Q 1697 3084 1428 2787 
Q 1159 2491 1159 1978 
L 1159 0 
L 581 0 
L 581 3500 
L 1159 3500 
L 1159 2956 
Q 1366 3272 1645 3428 
Q 1925 3584 2291 3584 
Q 2894 3584 3203 3211 
Q 3513 2838 3513 2113 
z
" id="DejaVuSans-6e" transform="scale(0.015625)"/>
       <path d="M 3597 1894 
L 3597 1613 
L 953 1613 
Q 991 1019 1311 708 
Q 1631 397 2203 397 
Q 2534 397 2845 478 
Q 3156 559 3463 722 
L 3463 178 
Q 3153 47 2828 -22 
Q 2503 -91 2169 -91 
Q 1331 -91 842 396 
Q 353 884 353 1716 
Q 353 2575 817 3079 
Q 1281 3584 2069 3584 
Q 2775 3584 3186 3129 
Q 3597 2675 3597 1894 
z
M 3022 2063 
Q 3016 2534 2758 2815 
Q 2500 3097 2075 3097 
Q 1594 3097 1305 2825 
Q 1016 2553 972 2059 
L 3022 2063 
z
" id="DejaVuSans-65" transform="scale(0.015625)"/>
       <path d="M 2631 2963 
Q 2534 3019 2420 3045 
Q 2306 3072 2169 3072 
Q 1681 3072 1420 2755 
Q 1159 2438 1159 1844 
L 1159 0 
L 581 0 
L 581 3500 
L 1159 3500 
L 1159 2956 
Q 1341 3275 1631 3429 
Q 1922 3584 2338 3584 
Q 2397 3584 2469 3576 
Q 2541 3569 2628 3553 
L 2631 2963 
z
" id="DejaVuSans-72" transform="scale(0.015625)"/>
       <path d="M 2906 1791 
Q 2906 2416 2648 2759 
Q 2391 3103 1925 3103 
Q 1463 3103 1205 2759 
Q 947 2416 947 1791 
Q 947 1169 1205 825 
Q 1463 481 1925 481 
Q 2391 481 2648 825 
Q 2906 1169 2906 1791 
z
M 3481 434 
Q 3481 -459 3084 -895 
Q 2688 -1331 1869 -1331 
Q 1566 -1331 1297 -1286 
Q 1028 -1241 775 -1147 
L 775 -588 
Q 1028 -725 1275 -790 
Q 1522 -856 1778 -856 
Q 2344 -856 2625 -561 
Q 2906 -266 2906 331 
L 2906 616 
Q 2728 306 2450 153 
Q 2172 0 1784 0 
Q 1141 0 747 490 
Q 353 981 353 1791 
Q 353 2603 747 3093 
Q 1141 3584 1784 3584 
Q 2172 3584 2450 3431 
Q 2728 3278 2906 2969 
L 2906 3500 
L 3481 3500 
L 3481 434 
z
" id="DejaVuSans-67" transform="scale(0.015625)"/>
       <path d="M 2059 -325 
Q 1816 -950 1584 -1140 
Q 1353 -1331 966 -1331 
L 506 -1331 
L 506 -850 
L 844 -850 
Q 1081 -850 1212 -737 
Q 1344 -625 1503 -206 
L 1606 56 
L 191 3500 
L 800 3500 
L 1894 763 
L 2988 3500 
L 3597 3500 
L 2059 -325 
z
" id="DejaVuSans-79" transform="scale(0.015625)"/>
       <path id="DejaVuSans-20" transform="scale(0.015625)"/>
       <path d="M 550 4863 
L 1875 4863 
L 1875 4416 
L 1125 4416 
L 1125 -397 
L 1875 -397 
L 1875 -844 
L 550 -844 
L 550 4863 
z
" id="DejaVuSans-5b" transform="scale(0.015625)"/>
       <path d="M 581 4863 
L 1159 4863 
L 1159 1991 
L 2875 3500 
L 3609 3500 
L 1753 1863 
L 3688 0 
L 2938 0 
L 1159 1709 
L 1159 0 
L 581 0 
L 581 4863 
z
" id="DejaVuSans-6b" transform="scale(0.015625)"/>
       <path d="M 1831 0 
L 50 4666 
L 709 4666 
L 2188 738 
L 3669 4666 
L 4325 4666 
L 2547 0 
L 1831 0 
z
" id="DejaVuSans-56" transform="scale(0.015625)"/>
       <path d="M 1947 4863 
L 1947 -844 
L 622 -844 
L 622 -397 
L 1369 -397 
L 1369 4416 
L 622 4416 
L 622 4863 
L 1947 4863 
z
" id="DejaVuSans-5d" transform="scale(0.015625)"/>
      </defs>
      <use xlink:href="#DejaVuSans-45"/>
      <use x="63.183594" xlink:href="#DejaVuSans-6e"/>
      <use x="126.5625" xlink:href="#DejaVuSans-65"/>
      <use x="188.085938" xlink:href="#DejaVuSans-72"/>
      <use x="227.449219" xlink:href="#DejaVuSans-67"/>
      <use x="290.925781" xlink:href="#DejaVuSans-79"/>
      <use x="350.105469" xlink:href="#DejaVuSans-20"/>
      <use x="381.892578" xlink:href="#DejaVuSans-5b"/>
      <use x="420.90625" xlink:href="#DejaVuSans-6b"/>
      <use x="475.191406" xlink:href="#DejaVuSans-65"/>
      <use x="536.714844" xlink:href="#DejaVuSans-56"/>
      <use x="605.123047" xlink:href="#DejaVuSans-5d"/>
     </g>
    </g>
   </g>
   <g id="matplotlib.axis_2">
    <g id="ytick_1">
     <g id="line2d_13">
      <defs>
       <path d="M 0 0 
L -3.5 0 
" id="m45973c5f2e" style="stroke:#000000;stroke-width:0.8;"/>
      </defs>
      <g>
       <use style="stroke:#000000;stroke-width:0.8;" x="45.478125" xlink:href="#m45973c5f2e" y="149.006471"/>
      </g>
     </g>
     <g id="text_4">
      <!-- $\mathdefault{10^{0}}$ -->
      <g transform="translate(20.878125 152.80569)scale(0.1 -0.1)">
       <use transform="translate(0 0.765625)" xlink:href="#DejaVuSans-31"/>
       <use transform="translate(63.623047 0.765625)" xlink:href="#DejaVuSans-30"/>
       <use transform="translate(128.203125 39.046875)scale(0.7)" xlink:href="#DejaVuSans-30"/>
      </g>
     </g>
    </g>
    <g id="ytick_2">
     <g id="line2d_14">
      <defs>
       <path d="M 0 0 
L -2 0 
" id="m3713ee256a" style="stroke:#000000;stroke-width:0.6;"/>
      </defs>
      <g>
       <use style="stroke:#000000;stroke-width:0.6;" x="45.478125" xlink:href="#m3713ee256a" y="247.120765"/>
      </g>
     </g>
    </g>
    <g id="ytick_3">
     <g id="line2d_15">
      <g>
       <use style="stroke:#000000;stroke-width:0.6;" x="45.478125" xlink:href="#m3713ee256a" y="223.676944"/>
      </g>
     </g>
    </g>
    <g id="ytick_4">
     <g id="line2d_16">
      <g>
       <use style="stroke:#000000;stroke-width:0.6;" x="45.478125" xlink:href="#m3713ee256a" y="205.492503"/>
      </g>
     </g>
    </g>
    <g id="ytick_5">
     <g id="line2d_17">
      <g>
       <use style="stroke:#000000;stroke-width:0.6;" x="45.478125" xlink:href="#m3713ee256a" y="190.634733"/>
      </g>
     </g>
    </g>
    <g id="ytick_6">
     <g id="line2d_18">
      <g>
       <use style="stroke:#000000;stroke-width:0.6;" x="45.478125" xlink:href="#m3713ee256a" y="178.072668"/>
      </g>
     </g>
    </g>
    <g id="ytick_7">
     <g id="line2d_19">
      <g>
       <use style="stroke:#000000;stroke-width:0.6;" x="45.478125" xlink:href="#m3713ee256a" y="167.190912"/>
      </g>
     </g>
    </g>
    <g id="ytick_8">
     <g id="line2d_20">
      <g>
       <use style="stroke:#000000;stroke-width:0.6;" x="45.478125" xlink:href="#m3713ee256a" y="157.592523"/>
      </g>
     </g>
    </g>
    <g id="ytick_9">
     <g id="line2d_21">
      <g>
       <use style="stroke:#000000;stroke-width:0.6;" x="45.478125" xlink:href="#m3713ee256a" y="92.520439"/>
      </g>
     </g>
    </g>
    <g id="ytick_10">
     <g id="line2d_22">
      <g>
       <use style="stroke:#000000;stroke-width:0.6;" x="45.478125" xlink:href="#m3713ee256a" y="59.478229"/>
      </g>
     </g>
    </g>
    <g id="ytick_11">
     <g id="line2d_23">
      <g>
       <use style="stroke:#000000;stroke-width:0.6;" x="45.478125" xlink:href="#m3713ee256a" y="36.034407"/>
      </g>
     </g>
    </g>
    <g id="ytick_12">
     <g id="line2d_24">
      <g>
       <use style="stroke:#000000;stroke-width:0.6;" x="45.478125" xlink:href="#m3713ee256a" y="17.849966"/>
      </g>
     </g>
    </g>
    <g id="text_5">
     <!-- Efficiency [%] -->
     <g transform="translate(14.798438 177.502344)rotate(-90)scale(0.1 -0.1)">
      <defs>
       <path d="M 2375 4863 
L 2375 4384 
L 1825 4384 
Q 1516 4384 1395 4259 
Q 1275 4134 1275 3809 
L 1275 3500 
L 2222 3500 
L 2222 3053 
L 1275 3053 
L 1275 0 
L 697 0 
L 697 3053 
L 147 3053 
L 147 3500 
L 697 3500 
L 697 3744 
Q 697 4328 969 4595 
Q 1241 4863 1831 4863 
L 2375 4863 
z
" id="DejaVuSans-66" transform="scale(0.015625)"/>
       <path d="M 603 3500 
L 1178 3500 
L 1178 0 
L 603 0 
L 603 3500 
z
M 603 4863 
L 1178 4863 
L 1178 4134 
L 603 4134 
L 603 4863 
z
" id="DejaVuSans-69" transform="scale(0.015625)"/>
       <path d="M 3122 3366 
L 3122 2828 
Q 2878 2963 2633 3030 
Q 2388 3097 2138 3097 
Q 1578 3097 1268 2742 
Q 959 2388 959 1747 
Q 959 1106 1268 751 
Q 1578 397 2138 397 
Q 2388 397 2633 464 
Q 2878 531 3122 666 
L 3122 134 
Q 2881 22 2623 -34 
Q 2366 -91 2075 -91 
Q 1284 -91 818 406 
Q 353 903 353 1747 
Q 353 2603 823 3093 
Q 1294 3584 2113 3584 
Q 2378 3584 2631 3529 
Q 2884 3475 3122 3366 
z
" id="DejaVuSans-63" transform="scale(0.015625)"/>
       <path d="M 4653 2053 
Q 4381 2053 4226 1822 
Q 4072 1591 4072 1178 
Q 4072 772 4226 539 
Q 4381 306 4653 306 
Q 4919 306 5073 539 
Q 5228 772 5228 1178 
Q 5228 1588 5073 1820 
Q 4919 2053 4653 2053 
z
M 4653 2450 
Q 5147 2450 5437 2106 
Q 5728 1763 5728 1178 
Q 5728 594 5436 251 
Q 5144 -91 4653 -91 
Q 4153 -91 3862 251 
Q 3572 594 3572 1178 
Q 3572 1766 3864 2108 
Q 4156 2450 4653 2450 
z
M 1428 4353 
Q 1159 4353 1004 4120 
Q 850 3888 850 3481 
Q 850 3069 1003 2837 
Q 1156 2606 1428 2606 
Q 1700 2606 1854 2837 
Q 2009 3069 2009 3481 
Q 2009 3884 1853 4118 
Q 1697 4353 1428 4353 
z
M 4250 4750 
L 4750 4750 
L 1831 -91 
L 1331 -91 
L 4250 4750 
z
M 1428 4750 
Q 1922 4750 2215 4408 
Q 2509 4066 2509 3481 
Q 2509 2891 2217 2550 
Q 1925 2209 1428 2209 
Q 931 2209 642 2551 
Q 353 2894 353 3481 
Q 353 4063 643 4406 
Q 934 4750 1428 4750 
z
" id="DejaVuSans-25" transform="scale(0.015625)"/>
      </defs>
      <use xlink:href="#DejaVuSans-45"/>
      <use x="63.183594" xlink:href="#DejaVuSans-66"/>
      <use x="98.388672" xlink:href="#DejaVuSans-66"/>
      <use x="133.59375" xlink:href="#DejaVuSans-69"/>
      <use x="161.376953" xlink:href="#DejaVuSans-63"/>
      <use x="216.357422" xlink:href="#DejaVuSans-69"/>
      <use x="244.140625" xlink:href="#DejaVuSans-65"/>
      <use x="305.664062" xlink:href="#DejaVuSans-6e"/>
      <use x="369.042969" xlink:href="#DejaVuSans-63"/>
      <use x="424.023438" xlink:href="#DejaVuSans-79"/>
      <use x="483.203125" xlink:href="#DejaVuSans-20"/>
      <use x="514.990234" xlink:href="#DejaVuSans-5b"/>
      <use x="554.003906" xlink:href="#DejaVuSans-25"/>
      <use x="649.023438" xlink:href="#DejaVuSans-5d"/>
     </g>
    </g>
   </g>
   <g id="line2d_25">
    <path clip-path="url(#p55e1a54d0c)" d="M 58.159943 40.017348 
L 116.845872 75.36217 
L 151.174939 109.261074 
L 175.5318 135.142832 
L 194.42445 154.152928 
L 209.860868 168.391535 
L 222.912174 181.282197 
L 234.217729 191.104665 
L 244.189936 199.664665 
L 253.110378 207.455469 
" style="fill:none;stroke:#1f77b4;stroke-linecap:square;stroke-width:1.5;"/>
    <defs>
     <path d="M 0 3.75 
C 0.994512 3.75 1.948425 3.354876 2.65165 2.65165 
C 3.354876 1.948425 3.75 0.994512 3.75 0 
C 3.75 -0.994512 3.354876 -1.948425 2.65165 -2.65165 
C 1.948425 -3.354876 0.994512 -3.75 0 -3.75 
C -0.994512 -3.75 -1.948425 -3.354876 -2.65165 -2.65165 
C -3.354876 -1.948425 -3.75 -0.994512 -3.75 0 
C -3.75 0.994512 -3.354876 1.948425 -2.65165 2.65165 
C -1.948425 3.354876 -0.994512 3.75 0 3.75 
z
" id="md1f7c6632a" style="stroke:#1f77b4;"/>
    </defs>
    <g clip-path="url(#p55e1a54d0c)">
     <use style="fill:#1f77b4;stroke:#1f77b4;" x="58.159943" xlink:href="#md1f7c6632a" y="40.017348"/>
     <use style="fill:#1f77b4;stroke:#1f77b4;" x="116.845872" xlink:href="#md1f7c6632a" y="75.36217"/>
     <use style="fill:#1f77b4;stroke:#1f77b4;" x="151.174939" xlink:href="#md1f7c6632a" y="109.261074"/>
     <use style="fill:#1f77b4;stroke:#1f77b4;" x="175.5318" xlink:href="#md1f7c6632a" y="135.142832"/>
     <use style="fill:#1f77b4;stroke:#1f77b4;" x="194.42445" xlink:href="#md1f7c6632a" y="154.152928"/>
     <use style="fill:#1f77b4;stroke:#1f77b4;" x="209.860868" xlink:href="#md1f7c6632a" y="168.391535"/>
     <use style="fill:#1f77b4;stroke:#1f77b4;" x="222.912174" xlink:href="#md1f7c6632a" y="181.282197"/>
     <use style="fill:#1f77b4;stroke:#1f77b4;" x="234.217729" xlink:href="#md1f7c6632a" y="191.104665"/>
     <use style="fill:#1f77b4;stroke:#1f77b4;" x="244.189936" xlink:href="#md1f7c6632a" y="199.664665"/>
     <use style="fill:#1f77b4;stroke:#1f77b4;" x="253.110378" xlink:href="#md1f7c6632a" y="207.455469"/>
    </g>
   </g>
   <g id="line2d_26">
    <path clip-path="url(#p55e1a54d0c)" d="M 58.159943 33.518858 
L 116.845872 48.908153 
L 151.174939 58.145917 
L 175.5318 63.811348 
L 194.42445 68.128191 
L 209.860868 71.282556 
L 222.912174 74.189444 
L 234.217729 77.470484 
L 244.189936 79.417667 
L 253.110378 81.858158 
" style="fill:none;stroke:#ff7f0e;stroke-linecap:square;stroke-width:1.5;"/>
    <defs>
     <path d="M 0 3.75 
C 0.994512 3.75 1.948425 3.354876 2.65165 2.65165 
C 3.354876 1.948425 3.75 0.994512 3.75 0 
C 3.75 -0.994512 3.354876 -1.948425 2.65165 -2.65165 
C 1.948425 -3.354876 0.994512 -3.75 0 -3.75 
C -0.994512 -3.75 -1.948425 -3.354876 -2.65165 -2.65165 
C -3.354876 -1.948425 -3.75 -0.994512 -3.75 0 
C -3.75 0.994512 -3.354876 1.948425 -2.65165 2.65165 
C -1.948425 3.354876 -0.994512 3.75 0 3.75 
z
" id="maf5f589589" style="stroke:#ff7f0e;"/>
    </defs>
    <g clip-path="url(#p55e1a54d0c)">
     <use style="fill:#ff7f0e;stroke:#ff7f0e;" x="58.159943" xlink:href="#maf5f589589" y="33.518858"/>
     <use style="fill:#ff7f0e;stroke:#ff7f0e;" x="116.845872" xlink:href="#maf5f589589" y="48.908153"/>
     <use style="fill:#ff7f0e;stroke:#ff7f0e;" x="151.174939" xlink:href="#maf5f589589" y="58.145917"/>
     <use style="fill:#ff7f0e;stroke:#ff7f0e;" x="175.5318" xlink:href="#maf5f589589" y="63.811348"/>
     <use style="fill:#ff7f0e;stroke:#ff7f0e;" x="194.42445" xlink:href="#maf5f589589" y="68.128191"/>
     <use style="fill:#ff7f0e;stroke:#ff7f0e;" x="209.860868" xlink:href="#maf5f589589" y="71.282556"/>
     <use style="fill:#ff7f0e;stroke:#ff7f0e;" x="222.912174" xlink:href="#maf5f589589" y="74.189444"/>
     <use style="fill:#ff7f0e;stroke:#ff7f0e;" x="234.217729" xlink:href="#maf5f589589" y="77.470484"/>
     <use style="fill:#ff7f0e;stroke:#ff7f0e;" x="244.189936" xlink:href="#maf5f589589" y="79.417667"/>
     <use style="fill:#ff7f0e;stroke:#ff7f0e;" x="253.110378" xlink:href="#maf5f589589" y="81.858158"/>
    </g>
   </g>
   <g id="line2d_27">
    <path clip-path="url(#p55e1a54d0c)" d="M 58.159943 35.593134 
L 73.024292 39.113559 
L 85.664598 42.107249 
L 96.660588 44.711504 
L 106.391237 47.01608 
L 115.117936 49.082884 
L 123.02861 50.956423 
L 130.262906 52.66977 
L 136.92743 54.248175 
L 143.105417 55.71135 
L 148.863099 57.074981 
L 154.254039 58.351754 
L 159.322172 59.552075 
L 164.103984 60.684584 
L 168.630102 61.756535 
L 172.92649 62.774078 
L 177.015346 63.74247 
L 180.915798 64.66624 
L 184.644447 65.549322 
L 188.215791 66.395147 
L 191.642568 67.206734 
L 194.936028 67.986747 
L 198.106156 68.73755 
L 201.161857 69.461252 
L 204.111105 70.159743 
L 206.961067 70.834719 
L 209.718213 71.487713 
L 212.388396 72.12011 
L 214.976936 72.733172 
L 217.488676 73.328044 
L 219.928045 73.905777 
L 222.299094 74.467329 
L 224.605548 75.013582 
L 226.850833 75.545348 
L 229.038109 76.063375 
L 231.170298 76.568356 
L 233.250108 77.060932 
L 235.28005 77.541697 
L 237.26246 78.011205 
L 239.199513 78.46997 
L 241.093237 78.918474 
L 242.94553 79.357165 
L 244.758165 79.786463 
L 246.532805 80.206764 
L 248.27101 80.618434 
L 249.974246 81.021823 
L 251.643892 81.417257 
L 253.281248 81.805043 
L 254.887539 82.185472 
L 256.463921 82.558818 
L 258.011489 82.925339 
L 259.531277 83.28528 
L 261.024264 83.638875 
L 262.49138 83.986342 
L 263.933505 84.32789 
L 265.351478 84.663718 
L 266.746093 84.994014 
L 268.118108 85.318958 
L 269.468243 85.63872 
L 270.797185 85.953462 
L 272.105591 86.263341 
L 273.394083 86.568503 
L 274.663261 86.869091 
L 275.913693 87.16524 
L 277.145926 87.457078 
L 278.360482 87.744729 
L 279.557861 88.028313 
L 280.738543 88.307942 
L 281.902985 88.583725 
L 283.05163 88.855766 
L 284.184899 89.124166 
L 285.3032 89.389021 
L 286.406922 89.650423 
L 287.496441 89.908461 
L 288.572117 90.16322 
L 289.634298 90.414784 
L 290.683318 90.663231 
L 291.7195 90.908637 
L 292.743154 91.151076 
L 293.754578 91.390618 
L 294.754063 91.627333 
L 295.741886 91.861286 
L 296.718317 92.092541 
L 297.683616 92.321159 
L 298.638032 92.5472 
L 299.58181 92.770721 
L 300.515183 92.991778 
L 301.438378 93.210425 
L 302.351615 93.426713 
L 303.255107 93.640693 
L 304.14906 93.852414 
L 305.033671 94.061923 
L 305.909136 94.269265 
L 306.775641 94.474485 
L 307.633367 94.677626 
L 308.482491 94.87873 
L 309.323184 95.077837 
L 310.155611 95.274987 
L 310.979933 95.470216 
L 311.796307 95.663564 
" style="fill:none;stroke:#2ca02c;stroke-linecap:square;stroke-width:1.5;"/>
   </g>
   <g id="line2d_28">
    <path clip-path="url(#p55e1a54d0c)" d="M 58.159943 19.554545 
L 73.024292 34.035299 
L 85.664598 46.349403 
L 96.660588 57.061626 
L 106.391237 66.541161 
L 115.117936 75.042655 
L 123.02861 82.749183 
L 130.262906 89.796786 
L 136.92743 96.289323 
L 143.105417 102.307878 
L 148.863099 107.916975 
L 154.254039 113.168793 
L 159.322172 118.106136 
L 164.103984 122.764546 
L 168.630102 127.173862 
L 172.92649 131.359375 
L 177.015346 135.342712 
L 180.915798 139.142507 
L 184.644447 142.774933 
L 188.215791 146.254114 
L 191.642568 149.592458 
L 194.936028 152.800924 
L 198.106156 155.889243 
L 201.161857 158.866087 
L 204.111105 161.739225 
L 206.961067 164.515641 
L 209.718213 167.201634 
L 212.388396 169.802909 
L 214.976936 172.324648 
L 217.488676 174.771569 
L 219.928045 177.147986 
L 222.299094 179.457848 
L 224.605548 181.70478 
L 226.850833 183.892122 
L 229.038109 186.022952 
L 231.170298 188.100117 
L 233.250108 190.126255 
L 235.28005 192.103811 
L 237.26246 194.035062 
L 239.199513 195.922126 
L 241.093237 197.766981 
L 242.94553 199.571472 
L 244.758165 201.337329 
L 246.532805 203.066172 
L 248.27101 204.75952 
L 249.974246 206.418801 
L 251.643892 208.04536 
L 253.281248 209.640462 
L 254.887539 211.2053 
L 256.463921 212.741002 
L 258.011489 214.248632 
L 259.531277 215.7292 
L 261.024264 217.183658 
L 262.49138 218.612913 
L 263.933505 220.017822 
L 265.351478 221.399202 
L 266.746093 222.757827 
L 268.118108 224.094435 
L 269.468243 225.409728 
L 270.797185 226.704375 
L 272.105591 227.979015 
L 273.394083 229.234256 
L 274.663261 230.47068 
L 275.913693 231.688844 
L 277.145926 232.889277 
L 278.360482 234.07249 
L 279.557861 235.238969 
L 280.738543 236.389181 
L 281.902985 237.523574 
L 283.05163 238.642576 
L 284.184899 239.7466 
L 285.3032 240.836041 
L 286.406922 241.91128 
L 287.496441 242.972682 
L 288.572117 244.020598 
L 289.634298 245.055368 
L 290.683318 246.077317 
L 291.7195 247.086759 
L 292.743154 248.083996 
L 293.754578 249.069319 
L 294.754063 250.043011 
L 295.741886 251.005342 
L 296.718317 251.956574 
L 297.683616 252.896962 
L 298.638032 253.826748 
L 299.58181 254.74617 
L 300.515183 255.655456 
L 301.438378 256.554827 
L 302.351615 257.444497 
L 303.255107 258.324673 
L 304.14906 259.195556 
L 305.033671 260.057339 
L 305.909136 260.910211 
L 306.775641 261.754354 
L 307.633367 262.589946 
L 308.482491 263.417157 
L 309.323184 264.236154 
L 310.155611 265.047099 
L 310.979933 265.850148 
L 311.796307 266.645455 
" style="fill:none;stroke:#d62728;stroke-linecap:square;stroke-width:1.5;"/>
   </g>
   <g id="patch_3">
    <path d="M 45.478125 279 
L 45.478125 7.2 
" style="fill:none;stroke:#000000;stroke-linecap:square;stroke-linejoin:miter;stroke-width:0.8;"/>
   </g>
   <g id="patch_4">
    <path d="M 324.478125 279 
L 324.478125 7.2 
" style="fill:none;stroke:#000000;stroke-linecap:square;stroke-linejoin:miter;stroke-width:0.8;"/>
   </g>
   <g id="patch_5">
    <path d="M 45.478125 279 
L 324.478125 279 
" style="fill:none;stroke:#000000;stroke-linecap:square;stroke-linejoin:miter;stroke-width:0.8;"/>
   </g>
   <g id="patch_6">
    <path d="M 45.478125 7.2 
L 324.478125 7.2 
" style="fill:none;stroke:#000000;stroke-linecap:square;stroke-linejoin:miter;stroke-width:0.8;"/>
   </g>
   <g id="legend_1">
    <g id="patch_7">
     <path d="M 232.532813 73.9125 
L 317.478125 73.9125 
Q 319.478125 73.9125 319.478125 71.9125 
L 319.478125 14.2 
Q 319.478125 12.2 317.478125 12.2 
L 232.532813 12.2 
Q 230.532813 12.2 230.532813 14.2 
L 230.532813 71.9125 
Q 230.532813 73.9125 232.532813 73.9125 
z
" style="fill:#ffffff;opacity:0.8;stroke:#cccccc;stroke-linejoin:miter;"/>
    </g>
    <g id="line2d_29">
     <path d="M 234.532813 20.298438 
L 254.532813 20.298438 
" style="fill:none;stroke:#1f77b4;stroke-linecap:square;stroke-width:1.5;"/>
    </g>
    <g id="line2d_30">
     <g>
      <use style="fill:#1f77b4;stroke:#1f77b4;" x="244.532813" xlink:href="#md1f7c6632a" y="20.298438"/>
     </g>
    </g>
    <g id="text_6">
     <!-- Photopeak -->
     <g transform="translate(262.532812 23.798438)scale(0.1 -0.1)">
      <defs>
       <path d="M 1259 4147 
L 1259 2394 
L 2053 2394 
Q 2494 2394 2734 2622 
Q 2975 2850 2975 3272 
Q 2975 3691 2734 3919 
Q 2494 4147 2053 4147 
L 1259 4147 
z
M 628 4666 
L 2053 4666 
Q 2838 4666 3239 4311 
Q 3641 3956 3641 3272 
Q 3641 2581 3239 2228 
Q 2838 1875 2053 1875 
L 1259 1875 
L 1259 0 
L 628 0 
L 628 4666 
z
" id="DejaVuSans-50" transform="scale(0.015625)"/>
       <path d="M 3513 2113 
L 3513 0 
L 2938 0 
L 2938 2094 
Q 2938 2591 2744 2837 
Q 2550 3084 2163 3084 
Q 1697 3084 1428 2787 
Q 1159 2491 1159 1978 
L 1159 0 
L 581 0 
L 581 4863 
L 1159 4863 
L 1159 2956 
Q 1366 3272 1645 3428 
Q 1925 3584 2291 3584 
Q 2894 3584 3203 3211 
Q 3513 2838 3513 2113 
z
" id="DejaVuSans-68" transform="scale(0.015625)"/>
       <path d="M 1959 3097 
Q 1497 3097 1228 2736 
Q 959 2375 959 1747 
Q 959 1119 1226 758 
Q 1494 397 1959 397 
Q 2419 397 2687 759 
Q 2956 1122 2956 1747 
Q 2956 2369 2687 2733 
Q 2419 3097 1959 3097 
z
M 1959 3584 
Q 2709 3584 3137 3096 
Q 3566 2609 3566 1747 
Q 3566 888 3137 398 
Q 2709 -91 1959 -91 
Q 1206 -91 779 398 
Q 353 888 353 1747 
Q 353 2609 779 3096 
Q 1206 3584 1959 3584 
z
" id="DejaVuSans-6f" transform="scale(0.015625)"/>
       <path d="M 1172 4494 
L 1172 3500 
L 2356 3500 
L 2356 3053 
L 1172 3053 
L 1172 1153 
Q 1172 725 1289 603 
Q 1406 481 1766 481 
L 2356 481 
L 2356 0 
L 1766 0 
Q 1100 0 847 248 
Q 594 497 594 1153 
L 594 3053 
L 172 3053 
L 172 3500 
L 594 3500 
L 594 4494 
L 1172 4494 
z
" id="DejaVuSans-74" transform="scale(0.015625)"/>
       <path d="M 1159 525 
L 1159 -1331 
L 581 -1331 
L 581 3500 
L 1159 3500 
L 1159 2969 
Q 1341 3281 1617 3432 
Q 1894 3584 2278 3584 
Q 2916 3584 3314 3078 
Q 3713 2572 3713 1747 
Q 3713 922 3314 415 
Q 2916 -91 2278 -91 
Q 1894 -91 1617 61 
Q 1341 213 1159 525 
z
M 3116 1747 
Q 3116 2381 2855 2742 
Q 2594 3103 2138 3103 
Q 1681 3103 1420 2742 
Q 1159 2381 1159 1747 
Q 1159 1113 1420 752 
Q 1681 391 2138 391 
Q 2594 391 2855 752 
Q 3116 1113 3116 1747 
z
" id="DejaVuSans-70" transform="scale(0.015625)"/>
       <path d="M 2194 1759 
Q 1497 1759 1228 1600 
Q 959 1441 959 1056 
Q 959 750 1161 570 
Q 1363 391 1709 391 
Q 2188 391 2477 730 
Q 2766 1069 2766 1631 
L 2766 1759 
L 2194 1759 
z
M 3341 1997 
L 3341 0 
L 2766 0 
L 2766 531 
Q 2569 213 2275 61 
Q 1981 -91 1556 -91 
Q 1019 -91 701 211 
Q 384 513 384 1019 
Q 384 1609 779 1909 
Q 1175 2209 1959 2209 
L 2766 2209 
L 2766 2266 
Q 2766 2663 2505 2880 
Q 2244 3097 1772 3097 
Q 1472 3097 1187 3025 
Q 903 2953 641 2809 
L 641 3341 
Q 956 3463 1253 3523 
Q 1550 3584 1831 3584 
Q 2591 3584 2966 3190 
Q 3341 2797 3341 1997 
z
" id="DejaVuSans-61" transform="scale(0.015625)"/>
      </defs>
      <use xlink:href="#DejaVuSans-50"/>
      <use x="60.302734" xlink:href="#DejaVuSans-68"/>
      <use x="123.681641" xlink:href="#DejaVuSans-6f"/>
      <use x="184.863281" xlink:href="#DejaVuSans-74"/>
      <use x="224.072266" xlink:href="#DejaVuSans-6f"/>
      <use x="285.253906" xlink:href="#DejaVuSans-70"/>
      <use x="348.730469" xlink:href="#DejaVuSans-65"/>
      <use x="410.253906" xlink:href="#DejaVuSans-61"/>
      <use x="471.533203" xlink:href="#DejaVuSans-6b"/>
     </g>
    </g>
    <g id="line2d_31">
     <path d="M 234.532813 34.976563 
L 254.532813 34.976563 
" style="fill:none;stroke:#ff7f0e;stroke-linecap:square;stroke-width:1.5;"/>
    </g>
    <g id="line2d_32">
     <g>
      <use style="fill:#ff7f0e;stroke:#ff7f0e;" x="244.532813" xlink:href="#maf5f589589" y="34.976563"/>
     </g>
    </g>
    <g id="text_7">
     <!-- Full -->
     <g transform="translate(262.532812 38.476563)scale(0.1 -0.1)">
      <defs>
       <path d="M 628 4666 
L 3309 4666 
L 3309 4134 
L 1259 4134 
L 1259 2759 
L 3109 2759 
L 3109 2228 
L 1259 2228 
L 1259 0 
L 628 0 
L 628 4666 
z
" id="DejaVuSans-46" transform="scale(0.015625)"/>
       <path d="M 544 1381 
L 544 3500 
L 1119 3500 
L 1119 1403 
Q 1119 906 1312 657 
Q 1506 409 1894 409 
Q 2359 409 2629 706 
Q 2900 1003 2900 1516 
L 2900 3500 
L 3475 3500 
L 3475 0 
L 2900 0 
L 2900 538 
Q 2691 219 2414 64 
Q 2138 -91 1772 -91 
Q 1169 -91 856 284 
Q 544 659 544 1381 
z
M 1991 3584 
L 1991 3584 
z
" id="DejaVuSans-75" transform="scale(0.015625)"/>
       <path d="M 603 4863 
L 1178 4863 
L 1178 0 
L 603 0 
L 603 4863 
z
" id="DejaVuSans-6c" transform="scale(0.015625)"/>
      </defs>
      <use xlink:href="#DejaVuSans-46"/>
      <use x="52.019531" xlink:href="#DejaVuSans-75"/>
      <use x="115.398438" xlink:href="#DejaVuSans-6c"/>
      <use x="143.181641" xlink:href="#DejaVuSans-6c"/>
     </g>
    </g>
    <g id="line2d_33">
     <path d="M 234.532813 49.654688 
L 254.532813 49.654688 
" style="fill:none;stroke:#2ca02c;stroke-linecap:square;stroke-width:1.5;"/>
    </g>
    <g id="line2d_34"/>
    <g id="text_8">
     <!-- $\propto E^{-0.25}$ -->
     <g transform="translate(262.532812 53.154688)scale(0.1 -0.1)">
      <defs>
       <path d="M 1647 1134 
Q 2163 1134 2472 1884 
Q 2075 2703 1647 2703 
Q 1334 2703 1175 2478 
Q 1006 2238 1006 1919 
Q 1006 1569 1175 1353 
Q 1350 1134 1647 1134 
z
M 3884 1128 
L 3884 716 
L 3644 716 
Q 3416 716 3247 809 
Q 3078 894 2916 1091 
Q 2819 1203 2666 1466 
Q 2456 1091 2272 925 
Q 2044 725 1681 725 
Q 1259 725 981 1041 
Q 688 1372 688 1919 
Q 688 2444 981 2800 
Q 1241 3116 1688 3116 
Q 1916 3116 2084 3022 
Q 2281 2919 2416 2741 
Q 2541 2581 2666 2366 
Q 2875 2741 3059 2906 
Q 3288 3106 3650 3106 
L 3884 3106 
L 3884 2697 
L 3684 2697 
Q 3222 2697 2859 1947 
Q 3256 1128 3684 1128 
L 3884 1128 
z
" id="DejaVuSans-221d" transform="scale(0.015625)"/>
       <path d="M 1081 4666 
L 4031 4666 
L 3928 4134 
L 1606 4134 
L 1338 2753 
L 3566 2753 
L 3463 2222 
L 1234 2222 
L 909 531 
L 3284 531 
L 3181 0 
L 172 0 
L 1081 4666 
z
" id="DejaVuSans-Oblique-45" transform="scale(0.015625)"/>
       <path d="M 678 2272 
L 4684 2272 
L 4684 1741 
L 678 1741 
L 678 2272 
z
" id="DejaVuSans-2212" transform="scale(0.015625)"/>
       <path d="M 684 794 
L 1344 794 
L 1344 0 
L 684 0 
L 684 794 
z
" id="DejaVuSans-2e" transform="scale(0.015625)"/>
       <path d="M 691 4666 
L 3169 4666 
L 3169 4134 
L 1269 4134 
L 1269 2991 
Q 1406 3038 1543 3061 
Q 1681 3084 1819 3084 
Q 2600 3084 3056 2656 
Q 3513 2228 3513 1497 
Q 3513 744 3044 326 
Q 2575 -91 1722 -91 
Q 1428 -91 1123 -41 
Q 819 9 494 109 
L 494 744 
Q 775 591 1075 516 
Q 1375 441 1709 441 
Q 2250 441 2565 725 
Q 2881 1009 2881 1497 
Q 2881 1984 2565 2268 
Q 2250 2553 1709 2553 
Q 1456 2553 1204 2497 
Q 953 2441 691 2322 
L 691 4666 
z
" id="DejaVuSans-35" transform="scale(0.015625)"/>
      </defs>
      <use transform="translate(19.482422 0.765625)" xlink:href="#DejaVuSans-221d"/>
      <use transform="translate(110.400391 0.765625)" xlink:href="#DejaVuSans-Oblique-45"/>
      <use transform="translate(180.600755 39.046875)scale(0.7)" xlink:href="#DejaVuSans-2212"/>
      <use transform="translate(239.253099 39.046875)scale(0.7)" xlink:href="#DejaVuSans-30"/>
      <use transform="translate(283.789232 39.046875)scale(0.7)" xlink:href="#DejaVuSans-2e"/>
      <use transform="translate(302.190208 39.046875)scale(0.7)" xlink:href="#DejaVuSans-32"/>
      <use transform="translate(346.726341 39.046875)scale(0.7)" xlink:href="#DejaVuSans-35"/>
     </g>
    </g>
    <g id="line2d_35">
     <path d="M 234.532813 64.332813 
L 254.532813 64.332813 
" style="fill:none;stroke:#d62728;stroke-linecap:square;stroke-width:1.5;"/>
    </g>
    <g id="line2d_36"/>
    <g id="text_9">
     <!-- $\propto E^{-1.01}$ -->
     <g transform="translate(262.532812 67.832813)scale(0.1 -0.1)">
      <use transform="translate(19.482422 0.765625)" xlink:href="#DejaVuSans-221d"/>
      <use transform="translate(110.400391 0.765625)" xlink:href="#DejaVuSans-Oblique-45"/>
      <use transform="translate(180.600755 39.046875)scale(0.7)" xlink:href="#DejaVuSans-2212"/>
      <use transform="translate(239.253099 39.046875)scale(0.7)" xlink:href="#DejaVuSans-31"/>
      <use transform="translate(283.789232 39.046875)scale(0.7)" xlink:href="#DejaVuSans-2e"/>
      <use transform="translate(306.040208 39.046875)scale(0.7)" xlink:href="#DejaVuSans-30"/>
      <use transform="translate(350.576341 39.046875)scale(0.7)" xlink:href="#DejaVuSans-31"/>
     </g>
    </g>
   </g>
  </g>
 </g>
 <defs>
  <clipPath id="p55e1a54d0c">
   <rect height="271.8" width="279" x="45.478125" y="7.2"/>
  </clipPath>
 </defs>
</svg>
