<?xml version="1.0" encoding="utf-8" standalone="no"?>
<!DOCTYPE svg PUBLIC "-//W3C//DTD SVG 1.1//EN"
  "http://www.w3.org/Graphics/SVG/1.1/DTD/svg11.dtd">
<!-- Created with matplotlib (https://matplotlib.org/) -->
<svg height="290.4525pt" version="1.1" viewBox="0 0 380.482813 290.4525" width="380.482813pt" xmlns="http://www.w3.org/2000/svg" xmlns:xlink="http://www.w3.org/1999/xlink">
 <defs>
  <style type="text/css">
*{stroke-linecap:butt;stroke-linejoin:round;}
  </style>
 </defs>
 <g id="figure_1">
  <g id="patch_1">
   <path d="M -0 290.4525 
L 380.482813 290.4525 
L 380.482813 0 
L -0 0 
z
" style="fill:#ffffff;"/>
  </g>
  <g id="axes_1">
   <g id="patch_2">
    <path d="M 38.482813 252.89625 
L 373.282813 252.89625 
L 373.282813 35.45625 
L 38.482813 35.45625 
z
" style="fill:#ffffff;"/>
   </g>
   <g id="matplotlib.axis_1">
    <g id="xtick_1">
     <g id="line2d_1">
      <defs>
       <path d="M 0 0 
L 0 3.5 
" id="mb7e11c823a" style="stroke:#000000;stroke-width:0.8;"/>
      </defs>
      <g>
       <use style="stroke:#000000;stroke-width:0.8;" x="53.700994" xlink:href="#mb7e11c823a" y="252.89625"/>
      </g>
     </g>
     <g id="text_1">
      <!-- 1 -->
      <defs>
       <path d="M 12.40625 8.296875 
L 28.515625 8.296875 
L 28.515625 63.921875 
L 10.984375 60.40625 
L 10.984375 69.390625 
L 28.421875 72.90625 
L 38.28125 72.90625 
L 38.28125 8.296875 
L 54.390625 8.296875 
L 54.390625 0 
L 12.40625 0 
z
" id="DejaVuSans-49"/>
      </defs>
      <g transform="translate(50.519744 267.494687)scale(0.1 -0.1)">
       <use xlink:href="#DejaVuSans-49"/>
      </g>
     </g>
    </g>
    <g id="xtick_2">
     <g id="line2d_2">
      <g>
       <use style="stroke:#000000;stroke-width:0.8;" x="97.181514" xlink:href="#mb7e11c823a" y="252.89625"/>
      </g>
     </g>
     <g id="text_2">
      <!-- 2 -->
      <defs>
       <path d="M 19.1875 8.296875 
L 53.609375 8.296875 
L 53.609375 0 
L 7.328125 0 
L 7.328125 8.296875 
Q 12.9375 14.109375 22.625 23.890625 
Q 32.328125 33.6875 34.8125 36.53125 
Q 39.546875 41.84375 41.421875 45.53125 
Q 43.3125 49.21875 43.3125 52.78125 
Q 43.3125 58.59375 39.234375 62.25 
Q 35.15625 65.921875 28.609375 65.921875 
Q 23.96875 65.921875 18.8125 64.3125 
Q 13.671875 62.703125 7.8125 59.421875 
L 7.8125 69.390625 
Q 13.765625 71.78125 18.9375 73 
Q 24.125 74.21875 28.421875 74.21875 
Q 39.75 74.21875 46.484375 68.546875 
Q 53.21875 62.890625 53.21875 53.421875 
Q 53.21875 48.921875 51.53125 44.890625 
Q 49.859375 40.875 45.40625 35.40625 
Q 44.1875 33.984375 37.640625 27.21875 
Q 31.109375 20.453125 19.1875 8.296875 
z
" id="DejaVuSans-50"/>
      </defs>
      <g transform="translate(94.000264 267.494687)scale(0.1 -0.1)">
       <use xlink:href="#DejaVuSans-50"/>
      </g>
     </g>
    </g>
    <g id="xtick_3">
     <g id="line2d_3">
      <g>
       <use style="stroke:#000000;stroke-width:0.8;" x="140.662033" xlink:href="#mb7e11c823a" y="252.89625"/>
      </g>
     </g>
     <g id="text_3">
      <!-- 3 -->
      <defs>
       <path d="M 40.578125 39.3125 
Q 47.65625 37.796875 51.625 33 
Q 55.609375 28.21875 55.609375 21.1875 
Q 55.609375 10.40625 48.1875 4.484375 
Q 40.765625 -1.421875 27.09375 -1.421875 
Q 22.515625 -1.421875 17.65625 -0.515625 
Q 12.796875 0.390625 7.625 2.203125 
L 7.625 11.71875 
Q 11.71875 9.328125 16.59375 8.109375 
Q 21.484375 6.890625 26.8125 6.890625 
Q 36.078125 6.890625 40.9375 10.546875 
Q 45.796875 14.203125 45.796875 21.1875 
Q 45.796875 27.640625 41.28125 31.265625 
Q 36.765625 34.90625 28.71875 34.90625 
L 20.21875 34.90625 
L 20.21875 43.015625 
L 29.109375 43.015625 
Q 36.375 43.015625 40.234375 45.921875 
Q 44.09375 48.828125 44.09375 54.296875 
Q 44.09375 59.90625 40.109375 62.90625 
Q 36.140625 65.921875 28.71875 65.921875 
Q 24.65625 65.921875 20.015625 65.03125 
Q 15.375 64.15625 9.8125 62.3125 
L 9.8125 71.09375 
Q 15.4375 72.65625 20.34375 73.4375 
Q 25.25 74.21875 29.59375 74.21875 
Q 40.828125 74.21875 47.359375 69.109375 
Q 53.90625 64.015625 53.90625 55.328125 
Q 53.90625 49.265625 50.4375 45.09375 
Q 46.96875 40.921875 40.578125 39.3125 
z
" id="DejaVuSans-51"/>
      </defs>
      <g transform="translate(137.480783 267.494687)scale(0.1 -0.1)">
       <use xlink:href="#DejaVuSans-51"/>
      </g>
     </g>
    </g>
    <g id="xtick_4">
     <g id="line2d_4">
      <g>
       <use style="stroke:#000000;stroke-width:0.8;" x="184.142553" xlink:href="#mb7e11c823a" y="252.89625"/>
      </g>
     </g>
     <g id="text_4">
      <!-- 4 -->
      <defs>
       <path d="M 37.796875 64.3125 
L 12.890625 25.390625 
L 37.796875 25.390625 
z
M 35.203125 72.90625 
L 47.609375 72.90625 
L 47.609375 25.390625 
L 58.015625 25.390625 
L 58.015625 17.1875 
L 47.609375 17.1875 
L 47.609375 0 
L 37.796875 0 
L 37.796875 17.1875 
L 4.890625 17.1875 
L 4.890625 26.703125 
z
" id="DejaVuSans-52"/>
      </defs>
      <g transform="translate(180.961303 267.494687)scale(0.1 -0.1)">
       <use xlink:href="#DejaVuSans-52"/>
      </g>
     </g>
    </g>
    <g id="xtick_5">
     <g id="line2d_5">
      <g>
       <use style="stroke:#000000;stroke-width:0.8;" x="227.623072" xlink:href="#mb7e11c823a" y="252.89625"/>
      </g>
     </g>
     <g id="text_5">
      <!-- 5 -->
      <defs>
       <path d="M 10.796875 72.90625 
L 49.515625 72.90625 
L 49.515625 64.59375 
L 19.828125 64.59375 
L 19.828125 46.734375 
Q 21.96875 47.46875 24.109375 47.828125 
Q 26.265625 48.1875 28.421875 48.1875 
Q 40.625 48.1875 47.75 41.5 
Q 54.890625 34.8125 54.890625 23.390625 
Q 54.890625 11.625 47.5625 5.09375 
Q 40.234375 -1.421875 26.90625 -1.421875 
Q 22.3125 -1.421875 17.546875 -0.640625 
Q 12.796875 0.140625 7.71875 1.703125 
L 7.71875 11.625 
Q 12.109375 9.234375 16.796875 8.0625 
Q 21.484375 6.890625 26.703125 6.890625 
Q 35.15625 6.890625 40.078125 11.328125 
Q 45.015625 15.765625 45.015625 23.390625 
Q 45.015625 31 40.078125 35.4375 
Q 35.15625 39.890625 26.703125 39.890625 
Q 22.75 39.890625 18.8125 39.015625 
Q 14.890625 38.140625 10.796875 36.28125 
z
" id="DejaVuSans-53"/>
      </defs>
      <g transform="translate(224.441822 267.494687)scale(0.1 -0.1)">
       <use xlink:href="#DejaVuSans-53"/>
      </g>
     </g>
    </g>
    <g id="xtick_6">
     <g id="line2d_6">
      <g>
       <use style="stroke:#000000;stroke-width:0.8;" x="271.103592" xlink:href="#mb7e11c823a" y="252.89625"/>
      </g>
     </g>
     <g id="text_6">
      <!-- 6 -->
      <defs>
       <path d="M 33.015625 40.375 
Q 26.375 40.375 22.484375 35.828125 
Q 18.609375 31.296875 18.609375 23.390625 
Q 18.609375 15.53125 22.484375 10.953125 
Q 26.375 6.390625 33.015625 6.390625 
Q 39.65625 6.390625 43.53125 10.953125 
Q 47.40625 15.53125 47.40625 23.390625 
Q 47.40625 31.296875 43.53125 35.828125 
Q 39.65625 40.375 33.015625 40.375 
z
M 52.59375 71.296875 
L 52.59375 62.3125 
Q 48.875 64.0625 45.09375 64.984375 
Q 41.3125 65.921875 37.59375 65.921875 
Q 27.828125 65.921875 22.671875 59.328125 
Q 17.53125 52.734375 16.796875 39.40625 
Q 19.671875 43.65625 24.015625 45.921875 
Q 28.375 48.1875 33.59375 48.1875 
Q 44.578125 48.1875 50.953125 41.515625 
Q 57.328125 34.859375 57.328125 23.390625 
Q 57.328125 12.15625 50.6875 5.359375 
Q 44.046875 -1.421875 33.015625 -1.421875 
Q 20.359375 -1.421875 13.671875 8.265625 
Q 6.984375 17.96875 6.984375 36.375 
Q 6.984375 53.65625 15.1875 63.9375 
Q 23.390625 74.21875 37.203125 74.21875 
Q 40.921875 74.21875 44.703125 73.484375 
Q 48.484375 72.75 52.59375 71.296875 
z
" id="DejaVuSans-54"/>
      </defs>
      <g transform="translate(267.922342 267.494687)scale(0.1 -0.1)">
       <use xlink:href="#DejaVuSans-54"/>
      </g>
     </g>
    </g>
    <g id="xtick_7">
     <g id="line2d_7">
      <g>
       <use style="stroke:#000000;stroke-width:0.8;" x="314.584111" xlink:href="#mb7e11c823a" y="252.89625"/>
      </g>
     </g>
     <g id="text_7">
      <!-- 7 -->
      <defs>
       <path d="M 8.203125 72.90625 
L 55.078125 72.90625 
L 55.078125 68.703125 
L 28.609375 0 
L 18.3125 0 
L 43.21875 64.59375 
L 8.203125 64.59375 
z
" id="DejaVuSans-55"/>
      </defs>
      <g transform="translate(311.402861 267.494687)scale(0.1 -0.1)">
       <use xlink:href="#DejaVuSans-55"/>
      </g>
     </g>
    </g>
    <g id="xtick_8">
     <g id="line2d_8">
      <g>
       <use style="stroke:#000000;stroke-width:0.8;" x="358.064631" xlink:href="#mb7e11c823a" y="252.89625"/>
      </g>
     </g>
     <g id="text_8">
      <!-- 8 -->
      <defs>
       <path d="M 31.78125 34.625 
Q 24.75 34.625 20.71875 30.859375 
Q 16.703125 27.09375 16.703125 20.515625 
Q 16.703125 13.921875 20.71875 10.15625 
Q 24.75 6.390625 31.78125 6.390625 
Q 38.8125 6.390625 42.859375 10.171875 
Q 46.921875 13.96875 46.921875 20.515625 
Q 46.921875 27.09375 42.890625 30.859375 
Q 38.875 34.625 31.78125 34.625 
z
M 21.921875 38.8125 
Q 15.578125 40.375 12.03125 44.71875 
Q 8.5 49.078125 8.5 55.328125 
Q 8.5 64.0625 14.71875 69.140625 
Q 20.953125 74.21875 31.78125 74.21875 
Q 42.671875 74.21875 48.875 69.140625 
Q 55.078125 64.0625 55.078125 55.328125 
Q 55.078125 49.078125 51.53125 44.71875 
Q 48 40.375 41.703125 38.8125 
Q 48.828125 37.15625 52.796875 32.3125 
Q 56.78125 27.484375 56.78125 20.515625 
Q 56.78125 9.90625 50.3125 4.234375 
Q 43.84375 -1.421875 31.78125 -1.421875 
Q 19.734375 -1.421875 13.25 4.234375 
Q 6.78125 9.90625 6.78125 20.515625 
Q 6.78125 27.484375 10.78125 32.3125 
Q 14.796875 37.15625 21.921875 38.8125 
z
M 18.3125 54.390625 
Q 18.3125 48.734375 21.84375 45.5625 
Q 25.390625 42.390625 31.78125 42.390625 
Q 38.140625 42.390625 41.71875 45.5625 
Q 45.3125 48.734375 45.3125 54.390625 
Q 45.3125 60.0625 41.71875 63.234375 
Q 38.140625 66.40625 31.78125 66.40625 
Q 25.390625 66.40625 21.84375 63.234375 
Q 18.3125 60.0625 18.3125 54.390625 
z
" id="DejaVuSans-56"/>
      </defs>
      <g transform="translate(354.883381 267.494687)scale(0.1 -0.1)">
       <use xlink:href="#DejaVuSans-56"/>
      </g>
     </g>
    </g>
    <g id="text_9">
     <!-- q -->
     <defs>
      <path d="M 14.796875 27.296875 
Q 14.796875 17.390625 18.875 11.75 
Q 22.953125 6.109375 30.078125 6.109375 
Q 37.203125 6.109375 41.296875 11.75 
Q 45.40625 17.390625 45.40625 27.296875 
Q 45.40625 37.203125 41.296875 42.84375 
Q 37.203125 48.484375 30.078125 48.484375 
Q 22.953125 48.484375 18.875 42.84375 
Q 14.796875 37.203125 14.796875 27.296875 
z
M 45.40625 8.203125 
Q 42.578125 3.328125 38.25 0.953125 
Q 33.9375 -1.421875 27.875 -1.421875 
Q 17.96875 -1.421875 11.734375 6.484375 
Q 5.515625 14.40625 5.515625 27.296875 
Q 5.515625 40.1875 11.734375 48.09375 
Q 17.96875 56 27.875 56 
Q 33.9375 56 38.25 53.625 
Q 42.578125 51.265625 45.40625 46.390625 
L 45.40625 54.6875 
L 54.390625 54.6875 
L 54.390625 -20.796875 
L 45.40625 -20.796875 
z
" id="DejaVuSans-113"/>
     </defs>
     <g transform="translate(202.708594 281.172812)scale(0.1 -0.1)">
      <use xlink:href="#DejaVuSans-113"/>
     </g>
    </g>
   </g>
   <g id="matplotlib.axis_2">
    <g id="ytick_1">
     <g id="line2d_9">
      <defs>
       <path d="M 0 0 
L -3.5 0 
" id="m0477138595" style="stroke:#000000;stroke-width:0.8;"/>
      </defs>
      <g>
       <use style="stroke:#000000;stroke-width:0.8;" x="38.482813" xlink:href="#m0477138595" y="240.029194"/>
      </g>
     </g>
     <g id="text_10">
      <!-- −2.0 -->
      <defs>
       <path d="M 10.59375 35.5 
L 73.1875 35.5 
L 73.1875 27.203125 
L 10.59375 27.203125 
z
" id="DejaVuSans-8722"/>
       <path d="M 10.6875 12.40625 
L 21 12.40625 
L 21 0 
L 10.6875 0 
z
" id="DejaVuSans-46"/>
       <path d="M 31.78125 66.40625 
Q 24.171875 66.40625 20.328125 58.90625 
Q 16.5 51.421875 16.5 36.375 
Q 16.5 21.390625 20.328125 13.890625 
Q 24.171875 6.390625 31.78125 6.390625 
Q 39.453125 6.390625 43.28125 13.890625 
Q 47.125 21.390625 47.125 36.375 
Q 47.125 51.421875 43.28125 58.90625 
Q 39.453125 66.40625 31.78125 66.40625 
z
M 31.78125 74.21875 
Q 44.046875 74.21875 50.515625 64.515625 
Q 56.984375 54.828125 56.984375 36.375 
Q 56.984375 17.96875 50.515625 8.265625 
Q 44.046875 -1.421875 31.78125 -1.421875 
Q 19.53125 -1.421875 13.0625 8.265625 
Q 6.59375 17.96875 6.59375 36.375 
Q 6.59375 54.828125 13.0625 64.515625 
Q 19.53125 74.21875 31.78125 74.21875 
z
" id="DejaVuSans-48"/>
      </defs>
      <g transform="translate(7.2 243.828412)scale(0.1 -0.1)">
       <use xlink:href="#DejaVuSans-8722"/>
       <use x="83.789062" xlink:href="#DejaVuSans-50"/>
       <use x="147.412109" xlink:href="#DejaVuSans-46"/>
       <use x="179.199219" xlink:href="#DejaVuSans-48"/>
      </g>
     </g>
    </g>
    <g id="ytick_2">
     <g id="line2d_10">
      <g>
       <use style="stroke:#000000;stroke-width:0.8;" x="38.482813" xlink:href="#m0477138595" y="214.875814"/>
      </g>
     </g>
     <g id="text_11">
      <!-- −1.5 -->
      <g transform="translate(7.2 218.675033)scale(0.1 -0.1)">
       <use xlink:href="#DejaVuSans-8722"/>
       <use x="83.789062" xlink:href="#DejaVuSans-49"/>
       <use x="147.412109" xlink:href="#DejaVuSans-46"/>
       <use x="179.199219" xlink:href="#DejaVuSans-53"/>
      </g>
     </g>
    </g>
    <g id="ytick_3">
     <g id="line2d_11">
      <g>
       <use style="stroke:#000000;stroke-width:0.8;" x="38.482813" xlink:href="#m0477138595" y="189.722434"/>
      </g>
     </g>
     <g id="text_12">
      <!-- −1.0 -->
      <g transform="translate(7.2 193.521653)scale(0.1 -0.1)">
       <use xlink:href="#DejaVuSans-8722"/>
       <use x="83.789062" xlink:href="#DejaVuSans-49"/>
       <use x="147.412109" xlink:href="#DejaVuSans-46"/>
       <use x="179.199219" xlink:href="#DejaVuSans-48"/>
      </g>
     </g>
    </g>
    <g id="ytick_4">
     <g id="line2d_12">
      <g>
       <use style="stroke:#000000;stroke-width:0.8;" x="38.482813" xlink:href="#m0477138595" y="164.569054"/>
      </g>
     </g>
     <g id="text_13">
      <!-- −0.5 -->
      <g transform="translate(7.2 168.368273)scale(0.1 -0.1)">
       <use xlink:href="#DejaVuSans-8722"/>
       <use x="83.789062" xlink:href="#DejaVuSans-48"/>
       <use x="147.412109" xlink:href="#DejaVuSans-46"/>
       <use x="179.199219" xlink:href="#DejaVuSans-53"/>
      </g>
     </g>
    </g>
    <g id="ytick_5">
     <g id="line2d_13">
      <g>
       <use style="stroke:#000000;stroke-width:0.8;" x="38.482813" xlink:href="#m0477138595" y="139.415675"/>
      </g>
     </g>
     <g id="text_14">
      <!-- 0.0 -->
      <g transform="translate(15.579688 143.214893)scale(0.1 -0.1)">
       <use xlink:href="#DejaVuSans-48"/>
       <use x="63.623047" xlink:href="#DejaVuSans-46"/>
       <use x="95.410156" xlink:href="#DejaVuSans-48"/>
      </g>
     </g>
    </g>
    <g id="ytick_6">
     <g id="line2d_14">
      <g>
       <use style="stroke:#000000;stroke-width:0.8;" x="38.482813" xlink:href="#m0477138595" y="114.262295"/>
      </g>
     </g>
     <g id="text_15">
      <!-- 0.5 -->
      <g transform="translate(15.579688 118.061513)scale(0.1 -0.1)">
       <use xlink:href="#DejaVuSans-48"/>
       <use x="63.623047" xlink:href="#DejaVuSans-46"/>
       <use x="95.410156" xlink:href="#DejaVuSans-53"/>
      </g>
     </g>
    </g>
    <g id="ytick_7">
     <g id="line2d_15">
      <g>
       <use style="stroke:#000000;stroke-width:0.8;" x="38.482813" xlink:href="#m0477138595" y="89.108915"/>
      </g>
     </g>
     <g id="text_16">
      <!-- 1.0 -->
      <g transform="translate(15.579688 92.908134)scale(0.1 -0.1)">
       <use xlink:href="#DejaVuSans-49"/>
       <use x="63.623047" xlink:href="#DejaVuSans-46"/>
       <use x="95.410156" xlink:href="#DejaVuSans-48"/>
      </g>
     </g>
    </g>
    <g id="ytick_8">
     <g id="line2d_16">
      <g>
       <use style="stroke:#000000;stroke-width:0.8;" x="38.482813" xlink:href="#m0477138595" y="63.955535"/>
      </g>
     </g>
     <g id="text_17">
      <!-- 1.5 -->
      <g transform="translate(15.579688 67.754754)scale(0.1 -0.1)">
       <use xlink:href="#DejaVuSans-49"/>
       <use x="63.623047" xlink:href="#DejaVuSans-46"/>
       <use x="95.410156" xlink:href="#DejaVuSans-53"/>
      </g>
     </g>
    </g>
    <g id="ytick_9">
     <g id="line2d_17">
      <g>
       <use style="stroke:#000000;stroke-width:0.8;" x="38.482813" xlink:href="#m0477138595" y="38.802155"/>
      </g>
     </g>
     <g id="text_18">
      <!-- 2.0 -->
      <g transform="translate(15.579688 42.601374)scale(0.1 -0.1)">
       <use xlink:href="#DejaVuSans-50"/>
       <use x="63.623047" xlink:href="#DejaVuSans-46"/>
       <use x="95.410156" xlink:href="#DejaVuSans-48"/>
      </g>
     </g>
    </g>
   </g>
   <g id="line2d_18">
    <path clip-path="url(#p478584b406)" d="M 53.700994 134.426404 
L 56.775374 134.426404 
L 59.849755 134.426404 
L 62.924135 134.426404 
L 65.998515 134.426404 
L 69.072895 134.426404 
L 72.147275 134.426404 
L 75.221655 134.426404 
L 78.296036 134.426404 
L 81.370416 134.426404 
L 84.444796 134.426404 
L 87.519176 134.426404 
L 90.593556 134.426404 
L 93.667936 134.426404 
L 96.742317 134.426404 
L 99.816697 134.426404 
L 102.891077 134.426404 
L 105.965457 134.426404 
L 109.039837 134.426404 
L 112.114217 134.426404 
L 115.188598 134.426404 
L 118.262978 134.426404 
L 121.337358 134.426404 
L 124.411738 134.426404 
L 127.486118 134.426404 
L 130.560498 134.426404 
L 133.634879 134.426404 
L 136.709259 134.426404 
L 139.783639 134.426404 
L 142.858019 134.426404 
L 145.932399 134.426404 
L 149.006779 134.426404 
L 152.08116 134.426404 
L 155.15554 134.426404 
L 158.22992 134.426404 
L 161.3043 134.426404 
L 164.37868 134.426404 
L 167.45306 134.426404 
L 170.527441 134.426404 
L 173.601821 134.426404 
L 176.676201 134.426404 
L 179.750581 134.426404 
L 182.824961 134.426404 
L 185.899341 134.426404 
L 188.973722 134.426404 
L 192.048102 134.426404 
L 195.122482 134.426404 
L 198.196862 134.426404 
L 201.271242 134.426404 
L 204.345622 134.426404 
L 207.420003 134.426404 
L 210.494383 134.426404 
L 213.568763 134.426404 
L 216.643143 134.426404 
L 219.717523 134.426404 
L 222.791903 134.426404 
L 225.866284 134.426404 
L 228.940664 134.426404 
L 232.015044 134.426404 
L 235.089424 134.426404 
L 238.163804 134.426404 
L 241.238184 134.426404 
L 244.312565 134.426404 
L 247.386945 134.426404 
L 250.461325 134.426404 
L 253.535705 134.426404 
L 256.610085 134.426404 
L 259.684465 134.426404 
L 262.758846 134.426404 
L 265.833226 134.426404 
L 268.907606 134.426404 
L 271.981986 134.426404 
L 275.056366 134.426404 
L 278.130746 134.426404 
L 281.205127 134.426404 
L 284.279507 134.426404 
L 287.353887 134.426404 
L 290.428267 134.426404 
L 293.502647 134.426404 
L 296.577027 134.426404 
L 299.651408 134.426404 
L 302.725788 134.426404 
L 305.800168 134.426404 
L 308.874548 134.426404 
L 311.948928 134.426404 
L 315.023308 134.426404 
L 318.097689 134.426404 
L 321.172069 134.426404 
L 324.246449 134.426404 
L 327.320829 134.426404 
L 330.395209 134.426404 
L 333.469589 134.426404 
L 336.54397 134.426404 
L 339.61835 134.426404 
L 342.69273 134.426404 
L 345.76711 134.426404 
L 348.84149 134.426404 
L 351.91587 134.426404 
L 354.990251 134.426404 
L 358.064631 134.426404 
" style="fill:none;stroke:#1f77b4;stroke-linecap:square;stroke-width:1.5;"/>
   </g>
   <g id="line2d_19">
    <path clip-path="url(#p478584b406)" d="M 53.700994 139.902884 
L 56.775374 138.947703 
L 59.849755 137.992521 
L 62.924135 137.037339 
L 65.998515 136.082157 
L 69.072895 135.126975 
L 72.147275 134.171794 
L 75.221655 133.216612 
L 78.296036 132.26143 
L 81.370416 131.306248 
L 84.444796 130.351066 
L 87.519176 129.395885 
L 90.593556 128.440703 
L 93.667936 127.485521 
L 96.742317 126.530339 
L 99.816697 125.575157 
L 102.891077 124.619976 
L 105.965457 123.664794 
L 109.039837 122.709612 
L 112.114217 121.75443 
L 115.188598 120.799248 
L 118.262978 119.844067 
L 121.337358 118.888885 
L 124.411738 117.933703 
L 127.486118 116.978521 
L 130.560498 116.023339 
L 133.634879 115.068158 
L 136.709259 114.112976 
L 139.783639 113.157794 
L 142.858019 112.202612 
L 145.932399 111.24743 
L 149.006779 110.292249 
L 152.08116 109.337067 
L 155.15554 108.381885 
L 158.22992 107.426703 
L 161.3043 106.471521 
L 164.37868 105.51634 
L 167.45306 104.561158 
L 170.527441 103.605976 
L 173.601821 102.650794 
L 176.676201 101.695612 
L 179.750581 100.740431 
L 182.824961 99.785249 
L 185.899341 98.830067 
L 188.973722 97.874885 
L 192.048102 96.919703 
L 195.122482 95.964522 
L 198.196862 95.00934 
L 201.271242 94.054158 
L 204.345622 93.098976 
L 207.420003 92.143794 
L 210.494383 91.188613 
L 213.568763 90.233431 
L 216.643143 89.278249 
L 219.717523 88.323067 
L 222.791903 87.367885 
L 225.866284 86.412704 
L 228.940664 85.457522 
L 232.015044 84.50234 
L 235.089424 83.547158 
L 238.163804 82.591976 
L 241.238184 81.636795 
L 244.312565 80.681613 
L 247.386945 79.726431 
L 250.461325 78.771249 
L 253.535705 77.816067 
L 256.610085 76.860886 
L 259.684465 75.905704 
L 262.758846 74.950522 
L 265.833226 73.99534 
L 268.907606 73.040159 
L 271.981986 72.084977 
L 275.056366 71.129795 
L 278.130746 70.174613 
L 281.205127 69.219431 
L 284.279507 68.26425 
L 287.353887 67.309068 
L 290.428267 66.353886 
L 293.502647 65.398704 
L 296.577027 64.443522 
L 299.651408 63.488341 
L 302.725788 62.533159 
L 305.800168 61.577977 
L 308.874548 60.622795 
L 311.948928 59.667613 
L 315.023308 58.712432 
L 318.097689 57.75725 
L 321.172069 56.802068 
L 324.246449 55.846886 
L 327.320829 54.891704 
L 330.395209 53.936523 
L 333.469589 52.981341 
L 336.54397 52.026159 
L 339.61835 51.070977 
L 342.69273 50.115795 
L 345.76711 49.160614 
L 348.84149 48.205432 
L 351.91587 47.25025 
L 354.990251 46.295068 
L 358.064631 45.339886 
" style="fill:none;stroke:#ff7f0e;stroke-linecap:square;stroke-width:1.5;"/>
   </g>
   <g id="line2d_20">
    <path clip-path="url(#p478584b406)" d="M 53.700994 139.061709 
L 56.775374 141.455831 
L 59.849755 143.785795 
L 62.924135 146.051602 
L 65.998515 148.253252 
L 69.072895 150.390745 
L 72.147275 152.46408 
L 75.221655 154.473258 
L 78.296036 156.418279 
L 81.370416 158.299142 
L 84.444796 160.115849 
L 87.519176 161.868398 
L 90.593556 163.556789 
L 93.667936 165.181024 
L 96.742317 166.741101 
L 99.816697 168.237021 
L 102.891077 169.668784 
L 105.965457 171.036389 
L 109.039837 172.339837 
L 112.114217 173.579128 
L 115.188598 174.754262 
L 118.262978 175.865238 
L 121.337358 176.912057 
L 124.411738 177.894719 
L 127.486118 178.813224 
L 130.560498 179.667571 
L 133.634879 180.457761 
L 136.709259 181.183794 
L 139.783639 181.84567 
L 142.858019 182.443388 
L 145.932399 182.976949 
L 149.006779 183.446353 
L 152.08116 183.851599 
L 155.15554 184.192688 
L 158.22992 184.46962 
L 161.3043 184.682395 
L 164.37868 184.831012 
L 167.45306 184.915472 
L 170.527441 184.935775 
L 173.601821 184.891921 
L 176.676201 184.783909 
L 179.750581 184.61174 
L 182.824961 184.375414 
L 185.899341 184.074931 
L 188.973722 183.71029 
L 192.048102 183.281492 
L 195.122482 182.788537 
L 198.196862 182.231425 
L 201.271242 181.610155 
L 204.345622 180.924728 
L 207.420003 180.175144 
L 210.494383 179.361402 
L 213.568763 178.483503 
L 216.643143 177.541447 
L 219.717523 176.535234 
L 222.791903 175.464863 
L 225.866284 174.330336 
L 228.940664 173.13165 
L 232.015044 171.868808 
L 235.089424 170.541808 
L 238.163804 169.150652 
L 241.238184 167.695337 
L 244.312565 166.175866 
L 247.386945 164.592237 
L 250.461325 162.944451 
L 253.535705 161.232508 
L 256.610085 159.456408 
L 259.684465 157.61615 
L 262.758846 155.711735 
L 265.833226 153.743163 
L 268.907606 151.710433 
L 271.981986 149.613546 
L 275.056366 147.452502 
L 278.130746 145.227301 
L 281.205127 142.937942 
L 284.279507 140.584427 
L 287.353887 138.166754 
L 290.428267 135.684923 
L 293.502647 133.138936 
L 296.577027 130.528791 
L 299.651408 127.854488 
L 302.725788 125.116029 
L 305.800168 122.313412 
L 308.874548 119.446638 
L 311.948928 116.515707 
L 315.023308 113.520619 
L 318.097689 110.461373 
L 321.172069 107.33797 
L 324.246449 104.15041 
L 327.320829 100.898692 
L 330.395209 97.582817 
L 333.469589 94.202785 
L 336.54397 90.758596 
L 339.61835 87.25025 
L 342.69273 83.677746 
L 345.76711 80.041085 
L 348.84149 76.340266 
L 351.91587 72.575291 
L 354.990251 68.746158 
L 358.064631 64.852868 
" style="fill:none;stroke:#2ca02c;stroke-linecap:square;stroke-width:1.5;"/>
   </g>
   <g id="line2d_21">
    <path clip-path="url(#p478584b406)" d="M 53.700994 139.63216 
L 56.775374 134.953078 
L 59.849755 130.659684 
L 62.924135 126.742831 
L 65.998515 123.19337 
L 69.072895 120.002154 
L 72.147275 117.160034 
L 75.221655 114.657864 
L 78.296036 112.486496 
L 81.370416 110.636781 
L 84.444796 109.099572 
L 87.519176 107.865722 
L 90.593556 106.926082 
L 93.667936 106.271505 
L 96.742317 105.892843 
L 99.816697 105.780948 
L 102.891077 105.926673 
L 105.965457 106.32087 
L 109.039837 106.95439 
L 112.114217 107.818087 
L 115.188598 108.902813 
L 118.262978 110.199419 
L 121.337358 111.698759 
L 124.411738 113.391683 
L 127.486118 115.269046 
L 130.560498 117.321698 
L 133.634879 119.540492 
L 136.709259 121.916281 
L 139.783639 124.439916 
L 142.858019 127.10225 
L 145.932399 129.894136 
L 149.006779 132.806424 
L 152.08116 135.829968 
L 155.15554 138.95562 
L 158.22992 142.174233 
L 161.3043 145.476657 
L 164.37868 148.853747 
L 167.45306 152.296353 
L 170.527441 155.795328 
L 173.601821 159.341525 
L 176.676201 162.925795 
L 179.750581 166.538991 
L 182.824961 170.171966 
L 185.899341 173.815571 
L 188.973722 177.460658 
L 192.048102 181.098081 
L 195.122482 184.718691 
L 198.196862 188.31334 
L 201.271242 191.872881 
L 204.345622 195.388165 
L 207.420003 198.850046 
L 210.494383 202.249376 
L 213.568763 205.577006 
L 216.643143 208.823789 
L 219.717523 211.980577 
L 222.791903 215.038223 
L 225.866284 217.987579 
L 228.940664 220.819496 
L 232.015044 223.524828 
L 235.089424 226.094427 
L 238.163804 228.519144 
L 241.238184 230.789832 
L 244.312565 232.897343 
L 247.386945 234.83253 
L 250.461325 236.586244 
L 253.535705 238.149339 
L 256.610085 239.512666 
L 259.684465 240.667077 
L 262.758846 241.603426 
L 265.833226 242.312563 
L 268.907606 242.785342 
L 271.981986 243.012614 
L 275.056366 242.985232 
L 278.130746 242.694048 
L 281.205127 242.129914 
L 284.279507 241.283683 
L 287.353887 240.146206 
L 290.428267 238.708337 
L 293.502647 236.960927 
L 296.577027 234.894829 
L 299.651408 232.500895 
L 302.725788 229.769976 
L 305.800168 226.692926 
L 308.874548 223.260597 
L 311.948928 219.46384 
L 315.023308 215.293509 
L 318.097689 210.740455 
L 321.172069 205.79553 
L 324.246449 200.449588 
L 327.320829 194.69348 
L 330.395209 188.518058 
L 333.469589 181.914174 
L 336.54397 174.872682 
L 339.61835 167.384432 
L 342.69273 159.440278 
L 345.76711 151.031072 
L 348.84149 142.147666 
L 351.91587 132.780912 
L 354.990251 122.921662 
L 358.064631 112.560769 
" style="fill:none;stroke:#d62728;stroke-linecap:square;stroke-width:1.5;"/>
   </g>
   <g id="patch_3">
    <path d="M 38.482813 252.89625 
L 38.482813 35.45625 
" style="fill:none;stroke:#000000;stroke-linecap:square;stroke-linejoin:miter;stroke-width:0.8;"/>
   </g>
   <g id="patch_4">
    <path d="M 373.282813 252.89625 
L 373.282813 35.45625 
" style="fill:none;stroke:#000000;stroke-linecap:square;stroke-linejoin:miter;stroke-width:0.8;"/>
   </g>
   <g id="patch_5">
    <path d="M 38.482813 252.89625 
L 373.282813 252.89625 
" style="fill:none;stroke:#000000;stroke-linecap:square;stroke-linejoin:miter;stroke-width:0.8;"/>
   </g>
   <g id="patch_6">
    <path d="M 38.482813 35.45625 
L 373.282813 35.45625 
" style="fill:none;stroke:#000000;stroke-linecap:square;stroke-linejoin:miter;stroke-width:0.8;"/>
   </g>
  </g>
  <g id="axes_2">
   <g id="matplotlib.axis_3">
    <g id="xtick_9">
     <g id="line2d_22">
      <defs>
       <path d="M 0 0 
L 0 -3.5 
" id="m26eefc2844" style="stroke:#000000;stroke-width:0.8;"/>
      </defs>
      <g>
       <use style="stroke:#000000;stroke-width:0.8;" x="53.700994" xlink:href="#m26eefc2844" y="35.45625"/>
      </g>
     </g>
     <g id="text_19">
      <!-- -1.00 -->
      <defs>
       <path d="M 4.890625 31.390625 
L 31.203125 31.390625 
L 31.203125 23.390625 
L 4.890625 23.390625 
z
" id="DejaVuSans-45"/>
      </defs>
      <g transform="translate(40.764276 26.376562)scale(0.1 -0.1)">
       <use xlink:href="#DejaVuSans-45"/>
       <use x="36.083984" xlink:href="#DejaVuSans-49"/>
       <use x="99.707031" xlink:href="#DejaVuSans-46"/>
       <use x="131.494141" xlink:href="#DejaVuSans-48"/>
       <use x="195.117188" xlink:href="#DejaVuSans-48"/>
      </g>
     </g>
    </g>
    <g id="xtick_10">
     <g id="line2d_23">
      <g>
       <use style="stroke:#000000;stroke-width:0.8;" x="97.181514" xlink:href="#m26eefc2844" y="35.45625"/>
      </g>
     </g>
     <g id="text_20">
      <!-- -0.71 -->
      <g transform="translate(84.244795 26.376562)scale(0.1 -0.1)">
       <use xlink:href="#DejaVuSans-45"/>
       <use x="36.083984" xlink:href="#DejaVuSans-48"/>
       <use x="99.707031" xlink:href="#DejaVuSans-46"/>
       <use x="131.494141" xlink:href="#DejaVuSans-55"/>
       <use x="195.117188" xlink:href="#DejaVuSans-49"/>
      </g>
     </g>
    </g>
    <g id="xtick_11">
     <g id="line2d_24">
      <g>
       <use style="stroke:#000000;stroke-width:0.8;" x="140.662033" xlink:href="#m26eefc2844" y="35.45625"/>
      </g>
     </g>
     <g id="text_21">
      <!-- -0.43 -->
      <g transform="translate(127.725315 26.376562)scale(0.1 -0.1)">
       <use xlink:href="#DejaVuSans-45"/>
       <use x="36.083984" xlink:href="#DejaVuSans-48"/>
       <use x="99.707031" xlink:href="#DejaVuSans-46"/>
       <use x="131.494141" xlink:href="#DejaVuSans-52"/>
       <use x="195.117188" xlink:href="#DejaVuSans-51"/>
      </g>
     </g>
    </g>
    <g id="xtick_12">
     <g id="line2d_25">
      <g>
       <use style="stroke:#000000;stroke-width:0.8;" x="227.623072" xlink:href="#m26eefc2844" y="35.45625"/>
      </g>
     </g>
     <g id="text_22">
      <!-- 0.14 -->
      <g transform="translate(216.49026 26.376562)scale(0.1 -0.1)">
       <use xlink:href="#DejaVuSans-48"/>
       <use x="63.623047" xlink:href="#DejaVuSans-46"/>
       <use x="95.410156" xlink:href="#DejaVuSans-49"/>
       <use x="159.033203" xlink:href="#DejaVuSans-52"/>
      </g>
     </g>
    </g>
    <g id="xtick_13">
     <g id="line2d_26">
      <g>
       <use style="stroke:#000000;stroke-width:0.8;" x="358.064631" xlink:href="#m26eefc2844" y="35.45625"/>
      </g>
     </g>
     <g id="text_23">
      <!-- 1.00 -->
      <g transform="translate(346.931818 26.376562)scale(0.1 -0.1)">
       <use xlink:href="#DejaVuSans-49"/>
       <use x="63.623047" xlink:href="#DejaVuSans-46"/>
       <use x="95.410156" xlink:href="#DejaVuSans-48"/>
       <use x="159.033203" xlink:href="#DejaVuSans-48"/>
      </g>
     </g>
    </g>
    <g id="xtick_14">
     <g id="line2d_27">
      <g>
       <use style="stroke:#000000;stroke-width:0.8;" x="184.142553" xlink:href="#m26eefc2844" y="35.45625"/>
      </g>
     </g>
     <g id="text_24">
      <!-- -0.14 -->
      <g transform="translate(171.205834 26.376562)scale(0.1 -0.1)">
       <use xlink:href="#DejaVuSans-45"/>
       <use x="36.083984" xlink:href="#DejaVuSans-48"/>
       <use x="99.707031" xlink:href="#DejaVuSans-46"/>
       <use x="131.494141" xlink:href="#DejaVuSans-49"/>
       <use x="195.117188" xlink:href="#DejaVuSans-52"/>
      </g>
     </g>
    </g>
    <g id="text_25">
     <!-- $q_{\mathrm{norm}}$ -->
     <defs>
      <path d="M 41.703125 8.203125 
Q 38.09375 3.46875 33.171875 1.015625 
Q 28.265625 -1.421875 22.3125 -1.421875 
Q 14.015625 -1.421875 9.296875 4.171875 
Q 4.59375 9.765625 4.59375 19.578125 
Q 4.59375 27.484375 7.5 34.859375 
Q 10.40625 42.234375 15.828125 48.09375 
Q 19.34375 51.90625 23.90625 53.953125 
Q 28.46875 56 33.5 56 
Q 39.546875 56 43.453125 53.609375 
Q 47.359375 51.21875 49.125 46.390625 
L 50.6875 54.59375 
L 59.71875 54.59375 
L 45.125 -20.609375 
L 36.078125 -20.609375 
z
M 13.921875 20.90625 
Q 13.921875 13.671875 16.9375 9.890625 
Q 19.96875 6.109375 25.6875 6.109375 
Q 34.1875 6.109375 40.1875 14.234375 
Q 46.1875 22.359375 46.1875 33.984375 
Q 46.1875 41.015625 43.078125 44.75 
Q 39.984375 48.484375 34.1875 48.484375 
Q 29.9375 48.484375 26.3125 46.5 
Q 22.703125 44.53125 20.015625 40.71875 
Q 17.1875 36.71875 15.546875 31.34375 
Q 13.921875 25.984375 13.921875 20.90625 
z
" id="DejaVuSans-Oblique-113"/>
      <path d="M 54.890625 33.015625 
L 54.890625 0 
L 45.90625 0 
L 45.90625 32.71875 
Q 45.90625 40.484375 42.875 44.328125 
Q 39.84375 48.1875 33.796875 48.1875 
Q 26.515625 48.1875 22.3125 43.546875 
Q 18.109375 38.921875 18.109375 30.90625 
L 18.109375 0 
L 9.078125 0 
L 9.078125 54.6875 
L 18.109375 54.6875 
L 18.109375 46.1875 
Q 21.34375 51.125 25.703125 53.5625 
Q 30.078125 56 35.796875 56 
Q 45.21875 56 50.046875 50.171875 
Q 54.890625 44.34375 54.890625 33.015625 
z
" id="DejaVuSans-110"/>
      <path d="M 30.609375 48.390625 
Q 23.390625 48.390625 19.1875 42.75 
Q 14.984375 37.109375 14.984375 27.296875 
Q 14.984375 17.484375 19.15625 11.84375 
Q 23.34375 6.203125 30.609375 6.203125 
Q 37.796875 6.203125 41.984375 11.859375 
Q 46.1875 17.53125 46.1875 27.296875 
Q 46.1875 37.015625 41.984375 42.703125 
Q 37.796875 48.390625 30.609375 48.390625 
z
M 30.609375 56 
Q 42.328125 56 49.015625 48.375 
Q 55.71875 40.765625 55.71875 27.296875 
Q 55.71875 13.875 49.015625 6.21875 
Q 42.328125 -1.421875 30.609375 -1.421875 
Q 18.84375 -1.421875 12.171875 6.21875 
Q 5.515625 13.875 5.515625 27.296875 
Q 5.515625 40.765625 12.171875 48.375 
Q 18.84375 56 30.609375 56 
z
" id="DejaVuSans-111"/>
      <path d="M 41.109375 46.296875 
Q 39.59375 47.171875 37.8125 47.578125 
Q 36.03125 48 33.890625 48 
Q 26.265625 48 22.1875 43.046875 
Q 18.109375 38.09375 18.109375 28.8125 
L 18.109375 0 
L 9.078125 0 
L 9.078125 54.6875 
L 18.109375 54.6875 
L 18.109375 46.1875 
Q 20.953125 51.171875 25.484375 53.578125 
Q 30.03125 56 36.53125 56 
Q 37.453125 56 38.578125 55.875 
Q 39.703125 55.765625 41.0625 55.515625 
z
" id="DejaVuSans-114"/>
      <path d="M 52 44.1875 
Q 55.375 50.25 60.0625 53.125 
Q 64.75 56 71.09375 56 
Q 79.640625 56 84.28125 50.015625 
Q 88.921875 44.046875 88.921875 33.015625 
L 88.921875 0 
L 79.890625 0 
L 79.890625 32.71875 
Q 79.890625 40.578125 77.09375 44.375 
Q 74.3125 48.1875 68.609375 48.1875 
Q 61.625 48.1875 57.5625 43.546875 
Q 53.515625 38.921875 53.515625 30.90625 
L 53.515625 0 
L 44.484375 0 
L 44.484375 32.71875 
Q 44.484375 40.625 41.703125 44.40625 
Q 38.921875 48.1875 33.109375 48.1875 
Q 26.21875 48.1875 22.15625 43.53125 
Q 18.109375 38.875 18.109375 30.90625 
L 18.109375 0 
L 9.078125 0 
L 9.078125 54.6875 
L 18.109375 54.6875 
L 18.109375 46.1875 
Q 21.1875 51.21875 25.484375 53.609375 
Q 29.78125 56 35.6875 56 
Q 41.65625 56 45.828125 52.96875 
Q 50 49.953125 52 44.1875 
z
" id="DejaVuSans-109"/>
     </defs>
     <g transform="translate(193.332812 14.778125)scale(0.1 -0.1)">
      <use xlink:href="#DejaVuSans-Oblique-113"/>
      <use transform="translate(63.476562 -16.40625)scale(0.7)" xlink:href="#DejaVuSans-110"/>
      <use transform="translate(107.841797 -16.40625)scale(0.7)" xlink:href="#DejaVuSans-111"/>
      <use transform="translate(150.668945 -16.40625)scale(0.7)" xlink:href="#DejaVuSans-114"/>
      <use transform="translate(179.448242 -16.40625)scale(0.7)" xlink:href="#DejaVuSans-109"/>
     </g>
    </g>
   </g>
   <g id="patch_7">
    <path d="M 38.482813 252.89625 
L 38.482813 35.45625 
" style="fill:none;stroke:#000000;stroke-linecap:square;stroke-linejoin:miter;stroke-width:0.8;"/>
   </g>
   <g id="patch_8">
    <path d="M 373.282813 252.89625 
L 373.282813 35.45625 
" style="fill:none;stroke:#000000;stroke-linecap:square;stroke-linejoin:miter;stroke-width:0.8;"/>
   </g>
   <g id="patch_9">
    <path d="M 38.482813 252.89625 
L 373.282813 252.89625 
" style="fill:none;stroke:#000000;stroke-linecap:square;stroke-linejoin:miter;stroke-width:0.8;"/>
   </g>
   <g id="patch_10">
    <path d="M 38.482813 35.45625 
L 373.282813 35.45625 
" style="fill:none;stroke:#000000;stroke-linecap:square;stroke-linejoin:miter;stroke-width:0.8;"/>
   </g>
  </g>
 </g>
 <defs>
  <clipPath id="p478584b406">
   <rect height="217.44" width="334.8" x="38.482813" y="35.45625"/>
  </clipPath>
 </defs>
</svg>
