<?xml version="1.0" encoding="utf-8" standalone="no"?>
<!DOCTYPE svg PUBLIC "-//W3C//DTD SVG 1.1//EN"
  "http://www.w3.org/Graphics/SVG/1.1/DTD/svg11.dtd">
<!-- Created with matplotlib (https://matplotlib.org/) -->
<svg height="290.4525pt" version="1.1" viewBox="0 0 370.942187 290.4525" width="370.942187pt" xmlns="http://www.w3.org/2000/svg" xmlns:xlink="http://www.w3.org/1999/xlink">
 <defs>
  <style type="text/css">
*{stroke-linecap:butt;stroke-linejoin:round;}
  </style>
 </defs>
 <g id="figure_1">
  <g id="patch_1">
   <path d="M 0 290.4525 
L 370.942187 290.4525 
L 370.942187 0 
L 0 0 
z
" style="fill:#ffffff;"/>
  </g>
  <g id="axes_1">
   <g id="patch_2">
    <path d="M 28.942188 252.89625 
L 363.742188 252.89625 
L 363.742188 35.45625 
L 28.942188 35.45625 
z
" style="fill:#ffffff;"/>
   </g>
   <g id="matplotlib.axis_1">
    <g id="xtick_1">
     <g id="line2d_1">
      <defs>
       <path d="M 0 0 
L 0 3.5 
" id="m760245e3e3" style="stroke:#000000;stroke-width:0.8;"/>
      </defs>
      <g>
       <use style="stroke:#000000;stroke-width:0.8;" x="44.160369" xlink:href="#m760245e3e3" y="252.89625"/>
      </g>
     </g>
     <g id="text_1">
      <!-- 1 -->
      <defs>
       <path d="M 12.40625 8.296875 
L 28.515625 8.296875 
L 28.515625 63.921875 
L 10.984375 60.40625 
L 10.984375 69.390625 
L 28.421875 72.90625 
L 38.28125 72.90625 
L 38.28125 8.296875 
L 54.390625 8.296875 
L 54.390625 0 
L 12.40625 0 
z
" id="DejaVuSans-49"/>
      </defs>
      <g transform="translate(40.979119 267.494687)scale(0.1 -0.1)">
       <use xlink:href="#DejaVuSans-49"/>
      </g>
     </g>
    </g>
    <g id="xtick_2">
     <g id="line2d_2">
      <g>
       <use style="stroke:#000000;stroke-width:0.8;" x="87.640889" xlink:href="#m760245e3e3" y="252.89625"/>
      </g>
     </g>
     <g id="text_2">
      <!-- 2 -->
      <defs>
       <path d="M 19.1875 8.296875 
L 53.609375 8.296875 
L 53.609375 0 
L 7.328125 0 
L 7.328125 8.296875 
Q 12.9375 14.109375 22.625 23.890625 
Q 32.328125 33.6875 34.8125 36.53125 
Q 39.546875 41.84375 41.421875 45.53125 
Q 43.3125 49.21875 43.3125 52.78125 
Q 43.3125 58.59375 39.234375 62.25 
Q 35.15625 65.921875 28.609375 65.921875 
Q 23.96875 65.921875 18.8125 64.3125 
Q 13.671875 62.703125 7.8125 59.421875 
L 7.8125 69.390625 
Q 13.765625 71.78125 18.9375 73 
Q 24.125 74.21875 28.421875 74.21875 
Q 39.75 74.21875 46.484375 68.546875 
Q 53.21875 62.890625 53.21875 53.421875 
Q 53.21875 48.921875 51.53125 44.890625 
Q 49.859375 40.875 45.40625 35.40625 
Q 44.1875 33.984375 37.640625 27.21875 
Q 31.109375 20.453125 19.1875 8.296875 
z
" id="DejaVuSans-50"/>
      </defs>
      <g transform="translate(84.459639 267.494687)scale(0.1 -0.1)">
       <use xlink:href="#DejaVuSans-50"/>
      </g>
     </g>
    </g>
    <g id="xtick_3">
     <g id="line2d_3">
      <g>
       <use style="stroke:#000000;stroke-width:0.8;" x="131.121408" xlink:href="#m760245e3e3" y="252.89625"/>
      </g>
     </g>
     <g id="text_3">
      <!-- 3 -->
      <defs>
       <path d="M 40.578125 39.3125 
Q 47.65625 37.796875 51.625 33 
Q 55.609375 28.21875 55.609375 21.1875 
Q 55.609375 10.40625 48.1875 4.484375 
Q 40.765625 -1.421875 27.09375 -1.421875 
Q 22.515625 -1.421875 17.65625 -0.515625 
Q 12.796875 0.390625 7.625 2.203125 
L 7.625 11.71875 
Q 11.71875 9.328125 16.59375 8.109375 
Q 21.484375 6.890625 26.8125 6.890625 
Q 36.078125 6.890625 40.9375 10.546875 
Q 45.796875 14.203125 45.796875 21.1875 
Q 45.796875 27.640625 41.28125 31.265625 
Q 36.765625 34.90625 28.71875 34.90625 
L 20.21875 34.90625 
L 20.21875 43.015625 
L 29.109375 43.015625 
Q 36.375 43.015625 40.234375 45.921875 
Q 44.09375 48.828125 44.09375 54.296875 
Q 44.09375 59.90625 40.109375 62.90625 
Q 36.140625 65.921875 28.71875 65.921875 
Q 24.65625 65.921875 20.015625 65.03125 
Q 15.375 64.15625 9.8125 62.3125 
L 9.8125 71.09375 
Q 15.4375 72.65625 20.34375 73.4375 
Q 25.25 74.21875 29.59375 74.21875 
Q 40.828125 74.21875 47.359375 69.109375 
Q 53.90625 64.015625 53.90625 55.328125 
Q 53.90625 49.265625 50.4375 45.09375 
Q 46.96875 40.921875 40.578125 39.3125 
z
" id="DejaVuSans-51"/>
      </defs>
      <g transform="translate(127.940158 267.494687)scale(0.1 -0.1)">
       <use xlink:href="#DejaVuSans-51"/>
      </g>
     </g>
    </g>
    <g id="xtick_4">
     <g id="line2d_4">
      <g>
       <use style="stroke:#000000;stroke-width:0.8;" x="174.601928" xlink:href="#m760245e3e3" y="252.89625"/>
      </g>
     </g>
     <g id="text_4">
      <!-- 4 -->
      <defs>
       <path d="M 37.796875 64.3125 
L 12.890625 25.390625 
L 37.796875 25.390625 
z
M 35.203125 72.90625 
L 47.609375 72.90625 
L 47.609375 25.390625 
L 58.015625 25.390625 
L 58.015625 17.1875 
L 47.609375 17.1875 
L 47.609375 0 
L 37.796875 0 
L 37.796875 17.1875 
L 4.890625 17.1875 
L 4.890625 26.703125 
z
" id="DejaVuSans-52"/>
      </defs>
      <g transform="translate(171.420678 267.494687)scale(0.1 -0.1)">
       <use xlink:href="#DejaVuSans-52"/>
      </g>
     </g>
    </g>
    <g id="xtick_5">
     <g id="line2d_5">
      <g>
       <use style="stroke:#000000;stroke-width:0.8;" x="218.082447" xlink:href="#m760245e3e3" y="252.89625"/>
      </g>
     </g>
     <g id="text_5">
      <!-- 5 -->
      <defs>
       <path d="M 10.796875 72.90625 
L 49.515625 72.90625 
L 49.515625 64.59375 
L 19.828125 64.59375 
L 19.828125 46.734375 
Q 21.96875 47.46875 24.109375 47.828125 
Q 26.265625 48.1875 28.421875 48.1875 
Q 40.625 48.1875 47.75 41.5 
Q 54.890625 34.8125 54.890625 23.390625 
Q 54.890625 11.625 47.5625 5.09375 
Q 40.234375 -1.421875 26.90625 -1.421875 
Q 22.3125 -1.421875 17.546875 -0.640625 
Q 12.796875 0.140625 7.71875 1.703125 
L 7.71875 11.625 
Q 12.109375 9.234375 16.796875 8.0625 
Q 21.484375 6.890625 26.703125 6.890625 
Q 35.15625 6.890625 40.078125 11.328125 
Q 45.015625 15.765625 45.015625 23.390625 
Q 45.015625 31 40.078125 35.4375 
Q 35.15625 39.890625 26.703125 39.890625 
Q 22.75 39.890625 18.8125 39.015625 
Q 14.890625 38.140625 10.796875 36.28125 
z
" id="DejaVuSans-53"/>
      </defs>
      <g transform="translate(214.901197 267.494687)scale(0.1 -0.1)">
       <use xlink:href="#DejaVuSans-53"/>
      </g>
     </g>
    </g>
    <g id="xtick_6">
     <g id="line2d_6">
      <g>
       <use style="stroke:#000000;stroke-width:0.8;" x="261.562967" xlink:href="#m760245e3e3" y="252.89625"/>
      </g>
     </g>
     <g id="text_6">
      <!-- 6 -->
      <defs>
       <path d="M 33.015625 40.375 
Q 26.375 40.375 22.484375 35.828125 
Q 18.609375 31.296875 18.609375 23.390625 
Q 18.609375 15.53125 22.484375 10.953125 
Q 26.375 6.390625 33.015625 6.390625 
Q 39.65625 6.390625 43.53125 10.953125 
Q 47.40625 15.53125 47.40625 23.390625 
Q 47.40625 31.296875 43.53125 35.828125 
Q 39.65625 40.375 33.015625 40.375 
z
M 52.59375 71.296875 
L 52.59375 62.3125 
Q 48.875 64.0625 45.09375 64.984375 
Q 41.3125 65.921875 37.59375 65.921875 
Q 27.828125 65.921875 22.671875 59.328125 
Q 17.53125 52.734375 16.796875 39.40625 
Q 19.671875 43.65625 24.015625 45.921875 
Q 28.375 48.1875 33.59375 48.1875 
Q 44.578125 48.1875 50.953125 41.515625 
Q 57.328125 34.859375 57.328125 23.390625 
Q 57.328125 12.15625 50.6875 5.359375 
Q 44.046875 -1.421875 33.015625 -1.421875 
Q 20.359375 -1.421875 13.671875 8.265625 
Q 6.984375 17.96875 6.984375 36.375 
Q 6.984375 53.65625 15.1875 63.9375 
Q 23.390625 74.21875 37.203125 74.21875 
Q 40.921875 74.21875 44.703125 73.484375 
Q 48.484375 72.75 52.59375 71.296875 
z
" id="DejaVuSans-54"/>
      </defs>
      <g transform="translate(258.381717 267.494687)scale(0.1 -0.1)">
       <use xlink:href="#DejaVuSans-54"/>
      </g>
     </g>
    </g>
    <g id="xtick_7">
     <g id="line2d_7">
      <g>
       <use style="stroke:#000000;stroke-width:0.8;" x="305.043486" xlink:href="#m760245e3e3" y="252.89625"/>
      </g>
     </g>
     <g id="text_7">
      <!-- 7 -->
      <defs>
       <path d="M 8.203125 72.90625 
L 55.078125 72.90625 
L 55.078125 68.703125 
L 28.609375 0 
L 18.3125 0 
L 43.21875 64.59375 
L 8.203125 64.59375 
z
" id="DejaVuSans-55"/>
      </defs>
      <g transform="translate(301.862236 267.494687)scale(0.1 -0.1)">
       <use xlink:href="#DejaVuSans-55"/>
      </g>
     </g>
    </g>
    <g id="xtick_8">
     <g id="line2d_8">
      <g>
       <use style="stroke:#000000;stroke-width:0.8;" x="348.524006" xlink:href="#m760245e3e3" y="252.89625"/>
      </g>
     </g>
     <g id="text_8">
      <!-- 8 -->
      <defs>
       <path d="M 31.78125 34.625 
Q 24.75 34.625 20.71875 30.859375 
Q 16.703125 27.09375 16.703125 20.515625 
Q 16.703125 13.921875 20.71875 10.15625 
Q 24.75 6.390625 31.78125 6.390625 
Q 38.8125 6.390625 42.859375 10.171875 
Q 46.921875 13.96875 46.921875 20.515625 
Q 46.921875 27.09375 42.890625 30.859375 
Q 38.875 34.625 31.78125 34.625 
z
M 21.921875 38.8125 
Q 15.578125 40.375 12.03125 44.71875 
Q 8.5 49.078125 8.5 55.328125 
Q 8.5 64.0625 14.71875 69.140625 
Q 20.953125 74.21875 31.78125 74.21875 
Q 42.671875 74.21875 48.875 69.140625 
Q 55.078125 64.0625 55.078125 55.328125 
Q 55.078125 49.078125 51.53125 44.71875 
Q 48 40.375 41.703125 38.8125 
Q 48.828125 37.15625 52.796875 32.3125 
Q 56.78125 27.484375 56.78125 20.515625 
Q 56.78125 9.90625 50.3125 4.234375 
Q 43.84375 -1.421875 31.78125 -1.421875 
Q 19.734375 -1.421875 13.25 4.234375 
Q 6.78125 9.90625 6.78125 20.515625 
Q 6.78125 27.484375 10.78125 32.3125 
Q 14.796875 37.15625 21.921875 38.8125 
z
M 18.3125 54.390625 
Q 18.3125 48.734375 21.84375 45.5625 
Q 25.390625 42.390625 31.78125 42.390625 
Q 38.140625 42.390625 41.71875 45.5625 
Q 45.3125 48.734375 45.3125 54.390625 
Q 45.3125 60.0625 41.71875 63.234375 
Q 38.140625 66.40625 31.78125 66.40625 
Q 25.390625 66.40625 21.84375 63.234375 
Q 18.3125 60.0625 18.3125 54.390625 
z
" id="DejaVuSans-56"/>
      </defs>
      <g transform="translate(345.342756 267.494687)scale(0.1 -0.1)">
       <use xlink:href="#DejaVuSans-56"/>
      </g>
     </g>
    </g>
    <g id="text_9">
     <!-- q -->
     <defs>
      <path d="M 14.796875 27.296875 
Q 14.796875 17.390625 18.875 11.75 
Q 22.953125 6.109375 30.078125 6.109375 
Q 37.203125 6.109375 41.296875 11.75 
Q 45.40625 17.390625 45.40625 27.296875 
Q 45.40625 37.203125 41.296875 42.84375 
Q 37.203125 48.484375 30.078125 48.484375 
Q 22.953125 48.484375 18.875 42.84375 
Q 14.796875 37.203125 14.796875 27.296875 
z
M 45.40625 8.203125 
Q 42.578125 3.328125 38.25 0.953125 
Q 33.9375 -1.421875 27.875 -1.421875 
Q 17.96875 -1.421875 11.734375 6.484375 
Q 5.515625 14.40625 5.515625 27.296875 
Q 5.515625 40.1875 11.734375 48.09375 
Q 17.96875 56 27.875 56 
Q 33.9375 56 38.25 53.625 
Q 42.578125 51.265625 45.40625 46.390625 
L 45.40625 54.6875 
L 54.390625 54.6875 
L 54.390625 -20.796875 
L 45.40625 -20.796875 
z
" id="DejaVuSans-113"/>
     </defs>
     <g transform="translate(193.167969 281.172812)scale(0.1 -0.1)">
      <use xlink:href="#DejaVuSans-113"/>
     </g>
    </g>
   </g>
   <g id="matplotlib.axis_2">
    <g id="ytick_1">
     <g id="line2d_9">
      <defs>
       <path d="M 0 0 
L -3.5 0 
" id="mea2d6a25ac" style="stroke:#000000;stroke-width:0.8;"/>
      </defs>
      <g>
       <use style="stroke:#000000;stroke-width:0.8;" x="28.942188" xlink:href="#mea2d6a25ac" y="216.98812"/>
      </g>
     </g>
     <g id="text_10">
      <!-- −2 -->
      <defs>
       <path d="M 10.59375 35.5 
L 73.1875 35.5 
L 73.1875 27.203125 
L 10.59375 27.203125 
z
" id="DejaVuSans-8722"/>
      </defs>
      <g transform="translate(7.2 220.787339)scale(0.1 -0.1)">
       <use xlink:href="#DejaVuSans-8722"/>
       <use x="83.789062" xlink:href="#DejaVuSans-50"/>
      </g>
     </g>
    </g>
    <g id="ytick_2">
     <g id="line2d_10">
      <g>
       <use style="stroke:#000000;stroke-width:0.8;" x="28.942188" xlink:href="#mea2d6a25ac" y="172.265192"/>
      </g>
     </g>
     <g id="text_11">
      <!-- −1 -->
      <g transform="translate(7.2 176.064411)scale(0.1 -0.1)">
       <use xlink:href="#DejaVuSans-8722"/>
       <use x="83.789062" xlink:href="#DejaVuSans-49"/>
      </g>
     </g>
    </g>
    <g id="ytick_3">
     <g id="line2d_11">
      <g>
       <use style="stroke:#000000;stroke-width:0.8;" x="28.942188" xlink:href="#mea2d6a25ac" y="127.542264"/>
      </g>
     </g>
     <g id="text_12">
      <!-- 0 -->
      <defs>
       <path d="M 31.78125 66.40625 
Q 24.171875 66.40625 20.328125 58.90625 
Q 16.5 51.421875 16.5 36.375 
Q 16.5 21.390625 20.328125 13.890625 
Q 24.171875 6.390625 31.78125 6.390625 
Q 39.453125 6.390625 43.28125 13.890625 
Q 47.125 21.390625 47.125 36.375 
Q 47.125 51.421875 43.28125 58.90625 
Q 39.453125 66.40625 31.78125 66.40625 
z
M 31.78125 74.21875 
Q 44.046875 74.21875 50.515625 64.515625 
Q 56.984375 54.828125 56.984375 36.375 
Q 56.984375 17.96875 50.515625 8.265625 
Q 44.046875 -1.421875 31.78125 -1.421875 
Q 19.53125 -1.421875 13.0625 8.265625 
Q 6.59375 17.96875 6.59375 36.375 
Q 6.59375 54.828125 13.0625 64.515625 
Q 19.53125 74.21875 31.78125 74.21875 
z
" id="DejaVuSans-48"/>
      </defs>
      <g transform="translate(15.579688 131.341482)scale(0.1 -0.1)">
       <use xlink:href="#DejaVuSans-48"/>
      </g>
     </g>
    </g>
    <g id="ytick_4">
     <g id="line2d_12">
      <g>
       <use style="stroke:#000000;stroke-width:0.8;" x="28.942188" xlink:href="#mea2d6a25ac" y="82.819335"/>
      </g>
     </g>
     <g id="text_13">
      <!-- 1 -->
      <g transform="translate(15.579688 86.618554)scale(0.1 -0.1)">
       <use xlink:href="#DejaVuSans-49"/>
      </g>
     </g>
    </g>
    <g id="ytick_5">
     <g id="line2d_13">
      <g>
       <use style="stroke:#000000;stroke-width:0.8;" x="28.942188" xlink:href="#mea2d6a25ac" y="38.096407"/>
      </g>
     </g>
     <g id="text_14">
      <!-- 2 -->
      <g transform="translate(15.579688 41.895626)scale(0.1 -0.1)">
       <use xlink:href="#DejaVuSans-50"/>
      </g>
     </g>
    </g>
   </g>
   <g id="line2d_14">
    <path clip-path="url(#p1cbf10e639)" d="M 44.160369 82.819335 
L 47.234749 82.819335 
L 50.30913 82.819335 
L 53.38351 82.819335 
L 56.45789 82.819335 
L 59.53227 82.819335 
L 62.60665 82.819335 
L 65.68103 82.819335 
L 68.755411 82.819335 
L 71.829791 82.819335 
L 74.904171 82.819335 
L 77.978551 82.819335 
L 81.052931 82.819335 
L 84.127311 82.819335 
L 87.201692 82.819335 
L 90.276072 82.819335 
L 93.350452 82.819335 
L 96.424832 82.819335 
L 99.499212 82.819335 
L 102.573592 82.819335 
L 105.647973 82.819335 
L 108.722353 82.819335 
L 111.796733 82.819335 
L 114.871113 82.819335 
L 117.945493 82.819335 
L 121.019873 82.819335 
L 124.094254 82.819335 
L 127.168634 82.819335 
L 130.243014 82.819335 
L 133.317394 82.819335 
L 136.391774 82.819335 
L 139.466154 82.819335 
L 142.540535 82.819335 
L 145.614915 82.819335 
L 148.689295 82.819335 
L 151.763675 82.819335 
L 154.838055 82.819335 
L 157.912435 82.819335 
L 160.986816 82.819335 
L 164.061196 82.819335 
L 167.135576 82.819335 
L 170.209956 82.819335 
L 173.284336 82.819335 
L 176.358716 82.819335 
L 179.433097 82.819335 
L 182.507477 82.819335 
L 185.581857 82.819335 
L 188.656237 82.819335 
L 191.730617 82.819335 
L 194.804997 82.819335 
L 197.879378 82.819335 
L 200.953758 82.819335 
L 204.028138 82.819335 
L 207.102518 82.819335 
L 210.176898 82.819335 
L 213.251278 82.819335 
L 216.325659 82.819335 
L 219.400039 82.819335 
L 222.474419 82.819335 
L 225.548799 82.819335 
L 228.623179 82.819335 
L 231.697559 82.819335 
L 234.77194 82.819335 
L 237.84632 82.819335 
L 240.9207 82.819335 
L 243.99508 82.819335 
L 247.06946 82.819335 
L 250.14384 82.819335 
L 253.218221 82.819335 
L 256.292601 82.819335 
L 259.366981 82.819335 
L 262.441361 82.819335 
L 265.515741 82.819335 
L 268.590121 82.819335 
L 271.664502 82.819335 
L 274.738882 82.819335 
L 277.813262 82.819335 
L 280.887642 82.819335 
L 283.962022 82.819335 
L 287.036402 82.819335 
L 290.110783 82.819335 
L 293.185163 82.819335 
L 296.259543 82.819335 
L 299.333923 82.819335 
L 302.408303 82.819335 
L 305.482683 82.819335 
L 308.557064 82.819335 
L 311.631444 82.819335 
L 314.705824 82.819335 
L 317.780204 82.819335 
L 320.854584 82.819335 
L 323.928964 82.819335 
L 327.003345 82.819335 
L 330.077725 82.819335 
L 333.152105 82.819335 
L 336.226485 82.819335 
L 339.300865 82.819335 
L 342.375245 82.819335 
L 345.449626 82.819335 
L 348.524006 82.819335 
" style="fill:none;stroke:#1f77b4;stroke-linecap:square;stroke-width:1.5;"/>
   </g>
   <g id="line2d_15">
    <path clip-path="url(#p1cbf10e639)" d="M 44.160369 183.43988 
L 47.234749 182.044931 
L 50.30913 180.649981 
L 53.38351 179.255032 
L 56.45789 177.860082 
L 59.53227 176.465133 
L 62.60665 175.070183 
L 65.68103 173.675234 
L 68.755411 172.280285 
L 71.829791 170.885335 
L 74.904171 169.490386 
L 77.978551 168.095436 
L 81.052931 166.700487 
L 84.127311 165.305537 
L 87.201692 163.910588 
L 90.276072 162.515639 
L 93.350452 161.120689 
L 96.424832 159.72574 
L 99.499212 158.33079 
L 102.573592 156.935841 
L 105.647973 155.540891 
L 108.722353 154.145942 
L 111.796733 152.750993 
L 114.871113 151.356043 
L 117.945493 149.961094 
L 121.019873 148.566144 
L 124.094254 147.171195 
L 127.168634 145.776245 
L 130.243014 144.381296 
L 133.317394 142.986347 
L 136.391774 141.591397 
L 139.466154 140.196448 
L 142.540535 138.801498 
L 145.614915 137.406549 
L 148.689295 136.011599 
L 151.763675 134.61665 
L 154.838055 133.221701 
L 157.912435 131.826751 
L 160.986816 130.431802 
L 164.061196 129.036852 
L 167.135576 127.641903 
L 170.209956 126.246953 
L 173.284336 124.852004 
L 176.358716 123.457055 
L 179.433097 122.062105 
L 182.507477 120.667156 
L 185.581857 119.272206 
L 188.656237 117.877257 
L 191.730617 116.482307 
L 194.804997 115.087358 
L 197.879378 113.692409 
L 200.953758 112.297459 
L 204.028138 110.90251 
L 207.102518 109.50756 
L 210.176898 108.112611 
L 213.251278 106.717661 
L 216.325659 105.322712 
L 219.400039 103.927762 
L 222.474419 102.532813 
L 225.548799 101.137864 
L 228.623179 99.742914 
L 231.697559 98.347965 
L 234.77194 96.953015 
L 237.84632 95.558066 
L 240.9207 94.163116 
L 243.99508 92.768167 
L 247.06946 91.373218 
L 250.14384 89.978268 
L 253.218221 88.583319 
L 256.292601 87.188369 
L 259.366981 85.79342 
L 262.441361 84.39847 
L 265.515741 83.003521 
L 268.590121 81.608572 
L 271.664502 80.213622 
L 274.738882 78.818673 
L 277.813262 77.423723 
L 280.887642 76.028774 
L 283.962022 74.633824 
L 287.036402 73.238875 
L 290.110783 71.843926 
L 293.185163 70.448976 
L 296.259543 69.054027 
L 299.333923 67.659077 
L 302.408303 66.264128 
L 305.482683 64.869178 
L 308.557064 63.474229 
L 311.631444 62.07928 
L 314.705824 60.68433 
L 317.780204 59.289381 
L 320.854584 57.894431 
L 323.928964 56.499482 
L 327.003345 55.104532 
L 330.077725 53.709583 
L 333.152105 52.314634 
L 336.226485 50.919684 
L 339.300865 49.524735 
L 342.375245 48.129785 
L 345.449626 46.734836 
L 348.524006 45.339886 
" style="fill:none;stroke:#ff7f0e;stroke-linecap:square;stroke-width:1.5;"/>
   </g>
   <g id="line2d_16">
    <path clip-path="url(#p1cbf10e639)" d="M 44.160369 66.572937 
L 47.234749 70.923731 
L 50.30913 75.187098 
L 53.38351 79.363037 
L 56.45789 83.451548 
L 59.53227 87.452632 
L 62.60665 91.366288 
L 65.68103 95.192516 
L 68.755411 98.931316 
L 71.829791 102.582689 
L 74.904171 106.146634 
L 77.978551 109.623152 
L 81.052931 113.012241 
L 84.127311 116.313903 
L 87.201692 119.528137 
L 90.276072 122.654944 
L 93.350452 125.694322 
L 96.424832 128.646273 
L 99.499212 131.510797 
L 102.573592 134.287892 
L 105.647973 136.97756 
L 108.722353 139.579801 
L 111.796733 142.094613 
L 114.871113 144.521998 
L 117.945493 146.861955 
L 121.019873 149.114484 
L 124.094254 151.279586 
L 127.168634 153.35726 
L 130.243014 155.347506 
L 133.317394 157.250325 
L 136.391774 159.065716 
L 139.466154 160.793679 
L 142.540535 162.434214 
L 145.614915 163.987322 
L 148.689295 165.453002 
L 151.763675 166.831254 
L 154.838055 168.122079 
L 157.912435 169.325476 
L 160.986816 170.441445 
L 164.061196 171.469986 
L 167.135576 172.4111 
L 170.209956 173.264786 
L 173.284336 174.031044 
L 176.358716 174.709875 
L 179.433097 175.301278 
L 182.507477 175.805253 
L 185.581857 176.2218 
L 188.656237 176.55092 
L 191.730617 176.792612 
L 194.804997 176.946876 
L 197.879378 177.013713 
L 200.953758 176.993122 
L 204.028138 176.885103 
L 207.102518 176.689657 
L 210.176898 176.406782 
L 213.251278 176.036481 
L 216.325659 175.578751 
L 219.400039 175.033594 
L 222.474419 174.401008 
L 225.548799 173.680996 
L 228.623179 172.873555 
L 231.697559 171.978687 
L 234.77194 170.996391 
L 237.84632 169.926668 
L 240.9207 168.769516 
L 243.99508 167.524937 
L 247.06946 166.192931 
L 250.14384 164.773496 
L 253.218221 163.266634 
L 256.292601 161.672344 
L 259.366981 159.990627 
L 262.441361 158.221481 
L 265.515741 156.364908 
L 268.590121 154.420908 
L 271.664502 152.389479 
L 274.738882 150.270623 
L 277.813262 148.064339 
L 280.887642 145.770628 
L 283.962022 143.389488 
L 287.036402 140.920921 
L 290.110783 138.364927 
L 293.185163 135.721504 
L 296.259543 132.990654 
L 299.333923 130.172376 
L 302.408303 127.266671 
L 305.482683 124.273538 
L 308.557064 121.192977 
L 311.631444 118.024988 
L 314.705824 114.769572 
L 317.780204 111.426728 
L 320.854584 107.996456 
L 323.928964 104.478757 
L 327.003345 100.873629 
L 330.077725 97.181074 
L 333.152105 93.401092 
L 336.226485 89.533682 
L 339.300865 85.578844 
L 342.375245 81.536578 
L 345.449626 77.406884 
L 348.524006 73.189763 
" style="fill:none;stroke:#2ca02c;stroke-linecap:square;stroke-width:1.5;"/>
   </g>
   <g id="line2d_17">
    <path clip-path="url(#p1cbf10e639)" d="M 44.160369 176.423413 
L 47.234749 165.7524 
L 50.30913 155.722661 
L 53.38351 146.32068 
L 56.45789 137.532942 
L 59.53227 129.345932 
L 62.60665 121.746135 
L 65.68103 114.720035 
L 68.755411 108.254116 
L 71.829791 102.334865 
L 74.904171 96.948765 
L 77.978551 92.082301 
L 81.052931 87.721958 
L 84.127311 83.85422 
L 87.201692 80.465573 
L 90.276072 77.542501 
L 93.350452 75.071488 
L 96.424832 73.03902 
L 99.499212 71.431581 
L 102.573592 70.235656 
L 105.647973 69.43773 
L 108.722353 69.024287 
L 111.796733 68.981812 
L 114.871113 69.29679 
L 117.945493 69.955705 
L 121.019873 70.945043 
L 124.094254 72.251287 
L 127.168634 73.860924 
L 130.243014 75.760436 
L 133.317394 77.93631 
L 136.391774 80.37503 
L 139.466154 83.06308 
L 142.540535 85.986945 
L 145.614915 89.133111 
L 148.689295 92.488061 
L 151.763675 96.03828 
L 154.838055 99.770254 
L 157.912435 103.670467 
L 160.986816 107.725403 
L 164.061196 111.921548 
L 167.135576 116.245386 
L 170.209956 120.683401 
L 173.284336 125.222079 
L 176.358716 129.847904 
L 179.433097 134.547361 
L 182.507477 139.306935 
L 185.581857 144.11311 
L 188.656237 148.952371 
L 191.730617 153.811203 
L 194.804997 158.676091 
L 197.879378 163.533519 
L 200.953758 168.369972 
L 204.028138 173.171934 
L 207.102518 177.925891 
L 210.176898 182.618328 
L 213.251278 187.235728 
L 216.325659 191.764576 
L 219.400039 196.191358 
L 222.474419 200.502558 
L 225.548799 204.684661 
L 228.623179 208.724151 
L 231.697559 212.607514 
L 234.77194 216.321233 
L 237.84632 219.851794 
L 240.9207 223.185682 
L 243.99508 226.30938 
L 247.06946 229.209374 
L 250.14384 231.872149 
L 253.218221 234.284189 
L 256.292601 236.431979 
L 259.366981 238.302004 
L 262.441361 239.880748 
L 265.515741 241.154697 
L 268.590121 242.110334 
L 271.664502 242.734145 
L 274.738882 243.012614 
L 277.813262 242.932226 
L 280.887642 242.479466 
L 283.962022 241.640818 
L 287.036402 240.402767 
L 290.110783 238.751799 
L 293.185163 236.674397 
L 296.259543 234.157046 
L 299.333923 231.186232 
L 302.408303 227.748438 
L 305.482683 223.83015 
L 308.557064 219.417852 
L 311.631444 214.498029 
L 314.705824 209.057165 
L 317.780204 203.081747 
L 320.854584 196.558257 
L 323.928964 189.473181 
L 327.003345 181.813003 
L 330.077725 173.564209 
L 333.152105 164.713283 
L 336.226485 155.24671 
L 339.300865 145.150974 
L 342.375245 134.41256 
L 345.449626 123.017953 
L 348.524006 110.953638 
" style="fill:none;stroke:#d62728;stroke-linecap:square;stroke-width:1.5;"/>
   </g>
   <g id="patch_3">
    <path d="M 28.942188 252.89625 
L 28.942188 35.45625 
" style="fill:none;stroke:#000000;stroke-linecap:square;stroke-linejoin:miter;stroke-width:0.8;"/>
   </g>
   <g id="patch_4">
    <path d="M 363.742188 252.89625 
L 363.742188 35.45625 
" style="fill:none;stroke:#000000;stroke-linecap:square;stroke-linejoin:miter;stroke-width:0.8;"/>
   </g>
   <g id="patch_5">
    <path d="M 28.942188 252.89625 
L 363.742188 252.89625 
" style="fill:none;stroke:#000000;stroke-linecap:square;stroke-linejoin:miter;stroke-width:0.8;"/>
   </g>
   <g id="patch_6">
    <path d="M 28.942188 35.45625 
L 363.742188 35.45625 
" style="fill:none;stroke:#000000;stroke-linecap:square;stroke-linejoin:miter;stroke-width:0.8;"/>
   </g>
  </g>
  <g id="axes_2">
   <g id="matplotlib.axis_3">
    <g id="xtick_9">
     <g id="line2d_18">
      <defs>
       <path d="M 0 0 
L 0 -3.5 
" id="mb760596cf1" style="stroke:#000000;stroke-width:0.8;"/>
      </defs>
      <g>
       <use style="stroke:#000000;stroke-width:0.8;" x="44.160369" xlink:href="#mb760596cf1" y="35.45625"/>
      </g>
     </g>
     <g id="text_15">
      <!-- -1.00 -->
      <defs>
       <path d="M 4.890625 31.390625 
L 31.203125 31.390625 
L 31.203125 23.390625 
L 4.890625 23.390625 
z
" id="DejaVuSans-45"/>
       <path d="M 10.6875 12.40625 
L 21 12.40625 
L 21 0 
L 10.6875 0 
z
" id="DejaVuSans-46"/>
      </defs>
      <g transform="translate(31.223651 26.376562)scale(0.1 -0.1)">
       <use xlink:href="#DejaVuSans-45"/>
       <use x="36.083984" xlink:href="#DejaVuSans-49"/>
       <use x="99.707031" xlink:href="#DejaVuSans-46"/>
       <use x="131.494141" xlink:href="#DejaVuSans-48"/>
       <use x="195.117188" xlink:href="#DejaVuSans-48"/>
      </g>
     </g>
    </g>
    <g id="xtick_10">
     <g id="line2d_19">
      <g>
       <use style="stroke:#000000;stroke-width:0.8;" x="87.640889" xlink:href="#mb760596cf1" y="35.45625"/>
      </g>
     </g>
     <g id="text_16">
      <!-- -0.71 -->
      <g transform="translate(74.70417 26.376562)scale(0.1 -0.1)">
       <use xlink:href="#DejaVuSans-45"/>
       <use x="36.083984" xlink:href="#DejaVuSans-48"/>
       <use x="99.707031" xlink:href="#DejaVuSans-46"/>
       <use x="131.494141" xlink:href="#DejaVuSans-55"/>
       <use x="195.117188" xlink:href="#DejaVuSans-49"/>
      </g>
     </g>
    </g>
    <g id="xtick_11">
     <g id="line2d_20">
      <g>
       <use style="stroke:#000000;stroke-width:0.8;" x="131.121408" xlink:href="#mb760596cf1" y="35.45625"/>
      </g>
     </g>
     <g id="text_17">
      <!-- -0.43 -->
      <g transform="translate(118.18469 26.376562)scale(0.1 -0.1)">
       <use xlink:href="#DejaVuSans-45"/>
       <use x="36.083984" xlink:href="#DejaVuSans-48"/>
       <use x="99.707031" xlink:href="#DejaVuSans-46"/>
       <use x="131.494141" xlink:href="#DejaVuSans-52"/>
       <use x="195.117188" xlink:href="#DejaVuSans-51"/>
      </g>
     </g>
    </g>
    <g id="xtick_12">
     <g id="line2d_21">
      <g>
       <use style="stroke:#000000;stroke-width:0.8;" x="218.082447" xlink:href="#mb760596cf1" y="35.45625"/>
      </g>
     </g>
     <g id="text_18">
      <!-- 0.14 -->
      <g transform="translate(206.949635 26.376562)scale(0.1 -0.1)">
       <use xlink:href="#DejaVuSans-48"/>
       <use x="63.623047" xlink:href="#DejaVuSans-46"/>
       <use x="95.410156" xlink:href="#DejaVuSans-49"/>
       <use x="159.033203" xlink:href="#DejaVuSans-52"/>
      </g>
     </g>
    </g>
    <g id="xtick_13">
     <g id="line2d_22">
      <g>
       <use style="stroke:#000000;stroke-width:0.8;" x="348.524006" xlink:href="#mb760596cf1" y="35.45625"/>
      </g>
     </g>
     <g id="text_19">
      <!-- 1.00 -->
      <g transform="translate(337.391193 26.376562)scale(0.1 -0.1)">
       <use xlink:href="#DejaVuSans-49"/>
       <use x="63.623047" xlink:href="#DejaVuSans-46"/>
       <use x="95.410156" xlink:href="#DejaVuSans-48"/>
       <use x="159.033203" xlink:href="#DejaVuSans-48"/>
      </g>
     </g>
    </g>
    <g id="xtick_14">
     <g id="line2d_23">
      <g>
       <use style="stroke:#000000;stroke-width:0.8;" x="174.601928" xlink:href="#mb760596cf1" y="35.45625"/>
      </g>
     </g>
     <g id="text_20">
      <!-- -0.14 -->
      <g transform="translate(161.665209 26.376562)scale(0.1 -0.1)">
       <use xlink:href="#DejaVuSans-45"/>
       <use x="36.083984" xlink:href="#DejaVuSans-48"/>
       <use x="99.707031" xlink:href="#DejaVuSans-46"/>
       <use x="131.494141" xlink:href="#DejaVuSans-49"/>
       <use x="195.117188" xlink:href="#DejaVuSans-52"/>
      </g>
     </g>
    </g>
    <g id="text_21">
     <!-- $q_{\mathrm{norm}}$ -->
     <defs>
      <path d="M 41.703125 8.203125 
Q 38.09375 3.46875 33.171875 1.015625 
Q 28.265625 -1.421875 22.3125 -1.421875 
Q 14.015625 -1.421875 9.296875 4.171875 
Q 4.59375 9.765625 4.59375 19.578125 
Q 4.59375 27.484375 7.5 34.859375 
Q 10.40625 42.234375 15.828125 48.09375 
Q 19.34375 51.90625 23.90625 53.953125 
Q 28.46875 56 33.5 56 
Q 39.546875 56 43.453125 53.609375 
Q 47.359375 51.21875 49.125 46.390625 
L 50.6875 54.59375 
L 59.71875 54.59375 
L 45.125 -20.609375 
L 36.078125 -20.609375 
z
M 13.921875 20.90625 
Q 13.921875 13.671875 16.9375 9.890625 
Q 19.96875 6.109375 25.6875 6.109375 
Q 34.1875 6.109375 40.1875 14.234375 
Q 46.1875 22.359375 46.1875 33.984375 
Q 46.1875 41.015625 43.078125 44.75 
Q 39.984375 48.484375 34.1875 48.484375 
Q 29.9375 48.484375 26.3125 46.5 
Q 22.703125 44.53125 20.015625 40.71875 
Q 17.1875 36.71875 15.546875 31.34375 
Q 13.921875 25.984375 13.921875 20.90625 
z
" id="DejaVuSans-Oblique-113"/>
      <path d="M 54.890625 33.015625 
L 54.890625 0 
L 45.90625 0 
L 45.90625 32.71875 
Q 45.90625 40.484375 42.875 44.328125 
Q 39.84375 48.1875 33.796875 48.1875 
Q 26.515625 48.1875 22.3125 43.546875 
Q 18.109375 38.921875 18.109375 30.90625 
L 18.109375 0 
L 9.078125 0 
L 9.078125 54.6875 
L 18.109375 54.6875 
L 18.109375 46.1875 
Q 21.34375 51.125 25.703125 53.5625 
Q 30.078125 56 35.796875 56 
Q 45.21875 56 50.046875 50.171875 
Q 54.890625 44.34375 54.890625 33.015625 
z
" id="DejaVuSans-110"/>
      <path d="M 30.609375 48.390625 
Q 23.390625 48.390625 19.1875 42.75 
Q 14.984375 37.109375 14.984375 27.296875 
Q 14.984375 17.484375 19.15625 11.84375 
Q 23.34375 6.203125 30.609375 6.203125 
Q 37.796875 6.203125 41.984375 11.859375 
Q 46.1875 17.53125 46.1875 27.296875 
Q 46.1875 37.015625 41.984375 42.703125 
Q 37.796875 48.390625 30.609375 48.390625 
z
M 30.609375 56 
Q 42.328125 56 49.015625 48.375 
Q 55.71875 40.765625 55.71875 27.296875 
Q 55.71875 13.875 49.015625 6.21875 
Q 42.328125 -1.421875 30.609375 -1.421875 
Q 18.84375 -1.421875 12.171875 6.21875 
Q 5.515625 13.875 5.515625 27.296875 
Q 5.515625 40.765625 12.171875 48.375 
Q 18.84375 56 30.609375 56 
z
" id="DejaVuSans-111"/>
      <path d="M 41.109375 46.296875 
Q 39.59375 47.171875 37.8125 47.578125 
Q 36.03125 48 33.890625 48 
Q 26.265625 48 22.1875 43.046875 
Q 18.109375 38.09375 18.109375 28.8125 
L 18.109375 0 
L 9.078125 0 
L 9.078125 54.6875 
L 18.109375 54.6875 
L 18.109375 46.1875 
Q 20.953125 51.171875 25.484375 53.578125 
Q 30.03125 56 36.53125 56 
Q 37.453125 56 38.578125 55.875 
Q 39.703125 55.765625 41.0625 55.515625 
z
" id="DejaVuSans-114"/>
      <path d="M 52 44.1875 
Q 55.375 50.25 60.0625 53.125 
Q 64.75 56 71.09375 56 
Q 79.640625 56 84.28125 50.015625 
Q 88.921875 44.046875 88.921875 33.015625 
L 88.921875 0 
L 79.890625 0 
L 79.890625 32.71875 
Q 79.890625 40.578125 77.09375 44.375 
Q 74.3125 48.1875 68.609375 48.1875 
Q 61.625 48.1875 57.5625 43.546875 
Q 53.515625 38.921875 53.515625 30.90625 
L 53.515625 0 
L 44.484375 0 
L 44.484375 32.71875 
Q 44.484375 40.625 41.703125 44.40625 
Q 38.921875 48.1875 33.109375 48.1875 
Q 26.21875 48.1875 22.15625 43.53125 
Q 18.109375 38.875 18.109375 30.90625 
L 18.109375 0 
L 9.078125 0 
L 9.078125 54.6875 
L 18.109375 54.6875 
L 18.109375 46.1875 
Q 21.1875 51.21875 25.484375 53.609375 
Q 29.78125 56 35.6875 56 
Q 41.65625 56 45.828125 52.96875 
Q 50 49.953125 52 44.1875 
z
" id="DejaVuSans-109"/>
     </defs>
     <g transform="translate(183.792188 14.778125)scale(0.1 -0.1)">
      <use xlink:href="#DejaVuSans-Oblique-113"/>
      <use transform="translate(63.476562 -16.40625)scale(0.7)" xlink:href="#DejaVuSans-110"/>
      <use transform="translate(107.841797 -16.40625)scale(0.7)" xlink:href="#DejaVuSans-111"/>
      <use transform="translate(150.668945 -16.40625)scale(0.7)" xlink:href="#DejaVuSans-114"/>
      <use transform="translate(179.448242 -16.40625)scale(0.7)" xlink:href="#DejaVuSans-109"/>
     </g>
    </g>
   </g>
   <g id="patch_7">
    <path d="M 28.942188 252.89625 
L 28.942188 35.45625 
" style="fill:none;stroke:#000000;stroke-linecap:square;stroke-linejoin:miter;stroke-width:0.8;"/>
   </g>
   <g id="patch_8">
    <path d="M 363.742188 252.89625 
L 363.742188 35.45625 
" style="fill:none;stroke:#000000;stroke-linecap:square;stroke-linejoin:miter;stroke-width:0.8;"/>
   </g>
   <g id="patch_9">
    <path d="M 28.942188 252.89625 
L 363.742188 252.89625 
" style="fill:none;stroke:#000000;stroke-linecap:square;stroke-linejoin:miter;stroke-width:0.8;"/>
   </g>
   <g id="patch_10">
    <path d="M 28.942188 35.45625 
L 363.742188 35.45625 
" style="fill:none;stroke:#000000;stroke-linecap:square;stroke-linejoin:miter;stroke-width:0.8;"/>
   </g>
  </g>
 </g>
 <defs>
  <clipPath id="p1cbf10e639">
   <rect height="217.44" width="334.8" x="28.942188" y="35.45625"/>
  </clipPath>
 </defs>
</svg>
