<?xml version="1.0" encoding="utf-8" standalone="no"?>
<!DOCTYPE svg PUBLIC "-//W3C//DTD SVG 1.1//EN"
  "http://www.w3.org/Graphics/SVG/1.1/DTD/svg11.dtd">
<!-- Created with matplotlib (https://matplotlib.org/) -->
<svg height="290.4525pt" version="1.1" viewBox="0 0 380.482813 290.4525" width="380.482813pt" xmlns="http://www.w3.org/2000/svg" xmlns:xlink="http://www.w3.org/1999/xlink">
 <defs>
  <style type="text/css">
*{stroke-linecap:butt;stroke-linejoin:round;}
  </style>
 </defs>
 <g id="figure_1">
  <g id="patch_1">
   <path d="M -0 290.4525 
L 380.482813 290.4525 
L 380.482813 0 
L -0 0 
z
" style="fill:#ffffff;"/>
  </g>
  <g id="axes_1">
   <g id="patch_2">
    <path d="M 38.482813 252.89625 
L 373.282813 252.89625 
L 373.282813 35.45625 
L 38.482813 35.45625 
z
" style="fill:#ffffff;"/>
   </g>
   <g id="matplotlib.axis_1">
    <g id="xtick_1">
     <g id="line2d_1">
      <defs>
       <path d="M 0 0 
L 0 3.5 
" id="m9020cc3227" style="stroke:#000000;stroke-width:0.8;"/>
      </defs>
      <g>
       <use style="stroke:#000000;stroke-width:0.8;" x="53.700994" xlink:href="#m9020cc3227" y="252.89625"/>
      </g>
     </g>
     <g id="text_1">
      <!-- 1 -->
      <defs>
       <path d="M 12.40625 8.296875 
L 28.515625 8.296875 
L 28.515625 63.921875 
L 10.984375 60.40625 
L 10.984375 69.390625 
L 28.421875 72.90625 
L 38.28125 72.90625 
L 38.28125 8.296875 
L 54.390625 8.296875 
L 54.390625 0 
L 12.40625 0 
z
" id="DejaVuSans-49"/>
      </defs>
      <g transform="translate(50.519744 267.494687)scale(0.1 -0.1)">
       <use xlink:href="#DejaVuSans-49"/>
      </g>
     </g>
    </g>
    <g id="xtick_2">
     <g id="line2d_2">
      <g>
       <use style="stroke:#000000;stroke-width:0.8;" x="97.181514" xlink:href="#m9020cc3227" y="252.89625"/>
      </g>
     </g>
     <g id="text_2">
      <!-- 2 -->
      <defs>
       <path d="M 19.1875 8.296875 
L 53.609375 8.296875 
L 53.609375 0 
L 7.328125 0 
L 7.328125 8.296875 
Q 12.9375 14.109375 22.625 23.890625 
Q 32.328125 33.6875 34.8125 36.53125 
Q 39.546875 41.84375 41.421875 45.53125 
Q 43.3125 49.21875 43.3125 52.78125 
Q 43.3125 58.59375 39.234375 62.25 
Q 35.15625 65.921875 28.609375 65.921875 
Q 23.96875 65.921875 18.8125 64.3125 
Q 13.671875 62.703125 7.8125 59.421875 
L 7.8125 69.390625 
Q 13.765625 71.78125 18.9375 73 
Q 24.125 74.21875 28.421875 74.21875 
Q 39.75 74.21875 46.484375 68.546875 
Q 53.21875 62.890625 53.21875 53.421875 
Q 53.21875 48.921875 51.53125 44.890625 
Q 49.859375 40.875 45.40625 35.40625 
Q 44.1875 33.984375 37.640625 27.21875 
Q 31.109375 20.453125 19.1875 8.296875 
z
" id="DejaVuSans-50"/>
      </defs>
      <g transform="translate(94.000264 267.494687)scale(0.1 -0.1)">
       <use xlink:href="#DejaVuSans-50"/>
      </g>
     </g>
    </g>
    <g id="xtick_3">
     <g id="line2d_3">
      <g>
       <use style="stroke:#000000;stroke-width:0.8;" x="140.662033" xlink:href="#m9020cc3227" y="252.89625"/>
      </g>
     </g>
     <g id="text_3">
      <!-- 3 -->
      <defs>
       <path d="M 40.578125 39.3125 
Q 47.65625 37.796875 51.625 33 
Q 55.609375 28.21875 55.609375 21.1875 
Q 55.609375 10.40625 48.1875 4.484375 
Q 40.765625 -1.421875 27.09375 -1.421875 
Q 22.515625 -1.421875 17.65625 -0.515625 
Q 12.796875 0.390625 7.625 2.203125 
L 7.625 11.71875 
Q 11.71875 9.328125 16.59375 8.109375 
Q 21.484375 6.890625 26.8125 6.890625 
Q 36.078125 6.890625 40.9375 10.546875 
Q 45.796875 14.203125 45.796875 21.1875 
Q 45.796875 27.640625 41.28125 31.265625 
Q 36.765625 34.90625 28.71875 34.90625 
L 20.21875 34.90625 
L 20.21875 43.015625 
L 29.109375 43.015625 
Q 36.375 43.015625 40.234375 45.921875 
Q 44.09375 48.828125 44.09375 54.296875 
Q 44.09375 59.90625 40.109375 62.90625 
Q 36.140625 65.921875 28.71875 65.921875 
Q 24.65625 65.921875 20.015625 65.03125 
Q 15.375 64.15625 9.8125 62.3125 
L 9.8125 71.09375 
Q 15.4375 72.65625 20.34375 73.4375 
Q 25.25 74.21875 29.59375 74.21875 
Q 40.828125 74.21875 47.359375 69.109375 
Q 53.90625 64.015625 53.90625 55.328125 
Q 53.90625 49.265625 50.4375 45.09375 
Q 46.96875 40.921875 40.578125 39.3125 
z
" id="DejaVuSans-51"/>
      </defs>
      <g transform="translate(137.480783 267.494687)scale(0.1 -0.1)">
       <use xlink:href="#DejaVuSans-51"/>
      </g>
     </g>
    </g>
    <g id="xtick_4">
     <g id="line2d_4">
      <g>
       <use style="stroke:#000000;stroke-width:0.8;" x="184.142553" xlink:href="#m9020cc3227" y="252.89625"/>
      </g>
     </g>
     <g id="text_4">
      <!-- 4 -->
      <defs>
       <path d="M 37.796875 64.3125 
L 12.890625 25.390625 
L 37.796875 25.390625 
z
M 35.203125 72.90625 
L 47.609375 72.90625 
L 47.609375 25.390625 
L 58.015625 25.390625 
L 58.015625 17.1875 
L 47.609375 17.1875 
L 47.609375 0 
L 37.796875 0 
L 37.796875 17.1875 
L 4.890625 17.1875 
L 4.890625 26.703125 
z
" id="DejaVuSans-52"/>
      </defs>
      <g transform="translate(180.961303 267.494687)scale(0.1 -0.1)">
       <use xlink:href="#DejaVuSans-52"/>
      </g>
     </g>
    </g>
    <g id="xtick_5">
     <g id="line2d_5">
      <g>
       <use style="stroke:#000000;stroke-width:0.8;" x="227.623072" xlink:href="#m9020cc3227" y="252.89625"/>
      </g>
     </g>
     <g id="text_5">
      <!-- 5 -->
      <defs>
       <path d="M 10.796875 72.90625 
L 49.515625 72.90625 
L 49.515625 64.59375 
L 19.828125 64.59375 
L 19.828125 46.734375 
Q 21.96875 47.46875 24.109375 47.828125 
Q 26.265625 48.1875 28.421875 48.1875 
Q 40.625 48.1875 47.75 41.5 
Q 54.890625 34.8125 54.890625 23.390625 
Q 54.890625 11.625 47.5625 5.09375 
Q 40.234375 -1.421875 26.90625 -1.421875 
Q 22.3125 -1.421875 17.546875 -0.640625 
Q 12.796875 0.140625 7.71875 1.703125 
L 7.71875 11.625 
Q 12.109375 9.234375 16.796875 8.0625 
Q 21.484375 6.890625 26.703125 6.890625 
Q 35.15625 6.890625 40.078125 11.328125 
Q 45.015625 15.765625 45.015625 23.390625 
Q 45.015625 31 40.078125 35.4375 
Q 35.15625 39.890625 26.703125 39.890625 
Q 22.75 39.890625 18.8125 39.015625 
Q 14.890625 38.140625 10.796875 36.28125 
z
" id="DejaVuSans-53"/>
      </defs>
      <g transform="translate(224.441822 267.494687)scale(0.1 -0.1)">
       <use xlink:href="#DejaVuSans-53"/>
      </g>
     </g>
    </g>
    <g id="xtick_6">
     <g id="line2d_6">
      <g>
       <use style="stroke:#000000;stroke-width:0.8;" x="271.103592" xlink:href="#m9020cc3227" y="252.89625"/>
      </g>
     </g>
     <g id="text_6">
      <!-- 6 -->
      <defs>
       <path d="M 33.015625 40.375 
Q 26.375 40.375 22.484375 35.828125 
Q 18.609375 31.296875 18.609375 23.390625 
Q 18.609375 15.53125 22.484375 10.953125 
Q 26.375 6.390625 33.015625 6.390625 
Q 39.65625 6.390625 43.53125 10.953125 
Q 47.40625 15.53125 47.40625 23.390625 
Q 47.40625 31.296875 43.53125 35.828125 
Q 39.65625 40.375 33.015625 40.375 
z
M 52.59375 71.296875 
L 52.59375 62.3125 
Q 48.875 64.0625 45.09375 64.984375 
Q 41.3125 65.921875 37.59375 65.921875 
Q 27.828125 65.921875 22.671875 59.328125 
Q 17.53125 52.734375 16.796875 39.40625 
Q 19.671875 43.65625 24.015625 45.921875 
Q 28.375 48.1875 33.59375 48.1875 
Q 44.578125 48.1875 50.953125 41.515625 
Q 57.328125 34.859375 57.328125 23.390625 
Q 57.328125 12.15625 50.6875 5.359375 
Q 44.046875 -1.421875 33.015625 -1.421875 
Q 20.359375 -1.421875 13.671875 8.265625 
Q 6.984375 17.96875 6.984375 36.375 
Q 6.984375 53.65625 15.1875 63.9375 
Q 23.390625 74.21875 37.203125 74.21875 
Q 40.921875 74.21875 44.703125 73.484375 
Q 48.484375 72.75 52.59375 71.296875 
z
" id="DejaVuSans-54"/>
      </defs>
      <g transform="translate(267.922342 267.494687)scale(0.1 -0.1)">
       <use xlink:href="#DejaVuSans-54"/>
      </g>
     </g>
    </g>
    <g id="xtick_7">
     <g id="line2d_7">
      <g>
       <use style="stroke:#000000;stroke-width:0.8;" x="314.584111" xlink:href="#m9020cc3227" y="252.89625"/>
      </g>
     </g>
     <g id="text_7">
      <!-- 7 -->
      <defs>
       <path d="M 8.203125 72.90625 
L 55.078125 72.90625 
L 55.078125 68.703125 
L 28.609375 0 
L 18.3125 0 
L 43.21875 64.59375 
L 8.203125 64.59375 
z
" id="DejaVuSans-55"/>
      </defs>
      <g transform="translate(311.402861 267.494687)scale(0.1 -0.1)">
       <use xlink:href="#DejaVuSans-55"/>
      </g>
     </g>
    </g>
    <g id="xtick_8">
     <g id="line2d_8">
      <g>
       <use style="stroke:#000000;stroke-width:0.8;" x="358.064631" xlink:href="#m9020cc3227" y="252.89625"/>
      </g>
     </g>
     <g id="text_8">
      <!-- 8 -->
      <defs>
       <path d="M 31.78125 34.625 
Q 24.75 34.625 20.71875 30.859375 
Q 16.703125 27.09375 16.703125 20.515625 
Q 16.703125 13.921875 20.71875 10.15625 
Q 24.75 6.390625 31.78125 6.390625 
Q 38.8125 6.390625 42.859375 10.171875 
Q 46.921875 13.96875 46.921875 20.515625 
Q 46.921875 27.09375 42.890625 30.859375 
Q 38.875 34.625 31.78125 34.625 
z
M 21.921875 38.8125 
Q 15.578125 40.375 12.03125 44.71875 
Q 8.5 49.078125 8.5 55.328125 
Q 8.5 64.0625 14.71875 69.140625 
Q 20.953125 74.21875 31.78125 74.21875 
Q 42.671875 74.21875 48.875 69.140625 
Q 55.078125 64.0625 55.078125 55.328125 
Q 55.078125 49.078125 51.53125 44.71875 
Q 48 40.375 41.703125 38.8125 
Q 48.828125 37.15625 52.796875 32.3125 
Q 56.78125 27.484375 56.78125 20.515625 
Q 56.78125 9.90625 50.3125 4.234375 
Q 43.84375 -1.421875 31.78125 -1.421875 
Q 19.734375 -1.421875 13.25 4.234375 
Q 6.78125 9.90625 6.78125 20.515625 
Q 6.78125 27.484375 10.78125 32.3125 
Q 14.796875 37.15625 21.921875 38.8125 
z
M 18.3125 54.390625 
Q 18.3125 48.734375 21.84375 45.5625 
Q 25.390625 42.390625 31.78125 42.390625 
Q 38.140625 42.390625 41.71875 45.5625 
Q 45.3125 48.734375 45.3125 54.390625 
Q 45.3125 60.0625 41.71875 63.234375 
Q 38.140625 66.40625 31.78125 66.40625 
Q 25.390625 66.40625 21.84375 63.234375 
Q 18.3125 60.0625 18.3125 54.390625 
z
" id="DejaVuSans-56"/>
      </defs>
      <g transform="translate(354.883381 267.494687)scale(0.1 -0.1)">
       <use xlink:href="#DejaVuSans-56"/>
      </g>
     </g>
    </g>
    <g id="text_9">
     <!-- q -->
     <defs>
      <path d="M 14.796875 27.296875 
Q 14.796875 17.390625 18.875 11.75 
Q 22.953125 6.109375 30.078125 6.109375 
Q 37.203125 6.109375 41.296875 11.75 
Q 45.40625 17.390625 45.40625 27.296875 
Q 45.40625 37.203125 41.296875 42.84375 
Q 37.203125 48.484375 30.078125 48.484375 
Q 22.953125 48.484375 18.875 42.84375 
Q 14.796875 37.203125 14.796875 27.296875 
z
M 45.40625 8.203125 
Q 42.578125 3.328125 38.25 0.953125 
Q 33.9375 -1.421875 27.875 -1.421875 
Q 17.96875 -1.421875 11.734375 6.484375 
Q 5.515625 14.40625 5.515625 27.296875 
Q 5.515625 40.1875 11.734375 48.09375 
Q 17.96875 56 27.875 56 
Q 33.9375 56 38.25 53.625 
Q 42.578125 51.265625 45.40625 46.390625 
L 45.40625 54.6875 
L 54.390625 54.6875 
L 54.390625 -20.796875 
L 45.40625 -20.796875 
z
" id="DejaVuSans-113"/>
     </defs>
     <g transform="translate(202.708594 281.172812)scale(0.1 -0.1)">
      <use xlink:href="#DejaVuSans-113"/>
     </g>
    </g>
   </g>
   <g id="matplotlib.axis_2">
    <g id="ytick_1">
     <g id="line2d_9">
      <defs>
       <path d="M 0 0 
L -3.5 0 
" id="md5e3fea683" style="stroke:#000000;stroke-width:0.8;"/>
      </defs>
      <g>
       <use style="stroke:#000000;stroke-width:0.8;" x="38.482813" xlink:href="#md5e3fea683" y="235.478254"/>
      </g>
     </g>
     <g id="text_10">
      <!-- −2.0 -->
      <defs>
       <path d="M 10.59375 35.5 
L 73.1875 35.5 
L 73.1875 27.203125 
L 10.59375 27.203125 
z
" id="DejaVuSans-8722"/>
       <path d="M 10.6875 12.40625 
L 21 12.40625 
L 21 0 
L 10.6875 0 
z
" id="DejaVuSans-46"/>
       <path d="M 31.78125 66.40625 
Q 24.171875 66.40625 20.328125 58.90625 
Q 16.5 51.421875 16.5 36.375 
Q 16.5 21.390625 20.328125 13.890625 
Q 24.171875 6.390625 31.78125 6.390625 
Q 39.453125 6.390625 43.28125 13.890625 
Q 47.125 21.390625 47.125 36.375 
Q 47.125 51.421875 43.28125 58.90625 
Q 39.453125 66.40625 31.78125 66.40625 
z
M 31.78125 74.21875 
Q 44.046875 74.21875 50.515625 64.515625 
Q 56.984375 54.828125 56.984375 36.375 
Q 56.984375 17.96875 50.515625 8.265625 
Q 44.046875 -1.421875 31.78125 -1.421875 
Q 19.53125 -1.421875 13.0625 8.265625 
Q 6.59375 17.96875 6.59375 36.375 
Q 6.59375 54.828125 13.0625 64.515625 
Q 19.53125 74.21875 31.78125 74.21875 
z
" id="DejaVuSans-48"/>
      </defs>
      <g transform="translate(7.2 239.277472)scale(0.1 -0.1)">
       <use xlink:href="#DejaVuSans-8722"/>
       <use x="83.789062" xlink:href="#DejaVuSans-50"/>
       <use x="147.412109" xlink:href="#DejaVuSans-46"/>
       <use x="179.199219" xlink:href="#DejaVuSans-48"/>
      </g>
     </g>
    </g>
    <g id="ytick_2">
     <g id="line2d_10">
      <g>
       <use style="stroke:#000000;stroke-width:0.8;" x="38.482813" xlink:href="#md5e3fea683" y="210.491766"/>
      </g>
     </g>
     <g id="text_11">
      <!-- −1.5 -->
      <g transform="translate(7.2 214.290985)scale(0.1 -0.1)">
       <use xlink:href="#DejaVuSans-8722"/>
       <use x="83.789062" xlink:href="#DejaVuSans-49"/>
       <use x="147.412109" xlink:href="#DejaVuSans-46"/>
       <use x="179.199219" xlink:href="#DejaVuSans-53"/>
      </g>
     </g>
    </g>
    <g id="ytick_3">
     <g id="line2d_11">
      <g>
       <use style="stroke:#000000;stroke-width:0.8;" x="38.482813" xlink:href="#md5e3fea683" y="185.505279"/>
      </g>
     </g>
     <g id="text_12">
      <!-- −1.0 -->
      <g transform="translate(7.2 189.304497)scale(0.1 -0.1)">
       <use xlink:href="#DejaVuSans-8722"/>
       <use x="83.789062" xlink:href="#DejaVuSans-49"/>
       <use x="147.412109" xlink:href="#DejaVuSans-46"/>
       <use x="179.199219" xlink:href="#DejaVuSans-48"/>
      </g>
     </g>
    </g>
    <g id="ytick_4">
     <g id="line2d_12">
      <g>
       <use style="stroke:#000000;stroke-width:0.8;" x="38.482813" xlink:href="#md5e3fea683" y="160.518791"/>
      </g>
     </g>
     <g id="text_13">
      <!-- −0.5 -->
      <g transform="translate(7.2 164.31801)scale(0.1 -0.1)">
       <use xlink:href="#DejaVuSans-8722"/>
       <use x="83.789062" xlink:href="#DejaVuSans-48"/>
       <use x="147.412109" xlink:href="#DejaVuSans-46"/>
       <use x="179.199219" xlink:href="#DejaVuSans-53"/>
      </g>
     </g>
    </g>
    <g id="ytick_5">
     <g id="line2d_13">
      <g>
       <use style="stroke:#000000;stroke-width:0.8;" x="38.482813" xlink:href="#md5e3fea683" y="135.532304"/>
      </g>
     </g>
     <g id="text_14">
      <!-- 0.0 -->
      <g transform="translate(15.579688 139.331523)scale(0.1 -0.1)">
       <use xlink:href="#DejaVuSans-48"/>
       <use x="63.623047" xlink:href="#DejaVuSans-46"/>
       <use x="95.410156" xlink:href="#DejaVuSans-48"/>
      </g>
     </g>
    </g>
    <g id="ytick_6">
     <g id="line2d_14">
      <g>
       <use style="stroke:#000000;stroke-width:0.8;" x="38.482813" xlink:href="#md5e3fea683" y="110.545816"/>
      </g>
     </g>
     <g id="text_15">
      <!-- 0.5 -->
      <g transform="translate(15.579688 114.345035)scale(0.1 -0.1)">
       <use xlink:href="#DejaVuSans-48"/>
       <use x="63.623047" xlink:href="#DejaVuSans-46"/>
       <use x="95.410156" xlink:href="#DejaVuSans-53"/>
      </g>
     </g>
    </g>
    <g id="ytick_7">
     <g id="line2d_15">
      <g>
       <use style="stroke:#000000;stroke-width:0.8;" x="38.482813" xlink:href="#md5e3fea683" y="85.559329"/>
      </g>
     </g>
     <g id="text_16">
      <!-- 1.0 -->
      <g transform="translate(15.579688 89.358548)scale(0.1 -0.1)">
       <use xlink:href="#DejaVuSans-49"/>
       <use x="63.623047" xlink:href="#DejaVuSans-46"/>
       <use x="95.410156" xlink:href="#DejaVuSans-48"/>
      </g>
     </g>
    </g>
    <g id="ytick_8">
     <g id="line2d_16">
      <g>
       <use style="stroke:#000000;stroke-width:0.8;" x="38.482813" xlink:href="#md5e3fea683" y="60.572841"/>
      </g>
     </g>
     <g id="text_17">
      <!-- 1.5 -->
      <g transform="translate(15.579688 64.37206)scale(0.1 -0.1)">
       <use xlink:href="#DejaVuSans-49"/>
       <use x="63.623047" xlink:href="#DejaVuSans-46"/>
       <use x="95.410156" xlink:href="#DejaVuSans-53"/>
      </g>
     </g>
    </g>
    <g id="ytick_9">
     <g id="line2d_17">
      <g>
       <use style="stroke:#000000;stroke-width:0.8;" x="38.482813" xlink:href="#md5e3fea683" y="35.586354"/>
      </g>
     </g>
     <g id="text_18">
      <!-- 2.0 -->
      <g transform="translate(15.579688 39.385573)scale(0.1 -0.1)">
       <use xlink:href="#DejaVuSans-50"/>
       <use x="63.623047" xlink:href="#DejaVuSans-46"/>
       <use x="95.410156" xlink:href="#DejaVuSans-48"/>
      </g>
     </g>
    </g>
   </g>
   <g id="line2d_18">
    <path clip-path="url(#p84a2625fbe)" d="M 53.700994 108.820625 
L 56.775374 108.820625 
L 59.849755 108.820625 
L 62.924135 108.820625 
L 65.998515 108.820625 
L 69.072895 108.820625 
L 72.147275 108.820625 
L 75.221655 108.820625 
L 78.296036 108.820625 
L 81.370416 108.820625 
L 84.444796 108.820625 
L 87.519176 108.820625 
L 90.593556 108.820625 
L 93.667936 108.820625 
L 96.742317 108.820625 
L 99.816697 108.820625 
L 102.891077 108.820625 
L 105.965457 108.820625 
L 109.039837 108.820625 
L 112.114217 108.820625 
L 115.188598 108.820625 
L 118.262978 108.820625 
L 121.337358 108.820625 
L 124.411738 108.820625 
L 127.486118 108.820625 
L 130.560498 108.820625 
L 133.634879 108.820625 
L 136.709259 108.820625 
L 139.783639 108.820625 
L 142.858019 108.820625 
L 145.932399 108.820625 
L 149.006779 108.820625 
L 152.08116 108.820625 
L 155.15554 108.820625 
L 158.22992 108.820625 
L 161.3043 108.820625 
L 164.37868 108.820625 
L 167.45306 108.820625 
L 170.527441 108.820625 
L 173.601821 108.820625 
L 176.676201 108.820625 
L 179.750581 108.820625 
L 182.824961 108.820625 
L 185.899341 108.820625 
L 188.973722 108.820625 
L 192.048102 108.820625 
L 195.122482 108.820625 
L 198.196862 108.820625 
L 201.271242 108.820625 
L 204.345622 108.820625 
L 207.420003 108.820625 
L 210.494383 108.820625 
L 213.568763 108.820625 
L 216.643143 108.820625 
L 219.717523 108.820625 
L 222.791903 108.820625 
L 225.866284 108.820625 
L 228.940664 108.820625 
L 232.015044 108.820625 
L 235.089424 108.820625 
L 238.163804 108.820625 
L 241.238184 108.820625 
L 244.312565 108.820625 
L 247.386945 108.820625 
L 250.461325 108.820625 
L 253.535705 108.820625 
L 256.610085 108.820625 
L 259.684465 108.820625 
L 262.758846 108.820625 
L 265.833226 108.820625 
L 268.907606 108.820625 
L 271.981986 108.820625 
L 275.056366 108.820625 
L 278.130746 108.820625 
L 281.205127 108.820625 
L 284.279507 108.820625 
L 287.353887 108.820625 
L 290.428267 108.820625 
L 293.502647 108.820625 
L 296.577027 108.820625 
L 299.651408 108.820625 
L 302.725788 108.820625 
L 305.800168 108.820625 
L 308.874548 108.820625 
L 311.948928 108.820625 
L 315.023308 108.820625 
L 318.097689 108.820625 
L 321.172069 108.820625 
L 324.246449 108.820625 
L 327.320829 108.820625 
L 330.395209 108.820625 
L 333.469589 108.820625 
L 336.54397 108.820625 
L 339.61835 108.820625 
L 342.69273 108.820625 
L 345.76711 108.820625 
L 348.84149 108.820625 
L 351.91587 108.820625 
L 354.990251 108.820625 
L 358.064631 108.820625 
" style="fill:none;stroke:#1f77b4;stroke-linecap:square;stroke-width:1.5;"/>
   </g>
   <g id="line2d_19">
    <path clip-path="url(#p84a2625fbe)" d="M 53.700994 160.629324 
L 56.775374 159.464785 
L 59.849755 158.300245 
L 62.924135 157.135705 
L 65.998515 155.971165 
L 69.072895 154.806625 
L 72.147275 153.642086 
L 75.221655 152.477546 
L 78.296036 151.313006 
L 81.370416 150.148466 
L 84.444796 148.983927 
L 87.519176 147.819387 
L 90.593556 146.654847 
L 93.667936 145.490307 
L 96.742317 144.325767 
L 99.816697 143.161228 
L 102.891077 141.996688 
L 105.965457 140.832148 
L 109.039837 139.667608 
L 112.114217 138.503069 
L 115.188598 137.338529 
L 118.262978 136.173989 
L 121.337358 135.009449 
L 124.411738 133.844909 
L 127.486118 132.68037 
L 130.560498 131.51583 
L 133.634879 130.35129 
L 136.709259 129.18675 
L 139.783639 128.022211 
L 142.858019 126.857671 
L 145.932399 125.693131 
L 149.006779 124.528591 
L 152.08116 123.364051 
L 155.15554 122.199512 
L 158.22992 121.034972 
L 161.3043 119.870432 
L 164.37868 118.705892 
L 167.45306 117.541353 
L 170.527441 116.376813 
L 173.601821 115.212273 
L 176.676201 114.047733 
L 179.750581 112.883193 
L 182.824961 111.718654 
L 185.899341 110.554114 
L 188.973722 109.389574 
L 192.048102 108.225034 
L 195.122482 107.060495 
L 198.196862 105.895955 
L 201.271242 104.731415 
L 204.345622 103.566875 
L 207.420003 102.402335 
L 210.494383 101.237796 
L 213.568763 100.073256 
L 216.643143 98.908716 
L 219.717523 97.744176 
L 222.791903 96.579637 
L 225.866284 95.415097 
L 228.940664 94.250557 
L 232.015044 93.086017 
L 235.089424 91.921477 
L 238.163804 90.756938 
L 241.238184 89.592398 
L 244.312565 88.427858 
L 247.386945 87.263318 
L 250.461325 86.098779 
L 253.535705 84.934239 
L 256.610085 83.769699 
L 259.684465 82.605159 
L 262.758846 81.440619 
L 265.833226 80.27608 
L 268.907606 79.11154 
L 271.981986 77.947 
L 275.056366 76.78246 
L 278.130746 75.617921 
L 281.205127 74.453381 
L 284.279507 73.288841 
L 287.353887 72.124301 
L 290.428267 70.959761 
L 293.502647 69.795222 
L 296.577027 68.630682 
L 299.651408 67.466142 
L 302.725788 66.301602 
L 305.800168 65.137063 
L 308.874548 63.972523 
L 311.948928 62.807983 
L 315.023308 61.643443 
L 318.097689 60.478903 
L 321.172069 59.314364 
L 324.246449 58.149824 
L 327.320829 56.985284 
L 330.395209 55.820744 
L 333.469589 54.656205 
L 336.54397 53.491665 
L 339.61835 52.327125 
L 342.69273 51.162585 
L 345.76711 49.998045 
L 348.84149 48.833506 
L 351.91587 47.668966 
L 354.990251 46.504426 
L 358.064631 45.339886 
" style="fill:none;stroke:#ff7f0e;stroke-linecap:square;stroke-width:1.5;"/>
   </g>
   <g id="line2d_20">
    <path clip-path="url(#p84a2625fbe)" d="M 53.700994 108.805773 
L 56.775374 111.497878 
L 59.849755 114.125401 
L 62.924135 116.688341 
L 65.998515 119.186698 
L 69.072895 121.620473 
L 72.147275 123.989666 
L 75.221655 126.294276 
L 78.296036 128.534303 
L 81.370416 130.709748 
L 84.444796 132.82061 
L 87.519176 134.86689 
L 90.593556 136.848588 
L 93.667936 138.765702 
L 96.742317 140.618235 
L 99.816697 142.406184 
L 102.891077 144.129552 
L 105.965457 145.788336 
L 109.039837 147.382538 
L 112.114217 148.912158 
L 115.188598 150.377195 
L 118.262978 151.77765 
L 121.337358 153.113522 
L 124.411738 154.384811 
L 127.486118 155.591518 
L 130.560498 156.733643 
L 133.634879 157.811185 
L 136.709259 158.824144 
L 139.783639 159.772521 
L 142.858019 160.656315 
L 145.932399 161.475527 
L 149.006779 162.230157 
L 152.08116 162.920203 
L 155.15554 163.545668 
L 158.22992 164.106549 
L 161.3043 164.602849 
L 164.37868 165.034565 
L 167.45306 165.401699 
L 170.527441 165.704251 
L 173.601821 165.94222 
L 176.676201 166.115607 
L 179.750581 166.224411 
L 182.824961 166.268632 
L 185.899341 166.248271 
L 188.973722 166.163328 
L 192.048102 166.013802 
L 195.122482 165.799693 
L 198.196862 165.521002 
L 201.271242 165.177729 
L 204.345622 164.769872 
L 207.420003 164.297434 
L 210.494383 163.760413 
L 213.568763 163.158809 
L 216.643143 162.492623 
L 219.717523 161.761854 
L 222.791903 160.966502 
L 225.866284 160.106569 
L 228.940664 159.182052 
L 232.015044 158.192953 
L 235.089424 157.139272 
L 238.163804 156.021008 
L 241.238184 154.838162 
L 244.312565 153.590733 
L 247.386945 152.278721 
L 250.461325 150.902127 
L 253.535705 149.46095 
L 256.610085 147.955191 
L 259.684465 146.38485 
L 262.758846 144.749926 
L 265.833226 143.050419 
L 268.907606 141.28633 
L 271.981986 139.457658 
L 275.056366 137.564404 
L 278.130746 135.606567 
L 281.205127 133.584148 
L 284.279507 131.497146 
L 287.353887 129.345561 
L 290.428267 127.129395 
L 293.502647 124.848645 
L 296.577027 122.503313 
L 299.651408 120.093399 
L 302.725788 117.618902 
L 305.800168 115.079822 
L 308.874548 112.47616 
L 311.948928 109.807916 
L 315.023308 107.075088 
L 318.097689 104.277679 
L 321.172069 101.415687 
L 324.246449 98.489112 
L 327.320829 95.497955 
L 330.395209 92.442215 
L 333.469589 89.321893 
L 336.54397 86.136988 
L 339.61835 82.887501 
L 342.69273 79.573431 
L 345.76711 76.194779 
L 348.84149 72.751544 
L 351.91587 69.243726 
L 354.990251 65.671326 
L 358.064631 62.034344 
" style="fill:none;stroke:#2ca02c;stroke-linecap:square;stroke-width:1.5;"/>
   </g>
   <g id="line2d_21">
    <path clip-path="url(#p84a2625fbe)" d="M 53.700994 153.605594 
L 56.775374 148.157503 
L 59.849755 143.121875 
L 62.924135 138.489108 
L 65.998515 134.249602 
L 69.072895 130.393754 
L 72.147275 126.911965 
L 75.221655 123.794633 
L 78.296036 121.032157 
L 81.370416 118.614936 
L 84.444796 116.533369 
L 87.519176 114.777855 
L 90.593556 113.338793 
L 93.667936 112.206582 
L 96.742317 111.371621 
L 99.816697 110.824309 
L 102.891077 110.555044 
L 105.965457 110.554226 
L 109.039837 110.812254 
L 112.114217 111.319526 
L 115.188598 112.066442 
L 118.262978 113.043401 
L 121.337358 114.240801 
L 124.411738 115.649041 
L 127.486118 117.258521 
L 130.560498 119.05964 
L 133.634879 121.042796 
L 136.709259 123.198388 
L 139.783639 125.516815 
L 142.858019 127.988477 
L 145.932399 130.603772 
L 149.006779 133.353099 
L 152.08116 136.226857 
L 155.15554 139.215445 
L 158.22992 142.309262 
L 161.3043 145.498708 
L 164.37868 148.77418 
L 167.45306 152.126078 
L 170.527441 155.544801 
L 173.601821 159.020748 
L 176.676201 162.544318 
L 179.750581 166.105909 
L 182.824961 169.695922 
L 185.899341 173.304753 
L 188.973722 176.922804 
L 192.048102 180.540472 
L 195.122482 184.148157 
L 198.196862 187.736257 
L 201.271242 191.295172 
L 204.345622 194.8153 
L 207.420003 198.28704 
L 210.494383 201.700792 
L 213.568763 205.046954 
L 216.643143 208.315926 
L 219.717523 211.498106 
L 222.791903 214.583893 
L 225.866284 217.563686 
L 228.940664 220.427884 
L 232.015044 223.166886 
L 235.089424 225.771091 
L 238.163804 228.230899 
L 241.238184 230.536707 
L 244.312565 232.678915 
L 247.386945 234.647922 
L 250.461325 236.434127 
L 253.535705 238.027929 
L 256.610085 239.419726 
L 259.684465 240.599919 
L 262.758846 241.558904 
L 265.833226 242.287083 
L 268.907606 242.774853 
L 271.981986 243.012614 
L 275.056366 242.990764 
L 278.130746 242.699702 
L 281.205127 242.129828 
L 284.279507 241.271541 
L 287.353887 240.115239 
L 290.428267 238.651321 
L 293.502647 236.870186 
L 296.577027 234.762234 
L 299.651408 232.317863 
L 302.725788 229.527472 
L 305.800168 226.38146 
L 308.874548 222.870226 
L 311.948928 218.984169 
L 315.023308 214.713688 
L 318.097689 210.049182 
L 321.172069 204.98105 
L 324.246449 199.499691 
L 327.320829 193.595504 
L 330.395209 187.258887 
L 333.469589 180.480241 
L 336.54397 173.249963 
L 339.61835 165.558452 
L 342.69273 157.396108 
L 345.76711 148.75333 
L 348.84149 139.620517 
L 351.91587 129.988067 
L 354.990251 119.846379 
L 358.064631 109.185853 
" style="fill:none;stroke:#d62728;stroke-linecap:square;stroke-width:1.5;"/>
   </g>
   <g id="patch_3">
    <path d="M 38.482813 252.89625 
L 38.482813 35.45625 
" style="fill:none;stroke:#000000;stroke-linecap:square;stroke-linejoin:miter;stroke-width:0.8;"/>
   </g>
   <g id="patch_4">
    <path d="M 373.282813 252.89625 
L 373.282813 35.45625 
" style="fill:none;stroke:#000000;stroke-linecap:square;stroke-linejoin:miter;stroke-width:0.8;"/>
   </g>
   <g id="patch_5">
    <path d="M 38.482813 252.89625 
L 373.282813 252.89625 
" style="fill:none;stroke:#000000;stroke-linecap:square;stroke-linejoin:miter;stroke-width:0.8;"/>
   </g>
   <g id="patch_6">
    <path d="M 38.482813 35.45625 
L 373.282813 35.45625 
" style="fill:none;stroke:#000000;stroke-linecap:square;stroke-linejoin:miter;stroke-width:0.8;"/>
   </g>
  </g>
  <g id="axes_2">
   <g id="matplotlib.axis_3">
    <g id="xtick_9">
     <g id="line2d_22">
      <defs>
       <path d="M 0 0 
L 0 -3.5 
" id="m6ec9aa22af" style="stroke:#000000;stroke-width:0.8;"/>
      </defs>
      <g>
       <use style="stroke:#000000;stroke-width:0.8;" x="53.700994" xlink:href="#m6ec9aa22af" y="35.45625"/>
      </g>
     </g>
     <g id="text_19">
      <!-- -1.00 -->
      <defs>
       <path d="M 4.890625 31.390625 
L 31.203125 31.390625 
L 31.203125 23.390625 
L 4.890625 23.390625 
z
" id="DejaVuSans-45"/>
      </defs>
      <g transform="translate(40.764276 26.376562)scale(0.1 -0.1)">
       <use xlink:href="#DejaVuSans-45"/>
       <use x="36.083984" xlink:href="#DejaVuSans-49"/>
       <use x="99.707031" xlink:href="#DejaVuSans-46"/>
       <use x="131.494141" xlink:href="#DejaVuSans-48"/>
       <use x="195.117188" xlink:href="#DejaVuSans-48"/>
      </g>
     </g>
    </g>
    <g id="xtick_10">
     <g id="line2d_23">
      <g>
       <use style="stroke:#000000;stroke-width:0.8;" x="97.181514" xlink:href="#m6ec9aa22af" y="35.45625"/>
      </g>
     </g>
     <g id="text_20">
      <!-- -0.71 -->
      <g transform="translate(84.244795 26.376562)scale(0.1 -0.1)">
       <use xlink:href="#DejaVuSans-45"/>
       <use x="36.083984" xlink:href="#DejaVuSans-48"/>
       <use x="99.707031" xlink:href="#DejaVuSans-46"/>
       <use x="131.494141" xlink:href="#DejaVuSans-55"/>
       <use x="195.117188" xlink:href="#DejaVuSans-49"/>
      </g>
     </g>
    </g>
    <g id="xtick_11">
     <g id="line2d_24">
      <g>
       <use style="stroke:#000000;stroke-width:0.8;" x="140.662033" xlink:href="#m6ec9aa22af" y="35.45625"/>
      </g>
     </g>
     <g id="text_21">
      <!-- -0.43 -->
      <g transform="translate(127.725315 26.376562)scale(0.1 -0.1)">
       <use xlink:href="#DejaVuSans-45"/>
       <use x="36.083984" xlink:href="#DejaVuSans-48"/>
       <use x="99.707031" xlink:href="#DejaVuSans-46"/>
       <use x="131.494141" xlink:href="#DejaVuSans-52"/>
       <use x="195.117188" xlink:href="#DejaVuSans-51"/>
      </g>
     </g>
    </g>
    <g id="xtick_12">
     <g id="line2d_25">
      <g>
       <use style="stroke:#000000;stroke-width:0.8;" x="227.623072" xlink:href="#m6ec9aa22af" y="35.45625"/>
      </g>
     </g>
     <g id="text_22">
      <!-- 0.14 -->
      <g transform="translate(216.49026 26.376562)scale(0.1 -0.1)">
       <use xlink:href="#DejaVuSans-48"/>
       <use x="63.623047" xlink:href="#DejaVuSans-46"/>
       <use x="95.410156" xlink:href="#DejaVuSans-49"/>
       <use x="159.033203" xlink:href="#DejaVuSans-52"/>
      </g>
     </g>
    </g>
    <g id="xtick_13">
     <g id="line2d_26">
      <g>
       <use style="stroke:#000000;stroke-width:0.8;" x="358.064631" xlink:href="#m6ec9aa22af" y="35.45625"/>
      </g>
     </g>
     <g id="text_23">
      <!-- 1.00 -->
      <g transform="translate(346.931818 26.376562)scale(0.1 -0.1)">
       <use xlink:href="#DejaVuSans-49"/>
       <use x="63.623047" xlink:href="#DejaVuSans-46"/>
       <use x="95.410156" xlink:href="#DejaVuSans-48"/>
       <use x="159.033203" xlink:href="#DejaVuSans-48"/>
      </g>
     </g>
    </g>
    <g id="xtick_14">
     <g id="line2d_27">
      <g>
       <use style="stroke:#000000;stroke-width:0.8;" x="184.142553" xlink:href="#m6ec9aa22af" y="35.45625"/>
      </g>
     </g>
     <g id="text_24">
      <!-- -0.14 -->
      <g transform="translate(171.205834 26.376562)scale(0.1 -0.1)">
       <use xlink:href="#DejaVuSans-45"/>
       <use x="36.083984" xlink:href="#DejaVuSans-48"/>
       <use x="99.707031" xlink:href="#DejaVuSans-46"/>
       <use x="131.494141" xlink:href="#DejaVuSans-49"/>
       <use x="195.117188" xlink:href="#DejaVuSans-52"/>
      </g>
     </g>
    </g>
    <g id="text_25">
     <!-- $q_{\mathrm{norm}}$ -->
     <defs>
      <path d="M 41.703125 8.203125 
Q 38.09375 3.46875 33.171875 1.015625 
Q 28.265625 -1.421875 22.3125 -1.421875 
Q 14.015625 -1.421875 9.296875 4.171875 
Q 4.59375 9.765625 4.59375 19.578125 
Q 4.59375 27.484375 7.5 34.859375 
Q 10.40625 42.234375 15.828125 48.09375 
Q 19.34375 51.90625 23.90625 53.953125 
Q 28.46875 56 33.5 56 
Q 39.546875 56 43.453125 53.609375 
Q 47.359375 51.21875 49.125 46.390625 
L 50.6875 54.59375 
L 59.71875 54.59375 
L 45.125 -20.609375 
L 36.078125 -20.609375 
z
M 13.921875 20.90625 
Q 13.921875 13.671875 16.9375 9.890625 
Q 19.96875 6.109375 25.6875 6.109375 
Q 34.1875 6.109375 40.1875 14.234375 
Q 46.1875 22.359375 46.1875 33.984375 
Q 46.1875 41.015625 43.078125 44.75 
Q 39.984375 48.484375 34.1875 48.484375 
Q 29.9375 48.484375 26.3125 46.5 
Q 22.703125 44.53125 20.015625 40.71875 
Q 17.1875 36.71875 15.546875 31.34375 
Q 13.921875 25.984375 13.921875 20.90625 
z
" id="DejaVuSans-Oblique-113"/>
      <path d="M 54.890625 33.015625 
L 54.890625 0 
L 45.90625 0 
L 45.90625 32.71875 
Q 45.90625 40.484375 42.875 44.328125 
Q 39.84375 48.1875 33.796875 48.1875 
Q 26.515625 48.1875 22.3125 43.546875 
Q 18.109375 38.921875 18.109375 30.90625 
L 18.109375 0 
L 9.078125 0 
L 9.078125 54.6875 
L 18.109375 54.6875 
L 18.109375 46.1875 
Q 21.34375 51.125 25.703125 53.5625 
Q 30.078125 56 35.796875 56 
Q 45.21875 56 50.046875 50.171875 
Q 54.890625 44.34375 54.890625 33.015625 
z
" id="DejaVuSans-110"/>
      <path d="M 30.609375 48.390625 
Q 23.390625 48.390625 19.1875 42.75 
Q 14.984375 37.109375 14.984375 27.296875 
Q 14.984375 17.484375 19.15625 11.84375 
Q 23.34375 6.203125 30.609375 6.203125 
Q 37.796875 6.203125 41.984375 11.859375 
Q 46.1875 17.53125 46.1875 27.296875 
Q 46.1875 37.015625 41.984375 42.703125 
Q 37.796875 48.390625 30.609375 48.390625 
z
M 30.609375 56 
Q 42.328125 56 49.015625 48.375 
Q 55.71875 40.765625 55.71875 27.296875 
Q 55.71875 13.875 49.015625 6.21875 
Q 42.328125 -1.421875 30.609375 -1.421875 
Q 18.84375 -1.421875 12.171875 6.21875 
Q 5.515625 13.875 5.515625 27.296875 
Q 5.515625 40.765625 12.171875 48.375 
Q 18.84375 56 30.609375 56 
z
" id="DejaVuSans-111"/>
      <path d="M 41.109375 46.296875 
Q 39.59375 47.171875 37.8125 47.578125 
Q 36.03125 48 33.890625 48 
Q 26.265625 48 22.1875 43.046875 
Q 18.109375 38.09375 18.109375 28.8125 
L 18.109375 0 
L 9.078125 0 
L 9.078125 54.6875 
L 18.109375 54.6875 
L 18.109375 46.1875 
Q 20.953125 51.171875 25.484375 53.578125 
Q 30.03125 56 36.53125 56 
Q 37.453125 56 38.578125 55.875 
Q 39.703125 55.765625 41.0625 55.515625 
z
" id="DejaVuSans-114"/>
      <path d="M 52 44.1875 
Q 55.375 50.25 60.0625 53.125 
Q 64.75 56 71.09375 56 
Q 79.640625 56 84.28125 50.015625 
Q 88.921875 44.046875 88.921875 33.015625 
L 88.921875 0 
L 79.890625 0 
L 79.890625 32.71875 
Q 79.890625 40.578125 77.09375 44.375 
Q 74.3125 48.1875 68.609375 48.1875 
Q 61.625 48.1875 57.5625 43.546875 
Q 53.515625 38.921875 53.515625 30.90625 
L 53.515625 0 
L 44.484375 0 
L 44.484375 32.71875 
Q 44.484375 40.625 41.703125 44.40625 
Q 38.921875 48.1875 33.109375 48.1875 
Q 26.21875 48.1875 22.15625 43.53125 
Q 18.109375 38.875 18.109375 30.90625 
L 18.109375 0 
L 9.078125 0 
L 9.078125 54.6875 
L 18.109375 54.6875 
L 18.109375 46.1875 
Q 21.1875 51.21875 25.484375 53.609375 
Q 29.78125 56 35.6875 56 
Q 41.65625 56 45.828125 52.96875 
Q 50 49.953125 52 44.1875 
z
" id="DejaVuSans-109"/>
     </defs>
     <g transform="translate(193.332812 14.778125)scale(0.1 -0.1)">
      <use xlink:href="#DejaVuSans-Oblique-113"/>
      <use transform="translate(63.476562 -16.40625)scale(0.7)" xlink:href="#DejaVuSans-110"/>
      <use transform="translate(107.841797 -16.40625)scale(0.7)" xlink:href="#DejaVuSans-111"/>
      <use transform="translate(150.668945 -16.40625)scale(0.7)" xlink:href="#DejaVuSans-114"/>
      <use transform="translate(179.448242 -16.40625)scale(0.7)" xlink:href="#DejaVuSans-109"/>
     </g>
    </g>
   </g>
   <g id="patch_7">
    <path d="M 38.482813 252.89625 
L 38.482813 35.45625 
" style="fill:none;stroke:#000000;stroke-linecap:square;stroke-linejoin:miter;stroke-width:0.8;"/>
   </g>
   <g id="patch_8">
    <path d="M 373.282813 252.89625 
L 373.282813 35.45625 
" style="fill:none;stroke:#000000;stroke-linecap:square;stroke-linejoin:miter;stroke-width:0.8;"/>
   </g>
   <g id="patch_9">
    <path d="M 38.482813 252.89625 
L 373.282813 252.89625 
" style="fill:none;stroke:#000000;stroke-linecap:square;stroke-linejoin:miter;stroke-width:0.8;"/>
   </g>
   <g id="patch_10">
    <path d="M 38.482813 35.45625 
L 373.282813 35.45625 
" style="fill:none;stroke:#000000;stroke-linecap:square;stroke-linejoin:miter;stroke-width:0.8;"/>
   </g>
  </g>
 </g>
 <defs>
  <clipPath id="p84a2625fbe">
   <rect height="217.44" width="334.8" x="38.482813" y="35.45625"/>
  </clipPath>
 </defs>
</svg>
