<?xml version="1.0" encoding="utf-8" standalone="no"?>
<!DOCTYPE svg PUBLIC "-//W3C//DTD SVG 1.1//EN"
  "http://www.w3.org/Graphics/SVG/1.1/DTD/svg11.dtd">
<!-- Created with matplotlib (https://matplotlib.org/) -->
<svg height="281.14625pt" version="1.1" viewBox="0 0 406.885937 281.14625" width="406.885937pt" xmlns="http://www.w3.org/2000/svg" xmlns:xlink="http://www.w3.org/1999/xlink">
 <defs>
  <style type="text/css">
*{stroke-linecap:butt;stroke-linejoin:round;}
  </style>
 </defs>
 <g id="figure_1">
  <g id="patch_1">
   <path d="M 0 281.14625 
L 406.885937 281.14625 
L 406.885937 0 
L 0 0 
z
" style="fill:#ffffff;"/>
  </g>
  <g id="axes_1">
   <g id="patch_2">
    <path d="M 64.885938 224.64 
L 399.685938 224.64 
L 399.685938 7.2 
L 64.885938 7.2 
z
" style="fill:#ffffff;"/>
   </g>
   <g id="patch_3">
    <path clip-path="url(#p19c160e8de)" d="M 80.104119 54.680015 
L 81.641309 54.680015 
L 81.641309 48.997431 
L 80.104119 48.997431 
z
" style="fill:#1f77b4;"/>
   </g>
   <g id="patch_4">
    <path clip-path="url(#p19c160e8de)" d="M 81.641309 54.680015 
L 83.178499 54.680015 
L 83.178499 53.563793 
L 81.641309 53.563793 
z
" style="fill:#1f77b4;"/>
   </g>
   <g id="patch_5">
    <path clip-path="url(#p19c160e8de)" d="M 83.178499 54.680015 
L 84.71569 54.680015 
L 84.71569 141.390151 
L 83.178499 141.390151 
z
" style="fill:#1f77b4;"/>
   </g>
   <g id="patch_6">
    <path clip-path="url(#p19c160e8de)" d="M 84.71569 54.680015 
L 86.25288 54.680015 
L 86.25288 40.473556 
L 84.71569 40.473556 
z
" style="fill:#1f77b4;"/>
   </g>
   <g id="patch_7">
    <path clip-path="url(#p19c160e8de)" d="M 86.25288 54.680015 
L 87.79007 54.680015 
L 87.79007 112.875759 
L 86.25288 112.875759 
z
" style="fill:#1f77b4;"/>
   </g>
   <g id="patch_8">
    <path clip-path="url(#p19c160e8de)" d="M 87.79007 54.680015 
L 89.32726 54.680015 
L 89.32726 21.345574 
L 87.79007 21.345574 
z
" style="fill:#1f77b4;"/>
   </g>
   <g id="patch_9">
    <path clip-path="url(#p19c160e8de)" d="M 89.32726 54.680015 
L 90.86445 54.680015 
L 90.86445 88.724779 
L 89.32726 88.724779 
z
" style="fill:#1f77b4;"/>
   </g>
   <g id="patch_10">
    <path clip-path="url(#p19c160e8de)" d="M 90.86445 54.680015 
L 92.40164 54.680015 
L 92.40164 53.107157 
L 90.86445 53.107157 
z
" style="fill:#1f77b4;"/>
   </g>
   <g id="patch_11">
    <path clip-path="url(#p19c160e8de)" d="M 92.40164 54.680015 
L 93.93883 54.680015 
L 93.93883 55.796237 
L 92.40164 55.796237 
z
" style="fill:#1f77b4;"/>
   </g>
   <g id="patch_12">
    <path clip-path="url(#p19c160e8de)" d="M 93.93883 54.680015 
L 95.47602 54.680015 
L 95.47602 36.972679 
L 93.93883 36.972679 
z
" style="fill:#1f77b4;"/>
   </g>
   <g id="patch_13">
    <path clip-path="url(#p19c160e8de)" d="M 95.47602 54.680015 
L 97.01321 54.680015 
L 97.01321 33.370327 
L 95.47602 33.370327 
z
" style="fill:#1f77b4;"/>
   </g>
   <g id="patch_14">
    <path clip-path="url(#p19c160e8de)" d="M 97.01321 54.680015 
L 98.5504 54.680015 
L 98.5504 35.298346 
L 97.01321 35.298346 
z
" style="fill:#1f77b4;"/>
   </g>
   <g id="patch_15">
    <path clip-path="url(#p19c160e8de)" d="M 98.5504 54.680015 
L 100.08759 54.680015 
L 100.08759 25.150875 
L 98.5504 25.150875 
z
" style="fill:#1f77b4;"/>
   </g>
   <g id="patch_16">
    <path clip-path="url(#p19c160e8de)" d="M 100.08759 54.680015 
L 101.62478 54.680015 
L 101.62478 27.992167 
L 100.08759 27.992167 
z
" style="fill:#1f77b4;"/>
   </g>
   <g id="patch_17">
    <path clip-path="url(#p19c160e8de)" d="M 101.62478 54.680015 
L 103.161971 54.680015 
L 103.161971 56.963196 
L 101.62478 56.963196 
z
" style="fill:#1f77b4;"/>
   </g>
   <g id="patch_18">
    <path clip-path="url(#p19c160e8de)" d="M 103.161971 54.680015 
L 104.699161 54.680015 
L 104.699161 21.80221 
L 103.161971 21.80221 
z
" style="fill:#1f77b4;"/>
   </g>
   <g id="patch_19">
    <path clip-path="url(#p19c160e8de)" d="M 104.699161 54.680015 
L 106.236351 54.680015 
L 106.236351 17.083636 
L 104.699161 17.083636 
z
" style="fill:#1f77b4;"/>
   </g>
   <g id="patch_20">
    <path clip-path="url(#p19c160e8de)" d="M 106.236351 54.680015 
L 107.773541 54.680015 
L 107.773541 21.80221 
L 106.236351 21.80221 
z
" style="fill:#1f77b4;"/>
   </g>
   <g id="patch_21">
    <path clip-path="url(#p19c160e8de)" d="M 107.773541 54.680015 
L 109.310731 54.680015 
L 109.310731 75.228643 
L 107.773541 75.228643 
z
" style="fill:#1f77b4;"/>
   </g>
   <g id="patch_22">
    <path clip-path="url(#p19c160e8de)" d="M 109.310731 54.680015 
L 110.847921 54.680015 
L 110.847921 25.049401 
L 109.310731 25.049401 
z
" style="fill:#1f77b4;"/>
   </g>
   <g id="patch_23">
    <path clip-path="url(#p19c160e8de)" d="M 110.847921 54.680015 
L 112.385111 54.680015 
L 112.385111 29.159126 
L 110.847921 29.159126 
z
" style="fill:#1f77b4;"/>
   </g>
   <g id="patch_24">
    <path clip-path="url(#p19c160e8de)" d="M 112.385111 54.680015 
L 113.922301 54.680015 
L 113.922301 26.672996 
L 112.385111 26.672996 
z
" style="fill:#1f77b4;"/>
   </g>
   <g id="patch_25">
    <path clip-path="url(#p19c160e8de)" d="M 113.922301 54.680015 
L 115.459491 54.680015 
L 115.459491 27.637006 
L 113.922301 27.637006 
z
" style="fill:#1f77b4;"/>
   </g>
   <g id="patch_26">
    <path clip-path="url(#p19c160e8de)" d="M 115.459491 54.680015 
L 116.996681 54.680015 
L 116.996681 133.830286 
L 115.459491 133.830286 
z
" style="fill:#1f77b4;"/>
   </g>
   <g id="patch_27">
    <path clip-path="url(#p19c160e8de)" d="M 116.996681 54.680015 
L 118.533871 54.680015 
L 118.533871 42.807474 
L 116.996681 42.807474 
z
" style="fill:#1f77b4;"/>
   </g>
   <g id="patch_28">
    <path clip-path="url(#p19c160e8de)" d="M 118.533871 54.680015 
L 120.071061 54.680015 
L 120.071061 40.575031 
L 118.533871 40.575031 
z
" style="fill:#1f77b4;"/>
   </g>
   <g id="patch_29">
    <path clip-path="url(#p19c160e8de)" d="M 120.071061 54.680015 
L 121.608252 54.680015 
L 121.608252 39.560284 
L 120.071061 39.560284 
z
" style="fill:#1f77b4;"/>
   </g>
   <g id="patch_30">
    <path clip-path="url(#p19c160e8de)" d="M 121.608252 54.680015 
L 123.145442 54.680015 
L 123.145442 214.756364 
L 121.608252 214.756364 
z
" style="fill:#1f77b4;"/>
   </g>
   <g id="patch_31">
    <path clip-path="url(#p19c160e8de)" d="M 123.145442 54.680015 
L 124.682632 54.680015 
L 124.682632 52.143147 
L 123.145442 52.143147 
z
" style="fill:#1f77b4;"/>
   </g>
   <g id="patch_32">
    <path clip-path="url(#p19c160e8de)" d="M 124.682632 54.680015 
L 126.219822 54.680015 
L 126.219822 52.954945 
L 124.682632 52.954945 
z
" style="fill:#1f77b4;"/>
   </g>
   <g id="patch_33">
    <path clip-path="url(#p19c160e8de)" d="M 126.219822 54.680015 
L 127.757012 54.680015 
L 127.757012 54.071167 
L 126.219822 54.071167 
z
" style="fill:#1f77b4;"/>
   </g>
   <g id="patch_34">
    <path clip-path="url(#p19c160e8de)" d="M 127.757012 54.680015 
L 129.294202 54.680015 
L 129.294202 56.760246 
L 127.757012 56.760246 
z
" style="fill:#1f77b4;"/>
   </g>
   <g id="patch_35">
    <path clip-path="url(#p19c160e8de)" d="M 129.294202 54.680015 
L 130.831392 54.680015 
L 130.831392 58.180892 
L 129.294202 58.180892 
z
" style="fill:#1f77b4;"/>
   </g>
   <g id="patch_36">
    <path clip-path="url(#p19c160e8de)" d="M 130.831392 54.680015 
L 132.368582 54.680015 
L 132.368582 56.861721 
L 130.831392 56.861721 
z
" style="fill:#1f77b4;"/>
   </g>
   <g id="patch_37">
    <path clip-path="url(#p19c160e8de)" d="M 132.368582 54.680015 
L 133.905772 54.680015 
L 133.905772 58.688266 
L 132.368582 58.688266 
z
" style="fill:#1f77b4;"/>
   </g>
   <g id="patch_38">
    <path clip-path="url(#p19c160e8de)" d="M 133.905772 54.680015 
L 135.442962 54.680015 
L 135.442962 49.301856 
L 133.905772 49.301856 
z
" style="fill:#1f77b4;"/>
   </g>
   <g id="patch_39">
    <path clip-path="url(#p19c160e8de)" d="M 135.442962 54.680015 
L 136.980152 54.680015 
L 136.980152 48.64227 
L 135.442962 48.64227 
z
" style="fill:#1f77b4;"/>
   </g>
   <g id="patch_40">
    <path clip-path="url(#p19c160e8de)" d="M 136.980152 54.680015 
L 138.517342 54.680015 
L 138.517342 54.020429 
L 136.980152 54.020429 
z
" style="fill:#1f77b4;"/>
   </g>
   <g id="patch_41">
    <path clip-path="url(#p19c160e8de)" d="M 138.517342 54.680015 
L 140.054533 54.680015 
L 140.054533 51.787986 
L 138.517342 51.787986 
z
" style="fill:#1f77b4;"/>
   </g>
   <g id="patch_42">
    <path clip-path="url(#p19c160e8de)" d="M 140.054533 54.680015 
L 141.591723 54.680015 
L 141.591723 49.301856 
L 140.054533 49.301856 
z
" style="fill:#1f77b4;"/>
   </g>
   <g id="patch_43">
    <path clip-path="url(#p19c160e8de)" d="M 141.591723 54.680015 
L 143.128913 54.680015 
L 143.128913 50.519552 
L 141.591723 50.519552 
z
" style="fill:#1f77b4;"/>
   </g>
   <g id="patch_44">
    <path clip-path="url(#p19c160e8de)" d="M 143.128913 54.680015 
L 144.666103 54.680015 
L 144.666103 48.540795 
L 143.128913 48.540795 
z
" style="fill:#1f77b4;"/>
   </g>
   <g id="patch_45">
    <path clip-path="url(#p19c160e8de)" d="M 144.666103 54.680015 
L 146.203293 54.680015 
L 146.203293 46.511301 
L 144.666103 46.511301 
z
" style="fill:#1f77b4;"/>
   </g>
   <g id="patch_46">
    <path clip-path="url(#p19c160e8de)" d="M 146.203293 54.680015 
L 147.740483 54.680015 
L 147.740483 47.526048 
L 146.203293 47.526048 
z
" style="fill:#1f77b4;"/>
   </g>
   <g id="patch_47">
    <path clip-path="url(#p19c160e8de)" d="M 147.740483 54.680015 
L 149.277673 54.680015 
L 149.277673 51.432824 
L 147.740483 51.432824 
z
" style="fill:#1f77b4;"/>
   </g>
   <g id="patch_48">
    <path clip-path="url(#p19c160e8de)" d="M 149.277673 54.680015 
L 150.814863 54.680015 
L 150.814863 46.460564 
L 149.277673 46.460564 
z
" style="fill:#1f77b4;"/>
   </g>
   <g id="patch_49">
    <path clip-path="url(#p19c160e8de)" d="M 150.814863 54.680015 
L 152.352053 54.680015 
L 152.352053 50.316603 
L 150.814863 50.316603 
z
" style="fill:#1f77b4;"/>
   </g>
   <g id="patch_50">
    <path clip-path="url(#p19c160e8de)" d="M 152.352053 54.680015 
L 153.889243 54.680015 
L 153.889243 54.121904 
L 152.352053 54.121904 
z
" style="fill:#1f77b4;"/>
   </g>
   <g id="patch_51">
    <path clip-path="url(#p19c160e8de)" d="M 153.889243 54.680015 
L 155.426433 54.680015 
L 155.426433 173.709845 
L 153.889243 173.709845 
z
" style="fill:#1f77b4;"/>
   </g>
   <g id="patch_52">
    <path clip-path="url(#p19c160e8de)" d="M 155.426433 54.680015 
L 156.963623 54.680015 
L 156.963623 52.599783 
L 155.426433 52.599783 
z
" style="fill:#1f77b4;"/>
   </g>
   <g id="patch_53">
    <path clip-path="url(#p19c160e8de)" d="M 156.963623 54.680015 
L 158.500814 54.680015 
L 158.500814 53.969692 
L 156.963623 53.969692 
z
" style="fill:#1f77b4;"/>
   </g>
   <g id="patch_54">
    <path clip-path="url(#p19c160e8de)" d="M 158.500814 54.680015 
L 160.038004 54.680015 
L 160.038004 55.238126 
L 158.500814 55.238126 
z
" style="fill:#1f77b4;"/>
   </g>
   <g id="patch_55">
    <path clip-path="url(#p19c160e8de)" d="M 160.038004 54.680015 
L 161.575194 54.680015 
L 161.575194 51.737248 
L 160.038004 51.737248 
z
" style="fill:#1f77b4;"/>
   </g>
   <g id="patch_56">
    <path clip-path="url(#p19c160e8de)" d="M 161.575194 54.680015 
L 163.112384 54.680015 
L 163.112384 54.477066 
L 161.575194 54.477066 
z
" style="fill:#1f77b4;"/>
   </g>
   <g id="patch_57">
    <path clip-path="url(#p19c160e8de)" d="M 163.112384 54.680015 
L 164.649574 54.680015 
L 164.649574 53.868217 
L 163.112384 53.868217 
z
" style="fill:#1f77b4;"/>
   </g>
   <g id="patch_58">
    <path clip-path="url(#p19c160e8de)" d="M 164.649574 54.680015 
L 166.186764 54.680015 
L 166.186764 52.193885 
L 164.649574 52.193885 
z
" style="fill:#1f77b4;"/>
   </g>
   <g id="patch_59">
    <path clip-path="url(#p19c160e8de)" d="M 166.186764 54.680015 
L 167.723954 54.680015 
L 167.723954 56.861721 
L 166.186764 56.861721 
z
" style="fill:#1f77b4;"/>
   </g>
   <g id="patch_60">
    <path clip-path="url(#p19c160e8de)" d="M 167.723954 54.680015 
L 169.261144 54.680015 
L 169.261144 53.81748 
L 167.723954 53.81748 
z
" style="fill:#1f77b4;"/>
   </g>
   <g id="patch_61">
    <path clip-path="url(#p19c160e8de)" d="M 169.261144 54.680015 
L 170.798334 54.680015 
L 170.798334 53.969692 
L 169.261144 53.969692 
z
" style="fill:#1f77b4;"/>
   </g>
   <g id="patch_62">
    <path clip-path="url(#p19c160e8de)" d="M 170.798334 54.680015 
L 172.335524 54.680015 
L 172.335524 54.020429 
L 170.798334 54.020429 
z
" style="fill:#1f77b4;"/>
   </g>
   <g id="patch_63">
    <path clip-path="url(#p19c160e8de)" d="M 172.335524 54.680015 
L 173.872714 54.680015 
L 173.872714 55.035176 
L 172.335524 55.035176 
z
" style="fill:#1f77b4;"/>
   </g>
   <g id="patch_64">
    <path clip-path="url(#p19c160e8de)" d="M 173.872714 54.680015 
L 175.409904 54.680015 
L 175.409904 60.768497 
L 173.872714 60.768497 
z
" style="fill:#1f77b4;"/>
   </g>
   <g id="patch_65">
    <path clip-path="url(#p19c160e8de)" d="M 175.409904 54.680015 
L 176.947095 54.680015 
L 176.947095 54.071167 
L 175.409904 54.071167 
z
" style="fill:#1f77b4;"/>
   </g>
   <g id="patch_66">
    <path clip-path="url(#p19c160e8de)" d="M 176.947095 54.680015 
L 178.484285 54.680015 
L 178.484285 55.238126 
L 176.947095 55.238126 
z
" style="fill:#1f77b4;"/>
   </g>
   <g id="patch_67">
    <path clip-path="url(#p19c160e8de)" d="M 178.484285 54.680015 
L 180.021475 54.680015 
L 180.021475 55.238126 
L 178.484285 55.238126 
z
" style="fill:#1f77b4;"/>
   </g>
   <g id="patch_68">
    <path clip-path="url(#p19c160e8de)" d="M 180.021475 54.680015 
L 181.558665 54.680015 
L 181.558665 51.1284 
L 180.021475 51.1284 
z
" style="fill:#1f77b4;"/>
   </g>
   <g id="patch_69">
    <path clip-path="url(#p19c160e8de)" d="M 181.558665 54.680015 
L 183.095855 54.680015 
L 183.095855 55.796237 
L 181.558665 55.796237 
z
" style="fill:#1f77b4;"/>
   </g>
   <g id="patch_70">
    <path clip-path="url(#p19c160e8de)" d="M 183.095855 54.680015 
L 184.633045 54.680015 
L 184.633045 54.629278 
L 183.095855 54.629278 
z
" style="fill:#1f77b4;"/>
   </g>
   <g id="patch_71">
    <path clip-path="url(#p19c160e8de)" d="M 184.633045 54.680015 
L 186.170235 54.680015 
L 186.170235 55.491813 
L 184.633045 55.491813 
z
" style="fill:#1f77b4;"/>
   </g>
   <g id="patch_72">
    <path clip-path="url(#p19c160e8de)" d="M 186.170235 54.680015 
L 187.707425 54.680015 
L 187.707425 57.166145 
L 186.170235 57.166145 
z
" style="fill:#1f77b4;"/>
   </g>
   <g id="patch_73">
    <path clip-path="url(#p19c160e8de)" d="M 187.707425 54.680015 
L 189.244615 54.680015 
L 189.244615 55.593287 
L 187.707425 55.593287 
z
" style="fill:#1f77b4;"/>
   </g>
   <g id="patch_74">
    <path clip-path="url(#p19c160e8de)" d="M 189.244615 54.680015 
L 190.781805 54.680015 
L 190.781805 59.449326 
L 189.244615 59.449326 
z
" style="fill:#1f77b4;"/>
   </g>
   <g id="patch_75">
    <path clip-path="url(#p19c160e8de)" d="M 190.781805 54.680015 
L 192.318995 54.680015 
L 192.318995 56.151398 
L 190.781805 56.151398 
z
" style="fill:#1f77b4;"/>
   </g>
   <g id="patch_76">
    <path clip-path="url(#p19c160e8de)" d="M 192.318995 54.680015 
L 193.856185 54.680015 
L 193.856185 57.521307 
L 192.318995 57.521307 
z
" style="fill:#1f77b4;"/>
   </g>
   <g id="patch_77">
    <path clip-path="url(#p19c160e8de)" d="M 193.856185 54.680015 
L 195.393376 54.680015 
L 195.393376 52.244622 
L 193.856185 52.244622 
z
" style="fill:#1f77b4;"/>
   </g>
   <g id="patch_78">
    <path clip-path="url(#p19c160e8de)" d="M 195.393376 54.680015 
L 196.930566 54.680015 
L 196.930566 61.935456 
L 195.393376 61.935456 
z
" style="fill:#1f77b4;"/>
   </g>
   <g id="patch_79">
    <path clip-path="url(#p19c160e8de)" d="M 196.930566 54.680015 
L 198.467756 54.680015 
L 198.467756 53.716005 
L 196.930566 53.716005 
z
" style="fill:#1f77b4;"/>
   </g>
   <g id="patch_80">
    <path clip-path="url(#p19c160e8de)" d="M 198.467756 54.680015 
L 200.004946 54.680015 
L 200.004946 56.810984 
L 198.467756 56.810984 
z
" style="fill:#1f77b4;"/>
   </g>
   <g id="patch_81">
    <path clip-path="url(#p19c160e8de)" d="M 200.004946 54.680015 
L 201.542136 54.680015 
L 201.542136 55.694762 
L 200.004946 55.694762 
z
" style="fill:#1f77b4;"/>
   </g>
   <g id="patch_82">
    <path clip-path="url(#p19c160e8de)" d="M 201.542136 54.680015 
L 203.079326 54.680015 
L 203.079326 53.411581 
L 201.542136 53.411581 
z
" style="fill:#1f77b4;"/>
   </g>
   <g id="patch_83">
    <path clip-path="url(#p19c160e8de)" d="M 203.079326 54.680015 
L 204.616516 54.680015 
L 204.616516 52.295359 
L 203.079326 52.295359 
z
" style="fill:#1f77b4;"/>
   </g>
   <g id="patch_84">
    <path clip-path="url(#p19c160e8de)" d="M 204.616516 54.680015 
L 206.153706 54.680015 
L 206.153706 51.382087 
L 204.616516 51.382087 
z
" style="fill:#1f77b4;"/>
   </g>
   <g id="patch_85">
    <path clip-path="url(#p19c160e8de)" d="M 206.153706 54.680015 
L 207.690896 54.680015 
L 207.690896 53.310106 
L 206.153706 53.310106 
z
" style="fill:#1f77b4;"/>
   </g>
   <g id="patch_86">
    <path clip-path="url(#p19c160e8de)" d="M 207.690896 54.680015 
L 209.228086 54.680015 
L 209.228086 54.172641 
L 207.690896 54.172641 
z
" style="fill:#1f77b4;"/>
   </g>
   <g id="patch_87">
    <path clip-path="url(#p19c160e8de)" d="M 209.228086 54.680015 
L 210.765276 54.680015 
L 210.765276 55.339601 
L 209.228086 55.339601 
z
" style="fill:#1f77b4;"/>
   </g>
   <g id="patch_88">
    <path clip-path="url(#p19c160e8de)" d="M 210.765276 54.680015 
L 212.302466 54.680015 
L 212.302466 53.563793 
L 210.765276 53.563793 
z
" style="fill:#1f77b4;"/>
   </g>
   <g id="patch_89">
    <path clip-path="url(#p19c160e8de)" d="M 212.302466 54.680015 
L 213.839657 54.680015 
L 213.839657 56.354348 
L 212.302466 56.354348 
z
" style="fill:#1f77b4;"/>
   </g>
   <g id="patch_90">
    <path clip-path="url(#p19c160e8de)" d="M 213.839657 54.680015 
L 215.376847 54.680015 
L 215.376847 53.563793 
L 213.839657 53.563793 
z
" style="fill:#1f77b4;"/>
   </g>
   <g id="patch_91">
    <path clip-path="url(#p19c160e8de)" d="M 215.376847 54.680015 
L 216.914037 54.680015 
L 216.914037 52.701258 
L 215.376847 52.701258 
z
" style="fill:#1f77b4;"/>
   </g>
   <g id="patch_92">
    <path clip-path="url(#p19c160e8de)" d="M 216.914037 54.680015 
L 218.451227 54.680015 
L 218.451227 53.969692 
L 216.914037 53.969692 
z
" style="fill:#1f77b4;"/>
   </g>
   <g id="patch_93">
    <path clip-path="url(#p19c160e8de)" d="M 218.451227 54.680015 
L 219.988417 54.680015 
L 219.988417 64.827486 
L 218.451227 64.827486 
z
" style="fill:#1f77b4;"/>
   </g>
   <g id="patch_94">
    <path clip-path="url(#p19c160e8de)" d="M 219.988417 54.680015 
L 221.525607 54.680015 
L 221.525607 54.933702 
L 219.988417 54.933702 
z
" style="fill:#1f77b4;"/>
   </g>
   <g id="patch_95">
    <path clip-path="url(#p19c160e8de)" d="M 221.525607 54.680015 
L 223.062797 54.680015 
L 223.062797 53.259369 
L 221.525607 53.259369 
z
" style="fill:#1f77b4;"/>
   </g>
   <g id="patch_96">
    <path clip-path="url(#p19c160e8de)" d="M 223.062797 54.680015 
L 224.599987 54.680015 
L 224.599987 59.094165 
L 223.062797 59.094165 
z
" style="fill:#1f77b4;"/>
   </g>
   <g id="patch_97">
    <path clip-path="url(#p19c160e8de)" d="M 224.599987 54.680015 
L 226.137177 54.680015 
L 226.137177 54.274116 
L 224.599987 54.274116 
z
" style="fill:#1f77b4;"/>
   </g>
   <g id="patch_98">
    <path clip-path="url(#p19c160e8de)" d="M 226.137177 54.680015 
L 227.674367 54.680015 
L 227.674367 54.984439 
L 226.137177 54.984439 
z
" style="fill:#1f77b4;"/>
   </g>
   <g id="patch_99">
    <path clip-path="url(#p19c160e8de)" d="M 227.674367 54.680015 
L 229.211557 54.680015 
L 229.211557 54.680015 
L 227.674367 54.680015 
z
" style="fill:#1f77b4;"/>
   </g>
   <g id="patch_100">
    <path clip-path="url(#p19c160e8de)" d="M 229.211557 54.680015 
L 230.748747 54.680015 
L 230.748747 55.035176 
L 229.211557 55.035176 
z
" style="fill:#1f77b4;"/>
   </g>
   <g id="patch_101">
    <path clip-path="url(#p19c160e8de)" d="M 230.748747 54.680015 
L 232.285938 54.680015 
L 232.285938 55.54255 
L 230.748747 55.54255 
z
" style="fill:#1f77b4;"/>
   </g>
   <g id="patch_102">
    <path clip-path="url(#p19c160e8de)" d="M 232.285937 54.680015 
L 233.823128 54.680015 
L 233.823128 54.274116 
L 232.285937 54.274116 
z
" style="fill:#1f77b4;"/>
   </g>
   <g id="patch_103">
    <path clip-path="url(#p19c160e8de)" d="M 233.823128 54.680015 
L 235.360318 54.680015 
L 235.360318 63.40684 
L 233.823128 63.40684 
z
" style="fill:#1f77b4;"/>
   </g>
   <g id="patch_104">
    <path clip-path="url(#p19c160e8de)" d="M 235.360318 54.680015 
L 236.897508 54.680015 
L 236.897508 54.730752 
L 235.360318 54.730752 
z
" style="fill:#1f77b4;"/>
   </g>
   <g id="patch_105">
    <path clip-path="url(#p19c160e8de)" d="M 236.897508 54.680015 
L 238.434698 54.680015 
L 238.434698 54.730752 
L 236.897508 54.730752 
z
" style="fill:#1f77b4;"/>
   </g>
   <g id="patch_106">
    <path clip-path="url(#p19c160e8de)" d="M 238.434698 54.680015 
L 239.971888 54.680015 
L 239.971888 57.115408 
L 238.434698 57.115408 
z
" style="fill:#1f77b4;"/>
   </g>
   <g id="patch_107">
    <path clip-path="url(#p19c160e8de)" d="M 239.971888 54.680015 
L 241.509078 54.680015 
L 241.509078 53.766743 
L 239.971888 53.766743 
z
" style="fill:#1f77b4;"/>
   </g>
   <g id="patch_108">
    <path clip-path="url(#p19c160e8de)" d="M 241.509078 54.680015 
L 243.046268 54.680015 
L 243.046268 54.324853 
L 241.509078 54.324853 
z
" style="fill:#1f77b4;"/>
   </g>
   <g id="patch_109">
    <path clip-path="url(#p19c160e8de)" d="M 243.046268 54.680015 
L 244.583458 54.680015 
L 244.583458 55.846974 
L 243.046268 55.846974 
z
" style="fill:#1f77b4;"/>
   </g>
   <g id="patch_110">
    <path clip-path="url(#p19c160e8de)" d="M 244.583458 54.680015 
L 246.120648 54.680015 
L 246.120648 54.933702 
L 244.583458 54.933702 
z
" style="fill:#1f77b4;"/>
   </g>
   <g id="patch_111">
    <path clip-path="url(#p19c160e8de)" d="M 246.120648 54.680015 
L 247.657838 54.680015 
L 247.657838 55.491813 
L 246.120648 55.491813 
z
" style="fill:#1f77b4;"/>
   </g>
   <g id="patch_112">
    <path clip-path="url(#p19c160e8de)" d="M 247.657838 54.680015 
L 249.195028 54.680015 
L 249.195028 54.071167 
L 247.657838 54.071167 
z
" style="fill:#1f77b4;"/>
   </g>
   <g id="patch_113">
    <path clip-path="url(#p19c160e8de)" d="M 249.195028 54.680015 
L 250.732218 54.680015 
L 250.732218 53.918955 
L 249.195028 53.918955 
z
" style="fill:#1f77b4;"/>
   </g>
   <g id="patch_114">
    <path clip-path="url(#p19c160e8de)" d="M 250.732218 54.680015 
L 252.269409 54.680015 
L 252.269409 57.774993 
L 250.732218 57.774993 
z
" style="fill:#1f77b4;"/>
   </g>
   <g id="patch_115">
    <path clip-path="url(#p19c160e8de)" d="M 252.269409 54.680015 
L 253.806599 54.680015 
L 253.806599 54.984439 
L 252.269409 54.984439 
z
" style="fill:#1f77b4;"/>
   </g>
   <g id="patch_116">
    <path clip-path="url(#p19c160e8de)" d="M 253.806599 54.680015 
L 255.343789 54.680015 
L 255.343789 57.927206 
L 253.806599 57.927206 
z
" style="fill:#1f77b4;"/>
   </g>
   <g id="patch_117">
    <path clip-path="url(#p19c160e8de)" d="M 255.343789 54.680015 
L 256.880979 54.680015 
L 256.880979 58.688266 
L 255.343789 58.688266 
z
" style="fill:#1f77b4;"/>
   </g>
   <g id="patch_118">
    <path clip-path="url(#p19c160e8de)" d="M 256.880979 54.680015 
L 258.418169 54.680015 
L 258.418169 55.54255 
L 256.880979 55.54255 
z
" style="fill:#1f77b4;"/>
   </g>
   <g id="patch_119">
    <path clip-path="url(#p19c160e8de)" d="M 258.418169 54.680015 
L 259.955359 54.680015 
L 259.955359 56.049923 
L 258.418169 56.049923 
z
" style="fill:#1f77b4;"/>
   </g>
   <g id="patch_120">
    <path clip-path="url(#p19c160e8de)" d="M 259.955359 54.680015 
L 261.492549 54.680015 
L 261.492549 55.897711 
L 259.955359 55.897711 
z
" style="fill:#1f77b4;"/>
   </g>
   <g id="patch_121">
    <path clip-path="url(#p19c160e8de)" d="M 261.492549 54.680015 
L 263.029739 54.680015 
L 263.029739 56.354348 
L 261.492549 56.354348 
z
" style="fill:#1f77b4;"/>
   </g>
   <g id="patch_122">
    <path clip-path="url(#p19c160e8de)" d="M 263.029739 54.680015 
L 264.566929 54.680015 
L 264.566929 54.071167 
L 263.029739 54.071167 
z
" style="fill:#1f77b4;"/>
   </g>
   <g id="patch_123">
    <path clip-path="url(#p19c160e8de)" d="M 264.566929 54.680015 
L 266.104119 54.680015 
L 266.104119 53.563793 
L 264.566929 53.563793 
z
" style="fill:#1f77b4;"/>
   </g>
   <g id="patch_124">
    <path clip-path="url(#p19c160e8de)" d="M 266.104119 54.680015 
L 267.641309 54.680015 
L 267.641309 56.100661 
L 266.104119 56.100661 
z
" style="fill:#1f77b4;"/>
   </g>
   <g id="patch_125">
    <path clip-path="url(#p19c160e8de)" d="M 267.641309 54.680015 
L 269.178499 54.680015 
L 269.178499 56.30361 
L 267.641309 56.30361 
z
" style="fill:#1f77b4;"/>
   </g>
   <g id="patch_126">
    <path clip-path="url(#p19c160e8de)" d="M 269.178499 54.680015 
L 270.71569 54.680015 
L 270.71569 55.54255 
L 269.178499 55.54255 
z
" style="fill:#1f77b4;"/>
   </g>
   <g id="patch_127">
    <path clip-path="url(#p19c160e8de)" d="M 270.71569 54.680015 
L 272.25288 54.680015 
L 272.25288 53.614531 
L 270.71569 53.614531 
z
" style="fill:#1f77b4;"/>
   </g>
   <g id="patch_128">
    <path clip-path="url(#p19c160e8de)" d="M 272.25288 54.680015 
L 273.79007 54.680015 
L 273.79007 57.166145 
L 272.25288 57.166145 
z
" style="fill:#1f77b4;"/>
   </g>
   <g id="patch_129">
    <path clip-path="url(#p19c160e8de)" d="M 273.79007 54.680015 
L 275.32726 54.680015 
L 275.32726 54.324853 
L 273.79007 54.324853 
z
" style="fill:#1f77b4;"/>
   </g>
   <g id="patch_130">
    <path clip-path="url(#p19c160e8de)" d="M 275.32726 54.680015 
L 276.86445 54.680015 
L 276.86445 54.071167 
L 275.32726 54.071167 
z
" style="fill:#1f77b4;"/>
   </g>
   <g id="patch_131">
    <path clip-path="url(#p19c160e8de)" d="M 276.86445 54.680015 
L 278.40164 54.680015 
L 278.40164 54.426328 
L 276.86445 54.426328 
z
" style="fill:#1f77b4;"/>
   </g>
   <g id="patch_132">
    <path clip-path="url(#p19c160e8de)" d="M 278.40164 54.680015 
L 279.93883 54.680015 
L 279.93883 54.274116 
L 278.40164 54.274116 
z
" style="fill:#1f77b4;"/>
   </g>
   <g id="patch_133">
    <path clip-path="url(#p19c160e8de)" d="M 279.93883 54.680015 
L 281.47602 54.680015 
L 281.47602 55.085914 
L 279.93883 55.085914 
z
" style="fill:#1f77b4;"/>
   </g>
   <g id="patch_134">
    <path clip-path="url(#p19c160e8de)" d="M 281.47602 54.680015 
L 283.01321 54.680015 
L 283.01321 54.324853 
L 281.47602 54.324853 
z
" style="fill:#1f77b4;"/>
   </g>
   <g id="patch_135">
    <path clip-path="url(#p19c160e8de)" d="M 283.01321 54.680015 
L 284.5504 54.680015 
L 284.5504 54.426328 
L 283.01321 54.426328 
z
" style="fill:#1f77b4;"/>
   </g>
   <g id="patch_136">
    <path clip-path="url(#p19c160e8de)" d="M 284.5504 54.680015 
L 286.08759 54.680015 
L 286.08759 53.107157 
L 284.5504 53.107157 
z
" style="fill:#1f77b4;"/>
   </g>
   <g id="patch_137">
    <path clip-path="url(#p19c160e8de)" d="M 286.08759 54.680015 
L 287.62478 54.680015 
L 287.62478 58.333104 
L 286.08759 58.333104 
z
" style="fill:#1f77b4;"/>
   </g>
   <g id="patch_138">
    <path clip-path="url(#p19c160e8de)" d="M 287.62478 54.680015 
L 289.161971 54.680015 
L 289.161971 53.81748 
L 287.62478 53.81748 
z
" style="fill:#1f77b4;"/>
   </g>
   <g id="patch_139">
    <path clip-path="url(#p19c160e8de)" d="M 289.161971 54.680015 
L 290.699161 54.680015 
L 290.699161 54.730752 
L 289.161971 54.730752 
z
" style="fill:#1f77b4;"/>
   </g>
   <g id="patch_140">
    <path clip-path="url(#p19c160e8de)" d="M 290.699161 54.680015 
L 292.236351 54.680015 
L 292.236351 54.730752 
L 290.699161 54.730752 
z
" style="fill:#1f77b4;"/>
   </g>
   <g id="patch_141">
    <path clip-path="url(#p19c160e8de)" d="M 292.236351 54.680015 
L 293.773541 54.680015 
L 293.773541 53.310106 
L 292.236351 53.310106 
z
" style="fill:#1f77b4;"/>
   </g>
   <g id="patch_142">
    <path clip-path="url(#p19c160e8de)" d="M 293.773541 54.680015 
L 295.310731 54.680015 
L 295.310731 54.071167 
L 293.773541 54.071167 
z
" style="fill:#1f77b4;"/>
   </g>
   <g id="patch_143">
    <path clip-path="url(#p19c160e8de)" d="M 295.310731 54.680015 
L 296.847921 54.680015 
L 296.847921 55.238126 
L 295.310731 55.238126 
z
" style="fill:#1f77b4;"/>
   </g>
   <g id="patch_144">
    <path clip-path="url(#p19c160e8de)" d="M 296.847921 54.680015 
L 298.385111 54.680015 
L 298.385111 54.324853 
L 296.847921 54.324853 
z
" style="fill:#1f77b4;"/>
   </g>
   <g id="patch_145">
    <path clip-path="url(#p19c160e8de)" d="M 298.385111 54.680015 
L 299.922301 54.680015 
L 299.922301 54.375591 
L 298.385111 54.375591 
z
" style="fill:#1f77b4;"/>
   </g>
   <g id="patch_146">
    <path clip-path="url(#p19c160e8de)" d="M 299.922301 54.680015 
L 301.459491 54.680015 
L 301.459491 68.886474 
L 299.922301 68.886474 
z
" style="fill:#1f77b4;"/>
   </g>
   <g id="patch_147">
    <path clip-path="url(#p19c160e8de)" d="M 301.459491 54.680015 
L 302.996681 54.680015 
L 302.996681 55.694762 
L 301.459491 55.694762 
z
" style="fill:#1f77b4;"/>
   </g>
   <g id="patch_148">
    <path clip-path="url(#p19c160e8de)" d="M 302.996681 54.680015 
L 304.533871 54.680015 
L 304.533871 54.680015 
L 302.996681 54.680015 
z
" style="fill:#1f77b4;"/>
   </g>
   <g id="patch_149">
    <path clip-path="url(#p19c160e8de)" d="M 304.533871 54.680015 
L 306.071061 54.680015 
L 306.071061 54.274116 
L 304.533871 54.274116 
z
" style="fill:#1f77b4;"/>
   </g>
   <g id="patch_150">
    <path clip-path="url(#p19c160e8de)" d="M 306.071061 54.680015 
L 307.608252 54.680015 
L 307.608252 55.441075 
L 306.071061 55.441075 
z
" style="fill:#1f77b4;"/>
   </g>
   <g id="patch_151">
    <path clip-path="url(#p19c160e8de)" d="M 307.608252 54.680015 
L 309.145442 54.680015 
L 309.145442 54.375591 
L 307.608252 54.375591 
z
" style="fill:#1f77b4;"/>
   </g>
   <g id="patch_152">
    <path clip-path="url(#p19c160e8de)" d="M 309.145442 54.680015 
L 310.682632 54.680015 
L 310.682632 59.905962 
L 309.145442 59.905962 
z
" style="fill:#1f77b4;"/>
   </g>
   <g id="patch_153">
    <path clip-path="url(#p19c160e8de)" d="M 310.682632 54.680015 
L 312.219822 54.680015 
L 312.219822 54.933702 
L 310.682632 54.933702 
z
" style="fill:#1f77b4;"/>
   </g>
   <g id="patch_154">
    <path clip-path="url(#p19c160e8de)" d="M 312.219822 54.680015 
L 313.757012 54.680015 
L 313.757012 54.629278 
L 312.219822 54.629278 
z
" style="fill:#1f77b4;"/>
   </g>
   <g id="patch_155">
    <path clip-path="url(#p19c160e8de)" d="M 313.757012 54.680015 
L 315.294202 54.680015 
L 315.294202 54.832227 
L 313.757012 54.832227 
z
" style="fill:#1f77b4;"/>
   </g>
   <g id="patch_156">
    <path clip-path="url(#p19c160e8de)" d="M 315.294202 54.680015 
L 316.831392 54.680015 
L 316.831392 56.049923 
L 315.294202 56.049923 
z
" style="fill:#1f77b4;"/>
   </g>
   <g id="patch_157">
    <path clip-path="url(#p19c160e8de)" d="M 316.831392 54.680015 
L 318.368582 54.680015 
L 318.368582 54.071167 
L 316.831392 54.071167 
z
" style="fill:#1f77b4;"/>
   </g>
   <g id="patch_158">
    <path clip-path="url(#p19c160e8de)" d="M 318.368582 54.680015 
L 319.905772 54.680015 
L 319.905772 54.324853 
L 318.368582 54.324853 
z
" style="fill:#1f77b4;"/>
   </g>
   <g id="patch_159">
    <path clip-path="url(#p19c160e8de)" d="M 319.905772 54.680015 
L 321.442962 54.680015 
L 321.442962 55.491813 
L 319.905772 55.491813 
z
" style="fill:#1f77b4;"/>
   </g>
   <g id="patch_160">
    <path clip-path="url(#p19c160e8de)" d="M 321.442962 54.680015 
L 322.980152 54.680015 
L 322.980152 55.999186 
L 321.442962 55.999186 
z
" style="fill:#1f77b4;"/>
   </g>
   <g id="patch_161">
    <path clip-path="url(#p19c160e8de)" d="M 322.980152 54.680015 
L 324.517342 54.680015 
L 324.517342 55.390338 
L 322.980152 55.390338 
z
" style="fill:#1f77b4;"/>
   </g>
   <g id="patch_162">
    <path clip-path="url(#p19c160e8de)" d="M 324.517342 54.680015 
L 326.054533 54.680015 
L 326.054533 53.766743 
L 324.517342 53.766743 
z
" style="fill:#1f77b4;"/>
   </g>
   <g id="patch_163">
    <path clip-path="url(#p19c160e8de)" d="M 326.054533 54.680015 
L 327.591723 54.680015 
L 327.591723 55.644025 
L 326.054533 55.644025 
z
" style="fill:#1f77b4;"/>
   </g>
   <g id="patch_164">
    <path clip-path="url(#p19c160e8de)" d="M 327.591723 54.680015 
L 329.128913 54.680015 
L 329.128913 54.121904 
L 327.591723 54.121904 
z
" style="fill:#1f77b4;"/>
   </g>
   <g id="patch_165">
    <path clip-path="url(#p19c160e8de)" d="M 329.128913 54.680015 
L 330.666103 54.680015 
L 330.666103 55.187388 
L 329.128913 55.187388 
z
" style="fill:#1f77b4;"/>
   </g>
   <g id="patch_166">
    <path clip-path="url(#p19c160e8de)" d="M 330.666103 54.680015 
L 332.203293 54.680015 
L 332.203293 54.78149 
L 330.666103 54.78149 
z
" style="fill:#1f77b4;"/>
   </g>
   <g id="patch_167">
    <path clip-path="url(#p19c160e8de)" d="M 332.203293 54.680015 
L 333.740483 54.680015 
L 333.740483 54.426328 
L 332.203293 54.426328 
z
" style="fill:#1f77b4;"/>
   </g>
   <g id="patch_168">
    <path clip-path="url(#p19c160e8de)" d="M 333.740483 54.680015 
L 335.277673 54.680015 
L 335.277673 54.78149 
L 333.740483 54.78149 
z
" style="fill:#1f77b4;"/>
   </g>
   <g id="patch_169">
    <path clip-path="url(#p19c160e8de)" d="M 335.277673 54.680015 
L 336.814863 54.680015 
L 336.814863 54.172641 
L 335.277673 54.172641 
z
" style="fill:#1f77b4;"/>
   </g>
   <g id="patch_170">
    <path clip-path="url(#p19c160e8de)" d="M 336.814863 54.680015 
L 338.352053 54.680015 
L 338.352053 54.324853 
L 336.814863 54.324853 
z
" style="fill:#1f77b4;"/>
   </g>
   <g id="patch_171">
    <path clip-path="url(#p19c160e8de)" d="M 338.352053 54.680015 
L 339.889243 54.680015 
L 339.889243 54.071167 
L 338.352053 54.071167 
z
" style="fill:#1f77b4;"/>
   </g>
   <g id="patch_172">
    <path clip-path="url(#p19c160e8de)" d="M 339.889243 54.680015 
L 341.426433 54.680015 
L 341.426433 54.375591 
L 339.889243 54.375591 
z
" style="fill:#1f77b4;"/>
   </g>
   <g id="patch_173">
    <path clip-path="url(#p19c160e8de)" d="M 341.426433 54.680015 
L 342.963623 54.680015 
L 342.963623 54.375591 
L 341.426433 54.375591 
z
" style="fill:#1f77b4;"/>
   </g>
   <g id="patch_174">
    <path clip-path="url(#p19c160e8de)" d="M 342.963623 54.680015 
L 344.500814 54.680015 
L 344.500814 54.629278 
L 342.963623 54.629278 
z
" style="fill:#1f77b4;"/>
   </g>
   <g id="patch_175">
    <path clip-path="url(#p19c160e8de)" d="M 344.500814 54.680015 
L 346.038004 54.680015 
L 346.038004 55.745499 
L 344.500814 55.745499 
z
" style="fill:#1f77b4;"/>
   </g>
   <g id="patch_176">
    <path clip-path="url(#p19c160e8de)" d="M 346.038004 54.680015 
L 347.575194 54.680015 
L 347.575194 54.984439 
L 346.038004 54.984439 
z
" style="fill:#1f77b4;"/>
   </g>
   <g id="patch_177">
    <path clip-path="url(#p19c160e8de)" d="M 347.575194 54.680015 
L 349.112384 54.680015 
L 349.112384 54.984439 
L 347.575194 54.984439 
z
" style="fill:#1f77b4;"/>
   </g>
   <g id="patch_178">
    <path clip-path="url(#p19c160e8de)" d="M 349.112384 54.680015 
L 350.649574 54.680015 
L 350.649574 55.238126 
L 349.112384 55.238126 
z
" style="fill:#1f77b4;"/>
   </g>
   <g id="patch_179">
    <path clip-path="url(#p19c160e8de)" d="M 350.649574 54.680015 
L 352.186764 54.680015 
L 352.186764 54.477066 
L 350.649574 54.477066 
z
" style="fill:#1f77b4;"/>
   </g>
   <g id="patch_180">
    <path clip-path="url(#p19c160e8de)" d="M 352.186764 54.680015 
L 353.723954 54.680015 
L 353.723954 54.121904 
L 352.186764 54.121904 
z
" style="fill:#1f77b4;"/>
   </g>
   <g id="patch_181">
    <path clip-path="url(#p19c160e8de)" d="M 353.723954 54.680015 
L 355.261144 54.680015 
L 355.261144 54.527803 
L 353.723954 54.527803 
z
" style="fill:#1f77b4;"/>
   </g>
   <g id="patch_182">
    <path clip-path="url(#p19c160e8de)" d="M 355.261144 54.680015 
L 356.798334 54.680015 
L 356.798334 59.75375 
L 355.261144 59.75375 
z
" style="fill:#1f77b4;"/>
   </g>
   <g id="patch_183">
    <path clip-path="url(#p19c160e8de)" d="M 356.798334 54.680015 
L 358.335524 54.680015 
L 358.335524 54.629278 
L 356.798334 54.629278 
z
" style="fill:#1f77b4;"/>
   </g>
   <g id="patch_184">
    <path clip-path="url(#p19c160e8de)" d="M 358.335524 54.680015 
L 359.872714 54.680015 
L 359.872714 55.085914 
L 358.335524 55.085914 
z
" style="fill:#1f77b4;"/>
   </g>
   <g id="patch_185">
    <path clip-path="url(#p19c160e8de)" d="M 359.872714 54.680015 
L 361.409904 54.680015 
L 361.409904 54.78149 
L 359.872714 54.78149 
z
" style="fill:#1f77b4;"/>
   </g>
   <g id="patch_186">
    <path clip-path="url(#p19c160e8de)" d="M 361.409904 54.680015 
L 362.947095 54.680015 
L 362.947095 54.78149 
L 361.409904 54.78149 
z
" style="fill:#1f77b4;"/>
   </g>
   <g id="patch_187">
    <path clip-path="url(#p19c160e8de)" d="M 362.947095 54.680015 
L 364.484285 54.680015 
L 364.484285 54.933702 
L 362.947095 54.933702 
z
" style="fill:#1f77b4;"/>
   </g>
   <g id="patch_188">
    <path clip-path="url(#p19c160e8de)" d="M 364.484285 54.680015 
L 366.021475 54.680015 
L 366.021475 54.629278 
L 364.484285 54.629278 
z
" style="fill:#1f77b4;"/>
   </g>
   <g id="patch_189">
    <path clip-path="url(#p19c160e8de)" d="M 366.021475 54.680015 
L 367.558665 54.680015 
L 367.558665 54.680015 
L 366.021475 54.680015 
z
" style="fill:#1f77b4;"/>
   </g>
   <g id="patch_190">
    <path clip-path="url(#p19c160e8de)" d="M 367.558665 54.680015 
L 369.095855 54.680015 
L 369.095855 54.832227 
L 367.558665 54.832227 
z
" style="fill:#1f77b4;"/>
   </g>
   <g id="patch_191">
    <path clip-path="url(#p19c160e8de)" d="M 369.095855 54.680015 
L 370.633045 54.680015 
L 370.633045 54.832227 
L 369.095855 54.832227 
z
" style="fill:#1f77b4;"/>
   </g>
   <g id="patch_192">
    <path clip-path="url(#p19c160e8de)" d="M 370.633045 54.680015 
L 372.170235 54.680015 
L 372.170235 54.629278 
L 370.633045 54.629278 
z
" style="fill:#1f77b4;"/>
   </g>
   <g id="patch_193">
    <path clip-path="url(#p19c160e8de)" d="M 372.170235 54.680015 
L 373.707425 54.680015 
L 373.707425 54.882964 
L 372.170235 54.882964 
z
" style="fill:#1f77b4;"/>
   </g>
   <g id="patch_194">
    <path clip-path="url(#p19c160e8de)" d="M 373.707425 54.680015 
L 375.244615 54.680015 
L 375.244615 54.730752 
L 373.707425 54.730752 
z
" style="fill:#1f77b4;"/>
   </g>
   <g id="patch_195">
    <path clip-path="url(#p19c160e8de)" d="M 375.244615 54.680015 
L 376.781805 54.680015 
L 376.781805 54.629278 
L 375.244615 54.629278 
z
" style="fill:#1f77b4;"/>
   </g>
   <g id="patch_196">
    <path clip-path="url(#p19c160e8de)" d="M 376.781805 54.680015 
L 378.318995 54.680015 
L 378.318995 54.57854 
L 376.781805 54.57854 
z
" style="fill:#1f77b4;"/>
   </g>
   <g id="patch_197">
    <path clip-path="url(#p19c160e8de)" d="M 378.318995 54.680015 
L 379.856185 54.680015 
L 379.856185 54.680015 
L 378.318995 54.680015 
z
" style="fill:#1f77b4;"/>
   </g>
   <g id="patch_198">
    <path clip-path="url(#p19c160e8de)" d="M 379.856185 54.680015 
L 381.393376 54.680015 
L 381.393376 54.680015 
L 379.856185 54.680015 
z
" style="fill:#1f77b4;"/>
   </g>
   <g id="patch_199">
    <path clip-path="url(#p19c160e8de)" d="M 381.393376 54.680015 
L 382.930566 54.680015 
L 382.930566 54.629278 
L 381.393376 54.629278 
z
" style="fill:#1f77b4;"/>
   </g>
   <g id="patch_200">
    <path clip-path="url(#p19c160e8de)" d="M 382.930566 54.680015 
L 384.467756 54.680015 
L 384.467756 54.680015 
L 382.930566 54.680015 
z
" style="fill:#1f77b4;"/>
   </g>
   <g id="matplotlib.axis_1">
    <g id="xtick_1">
     <g id="line2d_1">
      <defs>
       <path d="M 0 0 
L 0 3.5 
" id="m03db9c44c3" style="stroke:#000000;stroke-width:0.8;"/>
      </defs>
      <g>
       <use style="stroke:#000000;stroke-width:0.8;" x="77.798334" xlink:href="#m03db9c44c3" y="224.64"/>
      </g>
     </g>
     <g id="text_1">
      <!-- 0.000 -->
      <defs>
       <path d="M 31.78125 66.40625 
Q 24.171875 66.40625 20.328125 58.90625 
Q 16.5 51.421875 16.5 36.375 
Q 16.5 21.390625 20.328125 13.890625 
Q 24.171875 6.390625 31.78125 6.390625 
Q 39.453125 6.390625 43.28125 13.890625 
Q 47.125 21.390625 47.125 36.375 
Q 47.125 51.421875 43.28125 58.90625 
Q 39.453125 66.40625 31.78125 66.40625 
z
M 31.78125 74.21875 
Q 44.046875 74.21875 50.515625 64.515625 
Q 56.984375 54.828125 56.984375 36.375 
Q 56.984375 17.96875 50.515625 8.265625 
Q 44.046875 -1.421875 31.78125 -1.421875 
Q 19.53125 -1.421875 13.0625 8.265625 
Q 6.59375 17.96875 6.59375 36.375 
Q 6.59375 54.828125 13.0625 64.515625 
Q 19.53125 74.21875 31.78125 74.21875 
z
" id="DejaVuSans-48"/>
       <path d="M 10.6875 12.40625 
L 21 12.40625 
L 21 0 
L 10.6875 0 
z
" id="DejaVuSans-46"/>
      </defs>
      <g transform="translate(75.038959 231.64)rotate(-270)scale(0.1 -0.1)">
       <use xlink:href="#DejaVuSans-48"/>
       <use x="63.623047" xlink:href="#DejaVuSans-46"/>
       <use x="95.410156" xlink:href="#DejaVuSans-48"/>
       <use x="159.033203" xlink:href="#DejaVuSans-48"/>
       <use x="222.65625" xlink:href="#DejaVuSans-48"/>
      </g>
     </g>
    </g>
    <g id="xtick_2">
     <g id="line2d_2">
      <g>
       <use style="stroke:#000000;stroke-width:0.8;" x="93.498686" xlink:href="#m03db9c44c3" y="224.64"/>
      </g>
     </g>
     <g id="text_2">
      <!-- 0.125 -->
      <defs>
       <path d="M 12.40625 8.296875 
L 28.515625 8.296875 
L 28.515625 63.921875 
L 10.984375 60.40625 
L 10.984375 69.390625 
L 28.421875 72.90625 
L 38.28125 72.90625 
L 38.28125 8.296875 
L 54.390625 8.296875 
L 54.390625 0 
L 12.40625 0 
z
" id="DejaVuSans-49"/>
       <path d="M 19.1875 8.296875 
L 53.609375 8.296875 
L 53.609375 0 
L 7.328125 0 
L 7.328125 8.296875 
Q 12.9375 14.109375 22.625 23.890625 
Q 32.328125 33.6875 34.8125 36.53125 
Q 39.546875 41.84375 41.421875 45.53125 
Q 43.3125 49.21875 43.3125 52.78125 
Q 43.3125 58.59375 39.234375 62.25 
Q 35.15625 65.921875 28.609375 65.921875 
Q 23.96875 65.921875 18.8125 64.3125 
Q 13.671875 62.703125 7.8125 59.421875 
L 7.8125 69.390625 
Q 13.765625 71.78125 18.9375 73 
Q 24.125 74.21875 28.421875 74.21875 
Q 39.75 74.21875 46.484375 68.546875 
Q 53.21875 62.890625 53.21875 53.421875 
Q 53.21875 48.921875 51.53125 44.890625 
Q 49.859375 40.875 45.40625 35.40625 
Q 44.1875 33.984375 37.640625 27.21875 
Q 31.109375 20.453125 19.1875 8.296875 
z
" id="DejaVuSans-50"/>
       <path d="M 10.796875 72.90625 
L 49.515625 72.90625 
L 49.515625 64.59375 
L 19.828125 64.59375 
L 19.828125 46.734375 
Q 21.96875 47.46875 24.109375 47.828125 
Q 26.265625 48.1875 28.421875 48.1875 
Q 40.625 48.1875 47.75 41.5 
Q 54.890625 34.8125 54.890625 23.390625 
Q 54.890625 11.625 47.5625 5.09375 
Q 40.234375 -1.421875 26.90625 -1.421875 
Q 22.3125 -1.421875 17.546875 -0.640625 
Q 12.796875 0.140625 7.71875 1.703125 
L 7.71875 11.625 
Q 12.109375 9.234375 16.796875 8.0625 
Q 21.484375 6.890625 26.703125 6.890625 
Q 35.15625 6.890625 40.078125 11.328125 
Q 45.015625 15.765625 45.015625 23.390625 
Q 45.015625 31 40.078125 35.4375 
Q 35.15625 39.890625 26.703125 39.890625 
Q 22.75 39.890625 18.8125 39.015625 
Q 14.890625 38.140625 10.796875 36.28125 
z
" id="DejaVuSans-53"/>
      </defs>
      <g transform="translate(90.739311 231.64)rotate(-270)scale(0.1 -0.1)">
       <use xlink:href="#DejaVuSans-48"/>
       <use x="63.623047" xlink:href="#DejaVuSans-46"/>
       <use x="95.410156" xlink:href="#DejaVuSans-49"/>
       <use x="159.033203" xlink:href="#DejaVuSans-50"/>
       <use x="222.65625" xlink:href="#DejaVuSans-53"/>
      </g>
     </g>
    </g>
    <g id="xtick_3">
     <g id="line2d_3">
      <g>
       <use style="stroke:#000000;stroke-width:0.8;" x="109.199039" xlink:href="#m03db9c44c3" y="224.64"/>
      </g>
     </g>
     <g id="text_3">
      <!-- 0.250 -->
      <g transform="translate(106.439664 231.64)rotate(-270)scale(0.1 -0.1)">
       <use xlink:href="#DejaVuSans-48"/>
       <use x="63.623047" xlink:href="#DejaVuSans-46"/>
       <use x="95.410156" xlink:href="#DejaVuSans-50"/>
       <use x="159.033203" xlink:href="#DejaVuSans-53"/>
       <use x="222.65625" xlink:href="#DejaVuSans-48"/>
      </g>
     </g>
    </g>
    <g id="xtick_4">
     <g id="line2d_4">
      <g>
       <use style="stroke:#000000;stroke-width:0.8;" x="124.899391" xlink:href="#m03db9c44c3" y="224.64"/>
      </g>
     </g>
     <g id="text_4">
      <!-- 0.375 -->
      <defs>
       <path d="M 40.578125 39.3125 
Q 47.65625 37.796875 51.625 33 
Q 55.609375 28.21875 55.609375 21.1875 
Q 55.609375 10.40625 48.1875 4.484375 
Q 40.765625 -1.421875 27.09375 -1.421875 
Q 22.515625 -1.421875 17.65625 -0.515625 
Q 12.796875 0.390625 7.625 2.203125 
L 7.625 11.71875 
Q 11.71875 9.328125 16.59375 8.109375 
Q 21.484375 6.890625 26.8125 6.890625 
Q 36.078125 6.890625 40.9375 10.546875 
Q 45.796875 14.203125 45.796875 21.1875 
Q 45.796875 27.640625 41.28125 31.265625 
Q 36.765625 34.90625 28.71875 34.90625 
L 20.21875 34.90625 
L 20.21875 43.015625 
L 29.109375 43.015625 
Q 36.375 43.015625 40.234375 45.921875 
Q 44.09375 48.828125 44.09375 54.296875 
Q 44.09375 59.90625 40.109375 62.90625 
Q 36.140625 65.921875 28.71875 65.921875 
Q 24.65625 65.921875 20.015625 65.03125 
Q 15.375 64.15625 9.8125 62.3125 
L 9.8125 71.09375 
Q 15.4375 72.65625 20.34375 73.4375 
Q 25.25 74.21875 29.59375 74.21875 
Q 40.828125 74.21875 47.359375 69.109375 
Q 53.90625 64.015625 53.90625 55.328125 
Q 53.90625 49.265625 50.4375 45.09375 
Q 46.96875 40.921875 40.578125 39.3125 
z
" id="DejaVuSans-51"/>
       <path d="M 8.203125 72.90625 
L 55.078125 72.90625 
L 55.078125 68.703125 
L 28.609375 0 
L 18.3125 0 
L 43.21875 64.59375 
L 8.203125 64.59375 
z
" id="DejaVuSans-55"/>
      </defs>
      <g transform="translate(122.140016 231.64)rotate(-270)scale(0.1 -0.1)">
       <use xlink:href="#DejaVuSans-48"/>
       <use x="63.623047" xlink:href="#DejaVuSans-46"/>
       <use x="95.410156" xlink:href="#DejaVuSans-51"/>
       <use x="159.033203" xlink:href="#DejaVuSans-55"/>
       <use x="222.65625" xlink:href="#DejaVuSans-53"/>
      </g>
     </g>
    </g>
    <g id="xtick_5">
     <g id="line2d_5">
      <g>
       <use style="stroke:#000000;stroke-width:0.8;" x="140.599743" xlink:href="#m03db9c44c3" y="224.64"/>
      </g>
     </g>
     <g id="text_5">
      <!-- 0.500 -->
      <g transform="translate(137.840368 231.64)rotate(-270)scale(0.1 -0.1)">
       <use xlink:href="#DejaVuSans-48"/>
       <use x="63.623047" xlink:href="#DejaVuSans-46"/>
       <use x="95.410156" xlink:href="#DejaVuSans-53"/>
       <use x="159.033203" xlink:href="#DejaVuSans-48"/>
       <use x="222.65625" xlink:href="#DejaVuSans-48"/>
      </g>
     </g>
    </g>
    <g id="xtick_6">
     <g id="line2d_6">
      <g>
       <use style="stroke:#000000;stroke-width:0.8;" x="156.300095" xlink:href="#m03db9c44c3" y="224.64"/>
      </g>
     </g>
     <g id="text_6">
      <!-- 0.625 -->
      <defs>
       <path d="M 33.015625 40.375 
Q 26.375 40.375 22.484375 35.828125 
Q 18.609375 31.296875 18.609375 23.390625 
Q 18.609375 15.53125 22.484375 10.953125 
Q 26.375 6.390625 33.015625 6.390625 
Q 39.65625 6.390625 43.53125 10.953125 
Q 47.40625 15.53125 47.40625 23.390625 
Q 47.40625 31.296875 43.53125 35.828125 
Q 39.65625 40.375 33.015625 40.375 
z
M 52.59375 71.296875 
L 52.59375 62.3125 
Q 48.875 64.0625 45.09375 64.984375 
Q 41.3125 65.921875 37.59375 65.921875 
Q 27.828125 65.921875 22.671875 59.328125 
Q 17.53125 52.734375 16.796875 39.40625 
Q 19.671875 43.65625 24.015625 45.921875 
Q 28.375 48.1875 33.59375 48.1875 
Q 44.578125 48.1875 50.953125 41.515625 
Q 57.328125 34.859375 57.328125 23.390625 
Q 57.328125 12.15625 50.6875 5.359375 
Q 44.046875 -1.421875 33.015625 -1.421875 
Q 20.359375 -1.421875 13.671875 8.265625 
Q 6.984375 17.96875 6.984375 36.375 
Q 6.984375 53.65625 15.1875 63.9375 
Q 23.390625 74.21875 37.203125 74.21875 
Q 40.921875 74.21875 44.703125 73.484375 
Q 48.484375 72.75 52.59375 71.296875 
z
" id="DejaVuSans-54"/>
      </defs>
      <g transform="translate(153.54072 231.64)rotate(-270)scale(0.1 -0.1)">
       <use xlink:href="#DejaVuSans-48"/>
       <use x="63.623047" xlink:href="#DejaVuSans-46"/>
       <use x="95.410156" xlink:href="#DejaVuSans-54"/>
       <use x="159.033203" xlink:href="#DejaVuSans-50"/>
       <use x="222.65625" xlink:href="#DejaVuSans-53"/>
      </g>
     </g>
    </g>
    <g id="xtick_7">
     <g id="line2d_7">
      <g>
       <use style="stroke:#000000;stroke-width:0.8;" x="172.000447" xlink:href="#m03db9c44c3" y="224.64"/>
      </g>
     </g>
     <g id="text_7">
      <!-- 0.750 -->
      <g transform="translate(169.241072 231.64)rotate(-270)scale(0.1 -0.1)">
       <use xlink:href="#DejaVuSans-48"/>
       <use x="63.623047" xlink:href="#DejaVuSans-46"/>
       <use x="95.410156" xlink:href="#DejaVuSans-55"/>
       <use x="159.033203" xlink:href="#DejaVuSans-53"/>
       <use x="222.65625" xlink:href="#DejaVuSans-48"/>
      </g>
     </g>
    </g>
    <g id="xtick_8">
     <g id="line2d_8">
      <g>
       <use style="stroke:#000000;stroke-width:0.8;" x="187.7008" xlink:href="#m03db9c44c3" y="224.64"/>
      </g>
     </g>
     <g id="text_8">
      <!-- 0.875 -->
      <defs>
       <path d="M 31.78125 34.625 
Q 24.75 34.625 20.71875 30.859375 
Q 16.703125 27.09375 16.703125 20.515625 
Q 16.703125 13.921875 20.71875 10.15625 
Q 24.75 6.390625 31.78125 6.390625 
Q 38.8125 6.390625 42.859375 10.171875 
Q 46.921875 13.96875 46.921875 20.515625 
Q 46.921875 27.09375 42.890625 30.859375 
Q 38.875 34.625 31.78125 34.625 
z
M 21.921875 38.8125 
Q 15.578125 40.375 12.03125 44.71875 
Q 8.5 49.078125 8.5 55.328125 
Q 8.5 64.0625 14.71875 69.140625 
Q 20.953125 74.21875 31.78125 74.21875 
Q 42.671875 74.21875 48.875 69.140625 
Q 55.078125 64.0625 55.078125 55.328125 
Q 55.078125 49.078125 51.53125 44.71875 
Q 48 40.375 41.703125 38.8125 
Q 48.828125 37.15625 52.796875 32.3125 
Q 56.78125 27.484375 56.78125 20.515625 
Q 56.78125 9.90625 50.3125 4.234375 
Q 43.84375 -1.421875 31.78125 -1.421875 
Q 19.734375 -1.421875 13.25 4.234375 
Q 6.78125 9.90625 6.78125 20.515625 
Q 6.78125 27.484375 10.78125 32.3125 
Q 14.796875 37.15625 21.921875 38.8125 
z
M 18.3125 54.390625 
Q 18.3125 48.734375 21.84375 45.5625 
Q 25.390625 42.390625 31.78125 42.390625 
Q 38.140625 42.390625 41.71875 45.5625 
Q 45.3125 48.734375 45.3125 54.390625 
Q 45.3125 60.0625 41.71875 63.234375 
Q 38.140625 66.40625 31.78125 66.40625 
Q 25.390625 66.40625 21.84375 63.234375 
Q 18.3125 60.0625 18.3125 54.390625 
z
" id="DejaVuSans-56"/>
      </defs>
      <g transform="translate(184.941425 231.64)rotate(-270)scale(0.1 -0.1)">
       <use xlink:href="#DejaVuSans-48"/>
       <use x="63.623047" xlink:href="#DejaVuSans-46"/>
       <use x="95.410156" xlink:href="#DejaVuSans-56"/>
       <use x="159.033203" xlink:href="#DejaVuSans-55"/>
       <use x="222.65625" xlink:href="#DejaVuSans-53"/>
      </g>
     </g>
    </g>
    <g id="xtick_9">
     <g id="line2d_9">
      <g>
       <use style="stroke:#000000;stroke-width:0.8;" x="203.401152" xlink:href="#m03db9c44c3" y="224.64"/>
      </g>
     </g>
     <g id="text_9">
      <!-- 1.000 -->
      <g transform="translate(200.641777 231.64)rotate(-270)scale(0.1 -0.1)">
       <use xlink:href="#DejaVuSans-49"/>
       <use x="63.623047" xlink:href="#DejaVuSans-46"/>
       <use x="95.410156" xlink:href="#DejaVuSans-48"/>
       <use x="159.033203" xlink:href="#DejaVuSans-48"/>
       <use x="222.65625" xlink:href="#DejaVuSans-48"/>
      </g>
     </g>
    </g>
    <g id="xtick_10">
     <g id="line2d_10">
      <g>
       <use style="stroke:#000000;stroke-width:0.8;" x="219.101504" xlink:href="#m03db9c44c3" y="224.64"/>
      </g>
     </g>
     <g id="text_10">
      <!-- 1.125 -->
      <g transform="translate(216.342129 231.64)rotate(-270)scale(0.1 -0.1)">
       <use xlink:href="#DejaVuSans-49"/>
       <use x="63.623047" xlink:href="#DejaVuSans-46"/>
       <use x="95.410156" xlink:href="#DejaVuSans-49"/>
       <use x="159.033203" xlink:href="#DejaVuSans-50"/>
       <use x="222.65625" xlink:href="#DejaVuSans-53"/>
      </g>
     </g>
    </g>
    <g id="xtick_11">
     <g id="line2d_11">
      <g>
       <use style="stroke:#000000;stroke-width:0.8;" x="234.801856" xlink:href="#m03db9c44c3" y="224.64"/>
      </g>
     </g>
     <g id="text_11">
      <!-- 1.250 -->
      <g transform="translate(232.042481 231.64)rotate(-270)scale(0.1 -0.1)">
       <use xlink:href="#DejaVuSans-49"/>
       <use x="63.623047" xlink:href="#DejaVuSans-46"/>
       <use x="95.410156" xlink:href="#DejaVuSans-50"/>
       <use x="159.033203" xlink:href="#DejaVuSans-53"/>
       <use x="222.65625" xlink:href="#DejaVuSans-48"/>
      </g>
     </g>
    </g>
    <g id="xtick_12">
     <g id="line2d_12">
      <g>
       <use style="stroke:#000000;stroke-width:0.8;" x="250.502208" xlink:href="#m03db9c44c3" y="224.64"/>
      </g>
     </g>
     <g id="text_12">
      <!-- 1.375 -->
      <g transform="translate(247.742833 231.64)rotate(-270)scale(0.1 -0.1)">
       <use xlink:href="#DejaVuSans-49"/>
       <use x="63.623047" xlink:href="#DejaVuSans-46"/>
       <use x="95.410156" xlink:href="#DejaVuSans-51"/>
       <use x="159.033203" xlink:href="#DejaVuSans-55"/>
       <use x="222.65625" xlink:href="#DejaVuSans-53"/>
      </g>
     </g>
    </g>
    <g id="xtick_13">
     <g id="line2d_13">
      <g>
       <use style="stroke:#000000;stroke-width:0.8;" x="266.202561" xlink:href="#m03db9c44c3" y="224.64"/>
      </g>
     </g>
     <g id="text_13">
      <!-- 1.500 -->
      <g transform="translate(263.443186 231.64)rotate(-270)scale(0.1 -0.1)">
       <use xlink:href="#DejaVuSans-49"/>
       <use x="63.623047" xlink:href="#DejaVuSans-46"/>
       <use x="95.410156" xlink:href="#DejaVuSans-53"/>
       <use x="159.033203" xlink:href="#DejaVuSans-48"/>
       <use x="222.65625" xlink:href="#DejaVuSans-48"/>
      </g>
     </g>
    </g>
    <g id="xtick_14">
     <g id="line2d_14">
      <g>
       <use style="stroke:#000000;stroke-width:0.8;" x="281.902913" xlink:href="#m03db9c44c3" y="224.64"/>
      </g>
     </g>
     <g id="text_14">
      <!-- 1.625 -->
      <g transform="translate(279.143538 231.64)rotate(-270)scale(0.1 -0.1)">
       <use xlink:href="#DejaVuSans-49"/>
       <use x="63.623047" xlink:href="#DejaVuSans-46"/>
       <use x="95.410156" xlink:href="#DejaVuSans-54"/>
       <use x="159.033203" xlink:href="#DejaVuSans-50"/>
       <use x="222.65625" xlink:href="#DejaVuSans-53"/>
      </g>
     </g>
    </g>
    <g id="xtick_15">
     <g id="line2d_15">
      <g>
       <use style="stroke:#000000;stroke-width:0.8;" x="297.603265" xlink:href="#m03db9c44c3" y="224.64"/>
      </g>
     </g>
     <g id="text_15">
      <!-- 1.750 -->
      <g transform="translate(294.84389 231.64)rotate(-270)scale(0.1 -0.1)">
       <use xlink:href="#DejaVuSans-49"/>
       <use x="63.623047" xlink:href="#DejaVuSans-46"/>
       <use x="95.410156" xlink:href="#DejaVuSans-55"/>
       <use x="159.033203" xlink:href="#DejaVuSans-53"/>
       <use x="222.65625" xlink:href="#DejaVuSans-48"/>
      </g>
     </g>
    </g>
    <g id="xtick_16">
     <g id="line2d_16">
      <g>
       <use style="stroke:#000000;stroke-width:0.8;" x="313.303617" xlink:href="#m03db9c44c3" y="224.64"/>
      </g>
     </g>
     <g id="text_16">
      <!-- 1.875 -->
      <g transform="translate(310.544242 231.64)rotate(-270)scale(0.1 -0.1)">
       <use xlink:href="#DejaVuSans-49"/>
       <use x="63.623047" xlink:href="#DejaVuSans-46"/>
       <use x="95.410156" xlink:href="#DejaVuSans-56"/>
       <use x="159.033203" xlink:href="#DejaVuSans-55"/>
       <use x="222.65625" xlink:href="#DejaVuSans-53"/>
      </g>
     </g>
    </g>
    <g id="xtick_17">
     <g id="line2d_17">
      <g>
       <use style="stroke:#000000;stroke-width:0.8;" x="329.003969" xlink:href="#m03db9c44c3" y="224.64"/>
      </g>
     </g>
     <g id="text_17">
      <!-- 2.000 -->
      <g transform="translate(326.244594 231.64)rotate(-270)scale(0.1 -0.1)">
       <use xlink:href="#DejaVuSans-50"/>
       <use x="63.623047" xlink:href="#DejaVuSans-46"/>
       <use x="95.410156" xlink:href="#DejaVuSans-48"/>
       <use x="159.033203" xlink:href="#DejaVuSans-48"/>
       <use x="222.65625" xlink:href="#DejaVuSans-48"/>
      </g>
     </g>
    </g>
    <g id="xtick_18">
     <g id="line2d_18">
      <g>
       <use style="stroke:#000000;stroke-width:0.8;" x="344.704321" xlink:href="#m03db9c44c3" y="224.64"/>
      </g>
     </g>
     <g id="text_18">
      <!-- 2.125 -->
      <g transform="translate(341.944946 231.64)rotate(-270)scale(0.1 -0.1)">
       <use xlink:href="#DejaVuSans-50"/>
       <use x="63.623047" xlink:href="#DejaVuSans-46"/>
       <use x="95.410156" xlink:href="#DejaVuSans-49"/>
       <use x="159.033203" xlink:href="#DejaVuSans-50"/>
       <use x="222.65625" xlink:href="#DejaVuSans-53"/>
      </g>
     </g>
    </g>
    <g id="xtick_19">
     <g id="line2d_19">
      <g>
       <use style="stroke:#000000;stroke-width:0.8;" x="360.404674" xlink:href="#m03db9c44c3" y="224.64"/>
      </g>
     </g>
     <g id="text_19">
      <!-- 2.250 -->
      <g transform="translate(357.645299 231.64)rotate(-270)scale(0.1 -0.1)">
       <use xlink:href="#DejaVuSans-50"/>
       <use x="63.623047" xlink:href="#DejaVuSans-46"/>
       <use x="95.410156" xlink:href="#DejaVuSans-50"/>
       <use x="159.033203" xlink:href="#DejaVuSans-53"/>
       <use x="222.65625" xlink:href="#DejaVuSans-48"/>
      </g>
     </g>
    </g>
    <g id="xtick_20">
     <g id="line2d_20">
      <g>
       <use style="stroke:#000000;stroke-width:0.8;" x="376.105026" xlink:href="#m03db9c44c3" y="224.64"/>
      </g>
     </g>
     <g id="text_20">
      <!-- 2.375 -->
      <g transform="translate(373.345651 231.64)rotate(-270)scale(0.1 -0.1)">
       <use xlink:href="#DejaVuSans-50"/>
       <use x="63.623047" xlink:href="#DejaVuSans-46"/>
       <use x="95.410156" xlink:href="#DejaVuSans-51"/>
       <use x="159.033203" xlink:href="#DejaVuSans-55"/>
       <use x="222.65625" xlink:href="#DejaVuSans-53"/>
      </g>
     </g>
    </g>
    <g id="xtick_21">
     <g id="line2d_21">
      <g>
       <use style="stroke:#000000;stroke-width:0.8;" x="391.805378" xlink:href="#m03db9c44c3" y="224.64"/>
      </g>
     </g>
     <g id="text_21">
      <!-- 2.500 -->
      <g transform="translate(389.046003 231.64)rotate(-270)scale(0.1 -0.1)">
       <use xlink:href="#DejaVuSans-50"/>
       <use x="63.623047" xlink:href="#DejaVuSans-46"/>
       <use x="95.410156" xlink:href="#DejaVuSans-53"/>
       <use x="159.033203" xlink:href="#DejaVuSans-48"/>
       <use x="222.65625" xlink:href="#DejaVuSans-48"/>
      </g>
     </g>
    </g>
    <g id="text_22">
     <!-- Energy [MeV] -->
     <defs>
      <path d="M 9.8125 72.90625 
L 55.90625 72.90625 
L 55.90625 64.59375 
L 19.671875 64.59375 
L 19.671875 43.015625 
L 54.390625 43.015625 
L 54.390625 34.71875 
L 19.671875 34.71875 
L 19.671875 8.296875 
L 56.78125 8.296875 
L 56.78125 0 
L 9.8125 0 
z
" id="DejaVuSans-69"/>
      <path d="M 54.890625 33.015625 
L 54.890625 0 
L 45.90625 0 
L 45.90625 32.71875 
Q 45.90625 40.484375 42.875 44.328125 
Q 39.84375 48.1875 33.796875 48.1875 
Q 26.515625 48.1875 22.3125 43.546875 
Q 18.109375 38.921875 18.109375 30.90625 
L 18.109375 0 
L 9.078125 0 
L 9.078125 54.6875 
L 18.109375 54.6875 
L 18.109375 46.1875 
Q 21.34375 51.125 25.703125 53.5625 
Q 30.078125 56 35.796875 56 
Q 45.21875 56 50.046875 50.171875 
Q 54.890625 44.34375 54.890625 33.015625 
z
" id="DejaVuSans-110"/>
      <path d="M 56.203125 29.59375 
L 56.203125 25.203125 
L 14.890625 25.203125 
Q 15.484375 15.921875 20.484375 11.0625 
Q 25.484375 6.203125 34.421875 6.203125 
Q 39.59375 6.203125 44.453125 7.46875 
Q 49.3125 8.734375 54.109375 11.28125 
L 54.109375 2.78125 
Q 49.265625 0.734375 44.1875 -0.34375 
Q 39.109375 -1.421875 33.890625 -1.421875 
Q 20.796875 -1.421875 13.15625 6.1875 
Q 5.515625 13.8125 5.515625 26.8125 
Q 5.515625 40.234375 12.765625 48.109375 
Q 20.015625 56 32.328125 56 
Q 43.359375 56 49.78125 48.890625 
Q 56.203125 41.796875 56.203125 29.59375 
z
M 47.21875 32.234375 
Q 47.125 39.59375 43.09375 43.984375 
Q 39.0625 48.390625 32.421875 48.390625 
Q 24.90625 48.390625 20.390625 44.140625 
Q 15.875 39.890625 15.1875 32.171875 
z
" id="DejaVuSans-101"/>
      <path d="M 41.109375 46.296875 
Q 39.59375 47.171875 37.8125 47.578125 
Q 36.03125 48 33.890625 48 
Q 26.265625 48 22.1875 43.046875 
Q 18.109375 38.09375 18.109375 28.8125 
L 18.109375 0 
L 9.078125 0 
L 9.078125 54.6875 
L 18.109375 54.6875 
L 18.109375 46.1875 
Q 20.953125 51.171875 25.484375 53.578125 
Q 30.03125 56 36.53125 56 
Q 37.453125 56 38.578125 55.875 
Q 39.703125 55.765625 41.0625 55.515625 
z
" id="DejaVuSans-114"/>
      <path d="M 45.40625 27.984375 
Q 45.40625 37.75 41.375 43.109375 
Q 37.359375 48.484375 30.078125 48.484375 
Q 22.859375 48.484375 18.828125 43.109375 
Q 14.796875 37.75 14.796875 27.984375 
Q 14.796875 18.265625 18.828125 12.890625 
Q 22.859375 7.515625 30.078125 7.515625 
Q 37.359375 7.515625 41.375 12.890625 
Q 45.40625 18.265625 45.40625 27.984375 
z
M 54.390625 6.78125 
Q 54.390625 -7.171875 48.1875 -13.984375 
Q 42 -20.796875 29.203125 -20.796875 
Q 24.46875 -20.796875 20.265625 -20.09375 
Q 16.0625 -19.390625 12.109375 -17.921875 
L 12.109375 -9.1875 
Q 16.0625 -11.328125 19.921875 -12.34375 
Q 23.78125 -13.375 27.78125 -13.375 
Q 36.625 -13.375 41.015625 -8.765625 
Q 45.40625 -4.15625 45.40625 5.171875 
L 45.40625 9.625 
Q 42.625 4.78125 38.28125 2.390625 
Q 33.9375 0 27.875 0 
Q 17.828125 0 11.671875 7.65625 
Q 5.515625 15.328125 5.515625 27.984375 
Q 5.515625 40.671875 11.671875 48.328125 
Q 17.828125 56 27.875 56 
Q 33.9375 56 38.28125 53.609375 
Q 42.625 51.21875 45.40625 46.390625 
L 45.40625 54.6875 
L 54.390625 54.6875 
z
" id="DejaVuSans-103"/>
      <path d="M 32.171875 -5.078125 
Q 28.375 -14.84375 24.75 -17.8125 
Q 21.140625 -20.796875 15.09375 -20.796875 
L 7.90625 -20.796875 
L 7.90625 -13.28125 
L 13.1875 -13.28125 
Q 16.890625 -13.28125 18.9375 -11.515625 
Q 21 -9.765625 23.484375 -3.21875 
L 25.09375 0.875 
L 2.984375 54.6875 
L 12.5 54.6875 
L 29.59375 11.921875 
L 46.6875 54.6875 
L 56.203125 54.6875 
z
" id="DejaVuSans-121"/>
      <path id="DejaVuSans-32"/>
      <path d="M 8.59375 75.984375 
L 29.296875 75.984375 
L 29.296875 69 
L 17.578125 69 
L 17.578125 -6.203125 
L 29.296875 -6.203125 
L 29.296875 -13.1875 
L 8.59375 -13.1875 
z
" id="DejaVuSans-91"/>
      <path d="M 9.8125 72.90625 
L 24.515625 72.90625 
L 43.109375 23.296875 
L 61.8125 72.90625 
L 76.515625 72.90625 
L 76.515625 0 
L 66.890625 0 
L 66.890625 64.015625 
L 48.09375 14.015625 
L 38.1875 14.015625 
L 19.390625 64.015625 
L 19.390625 0 
L 9.8125 0 
z
" id="DejaVuSans-77"/>
      <path d="M 28.609375 0 
L 0.78125 72.90625 
L 11.078125 72.90625 
L 34.1875 11.53125 
L 57.328125 72.90625 
L 67.578125 72.90625 
L 39.796875 0 
z
" id="DejaVuSans-86"/>
      <path d="M 30.421875 75.984375 
L 30.421875 -13.1875 
L 9.71875 -13.1875 
L 9.71875 -6.203125 
L 21.390625 -6.203125 
L 21.390625 69 
L 9.71875 69 
L 9.71875 75.984375 
z
" id="DejaVuSans-93"/>
     </defs>
     <g transform="translate(198.391406 271.866562)scale(0.1 -0.1)">
      <use xlink:href="#DejaVuSans-69"/>
      <use x="63.183594" xlink:href="#DejaVuSans-110"/>
      <use x="126.5625" xlink:href="#DejaVuSans-101"/>
      <use x="188.085938" xlink:href="#DejaVuSans-114"/>
      <use x="229.183594" xlink:href="#DejaVuSans-103"/>
      <use x="292.660156" xlink:href="#DejaVuSans-121"/>
      <use x="351.839844" xlink:href="#DejaVuSans-32"/>
      <use x="383.626953" xlink:href="#DejaVuSans-91"/>
      <use x="422.640625" xlink:href="#DejaVuSans-77"/>
      <use x="508.919922" xlink:href="#DejaVuSans-101"/>
      <use x="570.443359" xlink:href="#DejaVuSans-86"/>
      <use x="638.851562" xlink:href="#DejaVuSans-93"/>
     </g>
    </g>
   </g>
   <g id="matplotlib.axis_2">
    <g id="ytick_1">
     <g id="line2d_22">
      <defs>
       <path d="M 0 0 
L -3.5 0 
" id="m513c23fe86" style="stroke:#000000;stroke-width:0.8;"/>
      </defs>
      <g>
       <use style="stroke:#000000;stroke-width:0.8;" x="64.885938" xlink:href="#m513c23fe86" y="206.892074"/>
      </g>
     </g>
     <g id="text_23">
      <!-- 0.030 -->
      <defs>
       <path d="M 10.59375 35.5 
L 73.1875 35.5 
L 73.1875 27.203125 
L 10.59375 27.203125 
z
" id="DejaVuSans-8722"/>
      </defs>
      <g transform="translate(20.878125 210.691293)scale(0.1 -0.1)">
       <use xlink:href="#DejaVuSans-8722"/>
       <use x="83.789062" xlink:href="#DejaVuSans-48"/>
       <use x="147.412109" xlink:href="#DejaVuSans-46"/>
       <use x="179.199219" xlink:href="#DejaVuSans-48"/>
       <use x="242.822266" xlink:href="#DejaVuSans-51"/>
       <use x="306.445312" xlink:href="#DejaVuSans-48"/>
      </g>
     </g>
    </g>
    <g id="ytick_2">
     <g id="line2d_23">
      <g>
       <use style="stroke:#000000;stroke-width:0.8;" x="64.885938" xlink:href="#m513c23fe86" y="181.523397"/>
      </g>
     </g>
     <g id="text_24">
      <!-- 0.025 -->
      <g transform="translate(20.878125 185.322616)scale(0.1 -0.1)">
       <use xlink:href="#DejaVuSans-8722"/>
       <use x="83.789062" xlink:href="#DejaVuSans-48"/>
       <use x="147.412109" xlink:href="#DejaVuSans-46"/>
       <use x="179.199219" xlink:href="#DejaVuSans-48"/>
       <use x="242.822266" xlink:href="#DejaVuSans-50"/>
       <use x="306.445312" xlink:href="#DejaVuSans-53"/>
      </g>
     </g>
    </g>
    <g id="ytick_3">
     <g id="line2d_24">
      <g>
       <use style="stroke:#000000;stroke-width:0.8;" x="64.885938" xlink:href="#m513c23fe86" y="156.154721"/>
      </g>
     </g>
     <g id="text_25">
      <!-- 0.020 -->
      <g transform="translate(20.878125 159.95394)scale(0.1 -0.1)">
       <use xlink:href="#DejaVuSans-8722"/>
       <use x="83.789062" xlink:href="#DejaVuSans-48"/>
       <use x="147.412109" xlink:href="#DejaVuSans-46"/>
       <use x="179.199219" xlink:href="#DejaVuSans-48"/>
       <use x="242.822266" xlink:href="#DejaVuSans-50"/>
       <use x="306.445312" xlink:href="#DejaVuSans-48"/>
      </g>
     </g>
    </g>
    <g id="ytick_4">
     <g id="line2d_25">
      <g>
       <use style="stroke:#000000;stroke-width:0.8;" x="64.885938" xlink:href="#m513c23fe86" y="130.786044"/>
      </g>
     </g>
     <g id="text_26">
      <!-- 0.015 -->
      <g transform="translate(20.878125 134.585263)scale(0.1 -0.1)">
       <use xlink:href="#DejaVuSans-8722"/>
       <use x="83.789062" xlink:href="#DejaVuSans-48"/>
       <use x="147.412109" xlink:href="#DejaVuSans-46"/>
       <use x="179.199219" xlink:href="#DejaVuSans-48"/>
       <use x="242.822266" xlink:href="#DejaVuSans-49"/>
       <use x="306.445312" xlink:href="#DejaVuSans-53"/>
      </g>
     </g>
    </g>
    <g id="ytick_5">
     <g id="line2d_26">
      <g>
       <use style="stroke:#000000;stroke-width:0.8;" x="64.885938" xlink:href="#m513c23fe86" y="105.417368"/>
      </g>
     </g>
     <g id="text_27">
      <!-- 0.010 -->
      <g transform="translate(20.878125 109.216587)scale(0.1 -0.1)">
       <use xlink:href="#DejaVuSans-8722"/>
       <use x="83.789062" xlink:href="#DejaVuSans-48"/>
       <use x="147.412109" xlink:href="#DejaVuSans-46"/>
       <use x="179.199219" xlink:href="#DejaVuSans-48"/>
       <use x="242.822266" xlink:href="#DejaVuSans-49"/>
       <use x="306.445312" xlink:href="#DejaVuSans-48"/>
      </g>
     </g>
    </g>
    <g id="ytick_6">
     <g id="line2d_27">
      <g>
       <use style="stroke:#000000;stroke-width:0.8;" x="64.885938" xlink:href="#m513c23fe86" y="80.048691"/>
      </g>
     </g>
     <g id="text_28">
      <!-- 0.005 -->
      <g transform="translate(20.878125 83.84791)scale(0.1 -0.1)">
       <use xlink:href="#DejaVuSans-8722"/>
       <use x="83.789062" xlink:href="#DejaVuSans-48"/>
       <use x="147.412109" xlink:href="#DejaVuSans-46"/>
       <use x="179.199219" xlink:href="#DejaVuSans-48"/>
       <use x="242.822266" xlink:href="#DejaVuSans-48"/>
       <use x="306.445312" xlink:href="#DejaVuSans-53"/>
      </g>
     </g>
    </g>
    <g id="ytick_7">
     <g id="line2d_28">
      <g>
       <use style="stroke:#000000;stroke-width:0.8;" x="64.885938" xlink:href="#m513c23fe86" y="54.680015"/>
      </g>
     </g>
     <g id="text_29">
      <!-- 0.000 -->
      <g transform="translate(29.257813 58.479234)scale(0.1 -0.1)">
       <use xlink:href="#DejaVuSans-48"/>
       <use x="63.623047" xlink:href="#DejaVuSans-46"/>
       <use x="95.410156" xlink:href="#DejaVuSans-48"/>
       <use x="159.033203" xlink:href="#DejaVuSans-48"/>
       <use x="222.65625" xlink:href="#DejaVuSans-48"/>
      </g>
     </g>
    </g>
    <g id="ytick_8">
     <g id="line2d_29">
      <g>
       <use style="stroke:#000000;stroke-width:0.8;" x="64.885938" xlink:href="#m513c23fe86" y="29.311338"/>
      </g>
     </g>
     <g id="text_30">
      <!-- 0.005 -->
      <g transform="translate(29.257813 33.110557)scale(0.1 -0.1)">
       <use xlink:href="#DejaVuSans-48"/>
       <use x="63.623047" xlink:href="#DejaVuSans-46"/>
       <use x="95.410156" xlink:href="#DejaVuSans-48"/>
       <use x="159.033203" xlink:href="#DejaVuSans-48"/>
       <use x="222.65625" xlink:href="#DejaVuSans-53"/>
      </g>
     </g>
    </g>
    <g id="text_31">
     <!-- Difference [1.00e+00 %] -->
     <defs>
      <path d="M 19.671875 64.796875 
L 19.671875 8.109375 
L 31.59375 8.109375 
Q 46.6875 8.109375 53.6875 14.9375 
Q 60.6875 21.78125 60.6875 36.53125 
Q 60.6875 51.171875 53.6875 57.984375 
Q 46.6875 64.796875 31.59375 64.796875 
z
M 9.8125 72.90625 
L 30.078125 72.90625 
Q 51.265625 72.90625 61.171875 64.09375 
Q 71.09375 55.28125 71.09375 36.53125 
Q 71.09375 17.671875 61.125 8.828125 
Q 51.171875 0 30.078125 0 
L 9.8125 0 
z
" id="DejaVuSans-68"/>
      <path d="M 9.421875 54.6875 
L 18.40625 54.6875 
L 18.40625 0 
L 9.421875 0 
z
M 9.421875 75.984375 
L 18.40625 75.984375 
L 18.40625 64.59375 
L 9.421875 64.59375 
z
" id="DejaVuSans-105"/>
      <path d="M 37.109375 75.984375 
L 37.109375 68.5 
L 28.515625 68.5 
Q 23.6875 68.5 21.796875 66.546875 
Q 19.921875 64.59375 19.921875 59.515625 
L 19.921875 54.6875 
L 34.71875 54.6875 
L 34.71875 47.703125 
L 19.921875 47.703125 
L 19.921875 0 
L 10.890625 0 
L 10.890625 47.703125 
L 2.296875 47.703125 
L 2.296875 54.6875 
L 10.890625 54.6875 
L 10.890625 58.5 
Q 10.890625 67.625 15.140625 71.796875 
Q 19.390625 75.984375 28.609375 75.984375 
z
" id="DejaVuSans-102"/>
      <path d="M 48.78125 52.59375 
L 48.78125 44.1875 
Q 44.96875 46.296875 41.140625 47.34375 
Q 37.3125 48.390625 33.40625 48.390625 
Q 24.65625 48.390625 19.8125 42.84375 
Q 14.984375 37.3125 14.984375 27.296875 
Q 14.984375 17.28125 19.8125 11.734375 
Q 24.65625 6.203125 33.40625 6.203125 
Q 37.3125 6.203125 41.140625 7.25 
Q 44.96875 8.296875 48.78125 10.40625 
L 48.78125 2.09375 
Q 45.015625 0.34375 40.984375 -0.53125 
Q 36.96875 -1.421875 32.421875 -1.421875 
Q 20.0625 -1.421875 12.78125 6.34375 
Q 5.515625 14.109375 5.515625 27.296875 
Q 5.515625 40.671875 12.859375 48.328125 
Q 20.21875 56 33.015625 56 
Q 37.15625 56 41.109375 55.140625 
Q 45.0625 54.296875 48.78125 52.59375 
z
" id="DejaVuSans-99"/>
      <path d="M 46 62.703125 
L 46 35.5 
L 73.1875 35.5 
L 73.1875 27.203125 
L 46 27.203125 
L 46 0 
L 37.796875 0 
L 37.796875 27.203125 
L 10.59375 27.203125 
L 10.59375 35.5 
L 37.796875 35.5 
L 37.796875 62.703125 
z
" id="DejaVuSans-43"/>
      <path d="M 72.703125 32.078125 
Q 68.453125 32.078125 66.03125 28.46875 
Q 63.625 24.859375 63.625 18.40625 
Q 63.625 12.0625 66.03125 8.421875 
Q 68.453125 4.78125 72.703125 4.78125 
Q 76.859375 4.78125 79.265625 8.421875 
Q 81.6875 12.0625 81.6875 18.40625 
Q 81.6875 24.8125 79.265625 28.4375 
Q 76.859375 32.078125 72.703125 32.078125 
z
M 72.703125 38.28125 
Q 80.421875 38.28125 84.953125 32.90625 
Q 89.5 27.546875 89.5 18.40625 
Q 89.5 9.28125 84.9375 3.921875 
Q 80.375 -1.421875 72.703125 -1.421875 
Q 64.890625 -1.421875 60.34375 3.921875 
Q 55.8125 9.28125 55.8125 18.40625 
Q 55.8125 27.59375 60.375 32.9375 
Q 64.9375 38.28125 72.703125 38.28125 
z
M 22.3125 68.015625 
Q 18.109375 68.015625 15.6875 64.375 
Q 13.28125 60.75 13.28125 54.390625 
Q 13.28125 47.953125 15.671875 44.328125 
Q 18.0625 40.71875 22.3125 40.71875 
Q 26.5625 40.71875 28.96875 44.328125 
Q 31.390625 47.953125 31.390625 54.390625 
Q 31.390625 60.6875 28.953125 64.34375 
Q 26.515625 68.015625 22.3125 68.015625 
z
M 66.40625 74.21875 
L 74.21875 74.21875 
L 28.609375 -1.421875 
L 20.796875 -1.421875 
z
M 22.3125 74.21875 
Q 30.03125 74.21875 34.609375 68.875 
Q 39.203125 63.53125 39.203125 54.390625 
Q 39.203125 45.171875 34.640625 39.84375 
Q 30.078125 34.515625 22.3125 34.515625 
Q 14.546875 34.515625 10.03125 39.859375 
Q 5.515625 45.21875 5.515625 54.390625 
Q 5.515625 63.484375 10.046875 68.84375 
Q 14.59375 74.21875 22.3125 74.21875 
z
" id="DejaVuSans-37"/>
     </defs>
     <g transform="translate(14.798438 178.473125)rotate(-90)scale(0.1 -0.1)">
      <use xlink:href="#DejaVuSans-68"/>
      <use x="77.001953" xlink:href="#DejaVuSans-105"/>
      <use x="104.785156" xlink:href="#DejaVuSans-102"/>
      <use x="139.990234" xlink:href="#DejaVuSans-102"/>
      <use x="175.195312" xlink:href="#DejaVuSans-101"/>
      <use x="236.71875" xlink:href="#DejaVuSans-114"/>
      <use x="277.800781" xlink:href="#DejaVuSans-101"/>
      <use x="339.324219" xlink:href="#DejaVuSans-110"/>
      <use x="402.703125" xlink:href="#DejaVuSans-99"/>
      <use x="457.683594" xlink:href="#DejaVuSans-101"/>
      <use x="519.207031" xlink:href="#DejaVuSans-32"/>
      <use x="550.994141" xlink:href="#DejaVuSans-91"/>
      <use x="590.007812" xlink:href="#DejaVuSans-49"/>
      <use x="653.630859" xlink:href="#DejaVuSans-46"/>
      <use x="685.417969" xlink:href="#DejaVuSans-48"/>
      <use x="749.041016" xlink:href="#DejaVuSans-48"/>
      <use x="812.664062" xlink:href="#DejaVuSans-101"/>
      <use x="874.1875" xlink:href="#DejaVuSans-43"/>
      <use x="957.976562" xlink:href="#DejaVuSans-48"/>
      <use x="1021.599609" xlink:href="#DejaVuSans-48"/>
      <use x="1085.222656" xlink:href="#DejaVuSans-32"/>
      <use x="1117.009766" xlink:href="#DejaVuSans-37"/>
      <use x="1212.029297" xlink:href="#DejaVuSans-93"/>
     </g>
    </g>
   </g>
   <g id="patch_201">
    <path d="M 64.885938 224.64 
L 64.885938 7.2 
" style="fill:none;stroke:#000000;stroke-linecap:square;stroke-linejoin:miter;stroke-width:0.8;"/>
   </g>
   <g id="patch_202">
    <path d="M 399.685938 224.64 
L 399.685938 7.2 
" style="fill:none;stroke:#000000;stroke-linecap:square;stroke-linejoin:miter;stroke-width:0.8;"/>
   </g>
   <g id="patch_203">
    <path d="M 64.885938 224.64 
L 399.685938 224.64 
" style="fill:none;stroke:#000000;stroke-linecap:square;stroke-linejoin:miter;stroke-width:0.8;"/>
   </g>
   <g id="patch_204">
    <path d="M 64.885938 7.2 
L 399.685938 7.2 
" style="fill:none;stroke:#000000;stroke-linecap:square;stroke-linejoin:miter;stroke-width:0.8;"/>
   </g>
  </g>
 </g>
 <defs>
  <clipPath id="p19c160e8de">
   <rect height="217.44" width="334.8" x="64.885938" y="7.2"/>
  </clipPath>
 </defs>
</svg>
