<?xml version="1.0" encoding="utf-8" standalone="no"?>
<!DOCTYPE svg PUBLIC "-//W3C//DTD SVG 1.1//EN"
  "http://www.w3.org/Graphics/SVG/1.1/DTD/svg11.dtd">
<svg height="262.19625pt" version="1.1" viewBox="0 0 382.603125 262.19625" width="382.603125pt" xmlns="http://www.w3.org/2000/svg" xmlns:xlink="http://www.w3.org/1999/xlink">
 <metadata>
  <rdf:RDF xmlns:cc="http://creativecommons.org/ns#" xmlns:dc="http://purl.org/dc/elements/1.1/" xmlns:rdf="http://www.w3.org/1999/02/22-rdf-syntax-ns#">
   <cc:Work>
    <dc:type rdf:resource="http://purl.org/dc/dcmitype/StillImage"/>
    <dc:date>2021-05-28T22:47:48.932668</dc:date>
    <dc:format>image/svg+xml</dc:format>
    <dc:creator>
     <cc:Agent>
      <dc:title>Matplotlib v3.4.2, https://matplotlib.org/</dc:title>
     </cc:Agent>
    </dc:creator>
   </cc:Work>
  </rdf:RDF>
 </metadata>
 <defs>
  <style type="text/css">*{stroke-linecap:butt;stroke-linejoin:round;}</style>
 </defs>
 <g id="figure_1">
  <g id="patch_1">
   <path d="M 0 262.19625 
L 382.603125 262.19625 
L 382.603125 0 
L 0 0 
z
" style="fill:none;"/>
  </g>
  <g id="axes_1">
   <g id="patch_2">
    <path d="M 40.603125 224.64 
L 375.403125 224.64 
L 375.403125 7.2 
L 40.603125 7.2 
z
" style="fill:#ffffff;"/>
   </g>
   <g id="matplotlib.axis_1">
    <g id="xtick_1">
     <g id="line2d_1">
      <defs>
       <path d="M 0 0 
L 0 3.5 
" id="m1b4fd86595" style="stroke:#000000;stroke-width:0.8;"/>
      </defs>
      <g>
       <use style="stroke:#000000;stroke-width:0.8;" x="121.780699" xlink:href="#m1b4fd86595" y="224.64"/>
      </g>
     </g>
     <g id="text_1">
      <!-- $\mathdefault{10^{2}}$ -->
      <g transform="translate(112.980699 239.238437)scale(0.1 -0.1)">
       <defs>
        <path d="M 794 531 
L 1825 531 
L 1825 4091 
L 703 3866 
L 703 4441 
L 1819 4666 
L 2450 4666 
L 2450 531 
L 3481 531 
L 3481 0 
L 794 0 
L 794 531 
z
" id="DejaVuSans-31" transform="scale(0.015625)"/>
        <path d="M 2034 4250 
Q 1547 4250 1301 3770 
Q 1056 3291 1056 2328 
Q 1056 1369 1301 889 
Q 1547 409 2034 409 
Q 2525 409 2770 889 
Q 3016 1369 3016 2328 
Q 3016 3291 2770 3770 
Q 2525 4250 2034 4250 
z
M 2034 4750 
Q 2819 4750 3233 4129 
Q 3647 3509 3647 2328 
Q 3647 1150 3233 529 
Q 2819 -91 2034 -91 
Q 1250 -91 836 529 
Q 422 1150 422 2328 
Q 422 3509 836 4129 
Q 1250 4750 2034 4750 
z
" id="DejaVuSans-30" transform="scale(0.015625)"/>
        <path d="M 1228 531 
L 3431 531 
L 3431 0 
L 469 0 
L 469 531 
Q 828 903 1448 1529 
Q 2069 2156 2228 2338 
Q 2531 2678 2651 2914 
Q 2772 3150 2772 3378 
Q 2772 3750 2511 3984 
Q 2250 4219 1831 4219 
Q 1534 4219 1204 4116 
Q 875 4013 500 3803 
L 500 4441 
Q 881 4594 1212 4672 
Q 1544 4750 1819 4750 
Q 2544 4750 2975 4387 
Q 3406 4025 3406 3419 
Q 3406 3131 3298 2873 
Q 3191 2616 2906 2266 
Q 2828 2175 2409 1742 
Q 1991 1309 1228 531 
z
" id="DejaVuSans-32" transform="scale(0.015625)"/>
       </defs>
       <use transform="translate(0 0.765625)" xlink:href="#DejaVuSans-31"/>
       <use transform="translate(63.623047 0.765625)" xlink:href="#DejaVuSans-30"/>
       <use transform="translate(128.203125 39.046875)scale(0.7)" xlink:href="#DejaVuSans-32"/>
      </g>
     </g>
    </g>
    <g id="xtick_2">
     <g id="line2d_2">
      <g>
       <use style="stroke:#000000;stroke-width:0.8;" x="231.336878" xlink:href="#m1b4fd86595" y="224.64"/>
      </g>
     </g>
     <g id="text_2">
      <!-- $\mathdefault{10^{3}}$ -->
      <g transform="translate(222.536878 239.238437)scale(0.1 -0.1)">
       <defs>
        <path d="M 2597 2516 
Q 3050 2419 3304 2112 
Q 3559 1806 3559 1356 
Q 3559 666 3084 287 
Q 2609 -91 1734 -91 
Q 1441 -91 1130 -33 
Q 819 25 488 141 
L 488 750 
Q 750 597 1062 519 
Q 1375 441 1716 441 
Q 2309 441 2620 675 
Q 2931 909 2931 1356 
Q 2931 1769 2642 2001 
Q 2353 2234 1838 2234 
L 1294 2234 
L 1294 2753 
L 1863 2753 
Q 2328 2753 2575 2939 
Q 2822 3125 2822 3475 
Q 2822 3834 2567 4026 
Q 2313 4219 1838 4219 
Q 1578 4219 1281 4162 
Q 984 4106 628 3988 
L 628 4550 
Q 988 4650 1302 4700 
Q 1616 4750 1894 4750 
Q 2613 4750 3031 4423 
Q 3450 4097 3450 3541 
Q 3450 3153 3228 2886 
Q 3006 2619 2597 2516 
z
" id="DejaVuSans-33" transform="scale(0.015625)"/>
       </defs>
       <use transform="translate(0 0.765625)" xlink:href="#DejaVuSans-31"/>
       <use transform="translate(63.623047 0.765625)" xlink:href="#DejaVuSans-30"/>
       <use transform="translate(128.203125 39.046875)scale(0.7)" xlink:href="#DejaVuSans-33"/>
      </g>
     </g>
    </g>
    <g id="xtick_3">
     <g id="line2d_3">
      <g>
       <use style="stroke:#000000;stroke-width:0.8;" x="340.893058" xlink:href="#m1b4fd86595" y="224.64"/>
      </g>
     </g>
     <g id="text_3">
      <!-- $\mathdefault{10^{4}}$ -->
      <g transform="translate(332.093058 239.238437)scale(0.1 -0.1)">
       <defs>
        <path d="M 2419 4116 
L 825 1625 
L 2419 1625 
L 2419 4116 
z
M 2253 4666 
L 3047 4666 
L 3047 1625 
L 3713 1625 
L 3713 1100 
L 3047 1100 
L 3047 0 
L 2419 0 
L 2419 1100 
L 313 1100 
L 313 1709 
L 2253 4666 
z
" id="DejaVuSans-34" transform="scale(0.015625)"/>
       </defs>
       <use transform="translate(0 0.684375)" xlink:href="#DejaVuSans-31"/>
       <use transform="translate(63.623047 0.684375)" xlink:href="#DejaVuSans-30"/>
       <use transform="translate(128.203125 38.965625)scale(0.7)" xlink:href="#DejaVuSans-34"/>
      </g>
     </g>
    </g>
    <g id="xtick_4">
     <g id="line2d_4">
      <defs>
       <path d="M 0 0 
L 0 2 
" id="m281ebea31c" style="stroke:#000000;stroke-width:0.6;"/>
      </defs>
      <g>
       <use style="stroke:#000000;stroke-width:0.6;" x="45.204216" xlink:href="#m281ebea31c" y="224.64"/>
      </g>
     </g>
    </g>
    <g id="xtick_5">
     <g id="line2d_5">
      <g>
       <use style="stroke:#000000;stroke-width:0.6;" x="64.496102" xlink:href="#m281ebea31c" y="224.64"/>
      </g>
     </g>
    </g>
    <g id="xtick_6">
     <g id="line2d_6">
      <g>
       <use style="stroke:#000000;stroke-width:0.6;" x="78.183912" xlink:href="#m281ebea31c" y="224.64"/>
      </g>
     </g>
    </g>
    <g id="xtick_7">
     <g id="line2d_7">
      <g>
       <use style="stroke:#000000;stroke-width:0.6;" x="88.801003" xlink:href="#m281ebea31c" y="224.64"/>
      </g>
     </g>
    </g>
    <g id="xtick_8">
     <g id="line2d_8">
      <g>
       <use style="stroke:#000000;stroke-width:0.6;" x="97.475798" xlink:href="#m281ebea31c" y="224.64"/>
      </g>
     </g>
    </g>
    <g id="xtick_9">
     <g id="line2d_9">
      <g>
       <use style="stroke:#000000;stroke-width:0.6;" x="104.810232" xlink:href="#m281ebea31c" y="224.64"/>
      </g>
     </g>
    </g>
    <g id="xtick_10">
     <g id="line2d_10">
      <g>
       <use style="stroke:#000000;stroke-width:0.6;" x="111.163608" xlink:href="#m281ebea31c" y="224.64"/>
      </g>
     </g>
    </g>
    <g id="xtick_11">
     <g id="line2d_11">
      <g>
       <use style="stroke:#000000;stroke-width:0.6;" x="116.767683" xlink:href="#m281ebea31c" y="224.64"/>
      </g>
     </g>
    </g>
    <g id="xtick_12">
     <g id="line2d_12">
      <g>
       <use style="stroke:#000000;stroke-width:0.6;" x="154.760395" xlink:href="#m281ebea31c" y="224.64"/>
      </g>
     </g>
    </g>
    <g id="xtick_13">
     <g id="line2d_13">
      <g>
       <use style="stroke:#000000;stroke-width:0.6;" x="174.052281" xlink:href="#m281ebea31c" y="224.64"/>
      </g>
     </g>
    </g>
    <g id="xtick_14">
     <g id="line2d_14">
      <g>
       <use style="stroke:#000000;stroke-width:0.6;" x="187.740091" xlink:href="#m281ebea31c" y="224.64"/>
      </g>
     </g>
    </g>
    <g id="xtick_15">
     <g id="line2d_15">
      <g>
       <use style="stroke:#000000;stroke-width:0.6;" x="198.357182" xlink:href="#m281ebea31c" y="224.64"/>
      </g>
     </g>
    </g>
    <g id="xtick_16">
     <g id="line2d_16">
      <g>
       <use style="stroke:#000000;stroke-width:0.6;" x="207.031977" xlink:href="#m281ebea31c" y="224.64"/>
      </g>
     </g>
    </g>
    <g id="xtick_17">
     <g id="line2d_17">
      <g>
       <use style="stroke:#000000;stroke-width:0.6;" x="214.366411" xlink:href="#m281ebea31c" y="224.64"/>
      </g>
     </g>
    </g>
    <g id="xtick_18">
     <g id="line2d_18">
      <g>
       <use style="stroke:#000000;stroke-width:0.6;" x="220.719788" xlink:href="#m281ebea31c" y="224.64"/>
      </g>
     </g>
    </g>
    <g id="xtick_19">
     <g id="line2d_19">
      <g>
       <use style="stroke:#000000;stroke-width:0.6;" x="226.323863" xlink:href="#m281ebea31c" y="224.64"/>
      </g>
     </g>
    </g>
    <g id="xtick_20">
     <g id="line2d_20">
      <g>
       <use style="stroke:#000000;stroke-width:0.6;" x="264.316575" xlink:href="#m281ebea31c" y="224.64"/>
      </g>
     </g>
    </g>
    <g id="xtick_21">
     <g id="line2d_21">
      <g>
       <use style="stroke:#000000;stroke-width:0.6;" x="283.60846" xlink:href="#m281ebea31c" y="224.64"/>
      </g>
     </g>
    </g>
    <g id="xtick_22">
     <g id="line2d_22">
      <g>
       <use style="stroke:#000000;stroke-width:0.6;" x="297.296271" xlink:href="#m281ebea31c" y="224.64"/>
      </g>
     </g>
    </g>
    <g id="xtick_23">
     <g id="line2d_23">
      <g>
       <use style="stroke:#000000;stroke-width:0.6;" x="307.913361" xlink:href="#m281ebea31c" y="224.64"/>
      </g>
     </g>
    </g>
    <g id="xtick_24">
     <g id="line2d_24">
      <g>
       <use style="stroke:#000000;stroke-width:0.6;" x="316.588156" xlink:href="#m281ebea31c" y="224.64"/>
      </g>
     </g>
    </g>
    <g id="xtick_25">
     <g id="line2d_25">
      <g>
       <use style="stroke:#000000;stroke-width:0.6;" x="323.922591" xlink:href="#m281ebea31c" y="224.64"/>
      </g>
     </g>
    </g>
    <g id="xtick_26">
     <g id="line2d_26">
      <g>
       <use style="stroke:#000000;stroke-width:0.6;" x="330.275967" xlink:href="#m281ebea31c" y="224.64"/>
      </g>
     </g>
    </g>
    <g id="xtick_27">
     <g id="line2d_27">
      <g>
       <use style="stroke:#000000;stroke-width:0.6;" x="335.880042" xlink:href="#m281ebea31c" y="224.64"/>
      </g>
     </g>
    </g>
    <g id="xtick_28">
     <g id="line2d_28">
      <g>
       <use style="stroke:#000000;stroke-width:0.6;" x="373.872754" xlink:href="#m281ebea31c" y="224.64"/>
      </g>
     </g>
    </g>
    <g id="text_4">
     <!-- Energy [keV] -->
     <g transform="translate(175.795312 252.916562)scale(0.1 -0.1)">
      <defs>
       <path d="M 628 4666 
L 3578 4666 
L 3578 4134 
L 1259 4134 
L 1259 2753 
L 3481 2753 
L 3481 2222 
L 1259 2222 
L 1259 531 
L 3634 531 
L 3634 0 
L 628 0 
L 628 4666 
z
" id="DejaVuSans-45" transform="scale(0.015625)"/>
       <path d="M 3513 2113 
L 3513 0 
L 2938 0 
L 2938 2094 
Q 2938 2591 2744 2837 
Q 2550 3084 2163 3084 
Q 1697 3084 1428 2787 
Q 1159 2491 1159 1978 
L 1159 0 
L 581 0 
L 581 3500 
L 1159 3500 
L 1159 2956 
Q 1366 3272 1645 3428 
Q 1925 3584 2291 3584 
Q 2894 3584 3203 3211 
Q 3513 2838 3513 2113 
z
" id="DejaVuSans-6e" transform="scale(0.015625)"/>
       <path d="M 3597 1894 
L 3597 1613 
L 953 1613 
Q 991 1019 1311 708 
Q 1631 397 2203 397 
Q 2534 397 2845 478 
Q 3156 559 3463 722 
L 3463 178 
Q 3153 47 2828 -22 
Q 2503 -91 2169 -91 
Q 1331 -91 842 396 
Q 353 884 353 1716 
Q 353 2575 817 3079 
Q 1281 3584 2069 3584 
Q 2775 3584 3186 3129 
Q 3597 2675 3597 1894 
z
M 3022 2063 
Q 3016 2534 2758 2815 
Q 2500 3097 2075 3097 
Q 1594 3097 1305 2825 
Q 1016 2553 972 2059 
L 3022 2063 
z
" id="DejaVuSans-65" transform="scale(0.015625)"/>
       <path d="M 2631 2963 
Q 2534 3019 2420 3045 
Q 2306 3072 2169 3072 
Q 1681 3072 1420 2755 
Q 1159 2438 1159 1844 
L 1159 0 
L 581 0 
L 581 3500 
L 1159 3500 
L 1159 2956 
Q 1341 3275 1631 3429 
Q 1922 3584 2338 3584 
Q 2397 3584 2469 3576 
Q 2541 3569 2628 3553 
L 2631 2963 
z
" id="DejaVuSans-72" transform="scale(0.015625)"/>
       <path d="M 2906 1791 
Q 2906 2416 2648 2759 
Q 2391 3103 1925 3103 
Q 1463 3103 1205 2759 
Q 947 2416 947 1791 
Q 947 1169 1205 825 
Q 1463 481 1925 481 
Q 2391 481 2648 825 
Q 2906 1169 2906 1791 
z
M 3481 434 
Q 3481 -459 3084 -895 
Q 2688 -1331 1869 -1331 
Q 1566 -1331 1297 -1286 
Q 1028 -1241 775 -1147 
L 775 -588 
Q 1028 -725 1275 -790 
Q 1522 -856 1778 -856 
Q 2344 -856 2625 -561 
Q 2906 -266 2906 331 
L 2906 616 
Q 2728 306 2450 153 
Q 2172 0 1784 0 
Q 1141 0 747 490 
Q 353 981 353 1791 
Q 353 2603 747 3093 
Q 1141 3584 1784 3584 
Q 2172 3584 2450 3431 
Q 2728 3278 2906 2969 
L 2906 3500 
L 3481 3500 
L 3481 434 
z
" id="DejaVuSans-67" transform="scale(0.015625)"/>
       <path d="M 2059 -325 
Q 1816 -950 1584 -1140 
Q 1353 -1331 966 -1331 
L 506 -1331 
L 506 -850 
L 844 -850 
Q 1081 -850 1212 -737 
Q 1344 -625 1503 -206 
L 1606 56 
L 191 3500 
L 800 3500 
L 1894 763 
L 2988 3500 
L 3597 3500 
L 2059 -325 
z
" id="DejaVuSans-79" transform="scale(0.015625)"/>
       <path id="DejaVuSans-20" transform="scale(0.015625)"/>
       <path d="M 550 4863 
L 1875 4863 
L 1875 4416 
L 1125 4416 
L 1125 -397 
L 1875 -397 
L 1875 -844 
L 550 -844 
L 550 4863 
z
" id="DejaVuSans-5b" transform="scale(0.015625)"/>
       <path d="M 581 4863 
L 1159 4863 
L 1159 1991 
L 2875 3500 
L 3609 3500 
L 1753 1863 
L 3688 0 
L 2938 0 
L 1159 1709 
L 1159 0 
L 581 0 
L 581 4863 
z
" id="DejaVuSans-6b" transform="scale(0.015625)"/>
       <path d="M 1831 0 
L 50 4666 
L 709 4666 
L 2188 738 
L 3669 4666 
L 4325 4666 
L 2547 0 
L 1831 0 
z
" id="DejaVuSans-56" transform="scale(0.015625)"/>
       <path d="M 1947 4863 
L 1947 -844 
L 622 -844 
L 622 -397 
L 1369 -397 
L 1369 4416 
L 622 4416 
L 622 4863 
L 1947 4863 
z
" id="DejaVuSans-5d" transform="scale(0.015625)"/>
      </defs>
      <use xlink:href="#DejaVuSans-45"/>
      <use x="63.183594" xlink:href="#DejaVuSans-6e"/>
      <use x="126.5625" xlink:href="#DejaVuSans-65"/>
      <use x="188.085938" xlink:href="#DejaVuSans-72"/>
      <use x="227.449219" xlink:href="#DejaVuSans-67"/>
      <use x="290.925781" xlink:href="#DejaVuSans-79"/>
      <use x="350.105469" xlink:href="#DejaVuSans-20"/>
      <use x="381.892578" xlink:href="#DejaVuSans-5b"/>
      <use x="420.90625" xlink:href="#DejaVuSans-6b"/>
      <use x="475.191406" xlink:href="#DejaVuSans-65"/>
      <use x="536.714844" xlink:href="#DejaVuSans-56"/>
      <use x="605.123047" xlink:href="#DejaVuSans-5d"/>
     </g>
    </g>
   </g>
   <g id="matplotlib.axis_2">
    <g id="ytick_1">
     <g id="line2d_29">
      <defs>
       <path d="M 0 0 
L -3.5 0 
" id="m518225cff8" style="stroke:#000000;stroke-width:0.8;"/>
      </defs>
      <g>
       <use style="stroke:#000000;stroke-width:0.8;" x="40.603125" xlink:href="#m518225cff8" y="191.794893"/>
      </g>
     </g>
     <g id="text_5">
      <!-- 20 -->
      <g transform="translate(20.878125 195.594112)scale(0.1 -0.1)">
       <use xlink:href="#DejaVuSans-32"/>
       <use x="63.623047" xlink:href="#DejaVuSans-30"/>
      </g>
     </g>
    </g>
    <g id="ytick_2">
     <g id="line2d_30">
      <g>
       <use style="stroke:#000000;stroke-width:0.8;" x="40.603125" xlink:href="#m518225cff8" y="144.628075"/>
      </g>
     </g>
     <g id="text_6">
      <!-- 22 -->
      <g transform="translate(20.878125 148.427294)scale(0.1 -0.1)">
       <use xlink:href="#DejaVuSans-32"/>
       <use x="63.623047" xlink:href="#DejaVuSans-32"/>
      </g>
     </g>
    </g>
    <g id="ytick_3">
     <g id="line2d_31">
      <g>
       <use style="stroke:#000000;stroke-width:0.8;" x="40.603125" xlink:href="#m518225cff8" y="97.461256"/>
      </g>
     </g>
     <g id="text_7">
      <!-- 24 -->
      <g transform="translate(20.878125 101.260475)scale(0.1 -0.1)">
       <use xlink:href="#DejaVuSans-32"/>
       <use x="63.623047" xlink:href="#DejaVuSans-34"/>
      </g>
     </g>
    </g>
    <g id="ytick_4">
     <g id="line2d_32">
      <g>
       <use style="stroke:#000000;stroke-width:0.8;" x="40.603125" xlink:href="#m518225cff8" y="50.294438"/>
      </g>
     </g>
     <g id="text_8">
      <!-- 26 -->
      <g transform="translate(20.878125 54.093657)scale(0.1 -0.1)">
       <defs>
        <path d="M 2113 2584 
Q 1688 2584 1439 2293 
Q 1191 2003 1191 1497 
Q 1191 994 1439 701 
Q 1688 409 2113 409 
Q 2538 409 2786 701 
Q 3034 994 3034 1497 
Q 3034 2003 2786 2293 
Q 2538 2584 2113 2584 
z
M 3366 4563 
L 3366 3988 
Q 3128 4100 2886 4159 
Q 2644 4219 2406 4219 
Q 1781 4219 1451 3797 
Q 1122 3375 1075 2522 
Q 1259 2794 1537 2939 
Q 1816 3084 2150 3084 
Q 2853 3084 3261 2657 
Q 3669 2231 3669 1497 
Q 3669 778 3244 343 
Q 2819 -91 2113 -91 
Q 1303 -91 875 529 
Q 447 1150 447 2328 
Q 447 3434 972 4092 
Q 1497 4750 2381 4750 
Q 2619 4750 2861 4703 
Q 3103 4656 3366 4563 
z
" id="DejaVuSans-36" transform="scale(0.015625)"/>
       </defs>
       <use xlink:href="#DejaVuSans-32"/>
       <use x="63.623047" xlink:href="#DejaVuSans-36"/>
      </g>
     </g>
    </g>
    <g id="text_9">
     <!-- $r_0$ [mm] -->
     <g transform="translate(14.798438 135.62)rotate(-90)scale(0.1 -0.1)">
      <defs>
       <path d="M 2853 2969 
Q 2766 3016 2653 3041 
Q 2541 3066 2413 3066 
Q 1953 3066 1609 2717 
Q 1266 2369 1153 1784 
L 800 0 
L 225 0 
L 909 3500 
L 1484 3500 
L 1375 2956 
Q 1603 3259 1920 3421 
Q 2238 3584 2597 3584 
Q 2691 3584 2781 3573 
Q 2872 3563 2963 3538 
L 2853 2969 
z
" id="DejaVuSans-Oblique-72" transform="scale(0.015625)"/>
       <path d="M 3328 2828 
Q 3544 3216 3844 3400 
Q 4144 3584 4550 3584 
Q 5097 3584 5394 3201 
Q 5691 2819 5691 2113 
L 5691 0 
L 5113 0 
L 5113 2094 
Q 5113 2597 4934 2840 
Q 4756 3084 4391 3084 
Q 3944 3084 3684 2787 
Q 3425 2491 3425 1978 
L 3425 0 
L 2847 0 
L 2847 2094 
Q 2847 2600 2669 2842 
Q 2491 3084 2119 3084 
Q 1678 3084 1418 2786 
Q 1159 2488 1159 1978 
L 1159 0 
L 581 0 
L 581 3500 
L 1159 3500 
L 1159 2956 
Q 1356 3278 1631 3431 
Q 1906 3584 2284 3584 
Q 2666 3584 2933 3390 
Q 3200 3197 3328 2828 
z
" id="DejaVuSans-6d" transform="scale(0.015625)"/>
      </defs>
      <use transform="translate(0 0.015625)" xlink:href="#DejaVuSans-Oblique-72"/>
      <use transform="translate(41.113281 -16.390625)scale(0.7)" xlink:href="#DejaVuSans-30"/>
      <use transform="translate(88.383789 0.015625)" xlink:href="#DejaVuSans-20"/>
      <use transform="translate(120.170898 0.015625)" xlink:href="#DejaVuSans-5b"/>
      <use transform="translate(159.18457 0.015625)" xlink:href="#DejaVuSans-6d"/>
      <use transform="translate(256.59668 0.015625)" xlink:href="#DejaVuSans-6d"/>
      <use transform="translate(354.008789 0.015625)" xlink:href="#DejaVuSans-5d"/>
     </g>
    </g>
   </g>
   <g id="LineCollection_1">
    <path clip-path="url(#pbad7a25c88)" d="M 55.821307 115.258737 
L 55.821307 17.083636 
" style="fill:none;stroke:#1f77b4;stroke-opacity:0.6;stroke-width:1.5;"/>
    <path clip-path="url(#pbad7a25c88)" d="M 97.475798 212.510241 
L 97.475798 154.173166 
" style="fill:none;stroke:#1f77b4;stroke-opacity:0.6;stroke-width:1.5;"/>
    <path clip-path="url(#pbad7a25c88)" d="M 121.780699 203.809828 
L 121.780699 158.105915 
" style="fill:none;stroke:#1f77b4;stroke-opacity:0.6;stroke-width:1.5;"/>
    <path clip-path="url(#pbad7a25c88)" d="M 141.072585 174.346576 
L 141.072585 140.527188 
" style="fill:none;stroke:#1f77b4;stroke-opacity:0.6;stroke-width:1.5;"/>
    <path clip-path="url(#pbad7a25c88)" d="M 165.377486 125.436038 
L 165.377486 106.518953 
" style="fill:none;stroke:#1f77b4;stroke-opacity:0.6;stroke-width:1.5;"/>
    <path clip-path="url(#pbad7a25c88)" d="M 207.031977 101.883369 
L 207.031977 88.39474 
" style="fill:none;stroke:#1f77b4;stroke-opacity:0.6;stroke-width:1.5;"/>
    <path clip-path="url(#pbad7a25c88)" d="M 231.336878 89.200625 
L 231.336878 72.577878 
" style="fill:none;stroke:#1f77b4;stroke-opacity:0.6;stroke-width:1.5;"/>
    <path clip-path="url(#pbad7a25c88)" d="M 250.628764 77.582768 
L 250.628764 64.839212 
" style="fill:none;stroke:#1f77b4;stroke-opacity:0.6;stroke-width:1.5;"/>
    <path clip-path="url(#pbad7a25c88)" d="M 274.933665 81.956359 
L 274.933665 67.242292 
" style="fill:none;stroke:#1f77b4;stroke-opacity:0.6;stroke-width:1.5;"/>
    <path clip-path="url(#pbad7a25c88)" d="M 316.588156 82.783086 
L 316.588156 52.707031 
" style="fill:none;stroke:#1f77b4;stroke-opacity:0.6;stroke-width:1.5;"/>
    <path clip-path="url(#pbad7a25c88)" d="M 340.893058 123.677938 
L 340.893058 63.342114 
" style="fill:none;stroke:#1f77b4;stroke-opacity:0.6;stroke-width:1.5;"/>
    <path clip-path="url(#pbad7a25c88)" d="M 360.184943 113.523896 
L 360.184943 64.627409 
" style="fill:none;stroke:#1f77b4;stroke-opacity:0.6;stroke-width:1.5;"/>
   </g>
   <g id="LineCollection_2">
    <path clip-path="url(#pbad7a25c88)" d="M 55.821307 115.390689 
L 55.821307 17.550731 
" style="fill:none;stroke:#ff7f0e;stroke-opacity:0.6;stroke-width:1.5;"/>
    <path clip-path="url(#pbad7a25c88)" d="M 97.475798 214.756364 
L 97.475798 158.8435 
" style="fill:none;stroke:#ff7f0e;stroke-opacity:0.6;stroke-width:1.5;"/>
    <path clip-path="url(#pbad7a25c88)" d="M 121.780699 205.181236 
L 121.780699 162.638168 
" style="fill:none;stroke:#ff7f0e;stroke-opacity:0.6;stroke-width:1.5;"/>
    <path clip-path="url(#pbad7a25c88)" d="M 141.072585 178.917838 
L 141.072585 147.555927 
" style="fill:none;stroke:#ff7f0e;stroke-opacity:0.6;stroke-width:1.5;"/>
    <path clip-path="url(#pbad7a25c88)" d="M 165.377486 141.12375 
L 165.377486 120.394763 
" style="fill:none;stroke:#ff7f0e;stroke-opacity:0.6;stroke-width:1.5;"/>
    <path clip-path="url(#pbad7a25c88)" d="M 207.031977 116.424866 
L 207.031977 101.171144 
" style="fill:none;stroke:#ff7f0e;stroke-opacity:0.6;stroke-width:1.5;"/>
    <path clip-path="url(#pbad7a25c88)" d="M 231.336878 107.284743 
L 231.336878 92.988098 
" style="fill:none;stroke:#ff7f0e;stroke-opacity:0.6;stroke-width:1.5;"/>
    <path clip-path="url(#pbad7a25c88)" d="M 250.628764 97.436014 
L 250.628764 84.361128 
" style="fill:none;stroke:#ff7f0e;stroke-opacity:0.6;stroke-width:1.5;"/>
    <path clip-path="url(#pbad7a25c88)" d="M 274.933665 98.512824 
L 274.933665 85.181058 
" style="fill:none;stroke:#ff7f0e;stroke-opacity:0.6;stroke-width:1.5;"/>
    <path clip-path="url(#pbad7a25c88)" d="M 316.588156 85.356795 
L 316.588156 78.575995 
" style="fill:none;stroke:#ff7f0e;stroke-opacity:0.6;stroke-width:1.5;"/>
    <path clip-path="url(#pbad7a25c88)" d="M 340.893058 96.316916 
L 340.893058 86.307649 
" style="fill:none;stroke:#ff7f0e;stroke-opacity:0.6;stroke-width:1.5;"/>
    <path clip-path="url(#pbad7a25c88)" d="M 360.184943 89.206623 
L 360.184943 81.596659 
" style="fill:none;stroke:#ff7f0e;stroke-opacity:0.6;stroke-width:1.5;"/>
   </g>
   <g id="line2d_33">
    <path clip-path="url(#pbad7a25c88)" d="M 55.821307 194.017727 
L 78.172004 187.712854 
L 93.318505 181.741198 
L 104.789816 176.08515 
L 114.025688 170.72803 
L 121.75688 165.654038 
L 128.405667 160.848212 
L 134.238245 156.296378 
L 139.433277 151.985112 
L 144.116507 147.901701 
L 152.292297 140.370909 
L 159.267068 133.615101 
L 170.740699 122.117633 
L 182.032091 110.848916 
L 189.461839 103.796024 
L 194.35988 99.425641 
L 198.800426 95.712218 
L 202.861689 92.556999 
L 206.603392 89.876075 
L 211.174428 86.917649 
L 215.344554 84.536789 
L 219.178459 82.620736 
L 222.726337 81.078749 
L 226.818721 79.567442 
L 230.586821 78.415463 
L 234.746847 77.388599 
L 239.180908 76.545515 
L 243.788926 75.903126 
L 248.984526 75.408375 
L 255.419796 75.043101 
L 263.686721 74.824876 
L 277.132911 74.73224 
L 339.705539 74.722309 
L 360.184943 74.722309 
L 360.184943 74.722309 
" style="fill:none;stroke:#1f77b4;stroke-linecap:square;stroke-opacity:0.3;stroke-width:1.5;"/>
   </g>
   <g id="line2d_34">
    <path clip-path="url(#pbad7a25c88)" d="M 55.821307 185.255812 
L 78.172004 181.591322 
L 93.318505 178.062435 
L 104.789816 174.664133 
L 114.025688 171.391584 
L 121.75688 168.240134 
L 128.405667 165.205302 
L 134.238245 162.282773 
L 139.433277 159.46839 
L 144.116507 156.758153 
L 152.292297 151.63484 
L 159.267068 146.883684 
L 165.348901 142.477651 
L 173.223535 136.461369 
L 184.001094 127.829887 
L 200.193055 114.761446 
L 206.603392 109.858594 
L 212.251722 105.798184 
L 217.300112 102.435462 
L 221.86386 99.650545 
L 226.02792 97.344152 
L 230.586821 95.093385 
L 234.746847 93.298337 
L 239.180908 91.658071 
L 243.236745 90.398322 
L 247.484535 89.312289 
L 251.849686 88.424647 
L 256.69242 87.678787 
L 261.844714 87.116537 
L 267.836694 86.695937 
L 275.186844 86.417173 
L 285.595314 86.268135 
L 308.496306 86.228084 
L 360.184943 86.227773 
L 360.184943 86.227773 
" style="fill:none;stroke:#ff7f0e;stroke-linecap:square;stroke-opacity:0.3;stroke-width:1.5;"/>
   </g>
   <g id="line2d_35">
    <defs>
     <path d="M 0 3 
C 0.795609 3 1.55874 2.683901 2.12132 2.12132 
C 2.683901 1.55874 3 0.795609 3 0 
C 3 -0.795609 2.683901 -1.55874 2.12132 -2.12132 
C 1.55874 -2.683901 0.795609 -3 0 -3 
C -0.795609 -3 -1.55874 -2.683901 -2.12132 -2.12132 
C -2.683901 -1.55874 -3 -0.795609 -3 0 
C -3 0.795609 -2.683901 1.55874 -2.12132 2.12132 
C -1.55874 2.683901 -0.795609 3 0 3 
z
" id="md16c543b3b" style="stroke:#1f77b4;stroke-opacity:0.6;"/>
    </defs>
    <g clip-path="url(#pbad7a25c88)">
     <use style="fill:#1f77b4;fill-opacity:0.6;stroke:#1f77b4;stroke-opacity:0.6;" x="55.821307" xlink:href="#md16c543b3b" y="66.171187"/>
     <use style="fill:#1f77b4;fill-opacity:0.6;stroke:#1f77b4;stroke-opacity:0.6;" x="97.475798" xlink:href="#md16c543b3b" y="183.341704"/>
     <use style="fill:#1f77b4;fill-opacity:0.6;stroke:#1f77b4;stroke-opacity:0.6;" x="121.780699" xlink:href="#md16c543b3b" y="180.957871"/>
     <use style="fill:#1f77b4;fill-opacity:0.6;stroke:#1f77b4;stroke-opacity:0.6;" x="141.072585" xlink:href="#md16c543b3b" y="157.436882"/>
     <use style="fill:#1f77b4;fill-opacity:0.6;stroke:#1f77b4;stroke-opacity:0.6;" x="165.377486" xlink:href="#md16c543b3b" y="115.977495"/>
     <use style="fill:#1f77b4;fill-opacity:0.6;stroke:#1f77b4;stroke-opacity:0.6;" x="207.031977" xlink:href="#md16c543b3b" y="95.139054"/>
     <use style="fill:#1f77b4;fill-opacity:0.6;stroke:#1f77b4;stroke-opacity:0.6;" x="231.336878" xlink:href="#md16c543b3b" y="80.889251"/>
     <use style="fill:#1f77b4;fill-opacity:0.6;stroke:#1f77b4;stroke-opacity:0.6;" x="250.628764" xlink:href="#md16c543b3b" y="71.21099"/>
     <use style="fill:#1f77b4;fill-opacity:0.6;stroke:#1f77b4;stroke-opacity:0.6;" x="274.933665" xlink:href="#md16c543b3b" y="74.599326"/>
     <use style="fill:#1f77b4;fill-opacity:0.6;stroke:#1f77b4;stroke-opacity:0.6;" x="316.588156" xlink:href="#md16c543b3b" y="67.745059"/>
     <use style="fill:#1f77b4;fill-opacity:0.6;stroke:#1f77b4;stroke-opacity:0.6;" x="340.893058" xlink:href="#md16c543b3b" y="93.510026"/>
     <use style="fill:#1f77b4;fill-opacity:0.6;stroke:#1f77b4;stroke-opacity:0.6;" x="360.184943" xlink:href="#md16c543b3b" y="89.075652"/>
    </g>
   </g>
   <g id="line2d_36">
    <defs>
     <path d="M 0 3 
C 0.795609 3 1.55874 2.683901 2.12132 2.12132 
C 2.683901 1.55874 3 0.795609 3 0 
C 3 -0.795609 2.683901 -1.55874 2.12132 -2.12132 
C 1.55874 -2.683901 0.795609 -3 0 -3 
C -0.795609 -3 -1.55874 -2.683901 -2.12132 -2.12132 
C -2.683901 -1.55874 -3 -0.795609 -3 0 
C -3 0.795609 -2.683901 1.55874 -2.12132 2.12132 
C -1.55874 2.683901 -0.795609 3 0 3 
z
" id="m74cd979d4e" style="stroke:#ff7f0e;stroke-opacity:0.6;"/>
    </defs>
    <g clip-path="url(#pbad7a25c88)">
     <use style="fill:#ff7f0e;fill-opacity:0.6;stroke:#ff7f0e;stroke-opacity:0.6;" x="55.821307" xlink:href="#m74cd979d4e" y="66.47071"/>
     <use style="fill:#ff7f0e;fill-opacity:0.6;stroke:#ff7f0e;stroke-opacity:0.6;" x="97.475798" xlink:href="#m74cd979d4e" y="186.799932"/>
     <use style="fill:#ff7f0e;fill-opacity:0.6;stroke:#ff7f0e;stroke-opacity:0.6;" x="121.780699" xlink:href="#m74cd979d4e" y="183.909702"/>
     <use style="fill:#ff7f0e;fill-opacity:0.6;stroke:#ff7f0e;stroke-opacity:0.6;" x="141.072585" xlink:href="#m74cd979d4e" y="163.236883"/>
     <use style="fill:#ff7f0e;fill-opacity:0.6;stroke:#ff7f0e;stroke-opacity:0.6;" x="165.377486" xlink:href="#m74cd979d4e" y="130.759256"/>
     <use style="fill:#ff7f0e;fill-opacity:0.6;stroke:#ff7f0e;stroke-opacity:0.6;" x="207.031977" xlink:href="#m74cd979d4e" y="108.798005"/>
     <use style="fill:#ff7f0e;fill-opacity:0.6;stroke:#ff7f0e;stroke-opacity:0.6;" x="231.336878" xlink:href="#m74cd979d4e" y="100.136421"/>
     <use style="fill:#ff7f0e;fill-opacity:0.6;stroke:#ff7f0e;stroke-opacity:0.6;" x="250.628764" xlink:href="#m74cd979d4e" y="90.898571"/>
     <use style="fill:#ff7f0e;fill-opacity:0.6;stroke:#ff7f0e;stroke-opacity:0.6;" x="274.933665" xlink:href="#m74cd979d4e" y="91.846941"/>
     <use style="fill:#ff7f0e;fill-opacity:0.6;stroke:#ff7f0e;stroke-opacity:0.6;" x="316.588156" xlink:href="#m74cd979d4e" y="81.966395"/>
     <use style="fill:#ff7f0e;fill-opacity:0.6;stroke:#ff7f0e;stroke-opacity:0.6;" x="340.893058" xlink:href="#m74cd979d4e" y="91.312283"/>
     <use style="fill:#ff7f0e;fill-opacity:0.6;stroke:#ff7f0e;stroke-opacity:0.6;" x="360.184943" xlink:href="#m74cd979d4e" y="85.401641"/>
    </g>
   </g>
   <g id="patch_3">
    <path d="M 40.603125 224.64 
L 40.603125 7.2 
" style="fill:none;stroke:#000000;stroke-linecap:square;stroke-linejoin:miter;stroke-width:0.8;"/>
   </g>
   <g id="patch_4">
    <path d="M 375.403125 224.64 
L 375.403125 7.2 
" style="fill:none;stroke:#000000;stroke-linecap:square;stroke-linejoin:miter;stroke-width:0.8;"/>
   </g>
   <g id="patch_5">
    <path d="M 40.603125 224.64 
L 375.403125 224.64 
" style="fill:none;stroke:#000000;stroke-linecap:square;stroke-linejoin:miter;stroke-width:0.8;"/>
   </g>
   <g id="patch_6">
    <path d="M 40.603125 7.2 
L 375.403125 7.2 
" style="fill:none;stroke:#000000;stroke-linecap:square;stroke-linejoin:miter;stroke-width:0.8;"/>
   </g>
   <g id="legend_1">
    <g id="patch_7">
     <path d="M 294.48125 219.64 
L 368.403125 219.64 
Q 370.403125 219.64 370.403125 217.64 
L 370.403125 159.9275 
Q 370.403125 157.9275 368.403125 157.9275 
L 294.48125 157.9275 
Q 292.48125 157.9275 292.48125 159.9275 
L 292.48125 217.64 
Q 292.48125 219.64 294.48125 219.64 
z
" style="fill:#ffffff;opacity:0.8;stroke:#cccccc;stroke-linejoin:miter;"/>
    </g>
    <g id="line2d_37">
     <path d="M 296.48125 166.025937 
L 316.48125 166.025937 
" style="fill:none;stroke:#1f77b4;stroke-linecap:square;stroke-opacity:0.3;stroke-width:1.5;"/>
    </g>
    <g id="line2d_38"/>
    <g id="text_10">
     <!-- Photo fit -->
     <g transform="translate(324.48125 169.525937)scale(0.1 -0.1)">
      <defs>
       <path d="M 1259 4147 
L 1259 2394 
L 2053 2394 
Q 2494 2394 2734 2622 
Q 2975 2850 2975 3272 
Q 2975 3691 2734 3919 
Q 2494 4147 2053 4147 
L 1259 4147 
z
M 628 4666 
L 2053 4666 
Q 2838 4666 3239 4311 
Q 3641 3956 3641 3272 
Q 3641 2581 3239 2228 
Q 2838 1875 2053 1875 
L 1259 1875 
L 1259 0 
L 628 0 
L 628 4666 
z
" id="DejaVuSans-50" transform="scale(0.015625)"/>
       <path d="M 3513 2113 
L 3513 0 
L 2938 0 
L 2938 2094 
Q 2938 2591 2744 2837 
Q 2550 3084 2163 3084 
Q 1697 3084 1428 2787 
Q 1159 2491 1159 1978 
L 1159 0 
L 581 0 
L 581 4863 
L 1159 4863 
L 1159 2956 
Q 1366 3272 1645 3428 
Q 1925 3584 2291 3584 
Q 2894 3584 3203 3211 
Q 3513 2838 3513 2113 
z
" id="DejaVuSans-68" transform="scale(0.015625)"/>
       <path d="M 1959 3097 
Q 1497 3097 1228 2736 
Q 959 2375 959 1747 
Q 959 1119 1226 758 
Q 1494 397 1959 397 
Q 2419 397 2687 759 
Q 2956 1122 2956 1747 
Q 2956 2369 2687 2733 
Q 2419 3097 1959 3097 
z
M 1959 3584 
Q 2709 3584 3137 3096 
Q 3566 2609 3566 1747 
Q 3566 888 3137 398 
Q 2709 -91 1959 -91 
Q 1206 -91 779 398 
Q 353 888 353 1747 
Q 353 2609 779 3096 
Q 1206 3584 1959 3584 
z
" id="DejaVuSans-6f" transform="scale(0.015625)"/>
       <path d="M 1172 4494 
L 1172 3500 
L 2356 3500 
L 2356 3053 
L 1172 3053 
L 1172 1153 
Q 1172 725 1289 603 
Q 1406 481 1766 481 
L 2356 481 
L 2356 0 
L 1766 0 
Q 1100 0 847 248 
Q 594 497 594 1153 
L 594 3053 
L 172 3053 
L 172 3500 
L 594 3500 
L 594 4494 
L 1172 4494 
z
" id="DejaVuSans-74" transform="scale(0.015625)"/>
       <path d="M 2375 4863 
L 2375 4384 
L 1825 4384 
Q 1516 4384 1395 4259 
Q 1275 4134 1275 3809 
L 1275 3500 
L 2222 3500 
L 2222 3053 
L 1275 3053 
L 1275 0 
L 697 0 
L 697 3053 
L 147 3053 
L 147 3500 
L 697 3500 
L 697 3744 
Q 697 4328 969 4595 
Q 1241 4863 1831 4863 
L 2375 4863 
z
" id="DejaVuSans-66" transform="scale(0.015625)"/>
       <path d="M 603 3500 
L 1178 3500 
L 1178 0 
L 603 0 
L 603 3500 
z
M 603 4863 
L 1178 4863 
L 1178 4134 
L 603 4134 
L 603 4863 
z
" id="DejaVuSans-69" transform="scale(0.015625)"/>
      </defs>
      <use xlink:href="#DejaVuSans-50"/>
      <use x="60.302734" xlink:href="#DejaVuSans-68"/>
      <use x="123.681641" xlink:href="#DejaVuSans-6f"/>
      <use x="184.863281" xlink:href="#DejaVuSans-74"/>
      <use x="224.072266" xlink:href="#DejaVuSans-6f"/>
      <use x="285.253906" xlink:href="#DejaVuSans-20"/>
      <use x="317.041016" xlink:href="#DejaVuSans-66"/>
      <use x="352.246094" xlink:href="#DejaVuSans-69"/>
      <use x="380.029297" xlink:href="#DejaVuSans-74"/>
     </g>
    </g>
    <g id="line2d_39">
     <path d="M 296.48125 180.704062 
L 316.48125 180.704062 
" style="fill:none;stroke:#ff7f0e;stroke-linecap:square;stroke-opacity:0.3;stroke-width:1.5;"/>
    </g>
    <g id="line2d_40"/>
    <g id="text_11">
     <!-- Total fit -->
     <g transform="translate(324.48125 184.204062)scale(0.1 -0.1)">
      <defs>
       <path d="M -19 4666 
L 3928 4666 
L 3928 4134 
L 2272 4134 
L 2272 0 
L 1638 0 
L 1638 4134 
L -19 4134 
L -19 4666 
z
" id="DejaVuSans-54" transform="scale(0.015625)"/>
       <path d="M 2194 1759 
Q 1497 1759 1228 1600 
Q 959 1441 959 1056 
Q 959 750 1161 570 
Q 1363 391 1709 391 
Q 2188 391 2477 730 
Q 2766 1069 2766 1631 
L 2766 1759 
L 2194 1759 
z
M 3341 1997 
L 3341 0 
L 2766 0 
L 2766 531 
Q 2569 213 2275 61 
Q 1981 -91 1556 -91 
Q 1019 -91 701 211 
Q 384 513 384 1019 
Q 384 1609 779 1909 
Q 1175 2209 1959 2209 
L 2766 2209 
L 2766 2266 
Q 2766 2663 2505 2880 
Q 2244 3097 1772 3097 
Q 1472 3097 1187 3025 
Q 903 2953 641 2809 
L 641 3341 
Q 956 3463 1253 3523 
Q 1550 3584 1831 3584 
Q 2591 3584 2966 3190 
Q 3341 2797 3341 1997 
z
" id="DejaVuSans-61" transform="scale(0.015625)"/>
       <path d="M 603 4863 
L 1178 4863 
L 1178 0 
L 603 0 
L 603 4863 
z
" id="DejaVuSans-6c" transform="scale(0.015625)"/>
      </defs>
      <use xlink:href="#DejaVuSans-54"/>
      <use x="44.083984" xlink:href="#DejaVuSans-6f"/>
      <use x="105.265625" xlink:href="#DejaVuSans-74"/>
      <use x="144.474609" xlink:href="#DejaVuSans-61"/>
      <use x="205.753906" xlink:href="#DejaVuSans-6c"/>
      <use x="233.537109" xlink:href="#DejaVuSans-20"/>
      <use x="265.324219" xlink:href="#DejaVuSans-66"/>
      <use x="300.529297" xlink:href="#DejaVuSans-69"/>
      <use x="328.3125" xlink:href="#DejaVuSans-74"/>
     </g>
    </g>
    <g id="LineCollection_3">
     <path d="M 306.48125 200.382187 
L 306.48125 190.382187 
" style="fill:none;stroke:#1f77b4;stroke-opacity:0.6;stroke-width:1.5;"/>
    </g>
    <g id="line2d_41"/>
    <g id="line2d_42">
     <g>
      <use style="fill:#1f77b4;fill-opacity:0.6;stroke:#1f77b4;stroke-opacity:0.6;" x="306.48125" xlink:href="#md16c543b3b" y="195.382187"/>
     </g>
    </g>
    <g id="text_12">
     <!-- Photo -->
     <g transform="translate(324.48125 198.882187)scale(0.1 -0.1)">
      <use xlink:href="#DejaVuSans-50"/>
      <use x="60.302734" xlink:href="#DejaVuSans-68"/>
      <use x="123.681641" xlink:href="#DejaVuSans-6f"/>
      <use x="184.863281" xlink:href="#DejaVuSans-74"/>
      <use x="224.072266" xlink:href="#DejaVuSans-6f"/>
     </g>
    </g>
    <g id="LineCollection_4">
     <path d="M 306.48125 215.060312 
L 306.48125 205.060312 
" style="fill:none;stroke:#ff7f0e;stroke-opacity:0.6;stroke-width:1.5;"/>
    </g>
    <g id="line2d_43"/>
    <g id="line2d_44">
     <g>
      <use style="fill:#ff7f0e;fill-opacity:0.6;stroke:#ff7f0e;stroke-opacity:0.6;" x="306.48125" xlink:href="#m74cd979d4e" y="210.060312"/>
     </g>
    </g>
    <g id="text_13">
     <!-- Total -->
     <g transform="translate(324.48125 213.560312)scale(0.1 -0.1)">
      <use xlink:href="#DejaVuSans-54"/>
      <use x="44.083984" xlink:href="#DejaVuSans-6f"/>
      <use x="105.265625" xlink:href="#DejaVuSans-74"/>
      <use x="144.474609" xlink:href="#DejaVuSans-61"/>
      <use x="205.753906" xlink:href="#DejaVuSans-6c"/>
     </g>
    </g>
   </g>
  </g>
 </g>
 <defs>
  <clipPath id="pbad7a25c88">
   <rect height="217.44" width="334.8" x="40.603125" y="7.2"/>
  </clipPath>
 </defs>
</svg>
